<?xml version="1.0" encoding="utf-8"?>
<!-- Generator: Adobe Illustrator 28.1.0, SVG Export Plug-In . SVG Version: 6.00 Build 0)  -->
<svg version="1.1" id="圖層_1" xmlns="http://www.w3.org/2000/svg" xmlns:xlink="http://www.w3.org/1999/xlink" x="0px" y="0px"
	 viewBox="0 0 211.1 67.8" style="enable-background:new 0 0 211.1 67.8;" xml:space="preserve">
<style type="text/css">
	.st0{fill:#F5EBD7;}
</style>
<path class="st0" d="M78.4,22.7h40.8c6.1,0.2,10.9,5.2,10.9,11.3l0,0c0,5.7-4.2,10.3-9.6,11.2H11.3C5.1,45.1,0,50.2,0,56.5
	s5.1,11.3,11.3,11.3h168.9c6.3,0,11.3-5.1,11.3-11.3s-5.1-11.3-11.3-11.3h-17.4c-5.4-0.8-9.6-5.5-9.6-11.2l0,0
	c0-6.1,4.8-11.1,10.9-11.3h35.6c6.3,0,11.3-5.1,11.3-11.3C211.1,5.1,206,0,199.8,0H78.4c-6.3,0-11.3,5.1-11.3,11.3
	C67.1,17.6,72.2,22.7,78.4,22.7z"/>
</svg>
