<?xml version="1.0" encoding="utf-8"?>
<!-- Generator: Adobe Illustrator 28.1.0, SVG Export Plug-In . SVG Version: 6.00 Build 0)  -->
<svg version="1.1" id="圖層_1" xmlns="http://www.w3.org/2000/svg" xmlns:xlink="http://www.w3.org/1999/xlink" x="0px" y="0px"
	 viewBox="0 0 129 72" style="enable-background:new 0 0 129 72;" xml:space="preserve">
<style type="text/css">
	.st0{fill:#FFFFFF;}
	.st1{fill:#FFC300;}
	.st2{fill:#E6A448;}
	.st3{fill:#B66216;}
	.st4{fill:#FDECD6;}
</style>
<circle class="st0" cx="93" cy="36" r="36"/>
<path class="st0" d="M75.5,63h-50C11.5,63,0,51.5,0,37.5v0C0,23.5,11.5,12,25.5,12h50c14,0,25.5,11.5,25.5,25.5v0
	C101,51.5,89.5,63,75.5,63z"/>
<g>
	<g>
		<ellipse class="st1" cx="93" cy="36" rx="29.4" ry="29.4"/>
		<path class="st2" d="M112.1,48.8c-7,10.5-21.3,13.4-31.8,6.3C69.8,48,66.9,33.8,74,23.3c7.1-10.5,21.4-13.4,31.9-6.3
			C116.3,24.1,119.2,38.3,112.1,48.8z"/>
	</g>
	<g>
		<path class="st3" d="M92.9,45.9L84.1,40c-1.4-0.9-1.7-2.7-0.9-4.1l5.9-8.8c0.9-1.4,2.7-1.7,4.1-0.9l8.8,5.9
			c1.4,0.9,1.7,2.7,0.9,4.1L97,45C96.1,46.4,94.3,46.8,92.9,45.9z"/>
		<path class="st4" d="M92.9,42.9l-6.2-4.2c-0.9-0.6-1.2-1.9-0.6-2.8l4.2-6.2c0.6-0.9,1.9-1.2,2.8-0.6l6.2,4.2
			c0.9,0.6,1.2,1.9,0.6,2.8l-4.2,6.2C95.1,43.3,93.9,43.5,92.9,42.9z"/>
	</g>
</g>
</svg>
