<?xml version="1.0" encoding="utf-8"?>
<!-- Generator: Adobe Illustrator 27.8.1, SVG Export Plug-In . SVG Version: 6.00 Build 0)  -->
<svg version="1.1" id="圖層_3" xmlns="http://www.w3.org/2000/svg" xmlns:xlink="http://www.w3.org/1999/xlink" x="0px" y="0px"
	 viewBox="0 0 370.4 761.3" style="enable-background:new 0 0 370.4 761.3;" xml:space="preserve">
<style type="text/css">
	.st0{display:none;}
	.st1{display:inline;}
	.st2{fill:#E6C5D2;}
	.st3{fill:#FFB1B8;}
	.st4{opacity:0.5;fill:#FFFFFF;}
	.st5{fill:#FFFFFF;}
	.st6{fill:#8CCFF1;}
	.st7{opacity:0.5;}
	.st8{fill:#FFD1B1;}
	.st9{fill:#C3DEA9;}
</style>
<g class="st0">
	<g class="st1">
		<g>
			<g>
				<path class="st2" d="M150.9,405.5c-6.8,7.2-13.2,14.9-18.9,23.1c-2.5,3.6-4.8,7.3-6.5,11.3c-2.4,5.7-4.8,11.5-5.4,17.7
					c-1.3,11.8,4.9,22.3,8.8,33c3.6,9.9,4.3,20.4,1.7,30.6c-2.8,11.2-9.1,21.4-18.2,28.5c-0.5,0.4,0.2,1,0.6,0.6
					c15.6-12.2,23.2-33.7,18.8-53.1c-2.6-11.3-9.5-21.2-10.9-32.8c-0.7-6.3,0.8-12.5,3-18.4c1.8-4.7,3.7-9.2,6.4-13.4
					c6-9.6,13.5-18.4,21.2-26.6C152,405.7,151.3,405.1,150.9,405.5L150.9,405.5z"/>
			</g>
		</g>
		<g>
			<path class="st3" d="M208.4,214.5c-33.5-9.7-76.1,1-97.6,39.7c-15.2,27.5-14.1,60.7-1.3,93.6c12.5,32.1,24.7,40.9,41.2,48.7
				c14.4,6.9,40.5,6.5,66.4-10c32.6-20.9,60.4-52.6,52.2-101.6C265.2,260,245.6,225.2,208.4,214.5z"/>
			<polygon class="st3" points="158.4,410 143.7,403.7 151.5,393.3 160.5,397.2 			"/>
			<g>
				<g>
					<path class="st4" d="M125.3,262.2c-0.6-0.5-0.8-1.3-0.3-2c8.1-13.2,21.1-23.7,35.7-28.8c14.9-5.2,31.2-5,45.9,0.5
						c0.8,0.3,1.2,1.2,0.9,1.9c-0.3,0.8-1.2,1.2-1.9,0.9c-13.9-5.2-29.9-5.3-43.9-0.5c-14,4.9-26.4,14.9-34.1,27.5
						c-0.4,0.7-1.4,0.9-2.1,0.5C125.4,262.3,125.3,262.2,125.3,262.2z"/>
				</g>
				<g>
					<path class="st4" d="M221.3,241.3l-6.1-3.3c-0.7-0.4-1-1.3-0.6-2.1c0.4-0.7,1.3-1,2.1-0.6l6.1,3.3c0.7,0.4,1,1.3,0.6,2.1
						C223,241.5,222,241.7,221.3,241.3z"/>
				</g>
			</g>
		</g>
	</g>
	<g class="st1">
		<g>
			<path class="st5" d="M171.4,276.8c-1.1,1.8-2.5,3.3-4,4.8v5.5c0,1.7-0.3,2.5-1.4,3c-1,0.5-2.6,0.6-4.9,0.6c-0.1-0.8-0.6-2.2-1-3
				c1.5,0.1,3.2,0.1,3.7,0.1c0.5,0,0.6-0.2,0.6-0.6v-3c-3.8,2.8-8.3,4.9-13.2,6.3c-0.4-0.7-1.4-2-1.9-2.6c4-1,7.6-2.4,10.8-4.4
				c-3.6,0.3-7,0.6-9.7,0.7l-0.3-2.6c0.9-0.1,1.9-0.1,3-0.2v-11.1h5c0.3-0.8,0.6-1.7,0.7-2.3l3.5,0.4c-0.4,0.7-0.7,1.4-1.1,1.9h6
				v6.8c0.5-0.6,0.8-1.1,1.2-1.8L171.4,276.8z M156.1,272.9v1.4h8.3v-1.4H156.1z M164.4,276.3h-8.3v1.4h8.3V276.3z M156.1,281.3
				c2.5-0.2,5.2-0.4,7.9-0.6l0.5-0.4v-0.6h-8.3V281.3z"/>
			<path class="st5" d="M182.1,279.4v8.7c0,1-0.2,1.6-0.8,1.9c-0.6,0.4-1.5,0.4-2.8,0.4c-0.1-0.6-0.4-1.5-0.6-2.1c0.6,0,1.4,0,1.6,0
				c0.3,0,0.3-0.1,0.3-0.3v-2.2c-0.8,0.6-1.6,1-2.3,1.5l-0.6-1.4c-0.2,1.7-0.6,3.3-1.5,4.6c-0.4-0.4-1.5-1.1-2-1.4
				c1.2-1.9,1.3-4.3,1.3-6.2v-3.7h-1.2v-3.7h0.9v-6.9h7.9v6.9h1v3.7h-1V279.4z M181.1,277.6h-5.6v0.9h5.6V277.6z M176.7,275.7h0.9
				v-3.9h2.3v-1h-3.2V275.7z M176.9,283.2c0,0.7,0,1.4-0.1,2.2c0.8-0.4,1.9-0.8,2.9-1.4v-1l-0.9,1c-0.4-0.4-1.1-1-1.9-1.6V283.2z
				 M176.9,281.9l0.8-0.8c0.7,0.5,1.5,1,2,1.5v-2H177L176.9,281.9L176.9,281.9z M179.9,275.7v-2.2H179v2.2H179.9z M195.8,288.2v2
				h-12.7v-2h2.9c-0.2-0.6-0.5-1.2-0.6-1.8l1.5-0.5h-2.6v-4.7h10.5v4.7h-2.8l1.9,0.5c-0.4,0.6-0.7,1.2-1,1.7L195.8,288.2
				L195.8,288.2z M195.6,280.4h-12.3v-2h12.3V280.4z M195.1,277.5h-11.5v-7.7h2.9v-1.7h2.2v1.7h1v-1.7h2.2v1.7h3.2V277.5z
				 M185.8,272.8h1.2v-1.1h-1.2V272.8z M185.8,275.7h1.2v-1.1h-1.2V275.7z M186.8,284.2h5.2v-1.3h-5.2V284.2z M187.5,285.9
				c0.3,0.7,0.6,1.6,0.8,2.2h1.9c0.3-0.7,0.6-1.6,0.8-2.2H187.5z M189.9,272.8v-1.1h-1.1v1.1H189.9z M188.8,274.5v1.1h1.1v-1.1
				H188.8z M193,271.7h-1.3v1.1h1.3V271.7z M193,274.5h-1.3v1.1h1.3V274.5z"/>
			<path class="st5" d="M219.7,285.1h-6.8c2.2,1,4.6,2.3,6.1,3.2l-1.9,2.2c-1.6-1-4.2-2.6-6.6-3.8l1.3-1.7h-7.1l2,1.7
				c-2,1.4-5.1,2.9-7.4,3.8c-0.4-0.6-1-1.6-1.6-2.1c2.1-0.8,4.9-2.1,6.5-3.3h-6.6v-2.7h2.1l-0.4-12.4c1.5-0.5,3.3-1.2,4.6-1.8
				l1.2,2.3c-1,0.4-2.1,0.6-3.2,0.9l0.1,2.1h2.8v2.3h-2.7l0.1,2h2.7v2.3h-2.6l0.1,2H215c0.1-0.6,0.1-1.3,0.1-1.9h-2.4v-2.3h2.5
				c0-0.6,0.1-1.4,0.1-2h-2.4v-2.3h2.5c0-0.7,0-1.4,0-2h-2.8v-2.5h5.4c0,4.3-0.1,9.6-0.3,13.3h2.1v2.7H219.7z M208.2,277.2
				c-0.2,1.6-0.6,3.2-1.2,4.2c-0.4-0.3-1.3-0.8-1.9-1.1c0.6-0.9,0.8-2.1,0.9-3.4L208.2,277.2z M209.4,276.3h-3.6v-8h2.4v1.7h3.8v2.3
				h-3.8v1.8h2.7v0.1h0.9v6.1c0,1-0.2,1.4-0.8,1.7c-0.6,0.3-1.6,0.3-2.8,0.3c-0.1-0.6-0.4-1.3-0.6-1.8c0.6,0.1,1.3,0.1,1.6,0
				c0.2,0,0.3-0.1,0.3-0.3L209.4,276.3L209.4,276.3z"/>
		</g>
		<g>
			<path class="st5" d="M159.2,303.7v2h-4.4l-0.2,1.9h-13.9l0.3-1.9h-3.8v-2h4.1l0.3-1.9h13.6l-0.2,1.9H159.2z M152.8,316.2
				c2.1,0.6,4.3,1.2,5.7,1.7l-1.9,1.8c-1.8-0.6-4.5-1.6-7.3-2.3l1-1.1h-4.4l1.5,1c-2,1-5.4,1.9-8.2,2.4c-0.4-0.6-1-1.4-1.5-1.9
				c2.1-0.3,4.6-0.8,6.3-1.5h-3.4v-7.8h15.8v7.8L152.8,316.2L152.8,316.2z M140.4,303.2h-2.6V299h8.8c-0.2-0.5-0.5-1-0.7-1.5
				l2.5-0.7c0.4,0.6,0.8,1.5,1.1,2.1h8.8v4.2h-2.6v-1.9h-15.3V303.2z M143.1,310.5h10v-0.7h-10V310.5z M143.1,312.6h10v-0.7h-10
				V312.6z M143.1,314.8h10V314h-10V314.8z M143.5,306.2h3.2l0.1-0.7h-3.2L143.5,306.2z M143.9,303.4l-0.1,0.7h3.2l0.1-0.7H143.9z
				 M152.1,306.2l0.1-0.7h-3.1l-0.1,0.7H152.1z M152.4,303.4h-3.1l-0.1,0.7h3.1L152.4,303.4z"/>
			<path class="st5" d="M172.2,307.5c-0.7,0.8-1.6,1.5-2.5,2.1c-0.3-0.5-0.9-1.3-1.4-1.7c0.2,0.8,0.3,1.6,0.3,2.3
				c0,1.6-0.3,2.6-1,3.2c-0.4,0.3-0.7,0.5-1.3,0.6c-0.4,0.1-0.9,0.1-1.5,0c0-0.6-0.3-1.7-0.6-2.3c0.4,0.1,0.7,0.1,0.9,0
				c0.3,0,0.5-0.1,0.6-0.2c0.3-0.2,0.4-0.7,0.4-1.5c0-1.1-0.3-2.7-1.5-4.4c0.5-1.5,0.9-3.4,1.3-5h-1.8v19h-2.5v-21.5h5.1l0.4-0.1
				l1.8,1c-0.3,1-0.6,2.1-0.9,3.2c1.3-1.3,2.3-3.1,3-4.9l2.1,0.5c-0.2,0.4-0.3,0.8-0.5,1.2h1.8l0.4-0.1l1.4,0.6l-0.1,0.5l1.2-0.3
				v-1.1h3.8l0.5-0.1l1.6,0.9c-0.6,1.9-1.8,4.1-2.9,5.6c0.9,1.3,2,2.3,3.3,3.1c-0.6,0.5-1.3,1.4-1.6,2c-1.1-0.6-2-1.6-2.9-2.5v1.5
				h-7v-1.4H172.2z M171.4,305c0.3-0.4,0.6-0.8,0.8-1.2c-0.5-0.5-1.1-1-1.7-1.5c-0.5,0.6-0.9,1.2-1.5,1.7c-0.3-0.3-0.8-0.7-1.3-1.1
				c-0.2,0.8-0.5,1.6-0.7,2.3c0.6,0.9,1,1.9,1.3,2.7c0.9-0.6,1.8-1.3,2.6-2.2c-0.9,0.2-1.8,0.3-2.7,0.5l-0.3-1.8
				c1-0.1,2-0.2,3.3-0.4L171.4,305z M173.3,314.2c-0.9,1.5-2.2,3.3-3.2,4.4c-0.6-0.5-1.7-1.1-2.3-1.5c1-1,2.2-2.5,3-3.8L173.3,314.2
				z M177.1,312.5v6.9h-2.7v-6.9h-4.5v-2.3h11.8v2.3H177.1z M171.8,300.6l-0.2,0.3c0.5,0.4,1,0.8,1.5,1.2c0.2-0.5,0.4-0.9,0.6-1.5
				L171.8,300.6L171.8,300.6z M178.6,306.3c-1.1-1.6-2-3.6-2.7-5.7c-0.6,2.2-1.6,4.2-2.7,5.7H178.6z M178.1,300.1
				c0.3,0.8,0.6,1.6,0.9,2.3c0.5-0.7,0.8-1.5,1.1-2.3H178.1z M180.4,313.1c1,1.2,2.6,2.9,3.2,3.9l-2.2,1.4c-0.6-1-2.1-2.8-3.2-4.1
				L180.4,313.1z"/>
			<path class="st5" d="M207.3,314.4h-8.2v5.2h-3v-5.2h-10.8v-2.8h3.8v-6.3h7v-2.9h-5.2c-1,1.7-2.1,3.2-3.2,4.4
				c-0.6-0.5-1.8-1.5-2.5-1.9c2.1-1.9,4-4.9,5.1-8.1l2.9,0.7c-0.2,0.6-0.5,1.3-0.8,1.9H206v2.8H199v2.9h6.4v2.7H199v3.7h8.2
				L207.3,314.4L207.3,314.4z M196.1,311.6v-3.7H192v3.7H196.1z"/>
			<path class="st5" d="M220.3,304.4h-11.2v-2.1h1.3v-3.9h2.1v3.9h1.3v-5.2h2.3v1.9h3.5v2h-3.5v1.3h4.1L220.3,304.4L220.3,304.4z
				 M227.2,297.9c-0.2,0.4-0.3,0.7-0.5,1.1c1.3,2.2,3.3,4.5,5.1,5.8c-0.6,0.5-1.3,1.5-1.7,2.2c-0.6-0.6-1.3-1.3-1.9-2v1.7h-5.2v-1.4
				c-0.6,0.7-1.1,1.4-1.8,2c-0.4-0.6-1.1-1.5-1.6-2V319h-1.9v-0.7h-8v-13.3h1.9v3.1c0.6-0.9,0.9-2,1-3.4l1.4,0.2
				c-0.1,0.6-0.2,1.1-0.3,1.7c0.3,0.3,0.6,0.6,0.8,1c0.5-0.8,0.7-1.8,0.9-2.9l1.4,0.2c-0.1,0.6-0.2,1.1-0.3,1.7
				c0.4,0.5,0.8,1,1.1,1.4v-3h2v0.1c2.1-2,4.1-5.3,5.2-8.1L227.2,297.9z M214,308.9c-0.2-0.3-0.4-0.6-0.6-0.9
				c-0.3,0.5-0.6,1-0.9,1.4c-0.2-0.2-0.5-0.6-0.7-0.8v0.8h6v-0.9l-0.7,0.9c-0.2-0.4-0.6-0.9-0.9-1.4c-0.3,0.5-0.6,1-1,1.4
				c-0.2-0.2-0.5-0.5-0.7-0.7L214,308.9z M217.8,311.4h-6v3.5c0.6-0.8,0.9-2,1-3.4l1.4,0.2c-0.1,0.6-0.2,1.1-0.3,1.7
				c0.3,0.4,0.6,0.7,0.8,1c0.5-0.8,0.7-1.9,0.8-2.9l1.3,0.2c-0.1,0.6-0.2,1.1-0.3,1.7c0.4,0.5,0.8,0.9,1.1,1.4L217.8,311.4
				L217.8,311.4z M211.8,316.2h0.6c-0.2-0.2-0.4-0.5-0.6-0.7V316.2z M214.1,316.1c-0.2-0.3-0.5-0.6-0.7-1c-0.2,0.5-0.5,0.9-0.8,1.3
				h2.5c-0.2-0.2-0.4-0.5-0.6-0.6L214.1,316.1z M217.1,316.2c-0.3-0.4-0.6-0.9-0.9-1.4c-0.3,0.5-0.6,0.9-0.9,1.4H217.1z
				 M217.8,316.2v-0.7l-0.6,0.7H217.8z M231.1,309.7c-1,2.2-2.7,4.4-4.1,6.2c0.7,0.7,1.3,1.4,1.9,1.9l-1.9,1.9
				c-1.1-1.4-3.4-3.8-5.1-5.4l1.7-1.7c0.5,0.5,1.1,1,1.8,1.6c0.8-1,1.7-2.2,2.4-3.4h-6.6v-2.4h7.9l0.4-0.2L231.1,309.7z
				 M227.7,304.3c-0.7-0.9-1.4-2-2-3.2c-0.6,1.1-1.2,2.1-1.9,3.2H227.7z"/>
		</g>
		<g>
			<path class="st5" d="M159.4,342.8c0,0.8,0.1,2,0.2,2.7c-6.8,1.7-7.9,2-8.6,2.5c-0.2-0.6-0.9-1.9-1.3-2.3c0.5-0.4,1.2-1,1.2-2.2
				v-17.4h3v7.1h5.4v2.8h-5.4v8.2L159.4,342.8z M167.2,345.2c0.9,0,1-0.8,1.2-4.1c0.7,0.6,1.9,1,2.7,1.3c-0.3,4.1-1,5.7-3.6,5.7
				h-3.2c-2.8,0-3.6-1-3.6-4.4v-17.7h3v7.1h5.8v2.8h-5.8v7.8c0,1.4,0.1,1.6,1,1.6L167.2,345.2L167.2,345.2z"/>
			<path class="st5" d="M195,335.3v3.2h-22.1v-3.2H195z"/>
			<path class="st5" d="M207.6,342.8c0,0.8,0.1,2,0.2,2.7c-6.8,1.7-7.9,2-8.6,2.5c-0.2-0.6-0.9-1.9-1.3-2.3c0.5-0.4,1.2-1,1.2-2.2
				v-17.4h3v7.1h5.4v2.8h-5.4v8.2L207.6,342.8z M215.4,345.2c0.9,0,1-0.8,1.2-4.1c0.7,0.6,1.9,1,2.7,1.3c-0.3,4.1-1,5.7-3.6,5.7
				h-3.2c-2.8,0-3.6-1-3.6-4.4v-17.7h3v7.1h5.8v2.8h-5.8v7.8c0,1.4,0.1,1.6,1,1.6L215.4,345.2L215.4,345.2z"/>
		</g>
	</g>
</g>
<g class="st0">
	<g class="st1">
		<g>
			<path class="st2" d="M65.9,761.3l-0.7-0.3c4.2-13,8.7-31.8,14-53.6c12.6-52.6,29.9-124.7,59.8-184.8
				c41.1-82.5,50.7-167.9,51.5-225.1c0.9-62-8.1-105-8.2-105.4l0.8-0.1c0.1,0.4,9.1,43.5,8.2,105.5c-0.8,57.3-10.4,142.9-51.6,225.5
				c-29.9,60-47.2,132-59.8,184.6C74.6,729.4,70.1,748.2,65.9,761.3z"/>
		</g>
		<path class="st6" d="M194.9,2.5c-16,3.4-38.6,17.7-51.2,38.6c-18.4,30.6-11.3,68,3.5,99.3c14.4,30.5,35.3,61.7,35.3,61.7
			s32.4-8.7,59.4-27.6c43.3-30.3,73.7-65.8,60-116.7C286.3-0.5,227.2-4.3,194.9,2.5z"/>
		<g class="st7">
			<g>
				<path class="st5" d="M147.1,96.7c-0.8,0-1.5-0.6-1.6-1.4c-2-16.3,1.9-33.7,10.7-47.6c9-14.1,22.6-24.7,38.5-29.9
					c0.8-0.3,1.8,0.2,2,1c0.3,0.8-0.2,1.8-1,2c-15,4.9-28.4,15.3-36.8,28.6c-8.4,13.3-12.1,29.9-10.2,45.5c0.1,0.9-0.5,1.7-1.4,1.8
					C147.2,96.7,147.1,96.7,147.1,96.7z"/>
			</g>
			<g>
				<path class="st5" d="M213.2,15.9l-7.2,1.3c-0.9,0.2-1.7-0.4-1.9-1.3c-0.2-0.9,0.4-1.7,1.3-1.9l7.2-1.3c0.9-0.2,1.7,0.4,1.9,1.3
					C214.6,14.9,214,15.7,213.2,15.9z"/>
			</g>
		</g>
		<polygon class="st6" points="187.9,212.7 172.8,207.7 179.7,196.7 189,199.8 		"/>
	</g>
	<g class="st1">
		<g>
			<path class="st5" d="M175.9,72.4c1-1.2,2.2-3.2,3-5l2.8,0.7c-0.8,1.9-1.9,4-3,5.4L175.9,72.4z M179.7,67.2H177V51.8h7.7v5.9
				c2.7-0.7,3.7-1.9,4.1-3.5h-3.4v-2.4h12.4c0,0,0,0.6-0.1,0.9c-0.2,3.2-0.4,4.8-0.9,5.4c-0.5,0.5-1,0.7-1.7,0.7
				c-0.6,0.1-1.7,0.1-2.8,0.1c-0.1-0.7-0.3-1.7-0.7-2.3c0.9,0.1,1.7,0.1,2.1,0.1c0.4,0,0.6-0.1,0.7-0.3c0.2-0.2,0.4-0.8,0.5-2.2
				h-3.3c-0.5,2.5-1.7,4.3-4.9,5.4h10.3v7.1H186v-6.9h-0.1c-0.3-0.6-0.8-1.5-1.4-2v8.2h-5v1.3H179.7z M179.7,54.3v3.2h2.3v-3.2
				H179.7z M182,63.5V60h-2.3v3.5H182z M185.5,68c0.3,1.6,0.6,3.6,0.6,4.9l-2.8,0.5c0-1.3-0.2-3.3-0.5-5L185.5,68z M190.6,67.8
				c0.6,1.5,1.2,3.5,1.4,4.9l-2.9,0.6c-0.2-1.3-0.7-3.3-1.3-5L190.6,67.8z M188.7,64.6h5.4V62h-5.4V64.6z M195.5,67.2
				c1,1.6,2.2,3.7,2.8,5l-2.8,1.2c-0.5-1.4-1.7-3.5-2.6-5.2L195.5,67.2z"/>
			<path class="st5" d="M208.8,57.2h-8.9V55h4.1c-0.4-0.9-0.9-2.1-1.5-3.1l2.1-1c0.6,1,1.4,2.3,1.8,3.2l-1.6,0.8h4.1L208.8,57.2
				L208.8,57.2z M221.5,66.7c-0.8,1.5-1.9,2.6-3.3,3.6c1.3,0.4,2.9,0.6,4.4,0.8c-0.6,0.6-1.3,1.6-1.6,2.2c-2.1-0.3-4-0.8-5.7-1.6
				c-1.9,0.7-4,1.3-6.2,1.7c-0.2-0.6-0.7-1.7-1.2-2.2v0.8h-4.9v1h-2.3v-8.3h7.2v6.4c1.7-0.2,3.3-0.5,4.8-0.9c-0.7-0.6-1.4-1.3-1.9-2
				l0.9-0.3h-2.6V66h10l0.5-0.1L221.5,66.7z M212.3,54.2h-3.3v-2.1h3.3v-1.2h2.5v4.4h-2l0.6,0.2c-0.2,0.4-0.3,0.7-0.5,1.1h2.1
				c-0.1-0.4-0.3-0.8-0.4-1.1l2-0.5v-4.2h2.5V52h3.2v2.1h-3.2v1.1h-1.8c0.2,0.4,0.3,0.8,0.4,1.3h4v1.8h-4.1v0.8h3.4v1.4h-3.4v0.8
				h3.4v1.4h-3.4v0.8h4.6v1.7h-9.5v0.5h-2.3v-4.9c-0.3,0.4-0.6,0.6-0.8,0.9c-0.3-0.5-0.9-1.6-1.4-2v0.8h-7v-2.2h7v1.3
				c1.2-1.1,2.3-2.9,2.9-4.6l1.3,0.4L212.3,54.2z M201,61.5h7v2.1h-7V61.5z M205.8,67.1h-2.5v2.7h2.5V67.1z M215.1,58.3h-2.5v0.8
				h2.5V58.3z M215.1,60.5h-2.5v0.8h2.5V60.5z M215.1,62.8h-2.5v0.8h2.5V62.8z M213.8,68c0.5,0.5,1,0.9,1.8,1.3
				c0.7-0.4,1.4-0.8,1.9-1.3H213.8z"/>
			<path class="st5" d="M231.3,65.9c-0.1-0.3-0.1-0.6-0.2-1c-4.8,0.7-5.7,0.9-6.2,1.1c-0.2-0.5-0.6-1.8-0.9-2.5
				c0.6-0.2,1.1-0.6,1.9-1.6c0.3-0.4,0.8-1,1.5-2c-1.8,0.2-2.3,0.4-2.7,0.6c-0.2-0.5-0.6-1.7-0.8-2.3c0.5-0.2,0.9-0.6,1.4-1.3
				c0.5-0.7,2-3.3,2.9-5.9l2.5,1c-0.8,1.9-2,4.1-3.2,5.7l1.6-0.1c0.6-1,1.1-2,1.6-3.2l2.3,1.5c-1.4,2.5-3.2,5.1-4.9,7.1l2.5-0.3
				c-0.2-0.6-0.4-1.3-0.6-1.9l2-0.6c0.6,1.6,1.3,3.7,1.5,5L231.3,65.9z M227.3,67.1c-0.2,2.2-0.6,4.6-1.1,6.2
				c-0.5-0.3-1.7-0.6-2.2-0.8c0.6-1.5,0.8-3.7,1-5.7L227.3,67.1z M229.7,66.7c0.3,1.6,0.6,3.6,0.6,5l-2.2,0.5c0-1.3-0.3-3.4-0.5-5
				L229.7,66.7z M232.1,66c0.5,1.2,0.9,2.7,1.1,3.7l-2,0.7c-0.2-1-0.6-2.6-1-3.8L232.1,66z M246.5,70.3v2.6h-13.8v-2.6h5.5v-3.3
				h-4.4v-2.6h11.7v2.6H241v3.3H246.5z M237.8,55.4c-0.7,1.3-1.6,2.6-2.3,3.7c1,1.3,1.9,2.8,2.5,3.9l-2.3,0.9
				c-0.6-1.3-1.6-3.1-2.9-4.7c1-1.5,1.9-3.2,2.5-4.4L237.8,55.4z M246.3,54.5h-13v-2.6h13V54.5z M239.8,63.9c-0.6-1.2-1.7-3-2.9-4.6
				c0.9-1.4,2-3.2,2.6-4.3l2.4,0.6c-0.7,1.2-1.6,2.6-2.3,3.7c1,1.3,2,2.8,2.5,3.7L239.8,63.9z M244.1,64c-0.6-1.3-1.9-3.1-3.2-4.7
				c1-1.4,2-3.2,2.7-4.4l2.5,0.6c-0.7,1.3-1.6,2.6-2.4,3.7c1.1,1.3,2.2,2.8,2.8,3.8L244.1,64z"/>
			<path class="st5" d="M247.9,71.3c0.5-1.4,0.8-3.6,1-5.2l1.4,0.5c-0.2,1.6-0.5,3.9-0.8,5.2L247.9,71.3z M262.4,66.5
				c-0.2,0.6-0.3,1.3-0.5,1.9c0.8,0.6,1.8,1.2,2.2,1.8l-1.4,1.9c-0.4-0.4-1-1-1.7-1.5c-0.6,1.2-1.3,2.2-2,3.1
				c-0.4-0.4-1.3-1.1-1.9-1.6c-0.1,0.3-0.2,0.4-0.3,0.6c-0.4,0.6-0.7,0.7-1.3,0.8c-0.5,0.1-1.2,0.1-2,0.1c0-0.6-0.3-1.6-0.6-2.1
				c0.6,0.1,1.1,0.1,1.4,0.1s0.5,0,0.6-0.3s0.3-0.8,0.4-2l-0.8,0.3c-0.2-0.8-0.6-2.1-0.9-3.2l1-0.4c0.3,0.7,0.6,1.6,0.8,2.3
				c0.1-0.7,0.1-1.8,0.1-2.9h-6.3V51.8h8.3v2.3h-2.5v1.6h2v0.6c2.6-1.4,4.9-3.6,6.2-5.7l2.6,0.9c-0.2,0.3-0.3,0.5-0.5,0.7
				c1.5,1.3,3.5,2.6,5.4,3.2c-0.4,0.6-0.9,1.9-1,2.6c-0.7-0.4-1.5-0.8-2.2-1.3v1.6h-7v-1.2c-0.6,0.4-1.1,0.7-1.7,1
				c-0.4-0.5-1-1.2-1.6-1.7v1.3h-2v1.4h2.1v2.1h-2.1v1.7h2.7c0,0,0,0.6,0,0.9c-0.1,4.4-0.3,6.8-0.6,7.9c1.4-1.4,2.3-3.4,2.8-5.7
				L262.4,66.5z M251.8,66.5c0.1,1.4,0.2,3.2,0.2,4.4l-1.3,0.2c0.1-1.2,0-3.1-0.1-4.4L251.8,66.5z M251.4,54.2v1.6h1.5v-1.6H251.4z
				 M253,57.9h-1.5v1.4h1.5V57.9z M251.4,62.9h1.5v-1.5h-1.5V62.9z M253.2,66.2c0.3,1.3,0.6,2.9,0.7,3.9l-1.3,0.3
				c-0.1-1-0.4-2.7-0.6-3.9L253.2,66.2z M258.4,59.7h5.2v5.8h-5.2V59.7z M260.3,63.8h1.3v-2.2h-1.3V63.8z M266.7,56.3
				c-0.9-0.7-1.9-1.4-2.7-2.1c-0.6,0.7-1.5,1.5-2.3,2.1H266.7z M268.4,66.4c-0.2,0.9-0.4,1.9-0.6,2.8c1,0.6,2.1,1.5,2.8,2.1
				l-1.7,1.9c-0.5-0.5-1.3-1.2-2.1-1.9c-0.4,0.7-0.9,1.5-1.4,2c-0.4-0.5-1.5-1.2-2-1.6c1.4-1.4,2.2-3.5,2.6-5.9L268.4,66.4z
				 M264.3,59.7h5.4v5.8h-5.4V59.7z M266.2,63.8h1.5v-2.2h-1.5V63.8z"/>
		</g>
		<g>
			<path class="st5" d="M201.6,89.3c1.6,4.7,4.5,8.5,9,10.3c-0.7,0.6-1.7,1.9-2.1,2.7c-4.4-2-7.1-5.6-9.1-10.2
				c-1.3,4-3.9,7.8-9,10.3c-0.5-0.8-1.3-1.9-2.1-2.4c5.6-2.5,7.8-6.5,8.7-10.6h-8.2v-3h8.8c0.3-2.2,0.2-4.4,0.3-6.4h3.2
				c0,1.9-0.1,4.2-0.3,6.4h9.4v3L201.6,89.3L201.6,89.3z"/>
			<path class="st5" d="M220.8,86.1h-8.6v-2.2h3.9c-0.4-0.9-0.9-2.1-1.5-3l2.1-0.8c0.6,1,1.4,2.3,1.8,3.2l-1.4,0.6h3.8L220.8,86.1
				L220.8,86.1z M233.9,99.4c0,1.2-0.2,1.9-0.9,2.3c-0.7,0.4-1.8,0.5-3.3,0.5c-0.1-0.6-0.4-1.8-0.7-2.4c1,0.1,1.9,0,2.2,0
				c0.3,0,0.4-0.1,0.4-0.5V91h-7.6c-0.1,3.6-0.5,8.3-2.2,11.4c-0.4-0.4-1.4-1.1-1.9-1.4h-4.4v0.9H213v-8.2h6.9v6.8
				c1.5-3.1,1.6-7.1,1.6-10.4v-9.4h12.2L233.9,99.4L233.9,99.4z M213.2,90.4h6.9v2.2h-6.9V90.4z M220.1,89.3h-6.9v-2.1h6.9V89.3z
				 M217.9,96h-2.5v2.7h2.5V96z M224,83.2V85h2.6v-1.8H224z M224,88.8h2.6v-1.6H224V88.8z M226.5,98.1v1.1h-1.9v-7h6.1v5.9H226.5z
				 M226.5,94.1v2h2v-2H226.5z M231.5,83.2h-2.7V85h2.7V83.2z M231.5,88.8v-1.6h-2.7v1.6H231.5z"/>
			<path class="st5" d="M240.5,90.4c-0.8,0.5-1.7,0.8-2.5,1.2c-0.4-0.6-1.2-1.8-1.9-2.3c2.7-0.8,5.3-2.5,7.1-4.3h-6.4v-2.5h9.2v-2.7
				h2.9v2.7h9.4V85h-6.1c2.3,1.4,4.7,3.1,6.2,4.3l-1.9,2c-1.7-1.5-4.9-3.8-7.6-5.5v3.4h-2.9v-3.6c-1.4,1.7-3.1,3.2-5,4.4h13.3v8h-14
				L240.5,90.4L240.5,90.4z M237,99.2h21v2.5h-21L237,99.2L237,99.2z M243.3,93.1h8.1v-1.2h-8.1L243.3,93.1L243.3,93.1z M243.3,96.1
				h8.1v-1.3h-8.1L243.3,96.1L243.3,96.1z"/>
		</g>
	</g>
</g>
<g class="st0">
	<g class="st1">
		<g>
			<path class="st2" d="M222.6,715.9l-0.7-0.2c7.7-52.1,9.7-101.9,11.4-145.7c1.1-28.7,2.2-55.9,4.7-79.5
				c1.3-12.3,3.4-26.4,5.3-38.9c1.7-11.2,3.1-20.9,3.7-27.3c13.9-146,8.8-148.5,8.6-149.2l0.7-0.2c0.2,0.7,5.4,3.4-8.5,149.6
				c-0.6,6.5-2.1,16.1-3.7,27.4c-1.9,12.4-4,26.6-5.3,38.9c-2.5,23.6-3.6,50.7-4.7,79.4C232.3,613.9,230.3,663.7,222.6,715.9z"/>
		</g>
		<path class="st8" d="M269.7,97.3c-13.6-32.8-69.8-75.7-137.2-35.8c-62,36.7-47,109.9-17.8,143.7c11.5,13.3,31.6,26.9,44,31.8
			c39.8,15.5,95.6,37.4,95.6,37.4s13.9-53.4,24.8-105.3C285.6,138.2,275,110.1,269.7,97.3z"/>
		<g class="st7">
			<g>
				<path class="st5" d="M108.1,163.1c-0.9,0.1-1.7-0.4-2-1.3c-4.9-17.3-3.6-36.7,3.7-53.2c7.3-16.7,20.4-30.5,36.7-38.7
					c0.9-0.4,1.9-0.1,2.4,0.8c0.4,0.9,0.1,1.9-0.8,2.4c-15.3,7.7-28.1,21.2-35,37c-6.9,15.7-8.2,34.3-3.5,50.8
					c0.3,0.9-0.3,1.9-1.2,2.2C108.3,163,108.2,163,108.1,163.1z"/>
			</g>
			<g>
				<path class="st5" d="M166.1,64.9l-7.6,2.6c-0.9,0.3-1.9-0.2-2.2-1.1c-0.3-0.9,0.2-1.9,1.1-2.2l7.6-2.6c0.9-0.3,1.9,0.2,2.2,1.1
					C167.6,63.5,167.1,64.5,166.1,64.9z"/>
			</g>
		</g>
		<polygon class="st8" points="265.2,274.7 252,283.6 247.4,271.5 255.6,266 		"/>
	</g>
	<g class="st1">
		<g>
			<path class="st5" d="M157.4,103c-1.3,0.9-2.9,1.9-4.3,2.7c1.5,0.9,3.3,1.6,5.5,1.9c-0.6,0.6-1.4,1.8-1.8,2.6
				c-5.4-1.2-8.6-4-10.7-8.4h-3.4v5.1l5.3-1c-0.2,0.7-0.3,1.9-0.3,2.6c-5.7,1.3-7,1.6-7.7,1.9l-0.2,0.1c-0.2-0.6-0.7-2.1-1.2-2.9
				c0.6-0.3,1.2-0.8,1.2-1.9v-4h-3.5v-2.5h4V88.6h15.2v2.3h-12.2v1.3h11.6v2.2h-11.6v1.3h11.6V98h-11.6v1.3h14.8v2.5h-2.6L157.4,103
				z M149.2,101.8c0.6,0.9,1.2,1.7,1.9,2.4c1.2-0.7,2.6-1.7,3.5-2.4H149.2z"/>
			<path class="st5" d="M165.8,105.5c-0.8,1.8-2.2,3.6-3.5,4.8c-0.6-0.5-1.7-1.3-2.3-1.7c1.3-0.9,2.5-2.5,3.2-3.9L165.8,105.5z
				 M171.9,104.6H160v-2.5h2.1v-8.9h-1.9v-2.6h1.9V88h2.6v2.6h3V88h2.6v2.6h1.7v2.5h-1.7v8.9h1.5L171.9,104.6L171.9,104.6z
				 M164.9,93.1v1.4h3v-1.4H164.9z M164.9,98.2h3v-1.5h-3V98.2z M164.9,102.1h3v-1.7h-3V102.1z M181.8,107.1c0,1.4-0.3,2.1-1.1,2.6
				s-2,0.6-3.9,0.5c-0.1-0.7-0.5-2-0.8-2.7c1,0.1,2.2,0.1,2.5,0.1c0.4,0,0.5-0.1,0.5-0.5v-4.7h-3.7c-0.3,2.9-0.8,5.8-2.1,8.1
				c-0.5-0.5-1.7-1.4-2.2-1.6c0.1-0.2,0.2-0.3,0.3-0.4l-2,1.1c-0.5-0.9-1.7-2.5-2.6-3.6l2.1-1.2c0.8,0.9,2,2.3,2.6,3.2
				c1.4-3,1.5-7,1.5-10.2v-8.8h8.9v18.1H181.8z M179,99.8v-3h-3.4v0.9c0,0.6,0,1.3,0,2H179z M175.6,91.5v2.8h3.4v-2.8H175.6z"/>
			<path class="st5" d="M184.2,109.3c1-1.2,2.2-3.2,3-5l2.8,0.7c-0.8,1.9-1.9,4-3,5.4L184.2,109.3z M188,104.1h-2.7V88.7h7.7v5.9
				c2.7-0.7,3.7-1.9,4.1-3.5h-3.4v-2.5h12.4c0,0,0,0.6-0.1,0.9c-0.2,3.2-0.4,4.8-0.9,5.4c-0.5,0.5-1,0.7-1.7,0.7
				c-0.6,0.1-1.7,0.1-2.8,0.1c-0.1-0.7-0.3-1.7-0.7-2.3c0.9,0.1,1.7,0.1,2.1,0.1c0.4,0,0.6-0.1,0.7-0.3s0.4-0.8,0.5-2.2h-3.3
				c-0.5,2.5-1.7,4.3-4.9,5.4h10.3v7.1h-10.9v-6.9h-0.1c-0.3-0.6-0.8-1.5-1.4-2v8.2h-5v1.4H188z M188,91.2v3.2h2.3v-3.2H188z
				 M190.3,100.4v-3.5H188v3.5H190.3z M193.9,104.9c0.3,1.6,0.6,3.6,0.6,4.9l-2.8,0.5c0-1.3-0.2-3.3-0.5-5L193.9,104.9z M199,104.6
				c0.6,1.5,1.2,3.5,1.4,4.9l-2.9,0.6c-0.2-1.3-0.7-3.3-1.3-5L199,104.6z M197.1,101.5h5.4v-2.6h-5.4V101.5z M203.9,104.1
				c1,1.6,2.2,3.7,2.8,5l-2.8,1.2c-0.5-1.4-1.7-3.5-2.6-5.2L203.9,104.1z"/>
			<path class="st5" d="M217.2,94.1h-8.9v-2.2h4.1c-0.4-0.9-0.9-2.1-1.5-3.1l2.1-1c0.6,1,1.4,2.3,1.8,3.2l-1.6,0.8h4.1L217.2,94.1
				L217.2,94.1z M229.9,103.6c-0.8,1.5-1.9,2.6-3.3,3.6c1.3,0.4,2.9,0.6,4.4,0.8c-0.6,0.6-1.3,1.6-1.6,2.2c-2.1-0.3-4-0.8-5.7-1.6
				c-1.9,0.7-4,1.3-6.2,1.7c-0.2-0.6-0.7-1.7-1.2-2.2v0.8h-4.9v1h-2.3v-8.3h7.2v6.4c1.7-0.2,3.3-0.5,4.8-0.9c-0.7-0.6-1.4-1.3-1.9-2
				l0.9-0.3h-2.6v-1.9h10l0.5-0.1L229.9,103.6z M220.6,91.1h-3.3V89h3.3v-1.2h2.5v4.4h-2l0.6,0.2c-0.2,0.4-0.3,0.7-0.5,1.1h2.1
				c-0.1-0.4-0.3-0.8-0.4-1.1l2-0.5v-4.1h2.5V89h3.2v2.1h-3.2v1.1h-1.8c0.2,0.4,0.3,0.8,0.4,1.3h4v1.7H226V96h3.4v1.4H226v0.8h3.4
				v1.4H226v0.8h4.6v1.7h-9.5v0.4h-2.3v-4.9c-0.3,0.4-0.6,0.6-0.8,0.9c-0.3-0.5-0.9-1.6-1.4-2v0.8h-7v-2.1h7v1.3
				c1.2-1.1,2.3-2.9,2.9-4.6l1.3,0.4L220.6,91.1z M209.3,98.3h7v2.1h-7V98.3z M214.2,104h-2.5v2.7h2.5V104z M223.5,95.2H221V96h2.5
				V95.2z M223.5,97.4H221v0.8h2.5V97.4z M223.5,99.7H221v0.8h2.5V99.7z M222.2,104.9c0.5,0.5,1,0.9,1.8,1.3
				c0.7-0.4,1.4-0.8,1.9-1.3H222.2z"/>
		</g>
		<g>
			<path class="st5" d="M170.5,135.1h-9.6v4.2h-3v-4.2h-9.4v-2.6h9.4v-1h-2.1v-7.6c-0.2,0.2-0.4,0.4-0.6,0.6c-0.5-0.5-1.4-1.2-2-1.7
				l-1.3,1.9c-0.8-0.6-2.5-1.5-3.7-1.9l1.5-1.9c1.1,0.4,2.7,1.1,3.5,1.7c1.9-1.4,3.7-3.6,4.6-5.8l2.7,0.8c-0.3,0.6-0.6,1.2-0.9,1.8
				h2.4c-0.2-0.6-0.5-1.1-0.6-1.6l2.8-0.7c0.4,0.7,0.8,1.6,1,2.3h4.4v2.1h-4.8v1.2h3.9v1.8h-3.9v1h3.9v1.8h-3.9v1.3h5.2v2.2h-11.3
				v0.4h2.2v1.5h9.6L170.5,135.1L170.5,135.1z M155.2,126.6c-1.4,1.7-2.9,3.4-4.4,5.1l-2-2.1c1.3-1.1,3.2-3.1,4.9-4.9L155.2,126.6z
				 M153.6,120.7c-0.8-0.6-2.4-1.6-3.7-2l1.5-1.9c1.2,0.5,2.9,1.3,3.7,1.9L153.6,120.7z M162.1,121.3h-3.3v1.2h3.3V121.3z
				 M162.1,124.3h-3.3v1h3.3V124.3z M162.1,127h-3.3v1.3h3.3V127z"/>
			<path class="st5" d="M184.3,125.5c-0.3,0.5-0.6,0.8-0.8,1.3h10.3v9.9c0,1.1-0.2,1.7-0.9,2c-0.7,0.4-1.7,0.4-2.9,0.4
				c-0.1-0.6-0.5-1.6-0.7-2.1c0.6,0,1.4,0,1.6,0c0.3,0,0.4-0.1,0.4-0.3v-0.9h-2.8v3h-2.6v-3h-3.1c-0.3,1.4-0.8,2.7-1.7,3.7
				c-0.5-0.5-1.8-1.4-2.3-1.7c1.5-1.9,1.7-4.4,1.7-6.3v-1.3c-0.5,0.4-0.9,0.7-1.4,1c-0.3-0.6-1-1.6-1.5-2.2v10.3h-2.8v-11.9
				c-0.5,0.6-0.9,1.3-1.3,1.9c-0.3-0.6-0.9-2.3-1.4-3.1c1.9-2.2,3.6-5.7,4.6-9.3l2.7,0.7c-0.5,1.6-1.1,3.2-1.8,4.6v6.6
				c1.4-0.8,2.7-1.9,3.7-3.2h-2.7V123h4.2v-1.5h-3.4v-2.6h3.4V117h2.8v1.9h2.9V117h2.8v1.9h3v2.6h-3v1.5h3.5v2.7h-10.5V125.5z
				 M185.8,133.6v-1.3h-2.7c0,0.5,0,0.9-0.1,1.4L185.8,133.6L185.8,133.6z M183.1,130.3h2.6V129h-2.6V130.3z M185.4,122.8h2.9v-1.5
				h-2.9V122.8z M191.1,129h-2.7v1.3h2.7V129z M191.1,133.6v-1.3h-2.7v1.4L191.1,133.6L191.1,133.6z"/>
			<path class="st5" d="M209.2,126.3v2.5h7.7v2.6h-3.8l2.4,0.8c-0.8,1.4-1.8,2.8-2.5,3.8h5.2v2.6h-20.8V136h4.7
				c-0.4-1.1-1.2-2.7-2-3.9l1.9-0.8h-3.5v-2.6h7.7v-2.5h-4.9V125c-1,0.5-2,0.9-3.2,1.3c-0.4-0.8-1.2-1.9-1.9-2.7
				c4.5-1.3,8.9-3.7,11.1-7.3l2.7,1.2c-0.2,0.3-0.5,0.6-0.6,0.9c2.3,2.1,6.3,4.1,9.9,5.1c-0.6,0.6-1.6,1.8-1.9,2.5
				c-1.1-0.4-2.2-0.8-3.2-1.4v1.4h-4.8V126.3z M202.5,131.4c0.8,1.2,1.8,2.8,2.1,3.8l-1.9,0.8h3.5v-4.6H202.5z M211.9,123.7
				c-1.5-0.9-3-2-4.2-3.2c-1.1,1.2-2.5,2.2-3.9,3.2H211.9z M209.2,131.4v4.7h3l-1.6-0.6c0.7-1.1,1.7-2.8,2.1-4L209.2,131.4
				L209.2,131.4z"/>
		</g>
		<g>
			<g>
				<path class="st5" d="M182.7,157.4c-3.4,7.3-11.3,9.8-20.5,10.7c-0.2-0.8-0.7-2-1.1-2.8c3.8-0.3,7.4-0.8,10.5-1.9
					c-0.6-0.7-1.7-1.5-2.5-2.2c-0.9,0.5-2,0.9-3.2,1.3c-0.4-0.6-1.1-1.7-1.8-2.2c5-1.6,8.2-3.9,10.1-6.2l3.2,0.7
					c-0.5,0.6-0.9,1.1-1.5,1.6h4.4l0.6-0.2L182.7,157.4z M179.5,148.5c-3.2,5.6-9.9,8.5-16.9,9.8c-0.3-0.7-0.8-1.9-1.3-2.5
					c2.4-0.4,4.9-0.9,7.1-1.9c-0.6-0.6-1.5-1.5-2.3-2.1c-0.7,0.4-1.4,0.7-2.2,1.1c-0.5-0.6-1.3-1.7-1.9-2c3.9-1.5,6.8-3.5,8.3-5.4
					l3.1,0.7c-0.4,0.5-0.8,0.8-1.3,1.3h5.1l0.5-0.1L179.5,148.5z M168.9,150.1c-0.2,0.2-0.5,0.3-0.7,0.5c1,0.7,2,1.6,2.7,2.3
					c1.6-0.8,2.9-1.8,4-2.8H168.9z M172.8,159c-0.5,0.3-0.9,0.6-1.4,0.9c1,0.7,2,1.6,2.8,2.4c1.7-0.9,3-2,4.1-3.3H172.8z"/>
				<path class="st5" d="M204.1,159.2c-3.4,5.7-9.8,7.9-18.3,8.9c-0.3-0.8-0.8-2-1.3-2.8c8.1-0.6,14.1-2.4,17-7.3L204.1,159.2z
					 M191.7,149.8c-1.2,3.1-2.9,6.4-4.4,8.5c-0.6-0.4-1.8-1.1-2.5-1.4c1.6-1.9,3.2-5,4.2-7.8L191.7,149.8z M196.9,145.7v15H194v-15
					H196.9z M202.5,149c1.7,2.5,3.5,5.7,4.4,7.8l-2.5,1.5c-0.9-2.1-2.8-5.6-4.4-8L202.5,149z"/>
			</g>
			<path class="st5" d="M173.4,193.8c1.1,0.2,2.4,0.3,3.7,0.3c1,0,4.6,0,5.9,0c-0.4,0.6-0.8,1.9-1,2.8h-5.1c-4.8,0-8.6-0.8-11.1-4.5
				c-0.8,1.9-1.9,3.5-3.3,4.7c-0.5-0.6-1.4-1.5-2-1.9c2.6-2,3.7-5.9,4-9.3l3,0.4c-0.2,0.9-0.4,1.9-0.6,2.9c0.7,1.9,2,3.2,3.4,3.9
				v-8.5h-6.9v-8.8h17v8.8h-7v3h7.9v2.7h-7.9v3.7H173.4z M166.3,181.6h11v-3.3h-11V181.6z"/>
			<path class="st5" d="M194.6,185.4l1.8,0.7c-1.6,5.7-5.6,9-10.5,10.7c-0.3-0.6-0.9-1.6-1.5-2.1c1.9-0.6,3.6-1.4,5.1-2.6
				c-0.6-0.6-1.3-1.3-2-1.9c-0.4,0.3-0.8,0.6-1.3,0.8c-0.3-0.6-1.1-1.4-1.7-1.8c2.3-1.2,4.1-2.9,5.2-4.4c-1.1,0.7-2.2,1.3-3.5,1.9
				c-0.4-0.6-1-1.5-1.5-2c1.5-0.5,3-1.3,4.3-2.2c-0.5-0.5-1.2-1-1.9-1.6c-0.3,0.3-0.6,0.6-0.9,0.7c-0.4-0.5-1.1-1.3-1.8-1.7
				c2.3-1.6,3.9-3.7,4.8-5.5l2.5,0.5c-0.3,0.6-0.6,1.1-1,1.8h2.7l0.5-0.1l1.7,0.8c-0.9,2.7-2.5,4.8-4.4,6.4l1.9,0.4
				c-0.3,0.5-0.6,0.9-0.8,1.4h2L194.6,185.4z M188.9,179l-0.3,0.3c0.7,0.5,1.5,1,2,1.5c0.5-0.6,0.9-1.1,1.4-1.9L188.9,179L188.9,179
				z M190.2,187.9c-0.3,0.3-0.6,0.6-0.8,0.8c0.6,0.6,1.4,1.1,1.9,1.7c0.6-0.7,1.2-1.6,1.6-2.5H190.2z M206.6,179.3
				c-0.2,11.2-0.3,15-1.1,16.2c-0.6,0.8-1.1,1.1-1.9,1.3c-0.7,0.2-1.9,0.2-3.1,0.1c-0.1-0.8-0.4-1.9-0.8-2.8c1.1,0.1,2,0.1,2.6,0.1
				c0.4,0,0.6-0.1,0.8-0.5c0.6-0.6,0.6-4.1,0.8-13.3h-5.7c-0.4,0.7-0.7,1.4-1.2,2h5.7v8.8h-3.9v1.7h-2.3v-9.7
				c-0.3,0.4-0.6,0.7-0.8,1c-0.5-0.5-1.6-1.4-2.1-1.8c1.9-1.9,3.4-4.8,4.3-8l2.7,0.6c-0.3,0.9-0.6,1.9-1,2.8h7.1L206.6,179.3
				L206.6,179.3z M198.9,184.8v4.4h1.6v-4.4H198.9z"/>
		</g>
	</g>
</g>
<g class="st0">
	<g class="st1">
		<g>
			<path class="st2" d="M0.6,705.5L0,705c0.2-0.3,20.3-25.8,26.1-51.9c9.2-41.7,13.4-55.6,54.4-128.4c7.5-13.3,26.2-39,42.6-61.6
				c8.2-11.3,15.9-21.9,20.9-29.2c24.8-36.1,41.3-85.2,58.8-137.1c4.4-13,8.9-26.5,13.5-39.6l0.7,0.3c-4.6,13.1-9.2,26.6-13.5,39.6
				c-17.5,52-34,101-58.9,137.3c-5,7.3-12.8,18-20.9,29.2c-16.4,22.6-35.1,48.3-42.6,61.5c-41,72.6-45.1,86.5-54.4,128.2
				C21,679.5,0.8,705.2,0.6,705.5z"/>
		</g>
		<path class="st8" d="M197.9,108.2c5.2-12.7,16.8-35.2,47.2-45.8c29.4-10.3,54.7-8.4,80.5,5.4s34,35.6,38.8,46.9
			c6.5,15.7,10.5,38.7-3.1,66.4c-6.3,12.8-23.5,31.1-55.1,45.9c-47.1,22-96.8,42.7-96.8,42.7s-11.7-56-18-98.2
			C188.2,150.1,189.2,129.4,197.9,108.2z"/>
		<g class="st7">
			<g>
				<path class="st5" d="M204.5,136.2c-0.8-0.2-1.3-0.9-1.3-1.7c1.5-16.4,9-32.5,20.6-44.2c11.8-11.9,27.4-19.4,44-21
					c0.9-0.1,1.7,0.6,1.8,1.4c0.1,0.9-0.6,1.7-1.4,1.8c-15.6,1.6-31,8.9-42,20.1c-11.1,11.2-18.2,26.6-19.6,42.3
					c-0.1,0.9-0.9,1.5-1.7,1.5C204.6,136.2,204.6,136.2,204.5,136.2z"/>
			</g>
			<g>
				<path class="st5" d="M286.2,71.3l-7.4-0.3c-0.9,0-1.6-0.8-1.5-1.7c0-0.9,0.8-1.6,1.7-1.5l7.4,0.3c0.9,0,1.6,0.8,1.5,1.7
					C287.9,70.6,287.1,71.3,286.2,71.3z"/>
			</g>
		</g>
		<polygon class="st8" points="213.8,279 199.5,271.7 208,261.9 216.8,266.4 		"/>
	</g>
	<g class="st1">
		<g>
			<path class="st5" d="M252.5,129.6c1.6,0,1.9-0.4,2.1-2.8c0.6,0.5,1.9,0.9,2.8,1c-0.4,3.5-1.4,4.4-4.6,4.4h-6.1
				c-4,0-5.2-0.8-5.2-3.7v-3.2c-1.6,0.8-3.2,1.6-4.7,2.1c-0.5-0.6-1.5-1.9-2-2.5c3.1-1,5.9-2.4,8.7-4.1h-8.1v-2.7h7.6v-2.4h-5.5
				v-2.6h5.5v-2.9h2.9v2.9h5.3v1.3c0.9-1,1.9-2.1,2.6-3.2l2.8,1.4c-1.4,2-3.1,3.9-4.8,5.6h5.7v2.7h-8.7c-1.3,1-2.6,1.9-3.9,2.7h9.8
				v2.6h-9.8v2.4c0,0.9,0.4,1.1,2.3,1.1L252.5,129.6L252.5,129.6z M247.2,118.1c0.9-0.7,1.9-1.6,2.7-2.4h-4.3v2.4H247.2z"/>
			<path class="st5" d="M281.3,127.7h-8.2v5.2h-3v-5.2h-10.8v-2.8h3.8v-6.3h7v-2.9h-5.2c-1,1.7-2.1,3.2-3.2,4.4
				c-0.6-0.5-1.8-1.5-2.5-1.9c2.1-1.9,4-4.9,5.1-8.1l2.9,0.7c-0.2,0.6-0.5,1.3-0.8,1.9H280v2.8H273v2.9h6.4v2.7H273v3.7h8.2
				L281.3,127.7L281.3,127.7z M270.2,124.9v-3.7h-4.2v3.7H270.2z"/>
			<path class="st5" d="M305.3,129.3v2.8h-21.7v-2.8h9.3v-4.8h-6.5v-2.8h6.5v-4.3h-5c-0.7,1.3-1.5,2.6-2.2,3.5
				c-0.6-0.5-1.9-1.3-2.6-1.7c1.9-2,3.4-5.4,4.3-8.6l3,0.6c-0.4,1.1-0.7,2.3-1.1,3.4h3.7v-4.4h3v4.4h8.2v2.8h-8.2v4.3h7.2v2.8h-7.2
				v4.8L305.3,129.3L305.3,129.3z"/>
			<path class="st5" d="M311.9,121.9c-1-0.7-3.1-1.9-4.4-2.6l1.6-2.1c1.3,0.6,3.4,1.7,4.5,2.3L311.9,121.9z M307.8,130.5
				c1.3-1.9,3.2-4.8,4.5-7.6l2.1,1.9c-1.3,2.5-2.8,5.3-4.3,7.6L307.8,130.5z M312.9,115.4c-0.9-0.7-3-1.9-4.4-2.7l1.6-2
				c1.4,0.6,3.4,1.8,4.4,2.4L312.9,115.4z M323.6,120v3.1h4.9v9.6h-2.7v-0.8h-7.3v1h-2.6v-9.7h4.9v-3.1h-6.4v-2.8h6.4v-2.8
				c-1.6,0.3-3.2,0.4-4.7,0.6c-0.1-0.7-0.5-1.9-0.8-2.5c4.1-0.4,8.6-1.2,11.2-2.2l2.2,2.2c-1.6,0.6-3.3,1-5.3,1.4v3.3h6.1v2.8
				L323.6,120L323.6,120z M325.8,125.6h-7.3v3.5h7.2L325.8,125.6L325.8,125.6z"/>
		</g>
		<g>
			<path class="st5" d="M245.1,157.5h-9.6v4.2h-3v-4.2h-9.4v-2.6h9.4v-1h-2v-7.6c-0.2,0.2-0.4,0.4-0.6,0.6c-0.5-0.5-1.4-1.2-2-1.7
				l-1.3,1.9c-0.8-0.6-2.5-1.5-3.7-1.9l1.5-1.9c1.1,0.4,2.7,1.1,3.5,1.7c1.9-1.4,3.7-3.6,4.6-5.8l2.7,0.8c-0.3,0.6-0.6,1.2-0.9,1.8
				h2.4c-0.2-0.6-0.5-1.1-0.6-1.6l2.8-0.7c0.4,0.7,0.8,1.6,1,2.3h4.4v2.1h-4.8v1.2h3.9v1.8h-3.9v1h3.9v1.8h-3.9v1.3h5.2v2.2h-11.3
				v0.4h2.2v1.5h9.6V157.5z M229.8,149.1c-1.4,1.7-2.9,3.4-4.4,5.1l-2-2.1c1.3-1.1,3.2-3.1,4.9-4.9L229.8,149.1z M228.3,143.2
				c-0.8-0.6-2.4-1.6-3.7-2l1.5-1.9c1.2,0.5,2.9,1.3,3.7,1.9L228.3,143.2z M236.7,143.8h-3.4v1.2h3.3L236.7,143.8L236.7,143.8z
				 M236.7,146.8h-3.4v1h3.3L236.7,146.8L236.7,146.8z M236.7,149.5h-3.4v1.3h3.3L236.7,149.5L236.7,149.5z"/>
			<path class="st5" d="M258.9,147.9c-0.3,0.5-0.6,0.8-0.8,1.3h10.3v9.9c0,1.1-0.2,1.7-0.9,2c-0.7,0.4-1.7,0.4-2.9,0.4
				c-0.1-0.6-0.5-1.6-0.7-2.1c0.6,0,1.4,0,1.6,0c0.3,0,0.4-0.1,0.4-0.3v-0.9h-2.7v3h-2.6v-3h-3.2c-0.3,1.4-0.8,2.7-1.7,3.7
				c-0.5-0.5-1.8-1.4-2.3-1.7c1.5-1.9,1.7-4.4,1.7-6.3v-1.3c-0.5,0.4-0.9,0.7-1.4,1c-0.3-0.6-1-1.6-1.5-2.2v10.3h-2.8v-11.9
				c-0.5,0.6-0.9,1.3-1.3,1.9c-0.3-0.6-0.9-2.3-1.4-3.1c1.9-2.2,3.6-5.7,4.6-9.3l2.7,0.7c-0.5,1.6-1.1,3.2-1.8,4.6v6.6
				c1.4-0.8,2.7-1.9,3.7-3.2h-2.7v-2.7h4.2v-1.5H254v-2.6h3.4v-1.9h2.8v1.9h2.9v-1.9h2.8v1.9h3v2.6h-3.2v1.5h3.5v2.7h-10.3V147.9z
				 M260.4,156.1v-1.4h-2.7c0,0.5,0,0.9-0.1,1.4H260.4z M257.7,152.7h2.6v-1.3h-2.6V152.7z M260,145.3h2.9v-1.5H260V145.3z
				 M265.7,151.5H263v1.3h2.7V151.5z M265.7,156.1v-1.4H263v1.4H265.7z"/>
			<path class="st5" d="M283.8,148.8v2.5h7.7v2.6h-3.8l2.4,0.8c-0.8,1.4-1.8,2.8-2.5,3.8h5.2v2.6H272v-2.6h4.7
				c-0.4-1.1-1.2-2.7-2-3.9l1.9-0.8h-3.5v-2.6h7.7v-2.5h-4.9v-1.2c-1,0.5-2,0.9-3.2,1.3c-0.4-0.8-1.2-1.9-1.9-2.7
				c4.5-1.3,8.9-3.7,11.1-7.3l2.7,1.2c-0.2,0.3-0.5,0.6-0.6,0.9c2.3,2.1,6.3,4.1,9.9,5.1c-0.6,0.6-1.6,1.8-1.9,2.5
				c-1.1-0.4-2.2-0.8-3.2-1.4v1.4h-4.8V148.8z M277.1,153.9c0.8,1.2,1.8,2.8,2.1,3.8l-1.9,0.8h3.5v-4.7L277.1,153.9L277.1,153.9z
				 M286.5,146.1c-1.5-0.9-3-2-4.2-3.2c-1.1,1.2-2.5,2.2-3.9,3.2H286.5z M283.8,153.9v4.7h3l-1.6-0.6c0.7-1.1,1.7-2.8,2.1-4
				L283.8,153.9L283.8,153.9z"/>
			<path class="st5" d="M317.3,151c-3.4,7.3-11.3,9.8-20.5,10.7c-0.2-0.8-0.7-2-1.1-2.8c3.8-0.3,7.4-0.8,10.5-1.9
				c-0.6-0.7-1.7-1.5-2.5-2.2c-0.9,0.5-2,0.9-3.2,1.3c-0.4-0.6-1.1-1.7-1.8-2.2c5-1.6,8.2-3.9,10.1-6.2l3.2,0.7
				c-0.5,0.6-0.9,1.1-1.5,1.6h4.4l0.6-0.2L317.3,151z M314.1,142.1c-3.2,5.6-9.9,8.5-16.9,9.8c-0.3-0.7-0.8-1.9-1.3-2.5
				c2.4-0.4,4.9-0.9,7.1-1.9c-0.6-0.6-1.5-1.5-2.3-2.1c-0.7,0.4-1.4,0.7-2.2,1.1c-0.5-0.6-1.3-1.7-1.9-2c3.9-1.5,6.8-3.5,8.3-5.4
				l3.1,0.7c-0.4,0.5-0.8,0.8-1.3,1.3h5.1l0.5-0.1L314.1,142.1z M303.6,143.7c-0.2,0.2-0.5,0.3-0.7,0.5c1,0.7,2,1.6,2.7,2.3
				c1.6-0.8,2.9-1.8,4-2.8H303.6z M307.5,152.6c-0.5,0.3-0.9,0.6-1.4,0.9c1,0.7,2,1.6,2.8,2.4c1.7-0.9,3-2,4.1-3.3H307.5z"/>
			<path class="st5" d="M338.8,152.8c-3.4,5.7-9.8,7.9-18.3,8.9c-0.3-0.8-0.8-2-1.3-2.8c8.1-0.6,14.1-2.4,17-7.3L338.8,152.8z
				 M326.4,143.4c-1.2,3.1-2.9,6.4-4.4,8.5c-0.6-0.4-1.8-1.1-2.5-1.4c1.6-1.9,3.2-5,4.2-7.8L326.4,143.4z M331.7,139.2v15h-2.9v-15
				H331.7z M337.1,142.6c1.7,2.5,3.5,5.7,4.4,7.8l-2.5,1.5c-0.9-2.1-2.8-5.6-4.4-8L337.1,142.6z"/>
		</g>
		<g>
			<path class="st5" d="M272,187.3c1.1,0.2,2.4,0.3,3.7,0.3c1,0,4.6,0,5.9,0c-0.4,0.6-0.8,1.9-1,2.8h-5.1c-4.8,0-8.6-0.8-11.1-4.5
				c-0.8,1.9-1.9,3.5-3.3,4.7c-0.5-0.6-1.4-1.5-2-1.9c2.6-2,3.7-5.9,4-9.3l3,0.4c-0.2,0.9-0.4,1.9-0.6,2.9c0.7,1.9,2,3.2,3.4,3.9
				V178h-6.9v-8.8h17v8.8h-7v3h7.9v2.7h-7.9v3.7H272z M265,175.1h11v-3.3h-11V175.1z"/>
			<path class="st5" d="M293.2,179l1.8,0.7c-1.6,5.7-5.6,9-10.5,10.7c-0.3-0.6-0.9-1.6-1.5-2.1c1.9-0.6,3.6-1.4,5.1-2.6
				c-0.6-0.6-1.3-1.3-2-1.9c-0.4,0.3-0.8,0.6-1.3,0.8c-0.3-0.6-1.1-1.4-1.7-1.8c2.3-1.2,4.1-2.9,5.2-4.4c-1.1,0.7-2.2,1.3-3.5,1.9
				c-0.4-0.6-1-1.5-1.5-2c1.5-0.5,3-1.3,4.3-2.2c-0.5-0.5-1.2-1-1.9-1.6c-0.3,0.3-0.6,0.6-0.9,0.7c-0.4-0.5-1.1-1.3-1.8-1.7
				c2.3-1.6,3.9-3.7,4.8-5.5l2.5,0.5c-0.3,0.6-0.6,1.1-1,1.8h2.7l0.5-0.1l1.7,0.8c-0.9,2.7-2.5,4.8-4.4,6.4l1.9,0.4
				c-0.3,0.5-0.6,0.9-0.8,1.4h2L293.2,179z M287.5,172.5l-0.3,0.3c0.7,0.5,1.5,1,2,1.5c0.5-0.6,0.9-1.1,1.4-1.9L287.5,172.5
				L287.5,172.5z M288.8,181.5c-0.3,0.3-0.6,0.6-0.8,0.8c0.6,0.6,1.4,1.1,1.9,1.7c0.6-0.7,1.2-1.6,1.6-2.5H288.8z M305.3,172.8
				c-0.2,11.2-0.3,15-1.1,16.2c-0.6,0.8-1.1,1.1-1.9,1.3c-0.7,0.2-1.9,0.2-3.1,0.1c-0.1-0.8-0.4-1.9-0.8-2.8c1.1,0.1,2,0.1,2.6,0.1
				c0.4,0,0.6-0.1,0.8-0.5c0.6-0.6,0.6-4.1,0.8-13.3h-5.7c-0.4,0.7-0.7,1.4-1.2,2h5.7v8.8h-3.9v1.7h-2.3v-9.7
				c-0.3,0.4-0.6,0.7-0.8,1c-0.5-0.5-1.6-1.4-2.1-1.8c1.9-1.9,3.4-4.8,4.3-8l2.7,0.6c-0.3,0.9-0.6,1.9-1,2.8h7.1V172.8z
				 M297.5,178.3v4.4h1.6v-4.4H297.5z"/>
		</g>
	</g>
</g>
<g class="st0">
	<g class="st1">
		<g>
			<path class="st2" d="M90,708.8l-0.8-0.1c0.3-1.8,30.7-182,45.9-237.7c18.8-69.2,39.4-203.6,39.5-204.6l0.8,0.1
				c-0.1,1.1-20.8,135.5-39.5,204.7C120.7,526.8,90.3,707,90,708.8z"/>
		</g>
		<path class="st3" d="M261.7,83.5C232.9,55,194.9,45.9,156.5,57.2s-64.5,47.2-63.5,81.4c0.7,25.9,3.7,49.4,16.4,72.4
			c17.7,32.1,48.4,47.8,64.6,48.7c21.2,1.1,55.4-7,83-38.8C291.4,181.1,285.7,107.2,261.7,83.5z"/>
		<g class="st7">
			<g>
				<path class="st5" d="M106.3,150c-0.8,0-1.5-0.6-1.6-1.4c-2-16.3,1.9-33.7,10.7-47.6c9-14.1,22.6-24.7,38.5-29.9
					c0.8-0.3,1.8,0.2,2,1c0.3,0.8-0.2,1.8-1,2c-15,4.9-28.4,15.3-36.8,28.6c-8.4,13.3-12.1,29.9-10.2,45.5c0.1,0.9-0.5,1.7-1.4,1.8
					C106.4,150,106.4,150,106.3,150z"/>
			</g>
			<g>
				<path class="st5" d="M172.4,69.2l-7.2,1.3c-0.9,0.2-1.7-0.4-1.9-1.3c-0.2-0.9,0.4-1.7,1.3-1.9l7.2-1.3c0.9-0.2,1.7,0.4,1.9,1.3
					C173.8,68.2,173.2,69,172.4,69.2z"/>
			</g>
		</g>
		<polygon class="st3" points="182.1,271.6 166.1,271.4 169.4,258.8 179.2,259 		"/>
	</g>
	<g class="st1">
		<g>
			<path class="st5" d="M152.8,128.5c-0.3,3.6-0.8,6.5-1.7,8.7c1.9,1.8,4.5,2.2,7.5,2.2c0.8,0,3.9,0,4.9,0c-0.4,0.6-0.6,1.7-0.8,2.3
				h-4.4c-3.3,0-6.1-0.6-8.3-2.4c-0.7,1.2-1.6,2.1-2.6,2.8c-0.4-0.5-1.3-1.4-1.8-1.7v1.7h-2.5V130c-0.4,0.6-0.7,1-1.1,1.5
				c-0.2-0.7-0.8-2.3-1.3-3.1c1.7-2.1,3.2-5.5,4-8.7l2.6,0.7l-0.2,0.7h5.5c-0.7,2.2-1.7,4.9-2.5,7h0.8l0.5-0.1L152.8,128.5z
				 M145.6,140.5c1.1-0.7,2-1.7,2.8-3c-0.8-1.1-1.5-2.6-2-4.4l2-0.7c0.3,1,0.6,1.9,1,2.7c0.4-1.3,0.7-2.9,0.9-4.6h-3.6
				c0.8-1.8,1.8-4.4,2.5-6.8H147v-2.3c-0.4,1.3-0.8,2.6-1.4,3.9L145.6,140.5L145.6,140.5z M156,123.6h-2.6v-2h2.6v-1.9h2.3v1.9h3.4
				v3.2h1.4v2h-1.4v3.2h-3.4v1.1h3.7v2.2h-3.7v1.1h4.4v2.2h-4.4v2.1H156v-2.1h-3.3v-2.2h3.3v-1.1h-2.9v-2.2h2.9V130h-2.6v-2h2.6
				v-1.1h-3.6v-2h3.6V123.6z M158.3,123.6v1.1h1.3v-1.1H158.3z M159.7,126.8h-1.3v1.1h1.3V126.8z"/>
			<path class="st5" d="M185.3,133.5h-0.9l1.9,1.5c-1.1,0.7-2.3,1.5-3.4,2c1.7,0.7,3.2,1.5,4.4,2l-1.3,2c-1.5-0.8-4.1-2.1-6.5-3.2
				v1.6c0,1.4-0.4,2-1.3,2.4c-0.9,0.4-2.3,0.4-4.4,0.4c-0.2-0.7-0.6-1.7-0.9-2.3c1.2,0.1,2.7,0.1,3.1,0c0.5,0,0.6-0.2,0.6-0.6v-1.6
				c-2.2,1-4.5,2-6.4,2.9l-1-2.3c1.1-0.4,2.6-0.9,4.3-1.6c-0.8-0.6-2.2-1.5-3.2-2.1l1.1-1.2h-0.6v-1.9h5.7v-1.3H170v-1.9h6.4v-1.1
				h-5.5v-1.9h5.5v-1h-6.9v4.4c0,3.9-0.4,9.8-2.5,13.5c-0.5-0.5-1.7-1.3-2.3-1.6c1.9-3.4,2.1-8.4,2.1-12v-6.9h9.1
				c-0.2-0.5-0.5-1-0.7-1.4l2.9-0.7c0.4,0.6,0.8,1.4,1.2,2.1h7.9v2.5h-7.8v1h5.8v2.9h2.1v2.4h-2.1L185.3,133.5L185.3,133.5z
				 M176.5,135.7v-2.1h-4.3c1,0.6,2.1,1.3,2.9,1.8l-1.3,1.4L176.5,135.7z M179.5,128.3h3.2v-1.2h-3.2V128.3z M179.5,131.6h3.2v-1.3
				h-3.2V131.6z M180.5,136.1c1.1-0.7,2.6-1.8,3.5-2.6h-4.5v2.1L180.5,136.1z"/>
			<path class="st5" d="M208.9,120.7c-0.1,9.5-0.2,18.4,0.9,18.4c0.2,0,0.4-1.5,0.4-3.3c0.5,0.8,1,1.8,1.6,2.3
				c-0.3,2.9-0.7,4.2-2.3,4.2c-3.4,0-3.4-8.6-3.4-18.9h-11.7v5.7c0,4-0.4,9.7-3.1,13.3c-0.5-0.5-1.7-1.3-2.3-1.6
				c2.4-3.2,2.7-8.1,2.7-11.7v-8.3L208.9,120.7L208.9,120.7z M204.6,135.3c1,1.7,1.9,3.9,2.2,5.4l-2.3,0.7c-0.1-0.5-0.3-1-0.4-1.7
				c-3.5,0.3-7.1,0.6-9.8,0.8l-0.2-2.6c1.3-0.1,3-0.2,4.8-0.3v-2.5h-3.7v-6.9h3.7v-1.6h-3.8v-2.2h10.3v2.2h-3.9v1.6h3.9v6.9h-3.9
				v2.3l1.8-0.1c-0.3-0.6-0.5-1-0.7-1.5L204.6,135.3z M198.9,133.1v-2.7h-1.6v2.7H198.9z M201.4,130.5v2.7h1.6v-2.7H201.4z"/>
			<path class="st5" d="M224.1,125.9c-0.7,0.6-1.6,1-2.4,1.5c-0.4-0.5-1.2-1.4-1.8-1.9c-0.3,0.9-0.5,1.8-0.7,2.5
				c1.2,1.9,1.5,3.6,1.5,5c0,1.6-0.3,2.6-0.9,3.2c-0.4,0.3-0.7,0.5-1.3,0.6c-0.4,0.1-0.9,0.1-1.4,0.1c0-0.7-0.2-1.8-0.6-2.5
				c0.4,0.1,0.6,0.1,0.9,0c0.2,0,0.4-0.1,0.6-0.2c0.3-0.2,0.4-0.7,0.4-1.5c0-1.1-0.2-2.7-1.4-4.4c0.4-1.5,0.8-3.4,1.1-5h-1.8v18.9
				h-2.4v-21.5h4.9l0.4-0.1l1.8,1c-0.3,1.1-0.6,2.4-1,3.7c2.8-1.4,5.3-3.7,6.7-5.8l2.8,0.9c-0.2,0.3-0.3,0.5-0.5,0.7
				c1.8,1.5,4.4,2.9,6.8,3.6c-0.4,0.7-0.9,1.9-1.1,2.7c-1.1-0.5-2.3-1.1-3.4-1.8v1.6h-7L224.1,125.9L224.1,125.9z M225.7,135.3
				c-0.2,0.5-0.4,0.9-0.6,1.4c0.8,0.6,1.8,1.2,2.3,1.8l-1.5,1.9c-0.4-0.5-1.1-1.1-1.9-1.7c-0.9,1.5-2.1,2.7-3.4,3.6
				c-0.4-0.5-1.3-1.4-1.9-1.9c2.1-1.3,3.7-3.2,4.4-5.7L225.7,135.3z M221.4,128.5h5.8v6h-5.8V128.5z M223.4,132.7h1.6v-2.2h-1.6
				V132.7z M230.3,125.1c-1-0.6-2-1.4-2.9-2.1c-0.7,0.7-1.5,1.5-2.3,2.1H230.3z M232.5,135.2c-0.2,0.6-0.3,1.3-0.6,1.9
				c1.4,0.9,2.9,2,3.7,2.9l-1.7,1.9c-0.6-0.7-1.9-1.7-3.1-2.6c-0.7,1.2-1.6,2.2-2.7,3c-0.4-0.5-1.3-1.5-1.9-1.9
				c1.9-1.2,3.1-3.2,3.5-5.7L232.5,135.2z M228.2,128.5h5.9v6h-5.9V128.5z M230.3,132.7h1.7v-2.2h-1.7V132.7z"/>
		</g>
		<g>
			<path class="st5" d="M151.4,159.5v1.7h-11.8V161c-0.2,3.3-0.7,7.3-2.4,10.2c-0.5-0.4-1.6-1.1-2.1-1.3c1.9-3.4,2.1-8.3,2.1-11.7
				v-1.8l-0.3,0.2c-0.2-0.3-0.4-0.6-0.6-0.8h-1.9v3.4l1.9-0.6l0.4,2.6c-0.7,0.3-1.5,0.5-2.2,0.7v6.1c0,1.3-0.3,2-0.9,2.5
				c-0.6,0.5-1.8,0.6-3.3,0.6c-0.1-0.7-0.4-1.9-0.7-2.7c0.8,0.1,1.7,0.1,1.9,0c0.3,0,0.4-0.1,0.4-0.4v-5.4l-2.3,0.6l-0.6-2.8
				c0.8-0.2,1.9-0.4,2.9-0.7v-4.1h-2.5v-2.7h2.5v-4.5h2.6v4.5h2.1v0.6c1.7-1.7,2.8-3.5,3.4-5.2l2.6,0.4c-0.2,0.4-0.4,0.7-0.5,1.1
				h3.3l0.4-0.1l1.8,1.1c-0.3,0.6-0.6,1.3-1.1,1.9h4.6v1.9h-2.6v0.9c0,0.5,0,0.6,0.4,0.6h0.9c0.3,0,1-0.1,1.3-0.2
				c0.1,0.6,0.1,1.1,0.2,1.7c-0.3,0.1-0.9,0.2-1.4,0.2h-1.7c-1.8,0-2-0.8-2-2.3v-0.9h-1.4c-0.3,2-1.1,3.2-4.4,3.8
				c-0.1-0.4-0.4-0.8-0.7-1.3v0.6c0,0.4,0,0.8,0,1.3h4.4c-0.2-0.5-0.4-0.9-0.5-1.3l2.2-0.6c0.3,0.6,0.6,1.3,0.8,1.9h4.8V159.5z
				 M139.7,157.1c1.9-0.3,2.5-0.9,2.7-1.9h-2.7V157.1z M141,152c-0.2,0.4-0.5,0.7-0.7,1.1h3.5c0.2-0.4,0.4-0.7,0.5-1.1H141z
				 M140.4,166.4h10.3v4.7h-2.6v-0.8H143v0.8h-2.5L140.4,166.4L140.4,166.4z M150.4,163.4h-9.8v-1.5h9.8V163.4z M140.6,164.2h9.8
				v1.5h-9.8V164.2z M142.9,167.8v1h5.1v-1H142.9z"/>
			<path class="st5" d="M171.7,165.2c-0.9,1.3-2.1,2.2-3.6,3.1c2.3,0.4,4.8,0.6,7.4,0.7c-0.5,0.6-1,1.5-1.3,2.1
				c-3.5-0.2-6.8-0.6-9.7-1.4c-3.2,0.9-6.8,1.3-10.6,1.5c-0.2-0.6-0.6-1.6-0.9-2.2c2.7-0.1,5.4-0.3,7.7-0.6c-0.7-0.4-1.4-0.7-2-1.1
				c-0.9,0.5-1.9,0.8-2.9,1.3c-0.4-0.6-1.1-1.4-1.7-1.8c0.9-0.3,1.8-0.6,2.5-0.9c-0.3-0.3-0.6-0.6-0.8-0.8l2-0.9
				c0.3,0.3,0.5,0.5,0.7,0.7c0.8-0.5,1.5-1,2-1.6c-0.6-0.3-0.7-0.8-0.7-1.9V160h2.2v1.4c0,0.6,0.2,0.6,1.1,0.6h3
				c0.6,0,0.8-0.2,0.9-1.3c0.5,0.3,1.3,0.5,1.9,0.6c-0.2,1.8-0.8,2.2-2.5,2.2h-3.1c-0.2,0.3-0.5,0.5-0.6,0.6h6.5l0.6-0.1
				L171.7,165.2z M156.1,161.6h-2.5V158h3.2v-5.8h5.5c0.1-0.3,0.2-0.5,0.2-0.7h-8.7v-2h21.1v2h-9.3c-0.1,0.3-0.2,0.5-0.3,0.7h6.7
				v5.8h3.1v3.6h-2.6v-1.9h-7.3c0.6,0.4,1.1,0.7,1.4,1.1l-1.5,1c-0.5-0.6-1.4-1.2-2.2-1.6l0.8-0.6h-7.6V161.6z M155.4,162.8
				c1-0.6,1.9-1.7,2.5-2.7l1.9,0.9c-0.6,1-1.5,2.2-2.5,3.1L155.4,162.8z M159.7,153.5v0.7h9.5v-0.7H159.7z M169.1,155.4h-9.5v0.6
				h9.5V155.4z M159.7,158h9.5v-0.7h-9.5V158z M160.8,166c1.1,0.6,2.3,1,3.7,1.4c1.2-0.4,2.2-0.8,3.1-1.5L160.8,166L160.8,166z
				 M170.8,159.8c0.8,0.9,1.9,2.1,2.4,3l-2.1,0.9c-0.5-0.8-1.4-2.1-2.3-3.1L170.8,159.8z"/>
			<path class="st5" d="M184.8,161.3c-0.7,0.3-1.6,0.5-2.3,0.7v6.1c0,1.3-0.2,2-0.9,2.5c-0.7,0.5-1.8,0.6-3.3,0.6
				c-0.1-0.7-0.4-1.9-0.7-2.7c0.8,0.1,1.7,0.1,1.9,0c0.3,0,0.4-0.1,0.4-0.4v-5.3c-0.8,0.3-1.6,0.5-2.3,0.6l-0.6-2.8
				c0.8-0.2,1.9-0.5,2.9-0.7v-4.2h-2.5v-2.6h2.5v-4.5h2.6v4.5h2.2v2.6h-2.2v3.4l1.9-0.6L184.8,161.3z M188.6,148.7h2.6v10.1
				c0,4.8-0.5,9.4-4.7,12.3c-0.5-0.6-1.5-1.5-2-1.9c1.7-1.1,2.7-2.5,3.2-4.1c-0.9,0.4-1.9,0.7-2.8,1.1l-1.1-2.5
				c1.2-0.3,2.9-0.8,4.6-1.4c0.1-0.7,0.2-1.5,0.2-2.3h-3.3v-2.3h3.3v-2.5h-3.5v-2.6h3.5V148.7z M199.8,165.4h-4.2v5.7h-2.7v-22.5
				h2.7v3.9h3.8v2.6h-3.8v2.5h3.5v2.5h-3.5v2.7h4.2V165.4z"/>
			<path class="st5" d="M210.3,154.9c-0.7,1.2-1.6,2.5-2.6,3.7v12.6h-2.9v-9.5c-0.6,0.6-1.3,1.3-1.9,1.8c-0.4-0.6-1.4-1.9-1.9-2.5
				c2.5-1.7,5.1-4.4,6.7-7.2L210.3,154.9z M209.5,149.8c-1.8,2.2-4.4,4.7-6.7,6.3c-0.4-0.6-1.1-1.8-1.6-2.3c2-1.3,4.3-3.4,5.5-5.1
				L209.5,149.8z M223.7,159.3h-3.3v8.4c0,1.6-0.3,2.3-1.4,2.8c-1,0.5-2.6,0.5-4.7,0.5c-0.1-0.8-0.5-2.1-0.8-2.9
				c1.4,0.1,3,0.1,3.4,0.1c0.5,0,0.6-0.1,0.6-0.5v-8.3h-7.1v-2.7h13.3L223.7,159.3L223.7,159.3z M223,152.8h-11.7v-2.7H223V152.8z"
				/>
			<path class="st5" d="M231.8,162.9c-0.2-0.7-0.6-1.7-1-2.7v10.9h-2.4v-9.3c-0.6,1.9-1.3,3.7-2,5c-0.3-0.8-0.8-2.1-1.3-2.9
				c1.4-1.9,2.5-5.3,3.2-8.2h-2.6v-2.7h2.8v-4.4h2.4v4.4h2.3v2.7h-2.3v0.7c0.6,0.8,2.2,3.7,2.6,4.4L231.8,162.9z M241.6,158
				c0.3,0.7,0.6,1.6,0.6,2.2h4.9v2.3H240c-0.1,0.6-0.1,1.1-0.2,1.6h6.8c0,0,0,0.6-0.1,1c-0.2,3.1-0.5,4.4-1.1,5.1
				c-0.5,0.6-1,0.7-1.7,0.7c-0.6,0.1-1.7,0.1-2.8,0.1c-0.1-0.7-0.3-1.8-0.7-2.4c0.9,0.1,1.8,0.1,2.1,0.1c0.4,0,0.6,0,0.7-0.2
				c0.2-0.3,0.4-0.8,0.6-2.1h-4.4c-0.7,2-2.1,3.6-4.8,4.7c-0.3-0.6-1-1.7-1.6-2.1c3.4-1.3,4.3-3.4,4.5-6.5h-3.2v-2.3h5.5
				c-0.1-0.6-0.3-1.3-0.5-1.9L241.6,158z M247.7,155.4v4.2H245v-1.9h-8.8v2h-2.6v-4.3h3c-0.2-0.6-0.4-1.4-0.6-1.9l1.9-0.4h-4v-2.3
				h5.4c-0.1-0.6-0.3-1.3-0.4-1.9l2.7-0.4c0.3,0.6,0.5,1.5,0.6,2.2h5v2.3h-3.5l1.9,0.3c-0.3,0.7-0.6,1.4-0.8,2L247.7,155.4
				L247.7,155.4z M238.5,153c0.3,0.7,0.6,1.7,0.7,2.3h2.8c0.3-0.7,0.5-1.6,0.6-2.3H238.5z"/>
		</g>
	</g>
</g>
<g class="st0">
	<g class="st1">
		<g>
			<path class="st2" d="M206.8,643.1l-0.7-0.1c10.5-106.2,8-124.3-2.9-200.4c-0.6-4.1-1.2-8.4-1.8-12.8c-6.4-45.6-4-136.3-3.9-136.9
				l0.7,0.2c-0.1,0.7-2.5,91.2,3.9,136.7c0.6,4.5,1.2,8.7,1.8,12.8C214.8,518.7,217.3,536.8,206.8,643.1z"/>
		</g>
		<path class="st6" d="M176.9,118.3c-34.8,1.5-62.1,25.3-67.3,64c-3.6,27.4,8.6,57.9,29.1,77.2c19.7,18.7,51,24,56.3,23
			c5.3-1.1,23.4-5.2,37.9-23.1c27.3-33.7,39.1-65.3,16.7-102.9C238.2,137.4,211,116.8,176.9,118.3z"/>
		<g class="st7">
			<g>
				<path class="st5" d="M119.5,185.3c-0.7-0.2-1.1-0.9-1-1.6c2.5-14.3,10.3-28,21.3-37.4c11.2-9.6,25.5-15,40.3-15.3
					c0.8,0,1.4,0.6,1.4,1.4c0,0.8-0.6,1.4-1.4,1.4c-13.9,0.2-27.9,5.6-38.5,14.6c-10.6,9-18,22.1-20.4,35.7
					c-0.1,0.8-0.9,1.3-1.6,1.2C119.6,185.4,119.5,185.4,119.5,185.3z"/>
			</g>
			<g>
				<path class="st5" d="M196.2,134.3l-6.5-0.8c-0.8-0.1-1.3-0.8-1.2-1.6c0.1-0.8,0.8-1.3,1.6-1.2l6.5,0.8c0.8,0.1,1.3,0.8,1.2,1.6
					C197.7,133.8,197,134.3,196.2,134.3z"/>
			</g>
		</g>
		<polygon class="st6" points="204.1,291.6 188.4,294.5 189.2,281.5 198.8,279.8 		"/>
	</g>
	<g class="st1">
		<g>
			<path class="st5" d="M151.3,186.6c2.1,2.7,5.4,5.2,8.6,6.7c-0.6,0.6-1.6,1.8-2,2.5c-2.9-1.5-5.7-3.9-7.9-6.7v7.7H147v-7.5
				c-2.2,2.7-5,5-7.9,6.5c-0.5-0.7-1.4-1.9-2.1-2.5c3.2-1.4,6.5-3.9,8.6-6.6h-7.8v-2.9h9.2v-3.1h-7.3v-3h7.3v-3.6h3.1v3.6h7.5v2.9
				H150v3.1h9.3v2.9H151.3L151.3,186.6z"/>
			<path class="st5" d="M181.4,188.4c-0.6-0.7-1.9-1.9-3.2-2.8c-0.5,0.8-1,1.5-1.6,2c-0.4-0.4-1.2-0.8-1.9-1.2
				c2.1,2.9,5.6,5.4,9.2,6.8c-0.7,0.6-1.7,1.9-2.1,2.6c-2.9-1.4-5.7-3.5-7.8-6.1v7H171v-6.9c-2.1,2.5-4.9,4.6-7.7,5.9
				c-0.5-0.7-1.4-1.9-2-2.5c3.9-1.5,7.7-4.5,9.7-7.8v-5.6h-8.8v-2.8h8.8v-3h3.1v3h9.1v2.8H174v5.4c0.1,0.2,0.3,0.4,0.4,0.6
				c1.6-1.4,2.6-3.5,3.1-5.8l2.8,0.5c-0.2,0.9-0.5,1.8-0.8,2.6c1.4,1,3.1,2.3,3.9,3.2L181.4,188.4z M168.9,180.7
				c-0.3,0.9-0.6,1.8-0.8,2.6c0.8,0.7,1.8,1.6,2.3,2.1l-1.9,2c-0.4-0.5-0.9-1-1.6-1.7c-0.8,1.3-1.7,2.4-2.8,3.3
				c-0.5-0.5-1.6-1.5-2.2-1.9c2.1-1.5,3.6-4.1,4.3-6.9L168.9,180.7z"/>
			<path class="st5" d="M194.5,193.6c0,1.3-0.2,2.1-1,2.6c-0.7,0.5-1.8,0.6-3.3,0.6c-0.1-0.7-0.4-2-0.7-2.8c0.8,0.1,1.8,0,2,0
				c0.3,0,0.4-0.1,0.4-0.5v-4.7h-2.5c-0.2,2.8-0.7,5.7-1.7,8c-0.5-0.4-1.7-1.1-2.3-1.3c1.5-3.2,1.6-8.1,1.6-11.6V175h7.6
				L194.5,193.6L194.5,193.6z M191.8,186.1v-2.9h-2.3v0.6c0,0.7,0,1.5,0,2.2L191.8,186.1L191.8,186.1z M189.5,177.7v2.8h2.3v-2.8
				H189.5z M207.7,183.9c-0.6,3.2-1.6,5.9-2.9,8.1c1,1,2.2,1.9,3.5,2.5c-0.6,0.6-1.4,1.6-1.8,2.2c-1.3-0.7-2.4-1.6-3.4-2.6
				c-0.9,1-1.9,1.9-3.2,2.6c-0.3-0.6-0.9-1.4-1.4-1.9v1.9h-2.7V175H207v4.6c0,1.3-0.3,1.9-1.3,2.3c-0.9,0.4-2.3,0.4-4.2,0.4
				c-0.1-0.7-0.5-1.7-0.8-2.4c1.2,0.1,2.6,0.1,3,0.1c0.4,0,0.5-0.1,0.5-0.4v-1.9h-5.7v5.7h6.9l0.5-0.1L207.7,183.9z M198.5,194.5
				c1.1-0.6,2-1.5,3-2.5c-1.2-1.8-2-3.8-2.8-5.9h-0.2V194.5z M201.1,186.1c0.5,1.3,1.1,2.6,1.9,3.8c0.6-1.1,1.2-2.4,1.6-3.8H201.1z"
				/>
			<path class="st5" d="M230.3,179c-0.6,1.4-1.4,2.5-2.4,3.5c1.3,0.6,2.8,1.1,4.4,1.4c-0.6,0.6-1.4,1.7-1.8,2.4
				c-1.9-0.5-3.4-1.2-4.9-2c-1.4,0.8-3.1,1.5-4.9,2c-0.2-0.3-0.4-0.6-0.6-1c-0.4,1.5-0.7,3-1.2,4l-1.9-0.9c0.3-0.9,0.6-2.1,0.7-3.3
				h-1.3v8.5c0,1.3-0.2,2-1,2.5c-0.8,0.5-1.9,0.5-3.4,0.5c-0.1-0.8-0.5-1.9-0.8-2.7c0.9,0,1.9,0,2.1,0c0.3,0,0.4-0.1,0.4-0.4v-5.2
				c-0.8,1.8-1.9,3.4-3,4.4c-0.3-0.8-0.8-2-1.3-2.8c1.3-1.2,2.6-3.1,3.4-5h-3v-2.5h5.6c-1.4-0.8-3.2-1.8-4.6-2.3l1.8-1.9
				c0.6,0.2,1.3,0.5,1.9,0.7c0.6-0.5,1-1,1.5-1.5h-5.7v-2.4h7.8l0.5-0.1l1.9,1.1c-0.8,1.4-2.1,2.8-3.5,4c0.7,0.4,1.3,0.7,1.8,1
				l-1.2,1.2h1.1l0.4-0.1l1.8,0.6l-0.1,0.6c1-0.3,2-0.6,3-1.1c-0.6-0.6-1.2-1.3-1.7-2c-0.4,0.4-0.7,0.7-1.1,1
				c-0.6-0.5-1.7-1.2-2.3-1.6c1.9-1.4,3.7-3.5,4.6-5.7l2.7,0.7c-0.3,0.6-0.6,1.1-0.9,1.7h7.1v2.4h-1.6V179z M231.4,187.6
				c0,0-0.1,0.7-0.1,1.1c-0.4,4.2-0.8,6-1.5,6.8c-0.6,0.6-1,0.7-1.8,0.8c-0.6,0.1-1.6,0.1-2.7,0.1c0-0.8-0.4-1.9-0.7-2.7
				c0.8,0.1,1.7,0.1,2,0.1s0.6-0.1,0.7-0.3c0.4-0.3,0.6-1.4,0.9-3.6h-2.8c-0.8,2.9-2.5,5.2-6.3,6.7c-0.3-0.6-1-1.7-1.7-2.2
				c2.9-1,4.3-2.6,5-4.4h-2.9v-2.4h3.5c0.1-0.7,0.2-1.4,0.3-2.1h2.9c-0.1,0.7-0.2,1.5-0.3,2.1L231.4,187.6L231.4,187.6z M223.5,179
				c0.6,0.7,1.2,1.5,2,2c0.6-0.6,1.2-1.3,1.6-2H223.5z"/>
		</g>
		<g>
			<path class="st5" d="M173.6,216.9c-0.2,0.4-0.3,0.8-0.5,1.1h8.6v4.9c0,1.1-0.2,1.8-0.9,2.1c-0.7,0.4-1.8,0.4-3.1,0.4
				c-0.1-0.7-0.5-1.7-0.8-2.3c0.7,0,1.5,0,1.7,0c0.3,0,0.4-0.1,0.4-0.3v-2.7h-2.6v5.1h-2.7v-5.1h-2.5v5.1h-2.6v-5.1h-2.5v5.2h-2.7
				v-7.5h6.9c0.1-0.4,0.2-0.7,0.3-1.1h-9v-2.2h3.3l-0.7-1.9c1.5-0.2,3.6-0.5,5.7-0.8l0.1,1.6c-1.7,0.4-3.4,0.8-4.9,1.1h17.8v2.2
				h-9.4V216.9z M164.4,212.7h-2.7v-5.4h9.1v-1.1h-8.1v-2h18.9v2h-8.1v1.1h9.3v5.4H180v-3.2h-1.4l0.9,1.2c-1.3,0.6-3.1,0.9-4.4,1.2
				l-0.9-1.4c0.9-0.2,2.4-0.6,3.4-1h-4.3v4.6h-2.8v-4.6h-4.7c1.3,0.3,3.1,0.6,3.9,1l-0.7,1.6c-0.9-0.4-2.8-0.9-4.2-1.2l0.7-1.4h-1.2
				V212.7z M174.6,211.7c1.8,0.2,4.3,0.7,5.6,1.1l-0.6,1.9c-1.3-0.5-3.8-1.1-5.6-1.4L174.6,211.7z"/>
			<path class="st5" d="M206.4,212c-1.4,1.6-3.2,3.3-4.5,4.6c1.7,1.9,3.7,3.4,5.9,4.4c-0.7,0.6-1.7,1.8-2.1,2.6
				c-3.3-1.8-5.9-4.5-7.9-8.1v6.6c0,1.7-0.4,2.5-1.4,3c-1,0.5-2.6,0.6-4.7,0.6c-0.1-0.8-0.6-2.1-0.9-3c1.5,0.1,3,0.1,3.4,0.1
				c0.5,0,0.6-0.2,0.6-0.6v-3.7c-2.8,1.8-5.7,3.5-8,5l-1.9-2.6c2.3-1.2,6.2-3.3,9.8-5.4v-5.8h-9.1v-2.8h9.1v-3.6h3v3.6h4.8
				c-1-0.6-2.2-1.4-3.2-1.9l1.7-1.9c1.4,0.6,3.4,1.8,4.4,2.5l-1,1.2h2.6v2.8h-9.3v0.3c0.6,1.6,1.4,3.2,2.4,4.6
				c1.3-1.3,2.7-2.9,3.6-4.3L206.4,212z M190.4,216.5c-0.7-1.3-2.4-3.2-3.8-4.5l2.2-1.5c1.4,1.3,3.2,3.1,4,4.4L190.4,216.5z"/>
		</g>
	</g>
</g>
<g class="st0">
	<g class="st1">
		<g>
			<path class="st2" d="M51.2,622.1l-0.8-0.1c0.2-1.1,18.1-110.9,70.7-192.6c43.6-67.6,48.9-91,56.7-112.8l0.8,0.3
				c-7.9,21.8-13.2,45.3-56.8,112.9C69.3,511.4,51.4,621,51.2,622.1z"/>
		</g>
		<path class="st6" d="M318.8,205.7c-4.1-22.3-21.7-46.4-42.1-57.1c-11-5.8-36.9-16.1-73.3-3.3c-30.7,10.8-49.7,35.4-53.6,74.2
			c-4.8,47.1,12.6,76.2,32,86.7c25.5,13.9,77.5,3.5,104.1-17.2C316.4,265.2,323.3,229.9,318.8,205.7z"/>
		<g class="st7">
			<g>
				<path class="st5" d="M163.7,220.2c-0.8-0.2-1.3-0.9-1.3-1.7c1.5-16.4,9-32.5,20.6-44.2c11.8-11.9,27.4-19.4,44-21
					c0.9-0.1,1.7,0.6,1.8,1.4c0.1,0.9-0.6,1.7-1.4,1.8c-15.6,1.6-31,8.9-42,20.1c-11.1,11.2-18.2,26.6-19.6,42.3
					c-0.1,0.9-0.9,1.5-1.7,1.5C163.8,220.3,163.8,220.3,163.7,220.2z"/>
			</g>
			<g>
				<path class="st5" d="M245.5,155.3l-7.4-0.3c-0.9,0-1.6-0.8-1.5-1.7c0-0.9,0.8-1.6,1.7-1.5l7.4,0.3c0.9,0,1.6,0.8,1.5,1.7
					C247.1,154.7,246.3,155.4,245.5,155.3z"/>
			</g>
		</g>
		<polygon class="st6" points="185.2,321.4 171.1,313.9 179.7,304.2 188.4,308.8 		"/>
	</g>
	<g class="st1">
		<g>
			<path class="st5" d="M212.1,200.8c1-1.2,2.2-3.2,3-5l2.8,0.7c-0.8,1.9-1.9,4-3,5.4L212.1,200.8z M215.9,195.6h-2.7v-15.3h7.7v5.9
				c2.7-0.7,3.7-1.9,4.1-3.5h-3.4v-2.5H234c0,0,0,0.6-0.1,0.9c-0.2,3.2-0.4,4.8-0.9,5.4c-0.5,0.5-1,0.7-1.7,0.7
				c-0.6,0.1-1.7,0.1-2.8,0.1c-0.1-0.7-0.3-1.7-0.7-2.3c0.9,0.1,1.7,0.1,2.1,0.1c0.4,0,0.6-0.1,0.7-0.3c0.2-0.2,0.4-0.8,0.5-2.2
				h-3.3c-0.5,2.5-1.7,4.3-4.9,5.4h10.3v7.1h-10.9v-6.9h-0.1c-0.3-0.6-0.8-1.5-1.4-2v8.2h-5v1.3H215.9z M215.9,182.9v3.2h2.3v-3.2
				H215.9z M218.2,191.9v-3.4h-2.3v3.5L218.2,191.9L218.2,191.9z M221.7,196.5c0.3,1.6,0.6,3.6,0.6,4.9l-2.8,0.5
				c0-1.3-0.2-3.3-0.5-5L221.7,196.5z M226.8,196.3c0.6,1.5,1.2,3.5,1.4,4.9l-2.9,0.6c-0.2-1.3-0.7-3.3-1.3-5L226.8,196.3z
				 M225,193.1h5.4v-2.6H225V193.1z M231.7,195.7c1,1.6,2.2,3.7,2.8,5l-2.8,1.2c-0.5-1.4-1.7-3.5-2.6-5.2L231.7,195.7z"/>
			<path class="st5" d="M245.1,185.6h-8.9v-2.2h4.1c-0.4-0.9-0.9-2.1-1.5-3.1l2.1-1c0.6,1,1.4,2.3,1.8,3.2l-1.6,0.8h4.1L245.1,185.6
				L245.1,185.6z M257.8,195.3c-0.8,1.5-1.9,2.6-3.3,3.6c1.3,0.4,2.9,0.6,4.4,0.8c-0.6,0.6-1.3,1.6-1.6,2.2c-2.1-0.3-4-0.8-5.7-1.6
				c-1.9,0.7-4,1.3-6.2,1.7c-0.2-0.6-0.7-1.7-1.2-2.2v0.8h-4.7v1h-2.3v-8.3h7.2v6.4c1.7-0.2,3.3-0.5,4.8-0.9c-0.7-0.6-1.4-1.3-1.9-2
				l0.9-0.3h-2.6v-1.9h10l0.5-0.1L257.8,195.3z M248.5,182.8h-3.3v-2.1h3.3v-1.2h2.5v4.4h-2l0.6,0.2c-0.2,0.4-0.3,0.7-0.5,1.1h2.1
				c-0.1-0.4-0.3-0.8-0.4-1.1l2-0.5v-4.1h2.5v1.1h3.2v2.1h-3.2v1.1h-1.8c0.2,0.4,0.3,0.8,0.4,1.3h4v1.7h-4.1v0.8h3.4v1.4h-3.4v0.8
				h3.4v1.4h-3.4v0.8h4.6v1.7H249v0.4h-2.3v-4.9c-0.3,0.4-0.6,0.6-0.8,0.9c-0.3-0.5-0.9-1.6-1.4-2v0.8h-7v-2.1h7v1.3
				c1.2-1.1,2.3-2.9,2.9-4.6l1.3,0.4L248.5,182.8z M237.2,190h7v2.1h-7V190z M242,195.6h-2.5v2.7h2.5V195.6z M251.4,186.8h-2.5v0.8
				h2.5V186.8z M251.4,189.1h-2.5v0.8h2.5V189.1z M251.4,191.3h-2.5v0.8h2.5V191.3z M250.1,196.5c0.5,0.5,1,0.9,1.8,1.3
				c0.7-0.4,1.4-0.8,1.9-1.3H250.1z"/>
		</g>
		<g>
			<path class="st5" d="M198.7,212.3l0.8-0.1v2.7l-0.8,0.1c-0.1,2.8-0.5,6.2-2.3,9.5c1.2,1.1,2.3,2.1,3.1,3l-2.1,2.1
				c-0.6-0.7-1.5-1.7-2.6-2.7c-1.1,1.4-2.7,2.7-4.6,3.9c-0.4-0.6-1.4-1.7-2-2.1c1.9-1.1,3.4-2.3,4.5-3.7c-1.3-1.2-2.7-2.4-3.9-3.4
				c0.5-1.6,0.9-3.7,1.4-5.8l-1.8,0.1l-0.3-2.9c0.7,0,1.6-0.1,2.5-0.1c0.2-1.5,0.4-2.9,0.5-4.3l3.1,0.2c-0.2,1.2-0.4,2.6-0.6,3.9
				l2.3-0.1v-1.1h2.8L198.7,212.3L198.7,212.3z M193.2,215.4c-0.4,1.9-0.7,3.7-1.1,5.3c0.7,0.6,1.5,1.3,2.2,1.9
				c1.3-2.6,1.7-5.2,1.7-7.4L193.2,215.4z M209.6,210.8v19h-2.9v-1.5h-3.8v1.8h-2.7v-19.4L209.6,210.8L209.6,210.8z M206.7,225.7
				v-12.1h-3.8v12.1H206.7z"/>
			<path class="st5" d="M220.2,209.2c-0.6,1.5-1.2,3-1.9,4.4v17.1h-2.9v-12.6c-0.6,0.7-1.1,1.4-1.7,2c-0.3-0.7-1-2.2-1.6-3
				c2.1-2.1,4.2-5.5,5.4-8.9L220.2,209.2z M234.9,213.2h-1.5v14.3c0,1.7-0.4,2.4-1.4,2.9c-1,0.5-2.7,0.6-4.9,0.6
				c-0.1-0.8-0.6-2.1-0.9-3c1.6,0.1,3.2,0.1,3.7,0.1c0.5,0,0.6-0.2,0.6-0.6v-14.3h-10.5v-2.8h14.8V213.2z M223,224.5v1.6h-2.7v-10.3
				h8.1v8.7L223,224.5L223,224.5z M223,218.3v3.8h2.7v-3.8H223z"/>
			<path class="st5" d="M241.4,225.9c-0.6,1.5-1.7,3.2-2.6,4.2c-0.5-0.4-1.4-1.1-1.9-1.5c0.8-0.9,1.7-2.2,2.2-3.3L241.4,225.9z
				 M250.3,219.4h-13.5v-2.1h5.5c-0.1-0.3-0.2-0.5-0.4-0.7l1.9-0.4h-5.8v-6.9h11.6v6.9h-4.7c0.2,0.4,0.4,0.7,0.6,1.1h5L250.3,219.4
				L250.3,219.4z M244.9,225.1v3.2c0,1.2-0.2,1.8-1,2.1c-0.7,0.4-1.8,0.4-3.1,0.4c-0.1-0.7-0.5-1.7-0.8-2.3c0.7,0,1.5,0,1.7,0
				s0.3-0.1,0.3-0.3v-3.1H238v-5h10.8v5L244.9,225.1L244.9,225.1z M240.6,211.8h6v-0.9h-6V211.8z M240.6,214.4h6v-0.9h-6V214.4z
				 M240.9,223.3h5.4V222h-5.4V223.3z M259,223c-1.8,3.2-4.6,5.9-7.8,7.7c-0.5-0.7-1.2-1.6-1.9-2.2c0.1,0.2,0.2,0.4,0.2,0.6l-2.1,1
				c-0.4-1-1.2-2.7-1.9-3.9l2-0.8c0.6,0.9,1.4,2.2,1.8,3.2c2.9-1.4,5.7-3.7,7.1-6.4L259,223z M258,209.8c-1.7,2.3-4.1,4.4-6.3,5.8
				c-0.5-0.6-1.3-1.5-2-2c2-1.1,4.4-3.1,5.7-4.9L258,209.8z M258.5,216.3c-1.8,2.4-4.4,4.6-6.9,6.2c-0.5-0.6-1.3-1.5-1.9-2
				c2.2-1.2,4.8-3.2,6.2-5.3L258.5,216.3z"/>
			<path class="st5" d="M268.2,214c-1.2,2.7-3.6,4.5-6.5,5.7c-0.2-0.5-0.6-1.4-1-1.8c1.7-0.6,3.2-1.4,4.3-2.5
				c-2.6,0.3-3.1,0.4-3.3,0.6l0,0c-0.1-0.4-0.4-1.2-0.6-1.7c0.5-0.1,0.9-0.4,1.5-0.7c0.3-0.1,0.6-0.5,1.1-0.8
				c-1.4,0.1-1.8,0.2-2,0.3c-0.1-0.4-0.4-1.3-0.6-1.8c0.3-0.1,0.6-0.3,1-0.6c0.4-0.3,1.5-1.4,2.2-2.6l1.6,1
				c-0.6,0.8-1.4,1.6-2.2,2.2l1.5-0.1c0.5-0.5,0.8-0.9,1.3-1.4l1.5,1c-1.1,1.2-2.5,2.4-3.8,3.3l1.9-0.2c0.2-0.4,0.4-0.6,0.5-1
				l1.7,0.3v-3.9h2.1c-0.1-0.3-0.2-0.6-0.4-0.9l2.2-0.6c0.3,0.5,0.5,1,0.6,1.5h2.4v5.6h-0.9c0.6,0.6,1.2,1.3,1.6,1.9v-8h4.9l0.4-0.1
				l1.7,0.7c-0.5,1.2-1.1,2.4-1.7,3.5c1.2,1,1.7,2,1.7,2.8c0,0.9-0.3,1.6-0.9,1.9c-0.3,0.2-0.7,0.4-1.2,0.5c-0.5,0.1-1.1,0.1-1.7,0
				c0-0.6-0.3-1.4-0.6-1.9c0.6,0.1,1,0.1,1.4,0.1c0.2,0,0.4-0.1,0.6-0.1c0.3-0.2,0.4-0.4,0.4-0.7c0-0.5-0.5-1.1-1.7-2
				c0.4-0.9,0.7-1.8,1-2.6h-1.7v8.1h-2.2v-1.3l-1.4,0.6c-0.1-0.3-0.4-0.6-0.6-1c-4.7,1-5.5,1.2-5.9,1.5c-0.1-0.6-0.6-1.5-0.8-1.9
				c0.4-0.2,0.9-0.6,0.9-1.5V214H268.2z M277.7,221.1c-0.4,0.5-0.7,0.9-1.1,1.3h6.2v1.9H261v-1.9h6.1c-0.2-0.4-0.4-0.8-0.6-1.1
				l0.7-0.2h-3.7v-1.8h6.9c-0.1-0.3-0.2-0.6-0.4-0.8l2.7-0.6c0.2,0.4,0.5,0.9,0.6,1.4h7v1.8L277.7,221.1L277.7,221.1z M264.3,224.9
				h15.5v5.9H277v-0.6h-10.1v0.6h-2.6L264.3,224.9L264.3,224.9z M266.9,226.3v0.7H277v-0.7H266.9z M277,228.9v-0.7h-10.1v0.7H277z
				 M269.1,221.1c0.3,0.4,0.6,0.8,0.6,1.2l-0.5,0.1h4.9l-0.2-0.1c0.3-0.4,0.6-0.8,0.7-1.3L269.1,221.1L269.1,221.1z M273.2,210.8
				h-2.6v0.8h2.6V210.8z M273.2,213h-2.6v0.7h2.6V213z M272.8,215.8c-0.2-0.2-0.4-0.4-0.5-0.5l0.5-0.2h-2.1v1.1L272.8,215.8z"/>
		</g>
		<g>
			<path class="st5" d="M210.5,256.2v2.8h-21.7v-2.8h9.3v-4.8h-6.5v-2.8h6.5v-4.3h-4.9c-0.7,1.3-1.5,2.6-2.2,3.5
				c-0.6-0.5-1.9-1.3-2.6-1.7c1.9-2,3.4-5.4,4.3-8.6l3,0.6c-0.4,1.1-0.7,2.3-1.1,3.4h3.7v-4.4h3v4.4h8.2v2.8h-8.2v4.3h7.2v2.8h-7.2
				v4.8L210.5,256.2L210.5,256.2z"/>
			<path class="st5" d="M217.1,248.8c-1-0.7-3.1-1.9-4.4-2.6l1.6-2.1c1.3,0.6,3.4,1.7,4.5,2.3L217.1,248.8z M212.9,257.5
				c1.3-1.9,3.2-4.8,4.5-7.6l2.1,1.9c-1.3,2.5-2.8,5.3-4.3,7.6L212.9,257.5z M218.1,242.3c-0.9-0.7-3-1.9-4.4-2.7l1.6-2
				c1.4,0.6,3.4,1.8,4.4,2.4L218.1,242.3z M228.8,247v3.1h4.9v9.6H231v-0.8h-7.2v1h-2.6v-9.7h4.9v-3.1h-6.4v-2.8h6.4v-2.8
				c-1.6,0.3-3.2,0.4-4.7,0.6c-0.1-0.7-0.5-1.9-0.8-2.5c4.1-0.4,8.6-1.2,11.2-2.2l2.2,2.2c-1.6,0.6-3.3,1-5.3,1.4v3.3h6.1v2.8
				L228.8,247L228.8,247z M231,252.6h-7.2v3.5h7.2V252.6z"/>
			<path class="st5" d="M237.5,248.9h9.2v10.7h-2.9v-1.1h-3.6v1.2h-2.7V248.9z M240.3,251.6v4.2h3.6v-4.2H240.3z M255,246.9h-14.1
				v-8.7H255V246.9z M252,241h-8.4v3.2h8.4V241z M258.2,248.9v10.7h-3v-1.1h-3.8v1.2h-2.8v-10.8L258.2,248.9L258.2,248.9z
				 M255.3,255.8v-4.2h-3.8v4.2H255.3z"/>
			<path class="st5" d="M264.8,243c-0.4,1.2-1.1,2.4-2.3,3.3c-0.4-0.5-1.4-1.5-1.9-1.9c1.9-1.4,2.1-3.1,2.1-4.4v-1.6
				c2.5-0.2,5.4-0.5,7-1.1l1.6,1.7c-1.7,0.6-4,0.9-6.2,1.1c0,0.3,0,0.5,0,0.7h6.6v2.1h-2.3v2.5h-2.5V243H264.8z M276.8,245.5V243h-2
				c-0.3,1-0.7,2-1.6,2.9h6.7v9.9h-3.2c2.2,0.6,4.5,1.5,6.1,2l-1.3,2c-1.7-0.7-4.5-1.9-7.2-2.7l0.8-1.4h-6.2l1.6,0.9
				c-2,1.1-5.3,2.5-7.8,3.2c-0.3-0.5-0.9-1.9-1.4-2.4c2-0.4,4.4-1,6.2-1.7h-3.2v-9.9h8.6c-0.5-0.5-1.4-1-1.9-1.3
				c1.6-1.4,1.8-3.2,1.8-4.5v-1.8c2.7-0.1,5.7-0.5,7.4-1l1.8,1.6c-1.9,0.6-4.4,1-6.9,1.1v0.1c0,0.3,0,0.5,0,0.7h7.7v2.1h-3.4v2.5
				L276.8,245.5L276.8,245.5z M276.9,247.5h-9.9v1.1h9.9V247.5z M276.9,250.2h-9.9v1.1h9.9V250.2z M276.9,253h-9.9v1.1h9.9V253z"/>
		</g>
	</g>
</g>
<g>
	<g>
		<g>
			<g>
				<path class="st2" d="M168.1,341.8c-2.5,16.5-5.3,33-7,49.6c-1.7,16.9-2.3,33.8-2,50.7c0.1,8.6,0.5,17.2,1,25.8
					c0.6,8.8,1.6,17.5,1.8,26.3c0.4,19-2,38-6.6,56.5c-4.1,16.4-10,32.3-17.7,47.3c-0.9,1.7-1.7,3.3-2.7,5c-0.3,0.5,0.5,1,0.8,0.5
					c7.9-14.3,14-29.6,18.5-45.3c5.1-17.9,8.1-36.5,8.6-55.1c0.2-9.3-0.5-18.5-1.2-27.8c-0.7-8.4-1.1-16.8-1.3-25.3
					c-0.5-17.1-0.3-34.2,1.1-51.3c1.4-16.5,4-32.8,6.5-49.1c0.4-2.5,0.8-4.9,1.1-7.4C169.1,341.5,168.2,341.3,168.1,341.8
					L168.1,341.8z"/>
			</g>
		</g>
		<path class="st8" d="M103.6,229.5c1.5-12.5,5.5-35.4,29.3-52.8c23.1-16.8,45.8-21.8,72.2-16.6c26.4,5.2,39.3,22.2,46.5,31
			c9.9,12.1,19.5,31.2,14.9,59.2c-2.1,12.9-17.9,46.6-33.3,61c-23.6,22-44.7,26.9-64.9,22.8C146.4,329.7,95.7,293.3,103.6,229.5z"/>
		<g>
			<g>
				<path class="st4" d="M116.9,252.4c-0.7,0.1-1.4-0.4-1.6-1.2c-3-14.8-0.7-30.9,6.3-44.3c7.2-13.6,18.9-24.3,33.1-30.2
					c0.8-0.3,1.6,0,1.9,0.8c0.3,0.8,0,1.6-0.8,1.9c-13.3,5.5-24.8,16-31.6,28.8c-6.8,12.8-9,28.2-6.1,42.3c0.2,0.8-0.4,1.6-1.1,1.7
					C117,252.4,116.9,252.4,116.9,252.4z"/>
			</g>
			<g>
				<path class="st4" d="M171.5,173.7l-6.5,1.7c-0.8,0.2-1.6-0.3-1.8-1.1c-0.2-0.8,0.3-1.6,1.1-1.8l6.5-1.7c0.8-0.2,1.6,0.3,1.8,1.1
					C172.8,172.7,172.3,173.5,171.5,173.7z"/>
			</g>
		</g>
		<polygon class="st8" points="174.9,348.9 158,345.3 164.1,332.7 174.5,334.8 		"/>
	</g>
	<g>
		<g>
			<path class="st5" d="M151.3,233.5v2.8h-21.7v-2.8h9.3v-4.8h-6.5v-2.8h6.5v-4.3h-5c-0.7,1.3-1.5,2.6-2.2,3.5
				c-0.6-0.5-1.9-1.3-2.6-1.7c1.9-2,3.4-5.4,4.3-8.6l3,0.6c-0.4,1.1-0.7,2.3-1.1,3.4h3.7v-4.4h3v4.4h8.2v2.8h-8.2v4.3h7.2v2.8h-7.2
				v4.8L151.3,233.5L151.3,233.5z"/>
			<path class="st5" d="M157.8,226.1c-1-0.7-3.1-1.9-4.4-2.6l1.6-2.1c1.3,0.6,3.4,1.7,4.5,2.3L157.8,226.1z M153.7,234.7
				c1.3-1.9,3.2-4.8,4.5-7.6l2.1,1.9c-1.3,2.5-2.8,5.3-4.3,7.6L153.7,234.7z M158.9,219.5c-0.9-0.7-3-1.9-4.4-2.7l1.6-2
				c1.4,0.6,3.4,1.8,4.4,2.4L158.9,219.5z M169.5,224.3v3.1h4.9v9.6h-2.7v-0.8h-7.2v1h-2.6v-9.7h4.9v-3.2h-6.4v-2.8h6.4v-2.8
				c-1.6,0.3-3.2,0.4-4.7,0.6c-0.1-0.7-0.5-1.9-0.8-2.5c4.1-0.4,8.6-1.2,11.2-2.2l2.2,2.2c-1.6,0.6-3.3,1-5.3,1.4v3.3h6.1v2.8H169.5
				z M171.7,229.8h-7.2v3.5h7.2V229.8z"/>
			<path class="st5" d="M199.5,232.9h-9.6v4.2H187v-4.2h-9.4v-2.6h9.4v-1h-2.1v-7.6c-0.2,0.2-0.4,0.4-0.6,0.6
				c-0.5-0.5-1.4-1.2-2-1.7l-1.3,1.9c-0.8-0.6-2.5-1.5-3.7-1.9l1.5-1.9c1.1,0.4,2.7,1.1,3.5,1.7c1.9-1.4,3.7-3.6,4.6-5.8l2.7,0.8
				c-0.3,0.6-0.6,1.2-0.9,1.8h2.4c-0.2-0.6-0.5-1.1-0.6-1.6l2.8-0.7c0.4,0.7,0.8,1.6,1,2.3h4.4v2.1h-4.8v1.2h3.9v1.8h-3.9v1h3.9v1.8
				h-3.9v1.3h5.2v2.2h-11.3v0.4h2.2v1.5h9.6L199.5,232.9L199.5,232.9z M184.2,224.3c-1.4,1.7-2.9,3.4-4.4,5.1l-2-2.1
				c1.3-1.1,3.2-3.1,4.9-4.9L184.2,224.3z M182.7,218.5c-0.8-0.6-2.4-1.6-3.7-2l1.5-1.9c1.2,0.5,2.9,1.3,3.7,1.9L182.7,218.5z
				 M191.1,219.1h-3.3v1.2h3.3V219.1z M191.1,222h-3.3v1h3.3V222z M191.1,224.8h-3.3v1.3h3.3V224.8z"/>
			<path class="st5" d="M213.4,223.2c-0.3,0.5-0.6,0.8-0.8,1.3h10.3v9.9c0,1.1-0.2,1.7-0.9,2c-0.7,0.4-1.7,0.4-2.9,0.4
				c-0.1-0.6-0.5-1.6-0.7-2.1c0.6,0,1.4,0,1.6,0c0.3,0,0.4-0.1,0.4-0.3v-0.9h-2.7v3h-2.8v-3h-3.1c-0.3,1.4-0.8,2.7-1.7,3.7
				c-0.5-0.5-1.8-1.4-2.3-1.7c1.5-1.9,1.7-4.4,1.7-6.3V228c-0.5,0.4-0.9,0.7-1.4,1c-0.3-0.6-1-1.6-1.5-2.2v10.2h-2.8v-11.9
				c-0.5,0.6-0.9,1.3-1.3,1.9c-0.3-0.6-0.9-2.3-1.4-3.1c1.9-2.2,3.6-5.7,4.6-9.3l2.7,0.7c-0.5,1.6-1.1,3.2-1.8,4.6v6.6
				c1.4-0.8,2.7-1.9,3.7-3.2h-2.7v-2.8h4.2v-1.5h-3.5v-2.6h3.4v-1.9h2.8v1.9h2.9v-1.9h2.8v1.9h3v2.6h-3v1.5h3.5v2.7H213.4z
				 M214.8,231.5v-1.4h-2.7c0,0.5,0,0.9-0.1,1.4H214.8z M212.2,228.1h2.6v-1.3h-2.6V228.1z M214.5,220.5h2.9v-1.5h-2.9V220.5z
				 M220.1,226.8h-2.7v1.3h2.7V226.8z M220.1,231.5v-1.4h-2.7v1.4H220.1z"/>
			<path class="st5" d="M238.3,224.1v2.5h7.7v2.6h-3.8l2.4,0.8c-0.8,1.4-1.8,2.8-2.5,3.8h5.2v2.6h-20.8v-2.6h4.7
				c-0.4-1.1-1.2-2.7-2-3.9l1.9-0.8h-3.5v-2.6h7.7V224h-4.9v-1.2c-1,0.5-2,0.9-3.2,1.3c-0.4-0.8-1.2-1.9-1.9-2.7
				c4.5-1.3,8.9-3.7,11.1-7.3l2.7,1.2c-0.2,0.3-0.5,0.6-0.6,0.9c2.3,2.1,6.3,4.1,9.9,5.1c-0.6,0.6-1.6,1.8-1.9,2.5
				c-1.1-0.4-2.2-0.8-3.2-1.4v1.4h-4.8V224.1z M231.5,229.2c0.8,1.2,1.8,2.8,2.1,3.8l-1.9,0.8h3.5v-4.7L231.5,229.2L231.5,229.2z
				 M241,221.5c-1.5-0.9-3-2-4.2-3.2c-1.1,1.2-2.5,2.2-3.9,3.2H241z M238.3,229.2v4.7h3l-1.6-0.6c0.7-1.1,1.7-2.8,2.1-4L238.3,229.2
				L238.3,229.2z"/>
		</g>
		<g>
			<path class="st5" d="M185.3,257.6c-0.6-0.7-1.9-1.9-3.2-2.8c-0.5,0.8-1,1.5-1.6,2c-0.4-0.4-1.2-0.8-1.9-1.2
				c2.1,2.9,5.6,5.4,9.2,6.8c-0.7,0.6-1.7,1.9-2.1,2.6c-2.9-1.4-5.7-3.5-7.8-6.1v7h-3v-6.9c-2.1,2.5-4.9,4.6-7.7,5.9
				c-0.5-0.7-1.4-1.9-2-2.5c3.9-1.5,7.7-4.5,9.7-7.8v-5.6h-8.8v-2.8h8.8v-3h3.1v3h9.1v2.8H178v5.4c0.1,0.2,0.3,0.4,0.4,0.6
				c1.6-1.4,2.6-3.5,3.1-5.8l2.8,0.5c-0.2,0.9-0.5,1.8-0.8,2.6c1.4,1,3.1,2.3,3.9,3.2L185.3,257.6z M172.8,249.8
				c-0.3,0.9-0.6,1.8-0.8,2.6c0.8,0.7,1.8,1.6,2.3,2.1l-1.9,2c-0.4-0.5-0.9-1-1.6-1.7c-0.8,1.3-1.7,2.4-2.8,3.3
				c-0.5-0.5-1.6-1.5-2.2-1.9c2.1-1.5,3.6-4.1,4.3-6.9L172.8,249.8z"/>
			<path class="st5" d="M193.2,254.6c-0.8-0.6-2.7-1.8-3.9-2.5l1.6-2c1.2,0.6,3.1,1.6,4,2.2L193.2,254.6z M195.4,257.9
				c-0.9,2.6-2,5.3-3.2,7.7l-2.6-1.6c1-1.9,2.3-4.9,3.3-7.7L195.4,257.9z M194.4,248.2c-0.8-0.7-2.7-1.9-3.9-2.6l1.7-2
				c1.2,0.6,3.1,1.7,4,2.3L194.4,248.2z M206.8,258v5.2c0,1.2-0.2,1.9-1,2.3c-0.8,0.4-1.9,0.5-3.4,0.4c-0.1-0.7-0.5-1.8-0.7-2.5
				c0.8,0,1.8,0,2.1,0c0.3,0,0.4-0.1,0.4-0.4v-5.1h-3.8v-8.6h3.2c0.3-0.7,0.5-1.4,0.6-2h-4.6v4.1c0,4.3-0.5,10.7-3.3,14.6
				c-0.5-0.5-1.7-1.2-2.4-1.6c2.7-3.7,3-9.2,3-13.1v-6.7h15.1v2.6h-7.1l2.7,0.5c-0.3,0.6-0.6,1-0.9,1.6h4.6v8.7H206.8z M203.1,259.6
				c-0.7,1.7-1.9,3.7-2.8,5c-0.6-0.5-1.6-1.1-2.2-1.4c0.9-1.1,1.9-2.8,2.5-4.4L203.1,259.6z M202.8,252.6h5.6v-1.3h-5.6V252.6z
				 M202.8,255.9h5.6v-1.4h-5.6V255.9z M209.9,258.6c0.7,1.5,1.9,3.4,2.3,4.5l-2.7,1.1c-0.5-1.3-1.4-3.2-2.1-4.8L209.9,258.6z"/>
		</g>
	</g>
</g>
<g class="st0">
	<g class="st1">
		<g>
			<g>
				<path class="st2" d="M211.9,383.3c-1.6,11.5,0.1,23.2,4.7,33.8c2.3,5.4,5.4,10.4,9.2,15c4.1,5,8.8,9.4,13.3,14
					c8.2,8.5,14.8,18.2,20,28.8c5.1,10.5,8.8,21.7,11.8,33c3.4,12.8,5.8,25.8,8.1,38.8c0.1,0.6,1,0.3,0.9-0.2
					c-4.1-22.7-8.3-45.7-17.6-66.9c-4.5-10.3-10.2-20.1-17.5-28.6c-8.1-9.5-18.1-17.3-24.3-28.3c-6.6-11.8-9.3-25.7-7.5-39.1
					C212.9,383,212,382.7,211.9,383.3L211.9,383.3z"/>
			</g>
		</g>
		<path class="st6" d="M104.8,246.5c-9.1,11.8-16.3,35.1-12.8,57c5.3,32.1,30.1,58,51.8,69.7c27.1,14.6,51.9,8.7,63.4,3.8
			c11.5-4.9,30.2-16.6,38.5-45.5c9.8-34.1,5.8-82.7-36.1-106.2C166.5,201.1,123.2,222.7,104.8,246.5z"/>
		<polygon class="st6" points="218.8,382.7 205.8,387.9 204.2,376.6 212.2,373.4 		"/>
		<g>
			<g>
				<path class="st4" d="M127.2,340.2c-0.6,0.5-1.4,0.5-1.9,0c-11.1-10.1-18.6-24.5-20.7-39.4c-2.1-15.1,1.1-30.5,9.1-43.5
					c0.4-0.7,1.3-0.9,2-0.5c0.7,0.4,0.9,1.3,0.5,2c-7.5,12.2-10.7,27.4-8.7,41.6c2,14.2,9.2,27.9,19.8,37.6c0.6,0.5,0.6,1.5,0.1,2.1
					C127.3,340.1,127.2,340.2,127.2,340.2z"/>
			</g>
			<g>
				<path class="st4" d="M125.4,245.1l-4.3,5.2c-0.5,0.6-1.4,0.7-2.1,0.2c-0.6-0.5-0.7-1.4-0.2-2.1l4.3-5.2c0.5-0.6,1.4-0.7,2.1-0.2
					C125.8,243.5,125.9,244.4,125.4,245.1z"/>
			</g>
		</g>
	</g>
	<g class="st1">
		<g>
			<path class="st5" d="M124.4,277.2c-0.6,1.7-1.5,3.4-2.4,5.1v16.4h-2.7v-12.2c-0.5,0.6-1,1.3-1.5,1.9c-0.3-0.7-1-2.3-1.6-3
				c2.1-2.1,4.3-5.6,5.5-9L124.4,277.2z M138.6,296c0,1-0.2,1.6-0.7,1.9c-0.6,0.4-1.3,0.4-2.2,0.4c-0.1-0.6-0.4-1.6-0.6-2.2
				c0.4,0,0.7,0,0.8,0c0.2,0,0.2-0.1,0.2-0.3v-1.4h-1.2v3.5h-1.9v-3.5h-1.1v3.7h-1.9v-3.7h-1.2v4.1h-2.3v-5.9c-0.4,2-1,4.1-1.9,5.7
				c-0.5-0.5-1.7-1.3-2.3-1.5c2-3.5,2.1-8.6,2.1-12.1v-6.8c4.1-0.3,8.8-0.8,11.7-1.6l1.9,2.1c-3.1,0.7-7.1,1.2-10.9,1.5v0.9h10.9
				v5.8h-10.9c0,0.4-0.1,0.7-0.1,1.1h11.6v8.2H138.6z M127.2,283.1v1.3h8.2v-1.3H127.2z M130,292.3V290h-1.2v2.3H130z M133,292.3
				V290h-1.1v2.3H133z M136.2,292.3V290H135v2.3H136.2z"/>
			<path class="st5" d="M149.8,283.6c-0.1,2.5-0.4,5.5-1.7,8.3c1.1,1.1,2.2,2,2.9,2.9l-1.9,2.4c-0.6-0.7-1.5-1.7-2.5-2.7
				c-1,1.5-2.3,3-4.1,4.3c-0.5-0.6-1.4-1.6-2-2c1.8-1.3,3.2-2.7,4.1-4.3c-1.2-1.1-2.5-2.3-3.6-3.2c0.4-1.5,0.8-3.2,1.1-5.3l-1.4,0.1
				l-0.3-2.7c0.6,0,1.3-0.1,2-0.1c0.3-1.8,0.5-3.4,0.6-5.1l2.9,0.1c-0.2,1.5-0.4,3.2-0.6,4.8l1.8-0.1v-1.5h2.7v1.4l1.3-0.1v2.6
				L149.8,283.6z M145,283.8c-0.3,1.6-0.6,3.2-0.9,4.5c0.6,0.5,1.2,1,1.9,1.6c0.8-2.1,1.1-4.4,1.2-6.2L145,283.8z M163.1,288.8h-4.8
				v6.8c0,1.5-0.3,2.2-1.3,2.7c-0.9,0.4-2.3,0.5-4.3,0.5c-0.2-0.8-0.6-1.9-0.9-2.7c1.2,0,2.6,0,3,0s0.6-0.1,0.6-0.5v-6.8h-5.1v-2.7
				h5.1v-2.3c1-0.9,2.1-2.2,3-3.5h-7v-2.6h8.9l0.6-0.2l1.9,1.4c-1.1,1.8-2.7,3.8-4.4,5.4v1.9h4.8V288.8z"/>
			<path class="st5" d="M186.6,279.9c0,0,0,0.9,0,1.3c-0.3,10.7-0.6,14.6-1.6,15.8c-0.6,0.9-1.4,1.1-2.3,1.3
				c-0.9,0.1-2.3,0.1-3.8,0.1c-0.1-0.8-0.5-2-0.9-2.8c1.6,0.2,3,0.2,3.6,0.2c0.5,0,0.7-0.1,1-0.4c0.7-0.7,1-4.4,1.3-12.9h-5.2
				c-0.6,1.5-1.4,2.8-2.1,3.8c-0.4-0.4-1.2-0.9-1.9-1.4v11.2h-6.4v1.8h-2.6V280h2.7c0.3-1.2,0.6-2.8,0.7-3.9l3.2,0.5
				c-0.4,1.2-0.8,2.4-1.3,3.4h3.7v3.9c1.4-2,2.6-4.9,3.2-7.8l2.7,0.6c-0.3,1-0.6,2-0.9,3.1L186.6,279.9L186.6,279.9z M172.1,282.5
				h-3.8v3.9h3.8V282.5z M172.1,293.7v-4.7h-3.8v4.7H172.1z M180.2,292.4c-0.6-1.5-2.1-3.8-3.3-5.6l2.2-1.3c1.2,1.7,2.8,4,3.5,5.4
				L180.2,292.4z"/>
			<path class="st5" d="M210.7,283.8v2.1h-21.3v-2.1h9.2v-1.1h-6.8v-2h6.8v-1.1h-7.7v-2.1h7.7v-1.2h2.9v1.2h8.1v2.1h-8.1v1.1h6.9v2
				h-6.9v1.1H210.7z M207.7,296c0,1.4-0.4,1.9-1.3,2.3c-1,0.4-2.4,0.4-4.4,0.4c-0.2-0.7-0.6-1.7-0.9-2.3c1.2,0.1,2.8,0.1,3.2,0.1
				c0.5,0,0.6-0.1,0.6-0.5v-0.9H195c-0.3,1.5-0.8,2.9-1.8,4c-0.5-0.6-1.6-1.7-2.2-2c1.4-1.6,1.5-3.9,1.5-5.7v-4.3h15.3L207.7,296
				L207.7,296z M204.8,293.1V292h-9.5c0,0.4-0.1,0.7-0.1,1.1H204.8z M195.3,289v1h9.5v-1H195.3z"/>
			<path class="st5" d="M222.7,295.9c-3.2,0.8-6.4,1.6-9,2.2l-0.6-2.8c1-0.2,2.3-0.5,3.8-0.7v-5.8h-3.3v-2.5h3.3v-1.7h-2v-0.9
				c-0.3,0.3-0.6,0.5-0.9,0.7c-0.2-0.6-0.7-2.1-1.1-2.8c1.9-1.3,4-3.3,5.2-5.5l2.3,0.8c-0.1,0.3-0.3,0.5-0.4,0.7
				c1.4,1.1,2.8,2.3,3.6,3.2l-1.7,2l-0.3-0.4v2h-2.1v1.7h3.2v2.5h-3.2v5.3l1.6-0.4l-1.5-0.5c0.3-1.1,0.7-2.9,0.9-4.1l2.1,0.6
				c-0.5,1.4-0.9,2.9-1.3,3.9l1.4-0.3L222.7,295.9z M215.7,289.7c0.5,1.3,0.8,3.1,1,4.2l-1.9,0.6c-0.1-1.1-0.5-2.9-0.9-4.3
				L215.7,289.7z M221,282.3c-0.7-0.7-1.7-1.7-2.6-2.5c-0.6,0.8-1.4,1.7-2.1,2.5H221z M235.3,290.5c-1,0.8-2.1,1.6-3.2,2.2
				c0.9,1.4,2.1,2.5,3.5,3.2c-0.6,0.6-1.6,1.7-1.9,2.5c-3.2-1.9-5-5.7-6.1-10.3h-1.3v6.7l3.2-0.8c0,0.7,0.1,1.9,0.3,2.5
				c-4.7,1.5-5.7,1.9-6.2,2.2c-0.1-0.7-0.6-1.9-0.9-2.4c0.5-0.2,1-0.6,1-1.6v-17.6h11v11H230c0.3,0.8,0.6,1.7,0.8,2.5
				c0.9-0.7,1.9-1.5,2.5-2.2L235.3,290.5z M226.3,279.6v1.9h5.5v-1.9H226.3z M226.3,285.7h5.5v-1.9h-5.5V285.7z"/>
		</g>
		<g>
			<path class="st5" d="M150.9,317.1v2.8h-22v-2.8h5.2v-4.6h-4.4v-2.8h4.4v-4.4h3v4.4h5.6v-4.4h3v4.4h4.5v2.8h-4.5v4.6H150.9z
				 M138.2,322c-1.9,2-4.4,4.3-6.8,5.7c-0.6-0.6-1.7-1.6-2.3-2c2.2-1.2,4.8-3.2,6.1-4.8L138.2,322z M137.1,317.1h5.6v-4.6h-5.6
				V317.1z M144.2,320.7c2,1.5,5,3.7,6.6,5.2l-2.9,1.7c-1.3-1.5-4.2-3.8-6.3-5.5L144.2,320.7z"/>
			<path class="st5" d="M161.9,312.5c-0.1,2.5-0.4,5.5-1.7,8.3c1.1,1.1,2.2,2,2.9,2.9l-1.9,2.4c-0.6-0.7-1.5-1.7-2.5-2.7
				c-1,1.5-2.3,3-4.1,4.3c-0.5-0.6-1.4-1.6-2-2c1.8-1.3,3.2-2.7,4.1-4.3c-1.2-1.1-2.5-2.3-3.6-3.2c0.4-1.5,0.8-3.2,1.1-5.3l-1.4,0.1
				l-0.3-2.7c0.6,0,1.3-0.1,2-0.1c0.3-1.8,0.5-3.4,0.6-5.1l2.9,0.1c-0.2,1.5-0.4,3.2-0.6,4.8l1.8-0.1v-1.5h2.7v1.4l1.3-0.1v2.6
				L161.9,312.5z M157.1,312.8c-0.3,1.6-0.6,3.2-0.9,4.5c0.6,0.5,1.2,1,1.9,1.6c0.8-2.1,1.1-4.4,1.2-6.2L157.1,312.8z M175.3,317.8
				h-4.8v6.8c0,1.5-0.3,2.2-1.3,2.7c-0.9,0.4-2.3,0.5-4.3,0.5c-0.2-0.8-0.6-1.9-0.9-2.7c1.2,0,2.6,0,3,0s0.6-0.1,0.6-0.5v-6.8h-5.1
				v-2.7h5.1v-2.3c1-0.9,2.1-2.2,3-3.5h-7v-2.6h8.9l0.6-0.2l1.9,1.4c-1.1,1.8-2.7,3.8-4.4,5.4v1.8h4.8V317.8z"/>
			<path class="st5" d="M181.4,316.7c-1-0.7-3.1-1.9-4.4-2.6l1.6-2.1c1.3,0.6,3.4,1.7,4.5,2.3L181.4,316.7z M177.3,325.4
				c1.3-1.9,3.2-4.8,4.5-7.6l2.1,1.9c-1.3,2.5-2.8,5.3-4.3,7.6L177.3,325.4z M182.5,310.2c-0.9-0.7-3-1.9-4.4-2.7l1.6-2
				c1.4,0.6,3.4,1.8,4.4,2.4L182.5,310.2z M193.1,314.8v3.1h4.9v9.6h-2.7v-0.8h-7.2v1h-2.6v-9.7h4.9v-3.1h-6.4v-2.8h6.4v-2.8
				c-1.6,0.3-3.2,0.4-4.7,0.6c-0.1-0.7-0.5-1.9-0.8-2.5c4.1-0.4,8.6-1.2,11.2-2.2l2.2,2.2c-1.6,0.6-3.3,1-5.3,1.4v3.3h6.1v2.8
				L193.1,314.8L193.1,314.8z M195.4,320.4h-7.2v3.5h7.2V320.4z"/>
			<path class="st5" d="M222.9,310.5c0,0,0,0.9,0,1.3c-0.2,9.8-0.4,13.3-1.2,14.5c-0.6,0.8-1.1,1-1.9,1.2c-0.7,0.2-1.9,0.1-3,0.1
				c-0.1-0.8-0.4-1.9-0.8-2.8c1,0.1,1.9,0.1,2.4,0.1c0.4,0,0.6-0.1,0.8-0.4c0.5-0.6,0.7-3.6,0.9-11.4H218
				c-0.3,6.5-1.4,11.4-5.5,14.6c-0.4-0.6-1-1.4-1.7-1.9c-3.4,0.4-6.9,0.7-9.5,0.9l-0.4-2.4c1.4-0.1,3.1-0.2,4.9-0.4v-1.4h-4.3v-2
				h4.3v-0.9h-4.2v-7.4h4.2v-0.9h-4.7v-2h4.7v-0.9c-1.4,0.1-2.8,0.2-4.1,0.2c-0.1-0.6-0.4-1.5-0.6-2c3.5-0.2,7.7-0.6,10.4-1.2
				l1.3,2.1c-1.3,0.3-2.8,0.5-4.4,0.6v1.2h4.6v1.3h2.2c0-1.6,0-3.2,0-5h2.8c0,1.8,0,3.4-0.1,5L222.9,310.5L222.9,310.5z
				 M203.9,315.1h1.9v-1h-1.9V315.1z M205.8,317.8v-1.1H204v1.1H205.8z M208.4,323.9c1.4-0.1,2.8-0.2,4.2-0.4
				c1.9-2.6,2.5-6,2.6-10.4H213v-1.9h-4.6v0.9h4.3v7.4h-4.3v0.9h4.4v2h-4.4L208.4,323.9L208.4,323.9z M210.3,315.1v-1h-1.9v1H210.3z
				 M208.4,316.7v1.1h1.9v-1.1H208.4z"/>
		</g>
	</g>
</g>
<g class="st0">
	<g class="st1">
		<g>
			<g>
				<path class="st2" d="M165.7,418.5c-3.9,1.1-6.5,4.3-8,7.9c-1.9,4.9-1.3,10.3-0.7,15.4c0.6,4.7,0.9,9.3,0.5,14
					c-0.4,4.4-1.3,8.7-2.6,12.9c-5.5,17.2-18.9,32.4-36.1,38.3c-5.6,1.9-11.7,2.7-17.5,1.1c-5.1-1.4-9.8-4.6-12.3-9.3
					c-0.3-0.5-1.1-0.1-0.8,0.5c4.6,8.4,14.6,11.5,23.7,10.3c9.4-1.3,18.3-6.2,25.4-12.4c13.3-11.5,21.5-29,21.4-46.6
					c0-6.1-1.7-12.2-1.2-18.4c0.4-5.3,3.1-11.2,8.6-12.7C166.5,419.2,166.3,418.3,165.7,418.5L165.7,418.5z"/>
			</g>
		</g>
		<g>
			<path class="st9" d="M131.4,314c2.4-11.4,11.6-36.1,29.4-47.3c22.3-14.1,43.2-18.1,67.3-12.1s35.3,22.2,41.5,30.6
				c8.6,11.5,16,31.7,10.6,57.3c-2.5,11.8-15.9,33.3-38.9,52c-34.1,27.7-68.1,20.4-68.1,20.4s-24.5-3.6-38.3-36.9
				C127.7,360.9,127.3,333.8,131.4,314z"/>
			<polygon class="st9" points="169.1,426.6 155.7,418 165.1,409.1 173.3,414.4 			"/>
			<g>
				<g>
					<path class="st4" d="M142.6,335.7c-0.7,0-1.3-0.5-1.4-1.2c-2.1-13.8,0.7-28.5,7.8-40.5c7.2-12.2,18.5-21.5,31.8-26.3
						c0.7-0.3,1.5,0.1,1.7,0.8c0.3,0.7-0.1,1.5-0.8,1.7c-12.5,4.5-23.6,13.7-30.4,25.1c-6.8,11.5-9.5,25.6-7.5,38.7
						c0.1,0.7-0.4,1.4-1.1,1.6C142.7,335.7,142.6,335.7,142.6,335.7z"/>
				</g>
				<g>
					<path class="st4" d="M196.4,265.6l-6.1,1.3c-0.7,0.2-1.5-0.3-1.6-1.1c-0.2-0.7,0.3-1.5,1.1-1.6l6.1-1.3
						c0.7-0.2,1.5,0.3,1.6,1.1C197.6,264.7,197.1,265.4,196.4,265.6z"/>
				</g>
			</g>
		</g>
	</g>
	<g class="st1">
		<g>
			<path class="st5" d="M193.6,295.8c-0.4,2.2-1,4.4-1.9,6.3c0.4,0.3,0.8,0.6,1.5,0.9c1.7,1,3.9,1.1,6.8,1.1c2.8,0,7.1-0.3,9.7-0.6
				c-0.3,0.7-0.8,2.1-0.8,3c-1.9,0.1-6.3,0.3-9.1,0.3c-3.2,0-5.2-0.3-6.9-1.3c-1-0.6-1.9-1.4-2.3-1.4c-0.6,0-1.4,1.7-2,3l-1.9-2.7
				c0.8-1,1.8-1.9,2.5-2.3c0.6-1.2,1-2.7,1.4-4.2h-3.1c0.6-1.4,1.2-3.3,1.8-5.2H187V290h5.7c-0.5,1.7-1.1,3.6-1.7,5.3h1l0.5-0.1
				L193.6,295.8z M189.5,289.5c-0.3-1.1-0.9-2.8-1.3-4.2l2.5-0.7c0.5,1.3,1,2.9,1.4,4L189.5,289.5z M199.8,296.9
				c0,0.8,0,1.9,0.1,2.6c-4.1,1.1-4.9,1.5-5.4,1.9c-0.2-0.6-0.6-1.7-1.1-2.2c0.5-0.3,0.9-0.8,0.9-1.9V287c1.7-0.6,3.4-1.6,4.5-2.4
				l1.6,1.8v-0.4h7.8v12.3c0,1.2-0.2,1.9-0.9,2.2c-0.7,0.4-1.8,0.5-3.2,0.5c-0.1-0.7-0.5-1.8-0.8-2.4c0.8,0,1.6,0,1.9,0
				s0.4-0.1,0.4-0.4v-9.7h-2.6v14.9h-2.6V287c-1.1,0.6-2.3,1-3.5,1.5v9.2L199.8,296.9z"/>
			<path class="st5" d="M232.1,303.7c0,1.6-0.4,2.4-1.4,2.9c-1,0.5-2.6,0.5-4.7,0.5c-0.1-0.8-0.6-2.1-0.9-2.9
				c1.4,0.1,3.1,0.1,3.5,0.1c0.5,0,0.6-0.1,0.6-0.6v-12.3h-14.2v15.7h-2.9v-18.4h6.7c0.5-1.3,1-2.8,1.3-4l3.6,0.5
				c-0.5,1.2-1.1,2.5-1.7,3.5h10L232.1,303.7L232.1,303.7z M220.1,302v1.7h-2.6v-9.9h9.4v8.2L220.1,302L220.1,302z M220.1,296.2v3.2
				h4.2v-3.2H220.1z"/>
		</g>
		<g>
			<path class="st5" d="M157.3,332.1c1.3,0.5,3,0.6,4.9,0.6c1.9,0,8.2,0,10.5-0.1c-0.4,0.6-0.9,1.9-1.1,2.9h-9.4
				c-4.4,0-7.3-0.6-9.3-3.3c-0.3,1.5-0.6,2.8-1.1,3.9c-0.5-0.4-1.7-1-2.3-1.3c1.2-2.4,1.4-6.3,1.4-10.4l2.5,0.2
				c0,1.1-0.1,2.2-0.1,3.2c0.4,1.1,0.8,1.9,1.4,2.6v-7.2h-4.5v-2.5h4.1v-2.2h-3.5v-2.5h3.5v-2.4h2.7v2.4h3.4v2.5h-3.4v2.2h3.8v0.6
				c1.6-1,2.5-2.5,2.9-4.4H161v-2.4h10.7c0,0,0,0.6,0,1c-0.2,4-0.4,5.7-0.9,6.4c-0.5,0.6-0.9,0.7-1.6,0.8c-0.6,0.1-1.6,0.1-2.7,0.1
				c0-0.7-0.3-1.8-0.7-2.4c0.8,0.1,1.6,0.1,1.9,0.1c0.3,0,0.5-0.1,0.7-0.3c0.2-0.3,0.4-1.2,0.5-3.3h-2.6c-0.6,3.1-1.9,5.1-4.1,6.5
				c-0.3-0.3-0.9-0.8-1.5-1.2v1.1h-3.4v2.6h3.2v2.5h-3.2V332.1z M161.6,323.6h9.5v7.6h-9.5V323.6z M164.3,328.8h3.9v-3h-3.9V328.8z"
				/>
			<path class="st5" d="M195.8,315.7v2.4h-21.3v-2.4h9.3c-0.2-0.6-0.4-1.2-0.6-1.7l3-0.7c0.3,0.7,0.6,1.7,0.9,2.4L195.8,315.7
				L195.8,315.7z M195.2,333.4c0,1.3-0.3,1.8-1.2,2.1c-0.8,0.3-2.1,0.3-3.8,0.3c-0.2-0.6-0.6-1.5-0.8-2h-6.9v1h-2.7v-6.4h10.5v5.4
				H190c0.8,0,1.7,0,1.9,0c0.4,0,0.5-0.1,0.5-0.4v-5.8H178v8.4h-2.8v-10.8h20L195.2,333.4L195.2,333.4z M192.9,324.2h-15.2V319h15.2
				V324.2z M190,321h-9.4v1.3h9.4V321z M187.7,330.4h-5.3v1.4h5.3V330.4z"/>
			<path class="st5" d="M209.2,320.9H198v-2.2h1.3v-3.9h2.1v3.9h1.3v-5.2h2.3v1.9h3.5v2h-3.5v1.3h4.1L209.2,320.9L209.2,320.9z
				 M216,314.3c-0.2,0.4-0.3,0.7-0.5,1.1c1.3,2.2,3.3,4.5,5.1,5.8c-0.6,0.5-1.3,1.5-1.7,2.2c-0.6-0.6-1.3-1.3-1.9-2v1.7h-5.2v-1.4
				c-0.6,0.7-1.1,1.4-1.8,2c-0.4-0.6-1.1-1.5-1.6-2v13.7h-2v-0.7h-7.9v-13.3h1.9v3.1c0.6-0.9,0.9-2,1-3.4l1.4,0.2
				c-0.1,0.6-0.2,1.1-0.3,1.7c0.3,0.3,0.6,0.6,0.8,1c0.5-0.8,0.7-1.8,0.9-2.9l1.4,0.2c-0.1,0.6-0.2,1.1-0.3,1.7
				c0.4,0.5,0.8,1,1.1,1.4v-2.9h2v0.1c2.1-2,4.1-5.3,5.2-8.1L216,314.3z M202.9,325.4c-0.2-0.3-0.4-0.6-0.6-0.9
				c-0.3,0.5-0.6,1-0.9,1.4c-0.2-0.2-0.5-0.6-0.7-0.8v0.8h6v-0.9l-0.7,0.9c-0.2-0.4-0.6-0.9-0.9-1.4c-0.3,0.5-0.6,1-1,1.4
				c-0.2-0.2-0.5-0.5-0.7-0.7L202.9,325.4z M206.6,327.9h-6v3.5c0.6-0.8,0.9-2,1-3.4l1.4,0.2c-0.1,0.6-0.2,1.1-0.3,1.7
				c0.3,0.4,0.6,0.7,0.8,1c0.5-0.8,0.7-1.9,0.8-2.9l1.3,0.2c-0.1,0.6-0.2,1.1-0.3,1.7c0.4,0.5,0.8,0.9,1.1,1.4L206.6,327.9
				L206.6,327.9z M200.6,332.7h0.6c-0.2-0.2-0.4-0.5-0.6-0.7V332.7z M203,332.4c-0.2-0.3-0.5-0.6-0.7-1c-0.2,0.5-0.5,0.9-0.8,1.3
				h2.5c-0.2-0.2-0.4-0.5-0.6-0.6L203,332.4z M206,332.7c-0.3-0.4-0.6-0.9-0.9-1.4c-0.3,0.5-0.6,0.9-0.9,1.4H206z M206.6,332.7V332
				l-0.6,0.7H206.6z M220,326.1c-1,2.2-2.7,4.4-4.1,6.2c0.7,0.7,1.3,1.4,1.9,1.9l-1.9,1.9c-1.1-1.4-3.4-3.8-5.1-5.4l1.7-1.7
				c0.5,0.5,1.1,1,1.8,1.6c0.8-1,1.7-2.2,2.4-3.4h-6.6v-2.4h7.9l0.4-0.2L220,326.1z M216.6,320.8c-0.7-0.9-1.4-2-2-3.2
				c-0.6,1.1-1.2,2.1-1.9,3.2H216.6z"/>
			<path class="st5" d="M230.2,328.9c-0.4-0.6-1.1-1.5-1.8-2.3v9.4h-2.8v-8.9c-0.9,0.8-1.8,1.6-2.8,2.1c-0.2-0.8-0.7-2.4-1.1-2.9
				c2.4-1.3,4.7-3.7,6.2-6.2h-5.5v-2.6h4.3c-0.5-0.9-1.2-2-1.9-3l2.2-1.2c0.8,0.9,1.8,2.1,2.2,3.1l-1.9,1.1h2.2l0.5-0.1l1.5,1.1
				c-0.6,1.8-1.7,3.5-2.8,5c1,0.8,2.7,2.6,3.2,3L230.2,328.9z M244.6,332.4v2.9h-13.9v-2.9h5.8v-8.9h-4.7v-2.8h4.7v-7h3v7h4.5v2.8
				h-4.6v8.9H244.6z"/>
			<path class="st5" d="M259.5,314.2c-0.1,0.2-0.3,0.3-0.4,0.5c2.2,1.9,6.2,3.6,10,4.4c-0.6,0.5-1.4,1.5-1.8,2.2
				c-0.5-0.1-1-0.3-1.5-0.5v6.2h-16.8v-6.1c-0.5,0.2-1,0.4-1.5,0.5c-0.3-0.6-1-1.7-1.6-2.2c4.4-1,8.7-3.1,10.9-5.8L259.5,314.2z
				 M265,320.4c-1.1-0.4-2.2-0.9-3.2-1.5v0.6h-8.4v-0.5c-0.9,0.5-1.9,0.9-2.9,1.3H265z M250.5,327.7h14.2v8.2h-3v-0.6h-8.4v0.6h-2.8
				V327.7z M253.2,325.2c-0.1-0.7-0.5-1.8-0.8-2.5l1.9-0.6h-2.7v3.1L253.2,325.2L253.2,325.2z M253.2,329.6v0.9h8.4v-0.9H253.2z
				 M261.7,333.4v-0.9h-8.4v0.9H261.7z M256.2,322.2h-1.9c0.5,0.8,0.8,1.9,0.9,2.6l-1.6,0.5h2.5V322.2z M259.6,317.7
				c-0.7-0.5-1.4-1-2-1.6c-0.6,0.6-1.3,1-2,1.6H259.6z M258.5,322.2v3.1h2.2l-1.5-0.4c0.4-0.7,0.7-1.9,0.9-2.6L258.5,322.2
				L258.5,322.2z M263.3,322.2h-2.5l1.9,0.5c-0.5,0.9-0.9,1.9-1.3,2.6h1.9V322.2z"/>
		</g>
		<g>
			<path class="st5" d="M169.4,343.2c-0.5,1.4-1.1,2.9-1.8,4.3V365H165v-13c-0.6,0.8-1.2,1.6-1.8,2.3c-0.3-0.6-1-2.1-1.5-2.8
				c2-2.2,4-5.7,5.1-9L169.4,343.2z M184.2,346.1v2.3h-15.5v-2.3h6.9c-0.4-0.9-0.9-2-1.5-2.9l2.4-0.9c0.6,1,1.4,2.3,1.8,3.2
				l-1.4,0.6H184.2z M170,356.8h12.8v8h-2.5v-0.6h-7.8v0.7h-2.4L170,356.8L170,356.8z M182.5,352h-12v-2.2h12V352z M170.4,353.2h12
				v2.2h-12V353.2z M172.5,359.1v2.7h7.8v-2.7H172.5z"/>
			<path class="st5" d="M190.9,351.2c-0.4,3.2-0.9,7.3-1.8,10l-2.9-1.1c0.8-2.6,1.6-6.2,1.9-9.4L190.9,351.2z M195.4,349.2v11.2
				c0,1.1,0.2,1.3,1.4,1.3h3.4c1.2,0,1.4-0.7,1.6-4.5c0.6,0.5,1.9,1,2.7,1.2c-0.4,4.5-1.1,6-4.1,6h-4c-3.2,0-4-0.9-4-4v-11.2H195.4z
				 M195.1,342.7c2.1,1.4,5.2,3.5,6.7,5l-2.1,2.2c-1.3-1.5-4.3-3.8-6.5-5.3L195.1,342.7z M205.7,349.9c1.4,2.9,2.6,6.5,3.2,9
				l-2.9,1.2c-0.4-2.5-1.6-6.3-2.9-9.1L205.7,349.9z"/>
			<path class="st5" d="M226,342.7c1.1,3.5,3.5,6.9,6.9,8.7c-0.6,0.6-1.6,1.9-2,2.7c-0.6-0.4-1.3-0.9-1.9-1.4
				c-0.3,7.1-0.6,9.9-1.4,10.8c-0.6,0.8-1.3,1-2.2,1.1c-0.8,0.1-2.2,0.1-3.6,0.1c-0.1-0.8-0.5-2-0.9-2.9c1.3,0.1,2.6,0.1,3.2,0.1
				c0.5,0,0.7-0.1,0.9-0.4c0.5-0.6,0.7-2.7,0.9-7.7h-4.7c-0.6,4.6-2.1,8.7-8.4,11.1c-0.4-0.8-1.2-2-1.9-2.7c5.5-1.8,6.7-4.9,7.1-8.4
				h-4.1v-1.6c-0.6,0.6-1.2,1.2-1.9,1.8c-0.5-0.6-1.8-1.7-2.4-2.1c2.7-1.9,4.9-5.2,5.9-8.8l3.1,0.7c-0.9,2.7-2.2,5.2-3.8,7.2h12.5
				c-1.6-1.7-2.8-3.7-3.6-5.7h-3.8v-2.7H226z"/>
			<path class="st5" d="M255.1,349.2c-0.4,3.5-1,6.6-2,9.1c0.9,1.9,2.2,3.3,3.8,4.3c-0.6,0.4-1.3,1.3-1.6,1.9
				c-1.5-0.9-2.6-2.2-3.5-3.8c-1.1,1.7-2.5,3.2-4.4,4.3c-0.2-0.4-0.6-1.2-1.1-1.8l-1.6,1.3c-0.8-0.6-1.9-1.1-3.2-1.7
				c-1.6,0.7-3.8,1.4-6.8,1.8c-0.2-0.6-0.6-1.4-1-1.9c2.1-0.3,3.8-0.6,5.1-1.1c-1.1-0.5-2.2-0.8-3.2-1.1c0.4-0.4,0.7-0.8,1-1.4
				l-2.1,0.1l-0.2-1.9c1-0.1,2.3-0.1,3.7-0.2c0.3-0.5,0.6-1,0.8-1.5h-3.5v-4.4h4.4v-0.6H236v-2.3h-1.9v-2h1.9v-2.4h3.7v-1.5h2.1v1.5
				h3.9v2.4h1.7v2h-1.7v2.5h-3.9v0.6h4.4v1.8c1.6-2.6,2.4-6.7,2.8-10.8l2.4,0.3c-0.2,1.4-0.4,2.7-0.6,4h5.7v2.5L255.1,349.2
				L255.1,349.2z M237.9,354.1h1.9v-0.9h-1.9V354.1z M238.5,345.6v0.7h1.3v-0.7H238.5z M239.8,349v-0.8h-1.3v0.8H239.8z
				 M239.2,359.8c0.8,0.3,1.6,0.6,2.4,0.8c0.9-0.6,1.4-1.1,1.7-1.7l-3.7,0.2L239.2,359.8z M245.7,358.9c-0.2,0.9-0.7,1.9-1.9,2.9
				c0.8,0.4,1.7,0.7,2.3,1.1c1.9-1.1,3.3-2.7,4.3-4.6c-0.6-1.5-1-3.1-1.4-4.8c-0.3,0.6-0.6,1.2-0.9,1.8c-0.4-0.5-1.2-1.4-1.8-1.8
				v2.5h-4.8c-0.3,0.5-0.5,0.9-0.7,1.4l2.8-0.2v-0.8h2.2v0.7l0.7-0.1v1.9L245.7,358.9z M241.9,345.6v0.7h1.4v-0.7H241.9z M243.3,349
				v-0.8h-1.4v0.8H243.3z M241.9,353.2v0.9h1.9v-0.9H241.9z M250.5,349.2c0.3,2,0.7,4,1.2,5.7c0.5-1.7,0.8-3.6,1-5.7H250.5z"/>
		</g>
	</g>
</g>
</svg>
