<?xml version="1.0" encoding="UTF-8"?>
<svg xmlns="http://www.w3.org/2000/svg" version="1.1" viewBox="0 0 100 100">
  <defs>
    <style>
      .cls-1 {
        fill: #225563;
      }

      .cls-2 {
        fill: #1c8ba5;
      }

      .cls-3 {
        fill: #67c0d5;
      }

      .cls-4 {
        fill: #ffb263;
      }

      .cls-5 {
        fill: #ffc285;
      }

      .cls-6 {
        fill: #fa9f44;
      }

      .cls-7 {
        fill: #e88520;
      }
    </style>
  </defs>
  <!-- Generator: Adobe Illustrator 28.6.0, SVG Export Plug-In . SVG Version: 1.2.0 Build 709)  -->
  <g>
    <g id="_圖層_1" data-name="圖層_1">
      <g>
        <rect class="cls-3" x="42.8" y="84.9" width="15.7" height="13.8" rx="5.9" ry="5.9"/>
        <rect class="cls-1" x="46.7" y="67.9" width="40.3" height=".7" transform="translate(-24.6 96.1) rotate(-62.6)"/>
        <rect class="cls-1" x="33.5" y="47.8" width=".7" height="41.5" transform="translate(-28.8 24.7) rotate(-28.7)"/>
        <path class="cls-2" d="M45.7,88.3c0,1.6-.8,2.8-1.8,2.8s-1.8-1.3-1.8-2.8.8-2.8,1.8-2.8,1.8,1.3,1.8,2.8Z"/>
        <path class="cls-2" d="M52.5,88.3c0,1.6-.8,2.8-1.8,2.8s-1.8-1.3-1.8-2.8.8-2.8,1.8-2.8,1.8,1.3,1.8,2.8Z"/>
        <path class="cls-2" d="M59.7,88.3c0,1.6-.8,2.8-1.8,2.8s-1.8-1.3-1.8-2.8.8-2.8,1.8-2.8,1.8,1.3,1.8,2.8Z"/>
        <rect class="cls-1" x="49.8" y="78.9" width=".7" height="6.6"/>
        <path class="cls-7" d="M81.8,32.9c.2,23.6-29.8,44.9-31.7,46.2,0,0,0,0,0,0,0,0,0,0,0-.1,0,0,0,.1,0,.1,0,0-31.9-22-31.7-46.3C18.4,8.7,37.1.1,50,1.4c0,0,0,0,.1,0,12.9-1.2,31.5,7.3,31.7,31.5Z"/>
        <path class="cls-5" d="M81.8,32.9c.2,23.6-29.8,44.9-31.7,46.2V1.4c12.9-1.2,31.5,7.3,31.7,31.5Z"/>
        <path class="cls-6" d="M68.6,32.9c0,23.3-17.1,44.4-18.5,46.2,0,0-.1.1-.1.1,0,0,0,0,0-.1,0,0,0,.1,0,.1,0,0-18.7-22-18.6-46.3C31.5,8.7,42.5.1,50,1.4c0,0,0,0,.1,0,7.5-1.2,18.4,7.4,18.5,31.5Z"/>
        <path class="cls-4" d="M68.6,32.9c0,23.3-17.1,44.4-18.5,46.2V1.4c7.5-1.2,18.4,7.4,18.5,31.5Z"/>
      </g>
    </g>
  </g>
</svg>