<?xml version="1.0" encoding="UTF-8"?>
<svg id="_圖層_1" data-name="圖層_1" xmlns="http://www.w3.org/2000/svg" viewBox="0 0 835.03 82.7">
  <defs>
    <style>
      .cls-1 {
        fill: #f26162;
      }
    </style>
  </defs>
  <path class="cls-1" d="M788.17,77.49c-121.18,0-242.35-.05-363.53.05-20.46.02-40.93.64-61.39,1.01-17.46.32-34.93.7-52.39,1.05-51.89,1.02-103.79,2.4-155.69,2.94-41.09.43-82.19-.1-123.29-.4-7.63-.06-15.28-.82-22.86-1.75-1.51-.18-3.69-2.43-3.96-4.01C2.17,59.77-1.67,43.21.78,26.15c.23-1.63.28-3.32.73-4.89C5.87,6.03,7.05,5.18,22.78,5.31c49.26.4,98.52.92,147.79,1.14,37.27.16,74.54.2,111.8-.2,32.1-.35,64.19-1.81,96.29-2.07,69.57-.57,139.14-.72,208.7-.99,27.97-.11,55.94.26,83.9-.17,46.41-.72,92.81-1.92,139.21-2.88,5.45-.11,10.96-.37,16.34.26,4.82.57,7.33,3.82,7.4,9,.16,12.1,1.05,24.2.76,36.28-.22,9.04-1.78,18.06-2.81,27.08-.47,4.14-2.62,5.74-7.04,5.63-12.31-.3-24.63-.11-36.95-.11,0-.27,0-.53,0-.8Z"/>
</svg>