<?xml version="1.0" encoding="utf-8"?>
<!-- Generator: Adobe Illustrator 27.8.1, SVG Export Plug-In . SVG Version: 6.00 Build 0)  -->
<svg version="1.1" id="圖層_3" xmlns="http://www.w3.org/2000/svg" xmlns:xlink="http://www.w3.org/1999/xlink" x="0px" y="0px"
	 viewBox="0 0 380.9 761.3" style="enable-background:new 0 0 380.9 761.3;" xml:space="preserve">
<style type="text/css">
	.st0{display:none;}
	.st1{display:inline;}
	.st2{fill:#E6C5D2;}
	.st3{fill:#8CCFF1;}
	.st4{opacity:0.5;}
	.st5{fill:#FFFFFF;}
	.st6{fill:#FFD1B1;}
	.st7{fill:#FFB1B8;}
	.st8{opacity:0.5;fill:#FFFFFF;}
	.st9{fill:#C3DEA9;}
</style>
<g class="st0">
	<g class="st1">
		<g>
			<path class="st2" d="M242.7,645.5l-0.7-0.1c10.5-106.2,8-124.3-2.9-200.4c-0.6-4.1-1.2-8.4-1.8-12.8
				c-6.4-45.6,13.8-139.1,13.9-139.8l0.7,0.2c-0.1,0.7-20.4,94.1-13.9,139.5c0.6,4.5,1.2,8.7,1.8,12.8
				C250.7,521.2,253.2,539.3,242.7,645.5z"/>
		</g>
		<path class="st3" d="M139.5,130.4c-33.1,21.5-46.1,60.4-28.8,101.1c12.2,28.9,41.7,51.5,72.8,58.6c30,6.9,63.6-5.9,68.1-10
			c4.5-4.1,19.9-18.6,23.7-44.4c7.2-48.6,0.6-86.2-42.9-109.9C210.2,113.8,172,109.4,139.5,130.4z"/>
		<g class="st4">
			<g>
				<path class="st5" d="M122.1,228.9c-0.8,0.2-1.6-0.2-1.9-1c-5.8-15.4-6-33.2-0.7-48.8c5.4-15.8,16.3-29.3,30.5-38.1
					c0.8-0.5,1.7-0.2,2.2,0.5c0.5,0.8,0.2,1.7-0.5,2.2c-13.4,8.2-24,21.5-29.1,36.4c-5.1,14.9-4.9,31.9,0.7,46.6
					c0.3,0.8-0.1,1.8-0.9,2.1C122.2,228.9,122.1,228.9,122.1,228.9z"/>
			</g>
			<g>
				<path class="st5" d="M167.5,134.9l-6.8,2.9c-0.8,0.4-1.8,0-2.1-0.8c-0.4-0.8,0-1.8,0.8-2.1l6.8-2.9c0.8-0.4,1.8,0,2.1,0.8
					C168.7,133.6,168.3,134.6,167.5,134.9z"/>
			</g>
		</g>
		<polygon class="st3" points="261.6,288.6 247.5,296 244.4,283.4 253.1,278.9 		"/>
	</g>
	<g class="st1">
		<g>
			<path class="st5" d="M155.9,195.5c2.3,2.9,5.8,5.6,9.3,7.2c-0.7,0.6-1.7,1.9-2.2,2.7c-3.1-1.6-6.1-4.2-8.5-7.2v8.3h-3.3v-8.1
				c-2.4,2.9-5.4,5.4-8.5,7c-0.5-0.8-1.5-2-2.3-2.7c3.5-1.5,7-4.2,9.3-7.1h-8.4v-3.1h9.9v-3.3h-7.9V186h7.9v-3.9h3.3v3.9h8.1v3.1
				h-8.1v3.3h10v3.1H155.9z"/>
			<path class="st5" d="M188.3,197.4c-0.7-0.8-2.1-2-3.4-3c-0.5,0.9-1.1,1.6-1.7,2.2c-0.4-0.4-1.3-0.9-2-1.3c2.3,3.1,6,5.8,9.9,7.3
				c-0.8,0.7-1.8,2-2.3,2.8c-3.1-1.5-6.1-3.8-8.4-6.6v7.6h-3.3V199c-2.3,2.7-5.3,5-8.3,6.4c-0.5-0.8-1.5-2-2.2-2.7
				c4.2-1.6,8.3-4.9,10.5-8.4v-6h-9.5v-3h9.5v-3.2h3.3v3.2h9.8v3h-9.8v5.8c0.1,0.2,0.3,0.4,0.4,0.6c1.7-1.5,2.8-3.8,3.3-6.3l3,0.5
				c-0.2,1-0.5,1.9-0.9,2.8c1.5,1.1,3.3,2.5,4.2,3.4L188.3,197.4z M174.9,189.1c-0.3,1-0.6,1.9-0.9,2.8c0.9,0.8,1.9,1.7,2.5,2.3
				l-2.1,2.2c-0.4-0.5-1-1.1-1.7-1.8c-0.9,1.4-1.8,2.6-3,3.6c-0.5-0.5-1.7-1.6-2.4-2c2.3-1.6,3.9-4.4,4.6-7.5L174.9,189.1z"/>
			<path class="st5" d="M202.5,203c0,1.4-0.2,2.3-1.1,2.8c-0.8,0.5-1.9,0.6-3.6,0.6c-0.1-0.8-0.4-2.2-0.8-3c0.9,0.1,1.9,0,2.2,0
				s0.4-0.1,0.4-0.5v-5.1h-2.7c-0.2,3-0.8,6.2-1.8,8.6c-0.5-0.4-1.8-1.2-2.5-1.4c1.6-3.5,1.7-8.7,1.7-12.5V183h8.2V203z
				 M199.6,194.9v-3.1h-2.5v0.7c0,0.8,0,1.6,0,2.4H199.6z M197.1,185.9v3h2.5v-3H197.1z M216.7,192.6c-0.6,3.5-1.7,6.4-3.1,8.7
				c1.1,1.1,2.4,2.1,3.8,2.7c-0.6,0.6-1.5,1.7-1.9,2.4c-1.4-0.8-2.6-1.7-3.7-2.8c-1,1.1-2.1,2-3.4,2.8c-0.3-0.6-1-1.5-1.5-2.1v2.1
				h-2.9v-23.4h12v5c0,1.4-0.3,2.1-1.4,2.5c-1,0.4-2.5,0.4-4.5,0.4c-0.1-0.8-0.5-1.8-0.9-2.6c1.3,0.1,2.8,0.1,3.2,0.1
				c0.4,0,0.5-0.1,0.5-0.4v-2.1h-6.1v6.2h7.5l0.5-0.1L216.7,192.6z M206.8,204c1.2-0.7,2.2-1.6,3.2-2.7c-1.3-1.9-2.2-4.1-3-6.4h-0.2
				V204z M209.6,194.9c0.5,1.4,1.2,2.8,2,4.1c0.7-1.2,1.3-2.6,1.7-4.1H209.6z"/>
			<path class="st5" d="M241.1,187.3c-0.7,1.5-1.5,2.7-2.6,3.8c1.4,0.7,3,1.2,4.8,1.5c-0.7,0.6-1.5,1.8-1.9,2.6
				c-2-0.5-3.7-1.3-5.3-2.2c-1.5,0.9-3.3,1.6-5.3,2.2c-0.2-0.3-0.4-0.7-0.7-1.1c-0.4,1.6-0.8,3.2-1.3,4.3l-2.1-1
				c0.3-1,0.6-2.3,0.8-3.6h-1.4v9.2c0,1.4-0.2,2.2-1.1,2.7c-0.9,0.5-2.1,0.5-3.7,0.5c-0.1-0.9-0.5-2.1-0.9-2.9c1,0,2,0,2.3,0
				c0.3,0,0.4-0.1,0.4-0.4v-5.6c-0.9,1.9-2,3.7-3.2,4.8c-0.3-0.9-0.9-2.2-1.4-3c1.4-1.3,2.8-3.3,3.7-5.4H219v-2.7h6
				c-1.5-0.9-3.4-1.9-5-2.5l1.9-2c0.6,0.2,1.4,0.5,2.1,0.8c0.6-0.5,1.1-1.1,1.6-1.6h-6.2v-2.6h8.4l0.5-0.1l2,1.2
				c-0.9,1.5-2.3,3-3.8,4.3c0.8,0.4,1.4,0.8,1.9,1.1l-1.3,1.3h1.2l0.4-0.1l1.9,0.6l-0.1,0.6c1.1-0.3,2.2-0.7,3.2-1.2
				c-0.7-0.6-1.3-1.4-1.8-2.2c-0.4,0.4-0.8,0.8-1.2,1.1c-0.6-0.5-1.8-1.3-2.5-1.7c2-1.5,4-3.8,5-6.2l2.9,0.8c-0.3,0.6-0.6,1.2-1,1.8
				h7.7v2.6H241.1z M242.3,196.6c0,0-0.1,0.8-0.1,1.2c-0.4,4.5-0.9,6.5-1.6,7.3c-0.6,0.6-1.1,0.8-1.9,0.9c-0.6,0.1-1.7,0.1-2.9,0.1
				c0-0.9-0.4-2.1-0.8-2.9c0.9,0.1,1.8,0.1,2.2,0.1c0.4,0,0.6-0.1,0.8-0.3c0.4-0.3,0.7-1.5,1-3.9h-3c-0.9,3.1-2.7,5.6-6.8,7.2
				c-0.3-0.7-1.1-1.8-1.8-2.4c3.1-1.1,4.6-2.8,5.4-4.8h-3.1v-2.6h3.8c0.1-0.8,0.2-1.5,0.3-2.3h3.1c-0.1,0.8-0.2,1.6-0.3,2.3H242.3z
				 M233.8,187.3c0.6,0.8,1.3,1.6,2.2,2.2c0.7-0.6,1.3-1.4,1.7-2.2H233.8z"/>
		</g>
		<g>
			<path class="st5" d="M179.9,228.2c-0.2,0.4-0.3,0.9-0.5,1.2h9.3v5.3c0,1.2-0.2,1.9-1,2.3c-0.8,0.4-1.9,0.4-3.3,0.4
				c-0.1-0.8-0.5-1.8-0.9-2.5c0.8,0,1.6,0,1.8,0c0.3,0,0.4-0.1,0.4-0.3v-2.9h-2.8v5.5H180v-5.5h-2.7v5.5h-2.8v-5.5h-2.7v5.6h-2.9
				v-8.1h7.5c0.1-0.4,0.2-0.8,0.3-1.2H167v-2.4h3.6l-0.8-2.1c1.6-0.2,3.9-0.5,6.2-0.9l0.1,1.7c-1.8,0.4-3.7,0.9-5.3,1.2H190v2.4
				H179.9z M170,223.7h-2.9v-5.8h9.8v-1.2h-8.7v-2.2h20.4v2.2h-8.7v1.2h10v5.8h-3.1v-3.5h-1.5l1,1.3c-1.4,0.6-3.3,1-4.7,1.3l-1-1.5
				c1-0.2,2.6-0.7,3.7-1.1h-4.6v5h-3v-5h-5.1c1.4,0.3,3.3,0.7,4.2,1.1l-0.8,1.7c-1-0.4-3-1-4.5-1.3l0.8-1.5H170V223.7z M181,222.6
				c1.9,0.2,4.6,0.8,6,1.2l-0.6,2c-1.4-0.5-4.1-1.2-6-1.5L181,222.6z"/>
			<path class="st5" d="M215.3,222.9c-1.5,1.7-3.4,3.6-4.9,5c1.8,2,4,3.7,6.4,4.7c-0.8,0.7-1.8,1.9-2.3,2.8
				c-3.6-1.9-6.4-4.9-8.5-8.7v7.1c0,1.8-0.4,2.7-1.5,3.2c-1.1,0.5-2.8,0.7-5.1,0.6c-0.1-0.9-0.6-2.3-1-3.2c1.6,0.1,3.2,0.1,3.7,0.1
				c0.5,0,0.7-0.2,0.7-0.6v-4c-3,1.9-6.1,3.8-8.6,5.4l-2-2.8c2.5-1.3,6.7-3.6,10.6-5.8v-6.3h-9.8v-3h9.8v-3.9h3.2v3.9h5.2
				c-1.1-0.7-2.4-1.5-3.5-2l1.8-2c1.5,0.7,3.7,1.9,4.8,2.7l-1.1,1.3h2.8v3h-10v0.3c0.7,1.7,1.5,3.4,2.6,5c1.4-1.4,2.9-3.1,3.9-4.6
				L215.3,222.9z M198.1,227.8c-0.8-1.4-2.6-3.5-4.1-4.9l2.4-1.6c1.5,1.4,3.5,3.3,4.3,4.7L198.1,227.8z"/>
		</g>
	</g>
</g>
<g class="st0">
	<g class="st1">
		<g>
			<path class="st2" d="M239.4,716.2l-0.8-0.1c6-53,6-103.2,6.1-147.4c0-29,0.1-56.4,1.8-80.3c0.9-12.5,2.5-26.8,4-39.5
				c1.3-11.4,2.4-21.2,2.8-27.7c8.8-147.8,3.3-150.1,3.1-150.8l0.7-0.3c0.3,0.7,5.8,3.1-3,151.1c-0.4,6.5-1.5,16.4-2.8,27.8
				c-1.4,12.7-3.1,27-4,39.5c-1.7,23.9-1.8,51.3-1.8,80.3C245.5,613,245.4,663.2,239.4,716.2z"/>
		</g>
		<path class="st6" d="M274.9,96.9c-13.6-32.8-69.8-75.7-137.2-35.8c-62,36.7-47,109.9-17.8,143.7c11.5,13.3,31.6,26.9,44,31.8
			c39.8,15.5,95.6,37.4,95.6,37.4s13.9-53.4,24.8-105.3C290.8,137.8,280.2,109.8,274.9,96.9z"/>
		<g class="st4">
			<g>
				<path class="st5" d="M113.4,162.7c-0.9,0.1-1.7-0.4-2-1.3c-4.9-17.3-3.6-36.7,3.7-53.2c7.3-16.7,20.4-30.5,36.7-38.7
					c0.9-0.4,1.9-0.1,2.4,0.8c0.4,0.9,0.1,1.9-0.8,2.4c-15.3,7.7-28.1,21.2-35,37c-6.9,15.7-8.2,34.3-3.5,50.8
					c0.3,0.9-0.3,1.9-1.2,2.2C113.5,162.7,113.4,162.7,113.4,162.7z"/>
			</g>
			<g>
				<path class="st5" d="M171.4,64.5l-7.6,2.6c-0.9,0.3-1.9-0.2-2.2-1.1c-0.3-0.9,0.2-1.9,1.1-2.2l7.6-2.6c0.9-0.3,1.9,0.2,2.2,1.1
					C172.8,63.2,172.3,64.2,171.4,64.5z"/>
			</g>
		</g>
		<polygon class="st6" points="269.1,275.1 255,282.5 251.9,269.9 260.6,265.4 		"/>
	</g>
	<g class="st1">
		<g>
			<path class="st5" d="M154.6,106.4c-1.4,1-3.1,2.1-4.6,2.9c1.6,1,3.6,1.7,5.9,2.1c-0.7,0.6-1.5,1.9-1.9,2.8
				c-5.8-1.3-9.3-4.3-11.5-9.1h-3.7v5.5l5.7-1.1c-0.2,0.8-0.3,2.1-0.3,2.8c-6.2,1.4-7.6,1.7-8.3,2l-0.2,0.1
				c-0.2-0.7-0.8-2.3-1.3-3.1c0.6-0.3,1.3-0.9,1.3-2V105h-3.8v-2.7h4.3V90.8h16.4v2.5h-13.2v1.4h12.5v2.4h-12.5v1.4h12.5v2.4h-12.5
				v1.4h16v2.7h-2.8L154.6,106.4z M145.7,105c0.6,1,1.3,1.8,2.1,2.6c1.3-0.8,2.8-1.8,3.8-2.6H145.7z"/>
			<path class="st5" d="M163.6,109.1c-0.9,1.9-2.4,3.9-3.8,5.2c-0.6-0.5-1.8-1.4-2.5-1.8c1.4-1,2.7-2.7,3.4-4.2L163.6,109.1z
				 M170.2,108.1h-12.8v-2.7h2.3v-9.6h-2V93h2v-2.8h2.8V93h3.2v-2.8h2.8V93h1.8v2.7h-1.8v9.6h1.6V108.1z M162.6,95.7v1.5h3.2v-1.5
				H162.6z M162.6,101.2h3.2v-1.6h-3.2V101.2z M162.6,105.4h3.2v-1.8h-3.2V105.4z M180.9,110.8c0,1.5-0.3,2.3-1.2,2.8
				c-0.9,0.5-2.2,0.6-4.2,0.5c-0.1-0.8-0.5-2.2-0.9-2.9c1.1,0.1,2.4,0.1,2.7,0.1c0.4,0,0.5-0.1,0.5-0.5v-5.1h-4
				c-0.3,3.1-0.9,6.3-2.3,8.7c-0.5-0.5-1.8-1.5-2.4-1.7c0.1-0.2,0.2-0.3,0.3-0.4l-2.2,1.2c-0.5-1-1.8-2.7-2.8-3.9l2.3-1.3
				c0.9,1,2.2,2.5,2.8,3.5c1.5-3.2,1.6-7.6,1.6-11v-9.5h9.6V110.8z M177.9,102.9v-3.2h-3.7v1c0,0.7,0,1.4,0,2.2H177.9z M174.2,93.9
				v3h3.7v-3H174.2z"/>
			<path class="st5" d="M183.5,113.1c1.1-1.3,2.4-3.4,3.2-5.4l3,0.8c-0.9,2-2.1,4.3-3.2,5.8L183.5,113.1z M187.6,107.5h-2.9V90.9
				h8.3v6.4c2.9-0.8,4-2.1,4.4-3.8h-3.7v-2.7h13.4c0,0,0,0.7-0.1,1c-0.2,3.5-0.4,5.2-1,5.8c-0.5,0.5-1.1,0.8-1.8,0.8
				c-0.7,0.1-1.8,0.1-3,0.1c-0.1-0.8-0.3-1.8-0.8-2.5c1,0.1,1.8,0.1,2.3,0.1c0.4,0,0.6-0.1,0.8-0.3c0.2-0.2,0.4-0.9,0.5-2.4h-3.6
				c-0.5,2.7-1.8,4.6-5.3,5.8h11.1v7.7h-11.8v-7.5l-0.1,0c-0.3-0.7-0.9-1.6-1.5-2.2v8.8h-5.4V107.5z M187.6,93.6V97h2.5v-3.4H187.6z
				 M190.1,103.5v-3.8h-2.5v3.8H190.1z M193.9,108.4c0.3,1.7,0.7,3.9,0.7,5.3l-3,0.5c0-1.4-0.2-3.6-0.5-5.4L193.9,108.4z
				 M199.4,108.1c0.6,1.6,1.3,3.8,1.5,5.3l-3.1,0.6c-0.2-1.4-0.8-3.6-1.4-5.4L199.4,108.1z M197.4,104.7h5.8v-2.8h-5.8V104.7z
				 M204.7,107.5c1.1,1.7,2.4,4,3,5.4l-3,1.3c-0.5-1.5-1.8-3.8-2.8-5.6L204.7,107.5z"/>
			<path class="st5" d="M219.1,96.7h-9.6v-2.4h4.4c-0.4-1-1-2.3-1.6-3.3l2.3-1.1c0.7,1.1,1.5,2.5,1.9,3.5l-1.7,0.9h4.4V96.7z
				 M232.8,107c-0.9,1.6-2.1,2.8-3.6,3.9c1.4,0.4,3.1,0.7,4.8,0.9c-0.6,0.6-1.4,1.7-1.7,2.4c-2.3-0.3-4.3-0.9-6.1-1.7
				c-2,0.8-4.3,1.4-6.7,1.8c-0.2-0.7-0.8-1.8-1.3-2.4v0.9h-5.3v1.1h-2.5v-9h7.8v6.9c1.8-0.2,3.6-0.5,5.2-1c-0.8-0.6-1.5-1.4-2.1-2.2
				l1-0.3h-2.8v-2.1h10.8l0.5-0.1L232.8,107z M222.8,93.5h-3.6v-2.3h3.6v-1.3h2.7v4.8h-2.2l0.6,0.2c-0.2,0.4-0.3,0.8-0.5,1.2h2.3
				c-0.1-0.4-0.3-0.9-0.4-1.2l2.2-0.5v-4.4h2.7v1.2h3.4v2.3h-3.4v1.2h-1.9c0.2,0.4,0.3,0.9,0.4,1.4h4.3v1.8h-4.4v0.9h3.7v1.5h-3.7
				v0.9h3.7v1.5h-3.7v0.9h5v1.8h-10.3v0.4h-2.5v-5.3c-0.3,0.4-0.6,0.7-0.9,1c-0.3-0.5-1-1.7-1.5-2.2v0.9h-7.6v-2.3h7.6v1.4
				c1.3-1.2,2.5-3.1,3.1-5l1.4,0.4L222.8,93.5z M210.6,101.3h7.6v2.3h-7.6V101.3z M215.8,107.4h-2.7v2.9h2.7V107.4z M225.9,97.9
				h-2.7v0.9h2.7V97.9z M225.9,100.3h-2.7v0.9h2.7V100.3z M225.9,102.8h-2.7v0.9h2.7V102.8z M224.5,108.4c0.5,0.5,1.1,1,1.9,1.4
				c0.8-0.4,1.5-0.9,2.1-1.4H224.5z"/>
		</g>
		<g>
			<path class="st5" d="M168.7,141h-10.4v4.5h-3.2V141h-10.1v-2.8h10.1v-1.1h-2.3v-8.2c-0.2,0.2-0.4,0.4-0.6,0.6
				c-0.5-0.5-1.5-1.3-2.2-1.8l-1.4,2.1c-0.9-0.7-2.7-1.6-4-2.1l1.6-2.1c1.2,0.4,2.9,1.2,3.8,1.8c2-1.5,4-3.9,5-6.3l2.9,0.9
				c-0.3,0.6-0.7,1.3-1,1.9h2.6c-0.2-0.6-0.5-1.2-0.7-1.7l3-0.8c0.4,0.8,0.9,1.7,1.1,2.5h4.7v2.3h-5.2v1.3h4.2v1.9h-4.2v1.1h4.2v1.9
				h-4.2v1.4h5.6v2.4h-12.2v0.4h2.4v1.6h10.4V141z M152.2,131.8c-1.5,1.8-3.1,3.7-4.8,5.5l-2.2-2.3c1.4-1.2,3.5-3.3,5.3-5.3
				L152.2,131.8z M150.5,125.5c-0.9-0.7-2.6-1.7-4-2.2l1.6-2.1c1.3,0.5,3.1,1.4,4,2L150.5,125.5z M159.6,126.1h-3.6v1.3h3.6V126.1z
				 M159.6,129.3h-3.6v1.1h3.6V129.3z M159.6,132.3h-3.6v1.4h3.6V132.3z"/>
			<path class="st5" d="M183.6,130.6c-0.3,0.5-0.6,0.9-0.9,1.4h11.1v10.7c0,1.2-0.2,1.8-1,2.2c-0.8,0.4-1.8,0.4-3.1,0.4
				c-0.1-0.7-0.5-1.7-0.8-2.3c0.7,0,1.5,0,1.7,0c0.3,0,0.4-0.1,0.4-0.3v-1H188v3.2h-2.8v-3.2h-3.3c-0.3,1.5-0.9,2.9-1.8,4
				c-0.5-0.5-1.9-1.5-2.5-1.8c1.6-2,1.8-4.7,1.8-6.8v-1.4c-0.5,0.4-1,0.8-1.5,1.1c-0.3-0.6-1.1-1.7-1.6-2.4v11.1h-3v-12.8
				c-0.5,0.7-1,1.4-1.4,2c-0.3-0.7-1-2.5-1.5-3.3c2-2.4,3.9-6.2,5-10l2.9,0.8c-0.5,1.7-1.2,3.4-1.9,5v7.1c1.5-0.9,2.9-2.1,4-3.5
				h-2.9v-2.9h4.5v-1.6h-3.7v-2.8h3.7v-2h3v2h3.1v-2h3v2h3.2v2.8h-3.2v1.6h3.8v2.9H183.6z M185.2,139.4V138h-2.9c0,0.5,0,1-0.1,1.5
				H185.2z M182.3,135.8h2.8v-1.4h-2.8V135.8z M184.8,127.7h3.1v-1.6h-3.1V127.7z M190.9,134.4H188v1.4h2.9V134.4z M190.9,139.4V138
				H188v1.5H190.9z"/>
			<path class="st5" d="M210.5,131.5v2.7h8.3v2.8h-4.1l2.6,0.9c-0.9,1.5-1.9,3-2.7,4.1h5.6v2.8h-22.5V142h5.1
				c-0.4-1.2-1.3-2.9-2.2-4.2l2.1-0.9h-3.8v-2.8h8.3v-2.7h-5.3v-1.3c-1.1,0.5-2.2,1-3.4,1.4c-0.4-0.9-1.3-2.1-2.1-2.9
				c4.9-1.4,9.6-4,12-7.9l2.9,1.3c-0.2,0.3-0.5,0.7-0.7,1c2.5,2.3,6.8,4.4,10.7,5.5c-0.7,0.7-1.7,1.9-2.1,2.7
				c-1.2-0.4-2.4-0.9-3.5-1.5v1.5H210.5z M203.2,137c0.9,1.3,1.9,3,2.3,4.1l-2.1,0.9h3.8V137H203.2z M213.4,128.7
				c-1.6-1-3.2-2.2-4.5-3.4c-1.2,1.3-2.7,2.4-4.2,3.4H213.4z M210.5,137v5.1h3.2l-1.7-0.7c0.8-1.2,1.8-3,2.3-4.3H210.5z"/>
		</g>
		<g>
			<g>
				<path class="st5" d="M181.8,165.1c-3.7,7.9-12.2,10.6-22.1,11.6c-0.2-0.9-0.8-2.2-1.2-3c4.1-0.3,8-0.9,11.3-2.1
					c-0.7-0.8-1.8-1.6-2.7-2.4c-1,0.5-2.2,1-3.4,1.4c-0.4-0.7-1.2-1.8-1.9-2.4c5.4-1.7,8.9-4.2,10.9-6.7l3.4,0.8
					c-0.5,0.6-1,1.2-1.6,1.7h4.7l0.6-0.2L181.8,165.1z M178.4,155.5c-3.4,6-10.7,9.2-18.2,10.6c-0.3-0.8-0.9-2.1-1.4-2.7
					c2.6-0.4,5.3-1,7.7-2c-0.7-0.7-1.6-1.6-2.5-2.3c-0.8,0.4-1.5,0.8-2.4,1.2c-0.5-0.7-1.4-1.8-2.1-2.2c4.2-1.6,7.3-3.8,9-5.8
					l3.3,0.8c-0.4,0.5-0.9,0.9-1.4,1.4h5.5l0.5-0.1L178.4,155.5z M167,157.2c-0.2,0.2-0.5,0.3-0.8,0.5c1.1,0.8,2.2,1.7,2.9,2.5
					c1.7-0.9,3.1-1.9,4.3-3H167z M171.2,166.8c-0.5,0.3-1,0.7-1.5,1c1.1,0.8,2.2,1.7,3,2.6c1.8-1,3.2-2.2,4.4-3.6H171.2z"/>
				<path class="st5" d="M205,167c-3.7,6.2-10.6,8.5-19.8,9.6c-0.3-0.9-0.9-2.2-1.4-3c8.7-0.7,15.2-2.6,18.4-7.9L205,167z
					 M191.6,156.9c-1.3,3.3-3.1,6.9-4.7,9.2c-0.6-0.4-1.9-1.2-2.7-1.5c1.7-2.1,3.5-5.4,4.5-8.4L191.6,156.9z M197.2,152.4v16.2h-3.1
					v-16.2H197.2z M203.2,156c1.8,2.7,3.8,6.1,4.8,8.4l-2.7,1.6c-1-2.3-3-6-4.7-8.6L203.2,156z"/>
			</g>
			<path class="st5" d="M171.8,204.3c1.2,0.2,2.6,0.3,4,0.3c1.1,0,5,0,6.4,0c-0.4,0.7-0.9,2.1-1.1,3h-5.5c-5.2,0-9.3-0.9-12-4.9
				c-0.9,2-2,3.8-3.6,5.1c-0.5-0.6-1.5-1.6-2.2-2.1c2.8-2.2,4-6.4,4.3-10l3.2,0.4c-0.2,1-0.4,2.1-0.6,3.1c0.8,2.1,2.2,3.4,3.7,4.2
				v-9.2h-7.5v-9.5h18.3v9.5h-7.6v3.2h8.5v2.9h-8.5V204.3z M164.2,191.2h11.9v-3.6h-11.9V191.2z"/>
			<path class="st5" d="M194.7,195.3l1.9,0.8c-1.7,6.2-6,9.7-11.3,11.5c-0.3-0.7-1-1.7-1.6-2.3c2-0.6,3.9-1.5,5.5-2.8
				c-0.6-0.6-1.4-1.4-2.2-2.1c-0.4,0.3-0.9,0.6-1.4,0.9c-0.3-0.6-1.2-1.5-1.8-1.9c2.5-1.3,4.4-3.1,5.6-4.8c-1.2,0.8-2.4,1.4-3.8,2
				c-0.4-0.6-1.1-1.6-1.6-2.2c1.6-0.5,3.2-1.4,4.6-2.4c-0.5-0.5-1.3-1.1-2.1-1.7c-0.3,0.3-0.7,0.6-1,0.8c-0.4-0.5-1.2-1.4-1.9-1.8
				c2.5-1.7,4.2-4,5.2-5.9l2.7,0.5c-0.3,0.6-0.7,1.2-1.1,1.9h2.9l0.5-0.1l1.8,0.9c-1,2.9-2.7,5.2-4.8,6.9l2,0.4
				c-0.3,0.5-0.6,1-0.9,1.5h2.2L194.7,195.3z M188.5,188.4l-0.3,0.3c0.8,0.5,1.6,1.1,2.2,1.6c0.5-0.6,1-1.2,1.5-2H188.5z M189.9,198
				c-0.3,0.3-0.6,0.6-0.9,0.9c0.7,0.6,1.5,1.2,2.1,1.8c0.7-0.8,1.3-1.7,1.7-2.7H189.9z M207.7,188.7c-0.2,12.1-0.3,16.2-1.2,17.5
				c-0.6,0.9-1.2,1.2-2.1,1.4c-0.8,0.2-2.1,0.2-3.3,0.1c-0.1-0.9-0.4-2.1-0.9-3c1.2,0.1,2.2,0.1,2.8,0.1c0.4,0,0.6-0.1,0.9-0.5
				c0.6-0.7,0.7-4.4,0.9-14.4h-6.1c-0.4,0.8-0.8,1.5-1.3,2.2h6.1v9.5h-4.2v1.8h-2.5v-10.5c-0.3,0.4-0.6,0.8-0.9,1.1
				c-0.5-0.5-1.7-1.5-2.3-1.9c2-2,3.7-5.2,4.6-8.6l2.9,0.7c-0.3,1-0.7,2-1.1,3h7.7V188.7z M199.3,194.6v4.7h1.7v-4.7H199.3z"/>
		</g>
	</g>
</g>
<g class="st0">
	<g class="st1">
		<g>
			<path class="st2" d="M71.1,761.3l-0.7-0.3c4.2-12.9,8.6-31.4,13.7-52.8c12.4-51.9,29.3-123,58.7-182.2
				c40.4-81.3,49.7-165.6,50.5-222c0.8-61.1-8.1-103.5-8.2-103.9l0.7-0.1c0.1,0.4,9,42.9,8.2,104.1c-0.7,56.5-10.1,140.9-50.6,222.4
				c-29.4,59.1-46.3,130.1-58.7,182C79.7,729.9,75.3,748.4,71.1,761.3z"/>
		</g>
		<path class="st3" d="M200.1,2.5c-16,3.4-38.6,17.7-51.2,38.6c-18.4,30.6-11.3,68,3.5,99.3c14.4,30.5,35.3,61.7,35.3,61.7
			s32.4-8.7,59.4-27.6c43.3-30.3,73.7-65.8,60-116.7C291.5-0.5,232.4-4.3,200.1,2.5z"/>
		<g class="st4">
			<g>
				<path class="st5" d="M152.3,96.7c-0.8,0-1.5-0.6-1.6-1.4c-2-16.3,1.9-33.7,10.7-47.6c9-14.1,22.6-24.7,38.5-29.9
					c0.8-0.3,1.8,0.2,2,1c0.3,0.8-0.2,1.8-1,2c-15,4.9-28.4,15.3-36.8,28.6c-8.4,13.3-12.1,29.9-10.2,45.5c0.1,0.9-0.5,1.7-1.4,1.8
					C152.4,96.7,152.4,96.7,152.3,96.7z"/>
			</g>
			<g>
				<path class="st5" d="M218.4,15.9l-7.2,1.3c-0.9,0.2-1.7-0.4-1.9-1.3c-0.2-0.9,0.4-1.7,1.3-1.9l7.2-1.3c0.9-0.2,1.7,0.4,1.9,1.3
					C219.8,14.9,219.3,15.7,218.4,15.9z"/>
			</g>
		</g>
		<polygon class="st3" points="190.8,208.5 177,200.4 186.1,191.1 194.5,196.1 		"/>
	</g>
	<g class="st1">
		<g>
			<path class="st5" d="M178.1,68.2c1.1-1.3,2.4-3.4,3.2-5.4l3,0.8c-0.9,2-2.1,4.3-3.2,5.8L178.1,68.2z M182.2,62.6h-2.9V46h8.3v6.4
				c2.9-0.8,4-2.1,4.4-3.8h-3.7V46h13.4c0,0,0,0.7-0.1,1c-0.2,3.5-0.4,5.2-1,5.8c-0.5,0.5-1.1,0.8-1.8,0.8c-0.7,0.1-1.8,0.1-3,0.1
				c-0.1-0.8-0.3-1.8-0.8-2.5c1,0.1,1.8,0.1,2.3,0.1c0.4,0,0.6-0.1,0.8-0.3c0.2-0.2,0.4-0.9,0.5-2.4h-3.6c-0.5,2.7-1.8,4.6-5.3,5.8
				h11.1v7.7h-11.8v-7.5l-0.1,0c-0.3-0.7-0.9-1.6-1.5-2.2v8.8h-5.4V62.6z M182.2,48.7v3.4h2.5v-3.4H182.2z M184.7,58.6v-3.8h-2.5
				v3.8H184.7z M188.5,63.5c0.3,1.7,0.7,3.9,0.7,5.3l-3,0.5c0-1.4-0.2-3.6-0.5-5.4L188.5,63.5z M194,63.2c0.6,1.6,1.3,3.8,1.5,5.3
				l-3.1,0.6c-0.2-1.4-0.8-3.6-1.4-5.4L194,63.2z M192,59.8h5.8V57H192V59.8z M199.3,62.6c1.1,1.7,2.4,4,3,5.4l-3,1.3
				c-0.5-1.5-1.8-3.8-2.8-5.6L199.3,62.6z"/>
			<path class="st5" d="M213.7,51.8h-9.6v-2.4h4.4c-0.4-1-1-2.3-1.6-3.3l2.3-1.1c0.7,1.1,1.5,2.5,1.9,3.5l-1.7,0.9h4.4V51.8z
				 M227.4,62.1c-0.9,1.6-2.1,2.8-3.6,3.9c1.4,0.4,3.1,0.7,4.8,0.9c-0.6,0.6-1.4,1.7-1.7,2.4c-2.3-0.3-4.3-0.9-6.1-1.7
				c-2,0.8-4.3,1.4-6.7,1.8c-0.2-0.7-0.8-1.8-1.3-2.4v0.9h-5.3V69h-2.5v-9h7.8v6.9c1.8-0.2,3.6-0.5,5.2-1c-0.8-0.6-1.5-1.4-2.1-2.2
				l1-0.3h-2.8v-2.1h10.8l0.5-0.1L227.4,62.1z M217.4,48.6h-3.6v-2.3h3.6V45h2.7v4.8h-2.2l0.6,0.2c-0.2,0.4-0.3,0.8-0.5,1.2h2.3
				c-0.1-0.4-0.3-0.9-0.4-1.2l2.2-0.5V45h2.7v1.2h3.4v2.3h-3.4v1.2h-1.9c0.2,0.4,0.3,0.9,0.4,1.4h4.3V53h-4.4v0.9h3.7v1.5h-3.7v0.9
				h3.7v1.5h-3.7v0.9h5v1.8h-10.3V61h-2.5v-5.3c-0.3,0.4-0.6,0.7-0.9,1c-0.3-0.5-1-1.7-1.5-2.2v0.9h-7.6V53h7.6v1.4
				c1.3-1.2,2.5-3.1,3.1-5l1.4,0.4L217.4,48.6z M205.2,56.4h7.6v2.3h-7.6V56.4z M210.4,62.5h-2.7v2.9h2.7V62.5z M220.5,53h-2.7v0.9
				h2.7V53z M220.5,55.4h-2.7v0.9h2.7V55.4z M220.5,57.9h-2.7v0.9h2.7V57.9z M219.1,63.5c0.5,0.5,1.1,1,1.9,1.4
				c0.8-0.4,1.5-0.9,2.1-1.4H219.1z"/>
			<path class="st5" d="M237.9,61.2c-0.1-0.3-0.1-0.7-0.2-1.1c-5.2,0.8-6.1,1-6.7,1.2c-0.2-0.5-0.6-1.9-1-2.7c0.6-0.2,1.2-0.7,2-1.7
				c0.3-0.4,0.9-1.1,1.6-2.2c-1.9,0.2-2.5,0.4-2.9,0.6c-0.2-0.5-0.6-1.8-0.9-2.5c0.5-0.2,1-0.6,1.5-1.4c0.5-0.8,2.2-3.6,3.1-6.4
				l2.7,1.1c-0.9,2.1-2.2,4.4-3.5,6.2l1.7-0.1c0.6-1.1,1.2-2.2,1.7-3.4l2.5,1.6c-1.5,2.7-3.4,5.5-5.3,7.7l2.7-0.3
				c-0.2-0.7-0.4-1.4-0.6-2l2.2-0.7c0.6,1.7,1.4,4,1.6,5.4L237.9,61.2z M233.6,62.5c-0.2,2.4-0.6,5-1.2,6.7
				c-0.5-0.3-1.8-0.7-2.4-0.9c0.6-1.6,0.9-4,1.1-6.2L233.6,62.5z M236.2,62.1c0.3,1.7,0.6,3.9,0.7,5.4l-2.4,0.5
				c0-1.4-0.3-3.7-0.5-5.4L236.2,62.1z M238.8,61.3c0.5,1.3,1,2.9,1.2,4l-2.2,0.8c-0.2-1.1-0.7-2.8-1.1-4.1L238.8,61.3z M254.3,65.9
				v2.8h-14.9v-2.8h5.9v-3.6h-4.7v-2.8h12.6v2.8h-4.8v3.6H254.3z M245,49.9c-0.8,1.4-1.7,2.8-2.5,4c1.1,1.4,2.1,3,2.7,4.2l-2.5,1
				c-0.6-1.4-1.7-3.3-3.1-5.1c1.1-1.6,2.1-3.5,2.7-4.7L245,49.9z M254.1,48.9h-14v-2.8h14V48.9z M247.1,59c-0.6-1.3-1.8-3.2-3.1-5
				c1-1.5,2.2-3.4,2.8-4.6l2.6,0.6c-0.8,1.3-1.7,2.8-2.5,4c1.1,1.4,2.2,3,2.7,4L247.1,59z M251.7,59.1c-0.6-1.4-2-3.3-3.4-5.1
				c1.1-1.5,2.2-3.5,2.9-4.7l2.7,0.6c-0.8,1.4-1.7,2.8-2.6,4c1.2,1.4,2.4,3,3,4.1L251.7,59.1z"/>
			<path class="st5" d="M255.9,67c0.5-1.5,0.9-3.9,1.1-5.6l1.5,0.5c-0.2,1.7-0.5,4.2-0.9,5.6L255.9,67z M271.5,61.8
				c-0.2,0.7-0.3,1.4-0.5,2c0.9,0.6,1.9,1.3,2.4,1.9l-1.5,2c-0.4-0.4-1.1-1.1-1.8-1.6c-0.6,1.3-1.4,2.4-2.2,3.3
				c-0.4-0.4-1.4-1.2-2-1.7c-0.1,0.3-0.2,0.4-0.3,0.6c-0.4,0.6-0.8,0.8-1.4,0.9c-0.5,0.1-1.3,0.1-2.2,0.1c0-0.7-0.3-1.7-0.6-2.3
				c0.7,0.1,1.2,0.1,1.5,0.1c0.3,0,0.5,0,0.7-0.3c0.2-0.3,0.3-0.9,0.4-2.2l-0.9,0.3c-0.2-0.9-0.6-2.3-1-3.4l1.1-0.4
				c0.3,0.8,0.7,1.7,0.9,2.5c0.1-0.8,0.1-1.9,0.1-3.1h-6.8V46h9v2.5h-2.7v1.7h2.2v0.6c2.8-1.5,5.3-3.9,6.7-6.2l2.8,1
				c-0.2,0.3-0.3,0.5-0.5,0.8c1.6,1.4,3.8,2.8,5.8,3.5c-0.4,0.7-1,2.1-1.1,2.8c-0.8-0.4-1.6-0.9-2.4-1.4v1.7h-7.6v-1.3
				c-0.6,0.4-1.2,0.8-1.8,1.1c-0.4-0.5-1.1-1.3-1.7-1.8v1.4h-2.2v1.5h2.3v2.3h-2.3V58h2.9c0,0,0,0.7,0,1c-0.1,4.8-0.3,7.3-0.6,8.5
				c1.5-1.5,2.5-3.7,3-6.2L271.5,61.8z M260.1,61.8c0.1,1.5,0.2,3.4,0.2,4.7l-1.4,0.2c0.1-1.3,0-3.3-0.1-4.8L260.1,61.8z
				 M259.6,48.6v1.7h1.6v-1.7H259.6z M261.3,52.6h-1.6v1.5h1.6V52.6z M259.6,58h1.6v-1.6h-1.6V58z M261.6,61.5
				c0.3,1.4,0.7,3.1,0.8,4.2L261,66c-0.1-1.1-0.4-2.9-0.7-4.2L261.6,61.5z M267.2,54.5h5.6v6.3h-5.6V54.5z M269.2,58.9h1.4v-2.4
				h-1.4V58.9z M276.1,50.8c-1-0.8-2-1.5-2.9-2.3c-0.7,0.8-1.6,1.6-2.5,2.3H276.1z M278,61.7c-0.2,1-0.4,2.1-0.7,3
				c1.1,0.7,2.3,1.6,3,2.3l-1.8,2.1c-0.5-0.5-1.4-1.3-2.3-2c-0.4,0.8-1,1.6-1.5,2.2c-0.4-0.5-1.6-1.3-2.2-1.7
				c1.5-1.5,2.4-3.8,2.8-6.4L278,61.7z M273.6,54.5h5.8v6.3h-5.8V54.5z M275.6,58.9h1.6v-2.4h-1.6V58.9z"/>
		</g>
		<g>
			<path class="st5" d="M205.9,86.4c1.7,5.1,4.9,9.2,9.7,11.1c-0.8,0.6-1.8,2-2.3,2.9c-4.7-2.2-7.7-6-9.8-11
				c-1.4,4.3-4.2,8.4-9.7,11.1c-0.5-0.9-1.4-2-2.3-2.6c6-2.7,8.4-7,9.4-11.4H192v-3.2h9.5c0.3-2.4,0.2-4.8,0.3-6.9h3.4
				c0,2.1-0.1,4.5-0.3,6.9H215v3.2H205.9z"/>
			<path class="st5" d="M226.6,83h-9.3v-2.4h4.2c-0.4-1-1-2.3-1.6-3.2l2.3-0.9c0.7,1.1,1.5,2.5,1.9,3.5l-1.5,0.7h4.1V83z
				 M240.7,97.3c0,1.3-0.2,2-1,2.5c-0.8,0.4-1.9,0.5-3.6,0.5c-0.1-0.7-0.4-1.9-0.8-2.6c1.1,0.1,2.1,0,2.4,0c0.3,0,0.4-0.1,0.4-0.5
				v-8.9h-8.2c-0.1,3.9-0.5,9-2.4,12.3c-0.4-0.4-1.5-1.2-2.1-1.5h-4.8v1h-2.4v-8.9h7.5v7.3c1.6-3.3,1.7-7.7,1.7-11.2V77.2h13.2V97.3
				z M218.4,87.6h7.4V90h-7.4V87.6z M225.8,86.5h-7.4v-2.3h7.4V86.5z M223.5,93.7h-2.7v2.9h2.7V93.7z M230.1,79.9v1.9h2.8v-1.9
				H230.1z M230.1,85.9h2.8v-1.7h-2.8V85.9z M232.8,95.9v1.2h-2.1v-7.6h6.6v6.4H232.8z M232.8,91.6v2.2h2.2v-2.2H232.8z M238.2,79.9
				h-2.9v1.9h2.9V79.9z M238.2,85.9v-1.7h-2.9v1.7H238.2z"/>
			<path class="st5" d="M247.9,87.6c-0.9,0.5-1.8,0.9-2.7,1.3c-0.4-0.7-1.3-1.9-2-2.5c2.9-0.9,5.7-2.7,7.7-4.6h-6.9v-2.7h9.9v-2.9
				h3.1v2.9h10.1v2.7h-6.6c2.5,1.5,5.1,3.3,6.7,4.6l-2,2.2c-1.8-1.6-5.3-4.1-8.2-5.9v3.7h-3.1v-3.9c-1.5,1.8-3.3,3.4-5.4,4.7h14.4
				v8.6h-15.1V87.6z M244.1,97.1h22.7v2.7h-22.7V97.1z M250.9,90.5h8.7v-1.3h-8.7V90.5z M250.9,93.8h8.7v-1.4h-8.7V93.8z"/>
		</g>
	</g>
</g>
<g class="st0">
	<g class="st1">
		<g>
			<path class="st2" d="M0.6,706.2L0,705.6c0.2-0.3,21.8-27.3,28.1-54.8C38.2,607,42.7,592.3,87,515.5c8.1-14,28.1-41.1,45.8-65.1
				c8.8-11.9,17.1-23.1,22.5-30.8c26.7-38.2,44.6-89.8,63.5-144.5c4.8-13.7,9.7-27.9,14.7-41.8l0.8,0.3c-5,13.8-9.9,28-14.7,41.7
				c-18.9,54.8-36.8,106.5-63.6,144.7c-5.4,7.7-13.7,19-22.5,30.9c-17.7,23.9-37.7,51-45.8,65C43.5,592.6,39,607.2,28.9,651.1
				C22.5,678.8,0.9,705.9,0.6,706.2z"/>
		</g>
		<path class="st6" d="M208.4,107.5c5.2-12.7,16.8-35.2,47.2-45.8c29.4-10.3,54.7-8.4,80.5,5.4c25.9,13.8,34,35.6,38.8,46.9
			c6.5,15.7,10.5,38.7-3.1,66.4c-6.3,12.8-23.5,31.1-55.1,45.9c-47.1,22-96.8,42.7-96.8,42.7s-11.7-56-18-98.2
			C198.6,149.4,199.7,128.8,208.4,107.5z"/>
		<g class="st4">
			<g>
				<path class="st5" d="M215,135.5c-0.8-0.2-1.3-0.9-1.3-1.7c1.5-16.4,9-32.5,20.6-44.2c11.8-11.9,27.4-19.4,44-21
					c0.9-0.1,1.7,0.6,1.8,1.4c0.1,0.9-0.6,1.7-1.4,1.8c-15.6,1.6-31,8.9-42,20.1c-11.1,11.2-18.2,26.6-19.6,42.3
					c-0.1,0.9-0.9,1.5-1.7,1.5C215.1,135.5,215,135.5,215,135.5z"/>
			</g>
			<g>
				<path class="st5" d="M296.7,70.6l-7.4-0.3c-0.9,0-1.6-0.8-1.5-1.7c0-0.9,0.8-1.6,1.7-1.5l7.4,0.3c0.9,0,1.6,0.8,1.5,1.7
					C298.4,69.9,297.6,70.6,296.7,70.6z"/>
			</g>
		</g>
		<polygon class="st6" points="224.4,278 210.3,270.5 218.9,260.8 227.6,265.4 		"/>
	</g>
	<g class="st1">
		<g>
			<path class="st5" d="M266.8,129.5c1.7,0,2.1-0.4,2.3-3c0.7,0.5,2.1,1,3,1.1c-0.4,3.8-1.5,4.7-5,4.7h-6.6c-4.3,0-5.6-0.9-5.6-4
				v-3.5c-1.7,0.9-3.4,1.7-5.1,2.3c-0.5-0.7-1.6-2.1-2.2-2.7c3.3-1.1,6.4-2.6,9.4-4.4h-8.7v-2.9h8.2v-2.6h-5.9v-2.8h5.9v-3.1h3.1
				v3.1h5.7v1.4c1-1.1,2-2.3,2.8-3.5l3,1.5c-1.5,2.2-3.3,4.2-5.2,6h6.1v2.9h-9.4c-1.4,1.1-2.8,2-4.2,2.9h10.6v2.8h-10.6v2.6
				c0,1,0.4,1.2,2.5,1.2H266.8z M261,117.1c1-0.8,2-1.7,2.9-2.6h-4.6v2.6H261z"/>
			<path class="st5" d="M297.9,127.4h-8.9v5.6h-3.2v-5.6h-11.7v-3h4.1v-6.8h7.6v-3.1h-5.6c-1.1,1.8-2.3,3.5-3.5,4.7
				c-0.6-0.5-1.9-1.6-2.7-2c2.3-2,4.3-5.3,5.5-8.7l3.1,0.8c-0.2,0.7-0.5,1.4-0.9,2.1h14.7v3h-7.5v3.1h6.9v2.9h-6.9v4h8.9V127.4z
				 M285.9,124.4v-4h-4.5v4H285.9z"/>
			<path class="st5" d="M323.8,129.1v3h-23.4v-3h10v-5.2h-7v-3h7v-4.6h-5.4c-0.8,1.4-1.6,2.8-2.4,3.8c-0.6-0.5-2-1.4-2.8-1.8
				c2-2.2,3.7-5.8,4.6-9.3l3.2,0.7c-0.4,1.2-0.8,2.5-1.2,3.7h4v-4.7h3.2v4.7h8.8v3h-8.8v4.6h7.8v3h-7.8v5.2H323.8z"/>
			<path class="st5" d="M330.9,121.2c-1.1-0.8-3.3-2-4.8-2.8l1.7-2.3c1.4,0.7,3.7,1.8,4.9,2.5L330.9,121.2z M326.4,130.5
				c1.4-2,3.4-5.2,4.9-8.2l2.3,2.1c-1.4,2.7-3,5.7-4.6,8.2L326.4,130.5z M332,114.1c-1-0.8-3.2-2-4.7-2.9l1.7-2.2
				c1.5,0.7,3.7,1.9,4.8,2.6L332,114.1z M343.5,119.1v3.3h5.3v10.4h-2.9v-0.9H338v1.1h-2.8v-10.5h5.3v-3.3h-6.9v-3h6.9v-3
				c-1.7,0.3-3.4,0.4-5.1,0.6c-0.1-0.8-0.5-2-0.9-2.7c4.4-0.4,9.3-1.3,12.1-2.4l2.4,2.4c-1.7,0.7-3.6,1.1-5.7,1.5v3.6h6.6v3H343.5z
				 M345.9,125.2H338v3.8h7.8V125.2z"/>
		</g>
		<g>
			<path class="st5" d="M258.8,159.6h-10.4v4.5h-3.2v-4.5h-10.1v-2.8h10.1v-1.1H243v-8.2c-0.2,0.2-0.4,0.4-0.6,0.6
				c-0.5-0.5-1.5-1.3-2.2-1.8l-1.4,2.1c-0.9-0.7-2.7-1.6-4-2.1l1.6-2.1c1.2,0.4,2.9,1.2,3.8,1.8c2-1.5,4-3.9,5-6.3l2.9,0.9
				c-0.3,0.6-0.7,1.3-1,1.9h2.6c-0.2-0.6-0.5-1.2-0.7-1.7l3-0.8c0.4,0.8,0.9,1.7,1.1,2.5h4.7v2.3h-5.2v1.3h4.2v1.9h-4.2v1.1h4.2v1.9
				h-4.2v1.4h5.6v2.4H246v0.4h2.4v1.6h10.4V159.6z M242.3,150.5c-1.5,1.8-3.1,3.7-4.8,5.5l-2.2-2.3c1.4-1.2,3.5-3.3,5.3-5.3
				L242.3,150.5z M240.6,144.2c-0.9-0.7-2.6-1.7-4-2.2l1.6-2.1c1.3,0.5,3.1,1.4,4,2L240.6,144.2z M249.7,144.8H246v1.3h3.6V144.8z
				 M249.7,148H246v1.1h3.6V148z M249.7,151H246v1.4h3.6V151z"/>
			<path class="st5" d="M273.7,149.2c-0.3,0.5-0.6,0.9-0.9,1.4h11.1v10.7c0,1.2-0.2,1.8-1,2.2c-0.8,0.4-1.8,0.4-3.1,0.4
				c-0.1-0.7-0.5-1.7-0.8-2.3c0.7,0,1.5,0,1.7,0c0.3,0,0.4-0.1,0.4-0.3v-1h-2.9v3.2h-2.8v-3.2H272c-0.3,1.5-0.9,2.9-1.8,4
				c-0.5-0.5-1.9-1.5-2.5-1.8c1.6-2,1.8-4.7,1.8-6.8v-1.4c-0.5,0.4-1,0.8-1.5,1.1c-0.3-0.6-1.1-1.7-1.6-2.4v11.1h-3v-12.8
				c-0.5,0.7-1,1.4-1.4,2c-0.3-0.7-1-2.5-1.5-3.3c2-2.4,3.9-6.2,5-10l2.9,0.8c-0.5,1.7-1.2,3.4-1.9,5v7.1c1.5-0.9,2.9-2.1,4-3.5
				h-2.9v-2.9h4.5v-1.6h-3.7v-2.8h3.7v-2h3v2h3.1v-2h3v2h3.2v2.8H281v1.6h3.8v2.9H273.7z M275.3,158.1v-1.5h-2.9c0,0.5,0,1-0.1,1.5
				H275.3z M272.4,154.4h2.8v-1.4h-2.8V154.4z M274.9,146.4h3.1v-1.6h-3.1V146.4z M281,153.1h-2.9v1.4h2.9V153.1z M281,158.1v-1.5
				h-2.9v1.5H281z"/>
			<path class="st5" d="M300.6,150.2v2.7h8.3v2.8h-4.1l2.6,0.9c-0.9,1.5-1.9,3-2.7,4.1h5.6v2.8h-22.5v-2.8h5.1
				c-0.4-1.2-1.3-2.9-2.2-4.2l2.1-0.9H289v-2.8h8.3v-2.7H292v-1.3c-1.1,0.5-2.2,1-3.4,1.4c-0.4-0.9-1.3-2.1-2.1-2.9
				c4.9-1.4,9.6-4,12-7.9l2.9,1.3c-0.2,0.3-0.5,0.7-0.7,1c2.5,2.3,6.8,4.4,10.7,5.5c-0.7,0.7-1.7,1.9-2.1,2.7
				c-1.2-0.4-2.4-0.9-3.5-1.5v1.5H300.6z M293.3,155.7c0.9,1.3,1.9,3,2.3,4.1l-2.1,0.9h3.8v-5.1H293.3z M303.5,147.3
				c-1.6-1-3.2-2.2-4.5-3.4c-1.2,1.3-2.7,2.4-4.2,3.4H303.5z M300.6,155.7v5.1h3.2l-1.7-0.7c0.8-1.2,1.8-3,2.3-4.3H300.6z"/>
			<path class="st5" d="M336.7,152.6c-3.7,7.9-12.2,10.6-22.1,11.6c-0.2-0.9-0.8-2.2-1.2-3c4.1-0.3,8-0.9,11.3-2.1
				c-0.7-0.8-1.8-1.6-2.7-2.4c-1,0.5-2.2,1-3.4,1.4c-0.4-0.7-1.2-1.8-1.9-2.4c5.4-1.7,8.9-4.2,10.9-6.7l3.4,0.8
				c-0.5,0.6-1,1.2-1.6,1.7h4.7l0.6-0.2L336.7,152.6z M333.3,143c-3.4,6-10.7,9.2-18.2,10.6c-0.3-0.8-0.9-2.1-1.4-2.7
				c2.6-0.4,5.3-1,7.7-2c-0.7-0.7-1.6-1.6-2.5-2.3c-0.8,0.4-1.5,0.8-2.4,1.2c-0.5-0.7-1.4-1.8-2.1-2.2c4.2-1.6,7.3-3.8,9-5.8
				l3.3,0.8c-0.4,0.5-0.9,0.9-1.4,1.4h5.5l0.5-0.1L333.3,143z M321.9,144.7c-0.2,0.2-0.5,0.3-0.8,0.5c1.1,0.8,2.2,1.7,2.9,2.5
				c1.7-0.9,3.1-1.9,4.3-3H321.9z M326.1,154.3c-0.5,0.3-1,0.7-1.5,1c1.1,0.8,2.2,1.7,3,2.6c1.8-1,3.2-2.2,4.4-3.6H326.1z"/>
			<path class="st5" d="M359.9,154.5c-3.7,6.2-10.6,8.5-19.8,9.6c-0.3-0.9-0.9-2.2-1.4-3c8.7-0.7,15.2-2.6,18.4-7.9L359.9,154.5z
				 M346.5,144.4c-1.3,3.3-3.1,6.9-4.7,9.2c-0.6-0.4-1.9-1.2-2.7-1.5c1.7-2.1,3.5-5.4,4.5-8.4L346.5,144.4z M352.2,139.8V156h-3.1
				v-16.2H352.2z M358.1,143.5c1.8,2.7,3.8,6.1,4.8,8.4l-2.7,1.6c-1-2.3-3-6-4.7-8.6L358.1,143.5z"/>
		</g>
		<g>
			<path class="st5" d="M287.8,191.8c1.2,0.2,2.6,0.3,4,0.3c1.1,0,5,0,6.4,0c-0.4,0.7-0.9,2.1-1.1,3h-5.5c-5.2,0-9.3-0.9-12-4.9
				c-0.9,2-2,3.8-3.6,5.1c-0.5-0.6-1.5-1.6-2.2-2.1c2.8-2.2,4-6.4,4.3-10l3.2,0.4c-0.2,1-0.4,2.1-0.6,3.1c0.8,2.1,2.2,3.4,3.7,4.2
				v-9.2h-7.5v-9.5h18.3v9.5h-7.6v3.2h8.5v2.9h-8.5V191.8z M280.3,178.6h11.9v-3.6h-11.9V178.6z"/>
			<path class="st5" d="M310.7,182.8l1.9,0.8c-1.7,6.2-6,9.7-11.3,11.5c-0.3-0.7-1-1.7-1.6-2.3c2-0.6,3.9-1.5,5.5-2.8
				c-0.6-0.6-1.4-1.4-2.2-2.1c-0.4,0.3-0.9,0.6-1.4,0.9c-0.3-0.6-1.2-1.5-1.8-1.9c2.5-1.3,4.4-3.1,5.6-4.8c-1.2,0.8-2.4,1.4-3.8,2
				c-0.4-0.6-1.1-1.6-1.6-2.2c1.6-0.5,3.2-1.4,4.6-2.4c-0.5-0.5-1.3-1.1-2.1-1.7c-0.3,0.3-0.7,0.6-1,0.8c-0.4-0.5-1.2-1.4-1.9-1.8
				c2.5-1.7,4.2-4,5.2-5.9l2.7,0.5c-0.3,0.6-0.7,1.2-1.1,1.9h2.9l0.5-0.1l1.8,0.9c-1,2.9-2.7,5.2-4.8,6.9l2,0.4
				c-0.3,0.5-0.6,1-0.9,1.5h2.2L310.7,182.8z M304.5,175.8l-0.3,0.3c0.8,0.5,1.6,1.1,2.2,1.6c0.5-0.6,1-1.2,1.5-2H304.5z
				 M305.9,185.5c-0.3,0.3-0.6,0.6-0.9,0.9c0.7,0.6,1.5,1.2,2.1,1.8c0.7-0.8,1.3-1.7,1.7-2.7H305.9z M323.7,176.1
				c-0.2,12.1-0.3,16.2-1.2,17.5c-0.6,0.9-1.2,1.2-2.1,1.4c-0.8,0.2-2.1,0.2-3.3,0.1c-0.1-0.9-0.4-2.1-0.9-3
				c1.2,0.1,2.2,0.1,2.8,0.1c0.4,0,0.6-0.1,0.9-0.5c0.6-0.7,0.7-4.4,0.9-14.4h-6.1c-0.4,0.8-0.8,1.5-1.3,2.2h6.1v9.5h-4.2v1.8h-2.5
				v-10.5c-0.3,0.4-0.6,0.8-0.9,1.1c-0.5-0.5-1.7-1.5-2.3-1.9c2-2,3.7-5.2,4.6-8.6l2.9,0.7c-0.3,1-0.7,2-1.1,3h7.7V176.1z
				 M315.3,182v4.7h1.7V182H315.3z"/>
		</g>
	</g>
</g>
<g class="st0">
	<g class="st1">
		<g>
			<path class="st2" d="M95.2,708.8l-0.8-0.1c0.3-1.8,30.7-182,45.9-237.7c18.8-69.2,39.4-203.6,39.5-204.6l0.8,0.1
				c-0.1,1.1-20.8,135.5-39.5,204.7C125.9,526.9,95.5,707,95.2,708.8z"/>
		</g>
		<path class="st7" d="M266.9,83.5C238.1,55,200.2,45.9,161.8,57.2s-64.5,47.2-63.5,81.4c0.7,25.9,3.7,49.4,16.4,72.4
			c17.7,32.1,48.4,47.8,64.6,48.7c21.2,1.1,55.4-7,83-38.8C296.6,181.1,291,107.2,266.9,83.5z"/>
		<g class="st4">
			<g>
				<path class="st5" d="M111.5,150c-0.8,0-1.5-0.6-1.6-1.4c-2-16.3,1.9-33.7,10.7-47.6c9-14.1,22.6-24.7,38.5-29.9
					c0.8-0.3,1.8,0.2,2,1c0.3,0.8-0.2,1.8-1,2c-15,4.9-28.4,15.3-36.8,28.6c-8.4,13.3-12.1,29.9-10.2,45.5c0.1,0.9-0.5,1.7-1.4,1.8
					C111.7,150,111.6,150,111.5,150z"/>
			</g>
			<g>
				<path class="st5" d="M177.6,69.2l-7.2,1.3c-0.9,0.2-1.7-0.4-1.9-1.3c-0.2-0.9,0.4-1.7,1.3-1.9L177,66c0.9-0.2,1.7,0.4,1.9,1.3
					C179.1,68.2,178.5,69,177.6,69.2z"/>
			</g>
		</g>
		<polygon class="st7" points="187.3,271.6 171.3,271.4 174.6,258.8 184.4,259 		"/>
	</g>
	<g class="st1">
		<g>
			<path class="st5" d="M156.1,115.5c-0.3,3.9-0.9,7-1.8,9.4c2.1,1.9,4.9,2.4,8.1,2.4c0.9,0,4.2,0,5.3,0c-0.4,0.6-0.7,1.8-0.9,2.5
				h-4.7c-3.6,0-6.6-0.6-9-2.6c-0.8,1.3-1.7,2.3-2.8,3c-0.4-0.5-1.4-1.5-1.9-1.8v1.8h-2.7v-13.1c-0.4,0.6-0.8,1.1-1.2,1.6
				c-0.2-0.8-0.9-2.5-1.4-3.3c1.8-2.3,3.4-5.9,4.3-9.4l2.8,0.8l-0.2,0.8h5.9c-0.8,2.4-1.8,5.3-2.7,7.6h0.9l0.5-0.1L156.1,115.5z
				 M148.3,128.5c1.2-0.8,2.2-1.8,3-3.2c-0.9-1.2-1.6-2.8-2.2-4.8l2.2-0.8c0.3,1.1,0.7,2.1,1.1,2.9c0.4-1.4,0.8-3.1,1-5h-3.9
				c0.9-1.9,1.9-4.7,2.7-7.3h-2.3v-2.5c-0.4,1.4-0.9,2.8-1.5,4.2V128.5z M159.6,110.2h-2.8V108h2.8v-2h2.5v2h3.7v3.4h1.5v2.2h-1.5
				v3.5h-3.7v1.2h4v2.4h-4v1.2h4.7v2.4h-4.7v2.3h-2.5v-2.3H156v-2.4h3.6v-1.2h-3.1v-2.4h3.1v-1.2h-2.8v-2.2h2.8v-1.2h-3.9v-2.2h3.9
				V110.2z M162.1,110.2v1.2h1.4v-1.2H162.1z M163.6,113.7h-1.4v1.2h1.4V113.7z"/>
			<path class="st5" d="M191.2,120.9h-1l2.1,1.6c-1.2,0.8-2.5,1.6-3.7,2.2c1.8,0.8,3.5,1.6,4.7,2.2l-1.4,2.2c-1.6-0.9-4.4-2.3-7-3.5
				v1.7c0,1.5-0.4,2.2-1.4,2.6c-1,0.4-2.5,0.4-4.7,0.4c-0.2-0.8-0.6-1.8-1-2.5c1.3,0.1,2.9,0.1,3.3,0c0.5,0,0.6-0.2,0.6-0.6v-1.7
				c-2.4,1.1-4.9,2.2-6.9,3.1l-1.1-2.5c1.2-0.4,2.8-1,4.6-1.7c-0.9-0.7-2.4-1.6-3.5-2.3l1.2-1.3h-0.6v-2.1h6.2v-1.4h-6.9v-2.1h6.9
				V114h-5.9v-2.1h5.9v-1.1h-7.4v4.8c0,4.2-0.4,10.6-2.7,14.6c-0.5-0.5-1.8-1.4-2.5-1.7c2.1-3.7,2.3-9.1,2.3-13v-7.5h9.8
				c-0.2-0.5-0.5-1.1-0.8-1.5l3.1-0.8c0.4,0.7,0.9,1.5,1.3,2.3h8.5v2.7h-8.4v1.1h6.3v3.1h2.3v2.6h-2.3V120.9z M181.7,123.3v-2.3
				h-4.6c1.1,0.6,2.3,1.4,3.1,1.9l-1.4,1.5L181.7,123.3z M184.9,115.3h3.4V114h-3.4V115.3z M184.9,118.9h3.4v-1.4h-3.4V118.9z
				 M186,123.7c1.2-0.8,2.8-1.9,3.8-2.8h-4.9v2.3L186,123.7z"/>
			<path class="st5" d="M216.7,107.1c-0.1,10.2-0.2,19.9,1,19.9c0.2,0,0.4-1.6,0.4-3.6c0.5,0.9,1.1,1.9,1.7,2.5
				c-0.3,3.1-0.8,4.5-2.5,4.5c-3.7,0-3.7-9.3-3.7-20.4H201v6.2c0,4.3-0.4,10.5-3.3,14.3c-0.5-0.5-1.8-1.4-2.5-1.7
				c2.6-3.5,2.9-8.7,2.9-12.6v-9H216.7z M212,122.9c1.1,1.8,2.1,4.2,2.4,5.8l-2.5,0.8c-0.1-0.5-0.3-1.1-0.4-1.8
				c-3.8,0.3-7.7,0.7-10.6,0.9l-0.2-2.8c1.4-0.1,3.2-0.2,5.2-0.3v-2.7h-4v-7.5h4v-1.7h-4.1v-2.4h11.1v2.4h-4.2v1.7h4.2v7.5h-4.2v2.5
				l1.9-0.1c-0.3-0.6-0.5-1.1-0.8-1.6L212,122.9z M205.9,120.5v-2.9h-1.7v2.9H205.9z M208.6,117.7v2.9h1.7v-2.9H208.6z"/>
			<path class="st5" d="M233.1,112.7c-0.8,0.6-1.7,1.1-2.6,1.6c-0.4-0.5-1.3-1.5-1.9-2c-0.3,1-0.5,1.9-0.8,2.7
				c1.3,2,1.6,3.9,1.6,5.4c0,1.7-0.3,2.8-1,3.4c-0.4,0.3-0.8,0.5-1.4,0.6c-0.4,0.1-1,0.1-1.5,0.1c0-0.8-0.2-1.9-0.6-2.7
				c0.4,0.1,0.7,0.1,1,0c0.2,0,0.4-0.1,0.6-0.2c0.3-0.2,0.4-0.8,0.4-1.6c0-1.2-0.2-2.9-1.5-4.7c0.4-1.6,0.9-3.7,1.2-5.4h-1.9v20.4
				h-2.6v-23.2h5.3l0.4-0.1l1.9,1.1c-0.3,1.2-0.7,2.6-1.1,4c3-1.5,5.7-4,7.2-6.3l3,1c-0.2,0.3-0.3,0.5-0.5,0.8
				c1.9,1.6,4.8,3.1,7.3,3.9c-0.4,0.8-1,2.1-1.2,2.9c-1.2-0.5-2.5-1.2-3.7-1.9v1.7h-7.6V112.7z M234.8,122.9c-0.2,0.5-0.4,1-0.6,1.5
				c0.9,0.6,1.9,1.3,2.5,1.9l-1.6,2.1c-0.4-0.5-1.2-1.2-2.1-1.8c-1,1.6-2.3,2.9-3.7,3.9c-0.4-0.5-1.4-1.5-2-2c2.3-1.4,4-3.5,4.7-6.2
				L234.8,122.9z M230.1,115.5h6.3v6.5h-6.3V115.5z M232.3,120h1.7v-2.4h-1.7V120z M239.8,111.9c-1.1-0.7-2.2-1.5-3.1-2.3
				c-0.8,0.8-1.6,1.6-2.5,2.3H239.8z M242.1,122.7c-0.2,0.7-0.3,1.4-0.6,2.1c1.5,1,3.1,2.2,4,3.1l-1.8,2.1c-0.7-0.8-2-1.8-3.3-2.8
				c-0.8,1.3-1.7,2.4-2.9,3.2c-0.4-0.5-1.4-1.6-2-2c2-1.3,3.3-3.5,3.8-6.2L242.1,122.7z M237.5,115.5h6.4v6.5h-6.4V115.5z
				 M239.8,120h1.8v-2.4h-1.8V120z"/>
		</g>
		<g>
			<path class="st5" d="M154.6,149v1.8h-12.7v-0.2c-0.2,3.6-0.8,7.9-2.6,11c-0.5-0.4-1.7-1.2-2.3-1.4c2.1-3.7,2.3-9,2.3-12.6v-1.9
				l-0.3,0.2c-0.2-0.3-0.4-0.6-0.7-0.9h-2.1v3.7l2.1-0.6l0.4,2.8c-0.8,0.3-1.6,0.5-2.4,0.8v6.6c0,1.4-0.3,2.2-1,2.7
				s-1.9,0.6-3.6,0.6c-0.1-0.8-0.4-2-0.8-2.9c0.9,0.1,1.8,0.1,2.1,0c0.3,0,0.4-0.1,0.4-0.4v-5.8l-2.5,0.7l-0.7-3
				c0.9-0.2,2-0.4,3.1-0.8V145h-2.7v-2.9h2.7v-4.9h2.8v4.9h2.3v0.6c1.8-1.8,3-3.8,3.7-5.6l2.8,0.4c-0.2,0.4-0.4,0.8-0.5,1.2h3.6
				l0.4-0.1l1.9,1.2c-0.3,0.7-0.7,1.4-1.2,2.1h5v2.1h-2.8v1c0,0.5,0,0.7,0.4,0.7h1c0.3,0,1.1-0.1,1.4-0.2c0.1,0.6,0.1,1.2,0.2,1.8
				c-0.3,0.1-1,0.2-1.5,0.2h-1.8c-1.9,0-2.2-0.9-2.2-2.5v-1h-1.5c-0.3,2.2-1.2,3.5-4.7,4.1c-0.1-0.4-0.4-0.9-0.8-1.4v0.6
				c0,0.4,0,0.9,0,1.4h4.8c-0.2-0.5-0.4-1-0.5-1.4l2.4-0.7c0.3,0.6,0.6,1.4,0.9,2.1H154.6z M142,146.4c2-0.3,2.7-1,2.9-2.1H142
				V146.4z M143.4,140.9c-0.2,0.4-0.5,0.8-0.8,1.2h3.8c0.2-0.4,0.4-0.8,0.5-1.2H143.4z M142.7,156.4h11.1v5.1h-2.8v-0.9h-5.5v0.9
				h-2.7V156.4z M153.5,153.2h-10.6v-1.6h10.6V153.2z M142.9,154h10.6v1.6h-10.6V154z M145.4,157.9v1.1h5.5v-1.1H145.4z"/>
			<path class="st5" d="M176.5,155.1c-1,1.4-2.3,2.4-3.9,3.3c2.5,0.4,5.2,0.7,8,0.8c-0.5,0.6-1.1,1.6-1.4,2.3
				c-3.8-0.2-7.3-0.7-10.5-1.5c-3.4,1-7.3,1.4-11.4,1.6c-0.2-0.7-0.6-1.7-1-2.4c2.9-0.1,5.8-0.3,8.3-0.7c-0.8-0.4-1.5-0.8-2.2-1.2
				c-1,0.5-2,0.9-3.1,1.4c-0.4-0.6-1.2-1.5-1.8-1.9c1-0.3,1.9-0.6,2.7-1c-0.3-0.3-0.6-0.6-0.9-0.9l2.2-1c0.3,0.3,0.5,0.5,0.8,0.8
				c0.9-0.5,1.6-1.1,2.2-1.7c-0.6-0.3-0.8-0.9-0.8-2v-1.5h2.4v1.5c0,0.6,0.2,0.7,1.2,0.7h3.2c0.7,0,0.9-0.2,1-1.4
				c0.5,0.3,1.4,0.5,2,0.7c-0.2,1.9-0.9,2.4-2.7,2.4h-3.3c-0.2,0.3-0.5,0.5-0.7,0.7h7l0.6-0.1L176.5,155.1z M159.7,151.2h-2.7v-3.9
				h3.5v-6.3h5.9c0.1-0.3,0.2-0.5,0.2-0.8h-9.4v-2.2H180v2.2h-10c-0.1,0.3-0.2,0.5-0.3,0.8h7.2v6.3h3.3v3.9h-2.8v-2.1h-7.9
				c0.6,0.4,1.2,0.8,1.5,1.2l-1.6,1.1c-0.5-0.6-1.5-1.3-2.4-1.7l0.9-0.6h-8.2V151.2z M158.9,152.5c1.1-0.7,2.1-1.8,2.7-2.9l2,1
				c-0.7,1.1-1.6,2.4-2.7,3.3L158.9,152.5z M163.6,142.5v0.8h10.2v-0.8H163.6z M173.7,144.5h-10.2v0.7h10.2V144.5z M163.6,147.4
				h10.2v-0.8h-10.2V147.4z M164.8,156c1.2,0.6,2.5,1.1,4,1.5c1.3-0.4,2.4-0.9,3.3-1.6h-7.2L164.8,156z M175.5,149.3
				c0.9,1,2.1,2.3,2.6,3.2l-2.3,1c-0.5-0.9-1.5-2.3-2.5-3.3L175.5,149.3z"/>
			<path class="st5" d="M190.7,150.9c-0.8,0.3-1.7,0.5-2.5,0.8v6.6c0,1.4-0.2,2.2-1,2.7c-0.8,0.5-1.9,0.6-3.6,0.6
				c-0.1-0.8-0.4-2-0.8-2.9c0.9,0.1,1.8,0.1,2.1,0c0.3,0,0.4-0.1,0.4-0.4v-5.7c-0.9,0.3-1.7,0.5-2.5,0.7l-0.7-3
				c0.9-0.2,2-0.5,3.1-0.8V145h-2.7v-2.8h2.7v-4.9h2.8v4.9h2.4v2.8h-2.4v3.7l2.1-0.6L190.7,150.9z M194.8,137.3h2.8v10.9
				c0,5.2-0.5,10.1-5.1,13.3c-0.5-0.6-1.6-1.6-2.2-2.1c1.8-1.2,2.9-2.7,3.5-4.4c-1,0.4-2.1,0.8-3,1.2l-1.2-2.7
				c1.3-0.3,3.1-0.9,5-1.5c0.1-0.8,0.2-1.6,0.2-2.5h-3.6V147h3.6v-2.7h-3.8v-2.8h3.8V137.3z M206.8,155.3h-4.5v6.2h-2.9v-24.3h2.9
				v4.2h4.1v2.8h-4.1v2.7h3.8v2.7h-3.8v2.9h4.5V155.3z"/>
			<path class="st5" d="M218.2,144c-0.8,1.3-1.7,2.7-2.8,4v13.6h-3.1v-10.2c-0.7,0.7-1.4,1.4-2.1,1.9c-0.4-0.6-1.5-2-2.1-2.7
				c2.7-1.8,5.5-4.8,7.2-7.8L218.2,144z M217.3,138.5c-1.9,2.4-4.7,5.1-7.2,6.8c-0.4-0.7-1.2-1.9-1.7-2.5c2.2-1.4,4.6-3.7,5.9-5.5
				L217.3,138.5z M232.6,148.8H229v9.1c0,1.7-0.3,2.5-1.5,3c-1.1,0.5-2.8,0.5-5.1,0.5c-0.1-0.9-0.5-2.3-0.9-3.1
				c1.5,0.1,3.2,0.1,3.7,0.1c0.5,0,0.6-0.1,0.6-0.5v-9h-7.7v-2.9h14.4V148.8z M231.9,141.7h-12.6v-2.9h12.6V141.7z"/>
			<path class="st5" d="M241.4,152.6c-0.2-0.8-0.7-1.8-1.1-2.9v11.8h-2.6v-10c-0.6,2.1-1.4,4-2.2,5.4c-0.3-0.9-0.9-2.3-1.4-3.1
				c1.5-2,2.7-5.7,3.4-8.8h-2.8v-2.9h3v-4.8h2.6v4.8h2.5v2.9h-2.5v0.8c0.6,0.9,2.4,4,2.8,4.7L241.4,152.6z M252,147.3
				c0.3,0.8,0.6,1.7,0.7,2.4h5.3v2.5h-7.8c-0.1,0.6-0.1,1.2-0.2,1.7h7.3c0,0,0,0.7-0.1,1.1c-0.2,3.3-0.5,4.8-1.2,5.5
				c-0.5,0.6-1.1,0.8-1.8,0.8c-0.6,0.1-1.8,0.1-3,0.1c-0.1-0.8-0.3-1.9-0.8-2.6c1,0.1,1.9,0.1,2.3,0.1c0.4,0,0.6,0,0.8-0.2
				c0.2-0.3,0.4-0.9,0.6-2.3h-4.7c-0.8,2.2-2.3,3.9-5.2,5.1c-0.3-0.7-1.1-1.8-1.7-2.3c3.7-1.4,4.6-3.7,4.9-7h-3.5v-2.5h5.9
				c-0.1-0.7-0.3-1.4-0.5-2L252,147.3z M258.5,144.5v4.5h-2.9v-2.1h-9.5v2.2h-2.8v-4.6h3.2c-0.2-0.7-0.4-1.5-0.6-2.1l2.1-0.4h-4.3
				v-2.5h5.8c-0.1-0.7-0.3-1.4-0.4-2l2.9-0.4c0.3,0.7,0.5,1.6,0.6,2.4h5.4v2.5h-3.8l2,0.3c-0.3,0.8-0.6,1.5-0.9,2.2H258.5z
				 M248.6,142c0.3,0.8,0.6,1.8,0.8,2.5h3c0.3-0.8,0.5-1.7,0.7-2.5H248.6z"/>
		</g>
	</g>
</g>
<g class="st0">
	<g class="st1">
		<g>
			<path class="st2" d="M56.5,622.1l-0.8-0.1c0.2-1.1,18.1-110.9,70.7-192.6c43.6-67.6,48.9-91,56.7-112.8l0.8,0.3
				c-7.9,21.8-13.2,45.3-56.8,112.9C74.5,511.4,56.6,621,56.5,622.1z"/>
		</g>
		<path class="st3" d="M324,205.7c-4.1-22.3-21.7-46.4-42.1-57.1c-11-5.8-36.9-16.1-73.3-3.3c-30.7,10.8-49.7,35.4-53.6,74.2
			c-4.8,47.1,12.6,76.2,32,86.7c25.5,13.9,77.5,3.5,104.1-17.2C321.6,265.2,328.5,229.9,324,205.7z"/>
		<g class="st4">
			<g>
				<path class="st5" d="M168.9,220.2c-0.8-0.2-1.3-0.9-1.3-1.7c1.5-16.4,9-32.5,20.6-44.2c11.8-11.9,27.4-19.4,44-21
					c0.9-0.1,1.7,0.6,1.8,1.4c0.1,0.9-0.6,1.7-1.4,1.8c-15.6,1.6-31,8.9-42,20.1c-11.1,11.2-18.2,26.6-19.6,42.3
					c-0.1,0.9-0.9,1.5-1.7,1.5C169.1,220.3,169,220.3,168.9,220.2z"/>
			</g>
			<g>
				<path class="st5" d="M250.7,155.3l-7.4-0.3c-0.9,0-1.6-0.8-1.5-1.7c0-0.9,0.8-1.6,1.7-1.5l7.4,0.3c0.9,0,1.6,0.8,1.5,1.7
					C252.3,154.7,251.6,155.4,250.7,155.3z"/>
			</g>
		</g>
		<polygon class="st3" points="190.4,321.4 176.3,313.9 185,304.2 193.6,308.8 		"/>
	</g>
	<g class="st1">
		<g>
			<path class="st5" d="M214.4,210.3c1.1-1.3,2.4-3.4,3.2-5.4l3,0.8c-0.9,2-2.1,4.3-3.2,5.8L214.4,210.3z M218.5,204.7h-2.9v-16.5
				h8.3v6.4c2.9-0.8,4-2.1,4.4-3.8h-3.7v-2.7H238c0,0,0,0.7-0.1,1c-0.2,3.5-0.4,5.2-1,5.8c-0.5,0.5-1.1,0.8-1.8,0.8
				c-0.7,0.1-1.8,0.1-3,0.1c-0.1-0.8-0.3-1.8-0.8-2.5c1,0.1,1.8,0.1,2.3,0.1c0.4,0,0.6-0.1,0.8-0.3c0.2-0.2,0.4-0.9,0.5-2.4h-3.6
				c-0.5,2.7-1.8,4.6-5.3,5.8h11.1v7.7h-11.8v-7.5l-0.1,0c-0.3-0.7-0.9-1.6-1.5-2.2v8.8h-5.4V204.7z M218.5,190.9v3.4h2.5v-3.4
				H218.5z M221,200.7V197h-2.5v3.8H221z M224.8,205.6c0.3,1.7,0.7,3.9,0.7,5.3l-3,0.5c0-1.4-0.2-3.6-0.5-5.4L224.8,205.6z
				 M230.3,205.4c0.6,1.6,1.3,3.8,1.5,5.3l-3.1,0.6c-0.2-1.4-0.8-3.6-1.4-5.4L230.3,205.4z M228.3,201.9h5.8v-2.8h-5.8V201.9z
				 M235.6,204.8c1.1,1.7,2.4,4,3,5.4l-3,1.3c-0.5-1.5-1.8-3.8-2.8-5.6L235.6,204.8z"/>
			<path class="st5" d="M250,193.9h-9.6v-2.4h4.4c-0.4-1-1-2.3-1.6-3.3l2.3-1.1c0.7,1.1,1.5,2.5,1.9,3.5l-1.7,0.9h4.4V193.9z
				 M263.7,204.3c-0.9,1.6-2.1,2.8-3.6,3.9c1.4,0.4,3.1,0.7,4.8,0.9c-0.6,0.6-1.4,1.7-1.7,2.4c-2.3-0.3-4.3-0.9-6.1-1.7
				c-2,0.8-4.3,1.4-6.7,1.8c-0.2-0.7-0.8-1.8-1.3-2.4v0.9H244v1.1h-2.5v-9h7.8v6.9c1.8-0.2,3.6-0.5,5.2-1c-0.8-0.6-1.5-1.4-2.1-2.2
				l1-0.3h-2.8v-2.1h10.8l0.5-0.1L263.7,204.3z M253.7,190.8h-3.6v-2.3h3.6v-1.3h2.7v4.8h-2.2l0.6,0.2c-0.2,0.4-0.3,0.8-0.5,1.2h2.3
				c-0.1-0.4-0.3-0.9-0.4-1.2l2.2-0.5v-4.4h2.7v1.2h3.4v2.3h-3.4v1.2h-1.9c0.2,0.4,0.3,0.9,0.4,1.4h4.3v1.8h-4.4v0.9h3.7v1.5h-3.7
				v0.9h3.7v1.5h-3.7v0.9h5v1.8h-10.3v0.4h-2.5v-5.3c-0.3,0.4-0.6,0.7-0.9,1c-0.3-0.5-1-1.7-1.5-2.2v0.9h-7.6v-2.3h7.6v1.4
				c1.3-1.2,2.5-3.1,3.1-5l1.4,0.4L253.7,190.8z M241.5,198.6h7.6v2.3h-7.6V198.6z M246.7,204.6H244v2.9h2.7V204.6z M256.8,195.2
				h-2.7v0.9h2.7V195.2z M256.8,197.6h-2.7v0.9h2.7V197.6z M256.8,200h-2.7v0.9h2.7V200z M255.4,205.6c0.5,0.5,1.1,1,1.9,1.4
				c0.8-0.4,1.5-0.9,2.1-1.4H255.4z"/>
		</g>
		<g>
			<path class="st5" d="M200,222.7l0.9-0.1l0,2.9l-0.9,0.1c-0.1,3-0.5,6.7-2.5,10.3c1.3,1.2,2.5,2.3,3.3,3.2l-2.3,2.3
				c-0.7-0.8-1.6-1.8-2.8-2.9c-1.2,1.5-2.9,2.9-5,4.2c-0.4-0.7-1.5-1.8-2.2-2.3c2.1-1.2,3.7-2.5,4.9-4c-1.4-1.3-2.9-2.6-4.2-3.7
				c0.5-1.7,1-4,1.5-6.3l-1.9,0.1l-0.3-3.1c0.8,0,1.7-0.1,2.7-0.1c0.2-1.6,0.4-3.1,0.5-4.6l3.3,0.2c-0.2,1.3-0.4,2.8-0.6,4.2
				l2.5-0.1v-1.2h3V222.7z M194,226c-0.4,2-0.8,4-1.2,5.7c0.8,0.7,1.6,1.4,2.4,2.1c1.4-2.8,1.8-5.6,1.8-8L194,226z M211.7,221.1
				v20.5h-3.1V240h-4.1v1.9h-2.9v-20.9H211.7z M208.6,237.1V224h-4.1v13.1H208.6z"/>
			<path class="st5" d="M223.2,219.3c-0.6,1.6-1.3,3.2-2.1,4.8v18.5H218V229c-0.6,0.8-1.2,1.5-1.8,2.2c-0.3-0.8-1.1-2.4-1.7-3.2
				c2.3-2.3,4.5-5.9,5.8-9.6L223.2,219.3z M239,223.6h-1.6V239c0,1.8-0.4,2.6-1.5,3.1c-1.1,0.5-2.9,0.6-5.3,0.6
				c-0.1-0.9-0.6-2.3-1-3.2c1.7,0.1,3.5,0.1,4,0.1s0.7-0.2,0.7-0.7v-15.4H223v-3h16V223.6z M226.2,235.8v1.7h-2.9v-11.1h8.7v9.4
				H226.2z M226.2,229.1v4.1h2.9v-4.1H226.2z"/>
			<path class="st5" d="M246,237.4c-0.7,1.6-1.8,3.4-2.8,4.5c-0.5-0.4-1.5-1.2-2.1-1.6c0.9-1,1.8-2.4,2.4-3.6L246,237.4z
				 M255.6,230.3h-14.6V228h5.9c-0.1-0.3-0.2-0.5-0.4-0.8l2-0.4h-6.3v-7.5h12.5v7.5h-5.1c0.2,0.4,0.4,0.8,0.6,1.2h5.4V230.3z
				 M249.8,236.5v3.4c0,1.3-0.2,1.9-1.1,2.3c-0.8,0.4-1.9,0.4-3.3,0.4c-0.1-0.8-0.5-1.8-0.9-2.5c0.8,0,1.6,0,1.8,0s0.3-0.1,0.3-0.3
				v-3.3h-4.2v-5.4h11.7v5.4H249.8z M245.2,222.1h6.5v-1h-6.5V222.1z M245.2,224.9h6.5v-1h-6.5V224.9z M245.5,234.5h5.8v-1.4h-5.8
				V234.5z M265,234.2c-1.9,3.5-5,6.4-8.4,8.3c-0.5-0.8-1.3-1.7-2.1-2.4c0.1,0.2,0.2,0.4,0.2,0.6l-2.3,1.1c-0.4-1.1-1.3-2.9-2.1-4.2
				l2.2-0.9c0.7,1,1.5,2.4,1.9,3.4c3.1-1.5,6.1-4,7.7-6.9L265,234.2z M263.9,220c-1.8,2.5-4.4,4.8-6.8,6.3c-0.5-0.6-1.4-1.6-2.2-2.2
				c2.2-1.2,4.8-3.3,6.1-5.3L263.9,220z M264.5,227c-1.9,2.6-4.7,5-7.4,6.7c-0.5-0.7-1.4-1.6-2.1-2.2c2.4-1.3,5.2-3.5,6.7-5.7
				L264.5,227z"/>
			<path class="st5" d="M275,224.5c-1.3,2.9-3.9,4.9-7,6.2c-0.2-0.5-0.7-1.5-1.1-1.9c1.8-0.6,3.4-1.5,4.6-2.7
				c-2.8,0.3-3.3,0.4-3.6,0.6v0c-0.1-0.4-0.4-1.3-0.6-1.8c0.5-0.1,1-0.4,1.6-0.8c0.3-0.1,0.7-0.5,1.2-0.9c-1.5,0.1-1.9,0.2-2.2,0.3
				c-0.1-0.4-0.4-1.4-0.6-1.9c0.3-0.1,0.7-0.3,1.1-0.6c0.4-0.3,1.6-1.5,2.4-2.8l1.7,1.1c-0.7,0.9-1.5,1.7-2.4,2.4l1.6-0.1
				c0.5-0.5,0.9-1,1.4-1.5l1.6,1.1c-1.2,1.3-2.7,2.6-4.1,3.6l2.1-0.2c0.2-0.4,0.4-0.7,0.5-1.1l1.8,0.3v-4.2h2.3
				c-0.1-0.3-0.2-0.7-0.4-1l2.4-0.6c0.3,0.5,0.5,1.1,0.7,1.6h2.6v6h-1c0.7,0.6,1.3,1.4,1.7,2v-8.6h5.3l0.4-0.1l1.8,0.8
				c-0.5,1.3-1.2,2.6-1.8,3.8c1.3,1.1,1.8,2.2,1.8,3c0,1-0.3,1.7-1,2.1c-0.3,0.2-0.8,0.4-1.3,0.5c-0.5,0.1-1.2,0.1-1.8,0
				c0-0.6-0.3-1.5-0.7-2.1c0.6,0.1,1.1,0.1,1.5,0.1c0.2,0,0.4-0.1,0.6-0.1c0.3-0.2,0.4-0.4,0.4-0.8c0-0.5-0.5-1.2-1.8-2.2
				c0.4-1,0.8-1.9,1.1-2.8h-1.8v8.7h-2.4v-1.4l-1.5,0.7c-0.1-0.3-0.4-0.7-0.6-1.1c-5.1,1.1-5.9,1.3-6.4,1.6c-0.1-0.6-0.6-1.6-0.9-2
				c0.4-0.2,1-0.6,1-1.6V224.5z M285.2,232.2c-0.4,0.5-0.8,1-1.2,1.4h6.7v2h-23.5v-2h6.6c-0.2-0.4-0.4-0.9-0.7-1.2l0.8-0.2h-4v-1.9
				h7.5c-0.1-0.3-0.2-0.6-0.4-0.9l2.9-0.7c0.2,0.4,0.5,1,0.6,1.5h7.6v1.9H285.2z M270.7,236.3h16.7v6.4h-3v-0.6h-10.9v0.6h-2.8
				V236.3z M273.6,237.8v0.8h10.9v-0.8H273.6z M284.5,240.6v-0.8h-10.9v0.8H284.5z M275.9,232.2c0.3,0.4,0.6,0.9,0.7,1.3l-0.5,0.1
				h5.3l-0.2-0.1c0.3-0.4,0.6-0.9,0.8-1.4H275.9z M280.3,221.1h-2.8v0.9h2.8V221.1z M280.3,223.4h-2.8v0.8h2.8V223.4z M279.9,226.5
				c-0.2-0.2-0.4-0.4-0.5-0.5l0.5-0.2h-2.3v1.2L279.9,226.5z"/>
		</g>
		<g>
			<path class="st5" d="M212.7,270.1v3h-23.4v-3h10v-5.2h-7v-3h7v-4.6H194c-0.8,1.4-1.6,2.8-2.4,3.8c-0.6-0.5-2-1.4-2.8-1.8
				c2-2.2,3.7-5.8,4.6-9.3l3.2,0.7c-0.4,1.2-0.8,2.5-1.2,3.7h4v-4.7h3.2v4.7h8.8v3h-8.8v4.6h7.8v3h-7.8v5.2H212.7z"/>
			<path class="st5" d="M219.8,262.1c-1.1-0.8-3.3-2-4.8-2.8l1.7-2.3c1.4,0.7,3.7,1.8,4.9,2.5L219.8,262.1z M215.3,271.5
				c1.4-2,3.4-5.2,4.9-8.2l2.3,2.1c-1.4,2.7-3,5.7-4.6,8.2L215.3,271.5z M220.9,255c-1-0.8-3.2-2-4.7-2.9l1.7-2.2
				c1.5,0.7,3.7,1.9,4.8,2.6L220.9,255z M232.4,260.1v3.3h5.3v10.4h-2.9v-0.9H227v1.1h-2.8v-10.5h5.3v-3.3h-6.9v-3h6.9v-3
				c-1.7,0.3-3.4,0.4-5.1,0.6c-0.1-0.8-0.5-2-0.9-2.7c4.4-0.4,9.3-1.3,12.1-2.4l2.4,2.4c-1.7,0.7-3.6,1.1-5.7,1.5v3.6h6.6v3H232.4z
				 M234.8,266.2H227v3.8h7.8V266.2z"/>
			<path class="st5" d="M241.8,262.2h9.9v11.6h-3.1v-1.2h-3.9v1.3h-2.9V262.2z M244.8,265.1v4.5h3.9v-4.5H244.8z M260.7,260h-15.2
				v-9.4h15.2V260z M257.5,253.6h-9.1v3.5h9.1V253.6z M264.2,262.2v11.6H261v-1.2h-4.1v1.3h-3v-11.7H264.2z M261,269.6v-4.5h-4.1
				v4.5H261z"/>
			<path class="st5" d="M271.3,255.8c-0.4,1.3-1.2,2.6-2.5,3.6c-0.4-0.5-1.5-1.6-2-2c2-1.5,2.3-3.3,2.3-4.8v-1.7
				c2.7-0.2,5.8-0.5,7.6-1.2l1.7,1.8c-1.8,0.6-4.3,1-6.7,1.2c0,0.3,0,0.5,0,0.8h7.1v2.3h-2.5v2.7h-2.7v-2.7H271.3z M284.2,258.5
				v-2.7h-2.2c-0.3,1.1-0.8,2.2-1.7,3.1h7.2v10.7h-3.4c2.4,0.7,4.9,1.6,6.6,2.2l-1.4,2.2c-1.8-0.8-4.9-2-7.8-2.9l0.9-1.5h-6.7l1.7,1
				c-2.2,1.2-5.7,2.7-8.4,3.4c-0.3-0.5-1-2-1.5-2.6c2.2-0.4,4.8-1.1,6.7-1.8h-3.4v-10.7h9.3c-0.5-0.5-1.5-1.1-2.1-1.4
				c1.7-1.5,1.9-3.4,1.9-4.9v-1.9c2.9-0.1,6.2-0.5,8-1.1l1.9,1.7c-2,0.7-4.8,1.1-7.4,1.2v0.1c0,0.3,0,0.5,0,0.8h8.3v2.3h-3.7v2.7
				H284.2z M284.3,260.7h-10.7v1.2h10.7V260.7z M284.3,263.6h-10.7v1.2h10.7V263.6z M284.3,266.6h-10.7v1.2h10.7V266.6z"/>
		</g>
	</g>
</g>
<g class="st0">
	<g class="st1">
		<g>
			<g>
				<path class="st2" d="M155.9,407.3c-8.8,4.6-17.4,9.8-25.5,15.7c-3.5,2.6-7,5.3-9.9,8.6c-3.8,4.2-7.6,8.6-10.3,13.7
					c-5.8,11.1-3.2,23.7-3.1,35.6c0.1,10.5-2.7,20.6-8.5,29.4c-6.3,9.5-15.5,17.1-26.3,20.8c-0.5,0.2-0.3,1.1,0.2,0.9
					c18.5-6.3,32.6-23.6,35.1-43c1.6-12.3-2.3-24.9,1-37.1c1.6-5.9,5.1-11,9-15.6c3.1-3.6,6.2-7,9.9-10c8.8-7.1,18.8-13,28.8-18.2
					C156.9,407.8,156.5,407.1,155.9,407.3L155.9,407.3z"/>
			</g>
		</g>
		<g>
			<path class="st7" d="M272.7,245.6c-28.5-20.1-72.3-24-105.2,5.6c-23.4,21-33.2,52.7-31.8,88.1c1.3,34.5,10,46.7,23,59.5
				c11.4,11.2,36.2,19.4,66.1,12.2c37.6-9.1,74.2-30,82.5-78.9C311.5,307.1,304.4,267.9,272.7,245.6z"/>
			<polygon class="st7" points="161.6,414 149.7,403.3 160.5,396 167.7,402.6 			"/>
			<g>
				<g>
					<path class="st8" d="M178.6,263.5c-0.4-0.6-0.3-1.5,0.3-2c11.9-9.9,27.7-15.5,43.2-15.6c15.7,0,31.1,5.5,43.2,15.5
						c0.6,0.5,0.7,1.5,0.2,2.1c-0.5,0.6-1.5,0.7-2.1,0.2c-11.4-9.4-26.5-14.8-41.3-14.8c-14.8,0-29.9,5.4-41.3,14.9
						c-0.6,0.5-1.6,0.4-2.1-0.2C178.6,263.6,178.6,263.6,178.6,263.5z"/>
				</g>
				<g>
					<path class="st8" d="M276.1,275.2l-4.7-5.1c-0.6-0.6-0.5-1.6,0.1-2.1c0.6-0.6,1.6-0.5,2.1,0.1l4.7,5.1c0.6,0.6,0.5,1.6-0.1,2.1
						C277.7,275.8,276.7,275.8,276.1,275.2z"/>
				</g>
			</g>
		</g>
	</g>
	<g class="st1">
		<g>
			<path class="st5" d="M205.9,288.5c-1.2,1.9-2.7,3.6-4.3,5.2v5.9c0,1.8-0.3,2.7-1.5,3.2c-1.1,0.5-2.8,0.6-5.3,0.6
				c-0.1-0.9-0.6-2.4-1.1-3.2c1.6,0.1,3.5,0.1,4,0.1c0.5,0,0.7-0.2,0.7-0.7v-3.2c-4.1,3-9,5.3-14.2,6.8c-0.4-0.8-1.5-2.2-2.1-2.8
				c4.3-1.1,8.2-2.6,11.7-4.7c-3.9,0.3-7.6,0.6-10.5,0.8l-0.3-2.8c1-0.1,2.1-0.1,3.2-0.2v-12h5.4c0.3-0.9,0.6-1.8,0.8-2.5l3.8,0.4
				c-0.4,0.8-0.8,1.5-1.2,2.1h6.5v7.3c0.5-0.6,0.9-1.2,1.3-1.9L205.9,288.5z M189.4,284.3v1.5h9v-1.5H189.4z M198.4,288h-9v1.5h9
				V288z M189.4,293.4c2.7-0.2,5.6-0.4,8.5-0.6l0.5-0.4v-0.6h-9V293.4z"/>
			<path class="st5" d="M217.5,291.3v9.4c0,1.1-0.2,1.7-0.9,2.1c-0.7,0.4-1.6,0.4-3,0.4c-0.1-0.6-0.4-1.6-0.7-2.3c0.7,0,1.5,0,1.7,0
				c0.3,0,0.3-0.1,0.3-0.3v-2.4c-0.9,0.6-1.7,1.1-2.5,1.6l-0.7-1.5c-0.2,1.8-0.6,3.6-1.6,5c-0.4-0.4-1.6-1.2-2.2-1.5
				c1.3-2,1.4-4.6,1.4-6.7v-4h-1.3v-4h1v-7.4h8.5v7.4h1.1v4H217.5z M216.4,289.4h-6v1h6V289.4z M211.6,287.3h1v-4.2h2.5v-1.1h-3.5
				V287.3z M211.9,295.4c0,0.8,0,1.5-0.1,2.4c0.9-0.4,2-0.9,3.1-1.5v-1.1l-1,1.1c-0.4-0.4-1.2-1.1-2-1.7V295.4z M211.9,294l0.9-0.9
				c0.8,0.5,1.6,1.1,2.2,1.6v-2.2h-3V294z M215.1,287.3v-2.4h-1v2.4H215.1z M232.2,300.8v2.2h-13.7v-2.2h3.1
				c-0.2-0.7-0.5-1.3-0.7-1.9l1.6-0.5h-2.8v-5.1H231v5.1h-3l2,0.5c-0.4,0.7-0.8,1.3-1.1,1.8H232.2z M232,292.4h-13.3v-2.2H232V292.4
				z M231.5,289.3h-12.4V281h3.1v-1.8h2.4v1.8h1.1v-1.8h2.4v1.8h3.4V289.3z M221.5,284.2h1.3V283h-1.3V284.2z M221.5,287.3h1.3v-1.2
				h-1.3V287.3z M222.5,296.5h5.6v-1.4h-5.6V296.5z M223.3,298.4c0.3,0.8,0.7,1.7,0.9,2.4h2.1c0.3-0.8,0.6-1.7,0.9-2.4H223.3z
				 M225.9,284.2V283h-1.2v1.2H225.9z M224.7,286.1v1.2h1.2v-1.2H224.7z M229.2,283h-1.4v1.2h1.4V283z M229.2,286.1h-1.4v1.2h1.4
				V286.1z"/>
			<path class="st5" d="M258,297.5h-7.3c2.4,1.1,5,2.5,6.6,3.5l-2.1,2.4c-1.7-1.1-4.5-2.8-7.1-4.1l1.4-1.8h-7.7l2.2,1.8
				c-2.2,1.5-5.5,3.1-8,4.1c-0.4-0.7-1.1-1.7-1.7-2.3c2.3-0.9,5.3-2.3,7-3.6h-7.1v-2.9h2.3l-0.4-13.4c1.6-0.5,3.6-1.3,5-1.9l1.3,2.5
				c-1.1,0.4-2.3,0.7-3.5,1l0.1,2.3h3v2.5h-2.9l0.1,2.2h2.9v2.5h-2.8l0.1,2.2h13.6c0.1-0.7,0.1-1.4,0.1-2.1h-2.6v-2.5h2.7
				c0-0.7,0.1-1.5,0.1-2.2h-2.6v-2.5h2.7c0-0.8,0-1.5,0-2.2h-3v-2.7h5.8c0,4.6-0.1,10.4-0.3,14.3h2.3V297.5z M245.6,289
				c-0.2,1.7-0.6,3.4-1.3,4.5c-0.4-0.3-1.4-0.9-2-1.2c0.7-1,0.9-2.3,1-3.7L245.6,289z M246.9,288H243v-8.6h2.6v1.8h4.1v2.5h-4.1v1.9
				h2.9v0.1h1v6.6c0,1.1-0.2,1.5-0.9,1.8c-0.7,0.3-1.7,0.3-3,0.3c-0.1-0.6-0.4-1.4-0.7-1.9c0.7,0.1,1.4,0.1,1.7,0
				c0.2,0,0.3-0.1,0.3-0.3V288z"/>
		</g>
		<g>
			<path class="st5" d="M192.7,317.6v2.2H188l-0.2,2h-15l0.3-2H169v-2.2h4.4l0.3-2h14.7l-0.2,2H192.7z M185.8,331.1
				c2.3,0.6,4.6,1.3,6.1,1.8l-2.1,1.9c-1.9-0.7-4.9-1.7-7.9-2.5l1.1-1.2h-4.8l1.6,1.1c-2.2,1.1-5.8,2.1-8.8,2.6
				c-0.4-0.6-1.1-1.5-1.6-2.1c2.3-0.3,5-0.9,6.8-1.6h-3.7v-8.4h17v8.4H185.8z M172.5,317h-2.8v-4.5h9.5c-0.2-0.5-0.5-1.1-0.8-1.6
				l2.7-0.8c0.4,0.7,0.9,1.6,1.2,2.3h9.5v4.5H189v-2.1h-16.5V317z M175.4,324.9h10.8v-0.8h-10.8V324.9z M175.4,327.2h10.8v-0.8
				h-10.8V327.2z M175.4,329.5h10.8v-0.8h-10.8V329.5z M175.8,320.3h3.4l0.1-0.8h-3.4L175.8,320.3z M176.2,317.2l-0.1,0.8h3.4
				l0.1-0.8H176.2z M185.1,320.3l0.1-0.8h-3.3l-0.1,0.8H185.1z M185.4,317.2h-3.3L182,318h3.3L185.4,317.2z"/>
			<path class="st5" d="M206.8,321.7c-0.8,0.9-1.7,1.6-2.7,2.3c-0.3-0.5-1-1.4-1.5-1.8c0.2,0.9,0.3,1.7,0.3,2.5
				c0,1.7-0.3,2.8-1.1,3.4c-0.4,0.3-0.8,0.5-1.4,0.6c-0.4,0.1-1,0.1-1.6,0c0-0.7-0.3-1.8-0.7-2.5c0.4,0.1,0.8,0.1,1,0
				c0.3,0,0.5-0.1,0.7-0.2c0.3-0.2,0.4-0.8,0.4-1.6c0-1.2-0.3-2.9-1.6-4.8c0.5-1.6,1-3.7,1.4-5.4h-1.9v20.5h-2.7v-23.2h5.5l0.4-0.1
				l1.9,1.1c-0.3,1.1-0.6,2.3-1,3.4c1.4-1.4,2.5-3.3,3.2-5.3l2.3,0.5c-0.2,0.4-0.3,0.9-0.5,1.3h1.9l0.4-0.1l1.5,0.6l-0.1,0.5
				l1.3-0.3l0-1.2h4.1l0.5-0.1l1.7,1c-0.7,2.1-1.9,4.4-3.1,6c1,1.4,2.2,2.5,3.6,3.3c-0.6,0.5-1.4,1.5-1.7,2.2
				c-1.2-0.7-2.2-1.7-3.1-2.7v1.6h-7.6V321.7z M205.9,319c0.3-0.4,0.6-0.9,0.9-1.3c-0.5-0.5-1.2-1.1-1.8-1.6c-0.5,0.7-1,1.3-1.6,1.8
				c-0.3-0.3-0.9-0.8-1.4-1.2c-0.2,0.9-0.5,1.7-0.8,2.5c0.7,1,1.1,2,1.4,2.9c1-0.6,1.9-1.4,2.8-2.4c-1,0.2-1.9,0.3-2.9,0.5l-0.3-1.9
				c1.1-0.1,2.2-0.2,3.6-0.4L205.9,319z M208,328.9c-1,1.6-2.4,3.6-3.5,4.8c-0.6-0.5-1.8-1.2-2.5-1.6c1.1-1.1,2.4-2.7,3.2-4.1
				L208,328.9z M212.1,327.1v7.5h-2.9v-7.5h-4.9v-2.5H217v2.5H212.1z M206.3,314.2l-0.2,0.3c0.5,0.4,1.1,0.9,1.6,1.3
				c0.2-0.5,0.4-1,0.6-1.6H206.3z M213.7,320.4c-1.2-1.7-2.2-3.9-2.9-6.2c-0.7,2.4-1.7,4.5-2.9,6.2H213.7z M213.1,313.7
				c0.3,0.9,0.6,1.7,1,2.5c0.5-0.8,0.9-1.6,1.2-2.5H213.1z M215.6,327.7c1.1,1.3,2.8,3.1,3.5,4.2l-2.4,1.5c-0.7-1.1-2.3-3-3.4-4.4
				L215.6,327.7z"/>
			<path class="st5" d="M244.7,329.1h-8.9v5.6h-3.2v-5.6h-11.7v-3h4.1v-6.8h7.6v-3.1H227c-1.1,1.8-2.3,3.5-3.5,4.7
				c-0.6-0.5-1.9-1.6-2.7-2c2.3-2,4.3-5.3,5.5-8.7l3.1,0.8c-0.2,0.7-0.5,1.4-0.9,2.1h14.7v3h-7.5v3.1h6.9v2.9h-6.9v4h8.9V329.1z
				 M232.6,326.1v-4h-4.5v4H232.6z"/>
			<path class="st5" d="M258.7,318.3h-12.1V316h1.4v-4.2h2.3v4.2h1.4v-5.6h2.5v2h3.8v2.2h-3.8v1.4h4.4V318.3z M266.1,311.3
				c-0.2,0.4-0.3,0.8-0.5,1.2c1.4,2.4,3.6,4.9,5.5,6.3c-0.6,0.5-1.4,1.6-1.8,2.4c-0.7-0.6-1.4-1.4-2-2.2v1.8h-5.6v-1.5
				c-0.6,0.8-1.2,1.5-1.9,2.2c-0.4-0.6-1.2-1.6-1.7-2.2v14.8H256v-0.8h-8.6v-14.4h2.1v3.3c0.7-1,1-2.2,1.1-3.7l1.5,0.2
				c-0.1,0.6-0.2,1.2-0.3,1.8c0.3,0.3,0.6,0.7,0.9,1.1c0.5-0.9,0.8-1.9,1-3.1l1.5,0.2c-0.1,0.6-0.2,1.2-0.3,1.8
				c0.4,0.5,0.9,1.1,1.2,1.5v-3.2h2.2v0.1c2.3-2.2,4.4-5.7,5.6-8.7L266.1,311.3z M251.9,323.2c-0.2-0.3-0.4-0.7-0.7-1
				c-0.3,0.5-0.6,1.1-1,1.5c-0.2-0.2-0.5-0.6-0.8-0.9v0.9h6.5v-1l-0.8,1c-0.2-0.4-0.6-1-1-1.5c-0.3,0.5-0.7,1.1-1.1,1.5
				c-0.2-0.2-0.5-0.5-0.8-0.8L251.9,323.2z M256,325.9h-6.5v3.8c0.7-0.9,1-2.2,1.1-3.7l1.5,0.2c-0.1,0.7-0.2,1.2-0.3,1.8
				c0.3,0.4,0.7,0.8,0.9,1.1c0.5-0.9,0.8-2,0.9-3.1l1.4,0.2c-0.1,0.6-0.2,1.2-0.3,1.8c0.4,0.5,0.9,1,1.2,1.5V325.9z M249.5,331.1
				h0.7c-0.2-0.2-0.4-0.5-0.7-0.8V331.1z M252,330.9c-0.2-0.3-0.5-0.7-0.8-1.1c-0.2,0.5-0.5,1-0.9,1.4h2.7c-0.2-0.2-0.4-0.5-0.6-0.7
				L252,330.9z M255.2,331.1c-0.3-0.4-0.7-1-1-1.5c-0.3,0.5-0.6,1-1,1.5H255.2z M256,331.1v-0.8l-0.7,0.8H256z M270.3,324
				c-1.1,2.4-2.9,4.8-4.4,6.7c0.8,0.8,1.4,1.5,2,2.1l-2,2c-1.2-1.5-3.7-4.1-5.5-5.8l1.8-1.8c0.5,0.5,1.2,1.1,1.9,1.7
				c0.9-1.1,1.8-2.4,2.6-3.7h-7.1v-2.6h8.5l0.4-0.2L270.3,324z M266.7,318.2c-0.8-1-1.5-2.2-2.2-3.4c-0.6,1.2-1.3,2.3-2,3.4H266.7z"
				/>
		</g>
		<g>
			<path class="st5" d="M193,359.8c0,0.9,0.1,2.2,0.2,2.9c-7.3,1.8-8.5,2.2-9.3,2.7c-0.2-0.7-1-2-1.4-2.5c0.5-0.4,1.3-1.1,1.3-2.4
				v-18.8h3.2v7.7h5.8v3H187v8.8L193,359.8z M201.4,362.4c1,0,1.1-0.9,1.3-4.4c0.8,0.6,2,1.1,2.9,1.4c-0.3,4.4-1.1,6.1-3.9,6.1h-3.5
				c-3,0-3.9-1.1-3.9-4.7v-19.1h3.2v7.7h6.3v3h-6.3v8.4c0,1.5,0.1,1.7,1.1,1.7H201.4z"/>
			<path class="st5" d="M231.4,351.7v3.4h-23.9v-3.4H231.4z"/>
			<path class="st5" d="M245,359.8c0,0.9,0.1,2.2,0.2,2.9c-7.3,1.8-8.5,2.2-9.3,2.7c-0.2-0.7-1-2-1.4-2.5c0.5-0.4,1.3-1.1,1.3-2.4
				v-18.8h3.2v7.7h5.8v3H239v8.8L245,359.8z M253.4,362.4c1,0,1.1-0.9,1.3-4.4c0.8,0.6,2,1.1,2.9,1.4c-0.3,4.4-1.1,6.1-3.9,6.1h-3.5
				c-3,0-3.9-1.1-3.9-4.7v-19.1h3.2v7.7h6.3v3h-6.3v8.4c0,1.5,0.1,1.7,1.1,1.7H253.4z"/>
		</g>
	</g>
</g>
<g class="st0">
	<g class="st1">
		<g>
			<g>
				<path class="st2" d="M170.9,418.5c-3.9,1.1-6.5,4.3-8,7.9c-1.9,4.9-1.3,10.3-0.7,15.4c0.6,4.7,0.9,9.3,0.5,14
					c-0.4,4.4-1.3,8.7-2.6,12.9c-5.5,17.2-18.9,32.4-36.1,38.3c-5.6,1.9-11.7,2.7-17.5,1.1c-5.1-1.4-9.8-4.6-12.3-9.3
					c-0.3-0.5-1.1-0.1-0.8,0.5c4.6,8.4,14.6,11.5,23.7,10.3c9.4-1.3,18.3-6.2,25.4-12.4c13.3-11.5,21.5-29,21.4-46.6
					c0-6.1-1.7-12.2-1.2-18.4c0.4-5.3,3.1-11.2,8.6-12.7C171.7,419.2,171.5,418.3,170.9,418.5L170.9,418.5z"/>
			</g>
		</g>
		<g>
			<path class="st9" d="M136.7,314c2.4-11.4,11.6-36.1,29.4-47.3c22.3-14.1,43.2-18.1,67.3-12.1c24.1,6,35.3,22.2,41.5,30.6
				c8.6,11.5,16,31.7,10.6,57.3c-2.5,11.8-15.9,33.3-38.9,52c-34.1,27.7-68.1,20.4-68.1,20.4s-24.5-3.6-38.3-36.9
				C132.9,361,132.6,333.8,136.7,314z"/>
			<polygon class="st9" points="174.3,426.6 160.9,418 170.3,409.1 178.6,414.4 			"/>
			<g>
				<g>
					<path class="st8" d="M147.8,335.7c-0.7,0-1.3-0.5-1.4-1.2c-2.1-13.8,0.7-28.5,7.8-40.5c7.2-12.2,18.5-21.5,31.8-26.3
						c0.7-0.3,1.5,0.1,1.7,0.8c0.3,0.7-0.1,1.5-0.8,1.7c-12.5,4.5-23.6,13.7-30.4,25.1c-6.8,11.5-9.5,25.6-7.5,38.7
						c0.1,0.7-0.4,1.4-1.1,1.6C147.9,335.7,147.9,335.7,147.8,335.7z"/>
				</g>
				<g>
					<path class="st8" d="M201.7,265.6l-6.1,1.3c-0.7,0.2-1.5-0.3-1.6-1.1c-0.2-0.7,0.3-1.5,1.1-1.6l6.1-1.3
						c0.7-0.2,1.5,0.3,1.6,1.1C202.9,264.7,202.4,265.4,201.7,265.6z"/>
				</g>
			</g>
		</g>
	</g>
	<g class="st1">
		<g>
			<path class="st5" d="M195.5,291.3c-0.4,2.4-1.1,4.8-2,6.8c0.4,0.3,0.9,0.6,1.6,1c1.8,1.1,4.2,1.2,7.3,1.2c3,0,7.7-0.3,10.5-0.7
				c-0.3,0.8-0.9,2.3-0.9,3.2c-2.1,0.1-6.8,0.3-9.8,0.3c-3.5,0-5.6-0.3-7.5-1.4c-1.1-0.6-2-1.5-2.5-1.5c-0.6,0-1.5,1.8-2.2,3.2
				l-2.1-2.9c0.9-1.1,1.9-2,2.7-2.5c0.6-1.3,1.1-2.9,1.5-4.5h-3.3c0.6-1.5,1.3-3.6,1.9-5.6h-2.3v-2.8h6.1c-0.5,1.8-1.2,3.9-1.8,5.7
				h1.1l0.5-0.1L195.5,291.3z M191.1,284.5c-0.3-1.2-1-3-1.4-4.5l2.7-0.8c0.5,1.4,1.1,3.1,1.5,4.3L191.1,284.5z M202.2,292.5
				c0,0.9,0,2.1,0.1,2.8c-4.4,1.2-5.3,1.6-5.8,2c-0.2-0.7-0.7-1.8-1.2-2.4c0.5-0.3,1-0.9,1-2v-11.1c1.8-0.7,3.7-1.7,4.9-2.6l1.7,1.9
				v-0.4h8.4V294c0,1.3-0.2,2-1,2.4c-0.8,0.4-1.9,0.5-3.4,0.5c-0.1-0.8-0.5-1.9-0.9-2.6c0.9,0,1.7,0,2,0c0.3,0,0.4-0.1,0.4-0.4
				v-10.5h-2.8v16.1h-2.8v-17.7c-1.2,0.6-2.5,1.1-3.8,1.6v9.9L202.2,292.5z"/>
			<path class="st5" d="M237.1,299.9c0,1.7-0.4,2.6-1.5,3.1c-1.1,0.5-2.8,0.5-5.1,0.5c-0.1-0.9-0.6-2.3-1-3.1
				c1.5,0.1,3.3,0.1,3.8,0.1c0.5,0,0.7-0.1,0.7-0.6v-13.3h-15.3v16.9h-3.1v-19.9h7.2c0.5-1.4,1.1-3,1.4-4.3l3.9,0.5
				c-0.5,1.3-1.2,2.7-1.8,3.8h10.8V299.9z M224.1,298v1.8h-2.8v-10.7h10.1v8.9H224.1z M224.1,291.8v3.5h4.5v-3.5H224.1z"/>
		</g>
		<g>
			<path class="st5" d="M156.3,330.5c1.4,0.5,3.2,0.6,5.3,0.6c2,0,8.9,0,11.3-0.1c-0.4,0.7-1,2.1-1.2,3.1h-10.1
				c-4.8,0-7.9-0.7-10-3.6c-0.3,1.6-0.7,3-1.2,4.2c-0.5-0.4-1.8-1.1-2.5-1.4c1.3-2.6,1.5-6.8,1.5-11.2l2.7,0.2
				c0,1.2-0.1,2.4-0.1,3.5c0.4,1.2,0.9,2.1,1.5,2.8v-7.8h-4.9v-2.7h4.4v-2.4h-3.8v-2.7h3.8v-2.6h2.9v2.6h3.7v2.7h-3.7v2.4h4.1v0.7
				c1.7-1.1,2.7-2.7,3.1-4.8h-2.8v-2.6h11.5c0,0,0,0.7,0,1.1c-0.2,4.3-0.4,6.2-1,6.9c-0.5,0.6-1,0.8-1.7,0.9
				c-0.6,0.1-1.7,0.1-2.9,0.1c0-0.8-0.3-1.9-0.8-2.6c0.9,0.1,1.7,0.1,2.1,0.1c0.3,0,0.5-0.1,0.8-0.3c0.2-0.3,0.4-1.3,0.5-3.6H166
				c-0.6,3.3-2,5.5-4.4,7c-0.3-0.3-1-0.9-1.6-1.3v1.2h-3.7v2.8h3.4v2.7h-3.4V330.5z M161,321.3h10.2v8.2H161V321.3z M163.9,327h4.2
				v-3.2h-4.2V327z"/>
			<path class="st5" d="M197.9,312.8v2.6h-23v-2.6h10c-0.2-0.6-0.4-1.3-0.6-1.8l3.2-0.8c0.3,0.8,0.7,1.8,1,2.6H197.9z M197.3,331.9
				c0,1.4-0.3,1.9-1.3,2.3c-0.9,0.3-2.3,0.3-4.1,0.3c-0.2-0.7-0.6-1.6-0.9-2.2h-7.4v1.1h-2.9v-6.9h11.3v5.8h-0.4c0.9,0,1.8,0,2.1,0
				c0.4,0,0.5-0.1,0.5-0.4v-6.3h-15.5v9.1h-3V323h21.6V331.9z M194.8,322h-16.4v-5.6h16.4V322z M191.6,318.5h-10.1v1.4h10.1V318.5z
				 M189.2,328.7h-5.7v1.5h5.7V328.7z"/>
			<path class="st5" d="M212.4,318.4h-12.1V316h1.4v-4.2h2.3v4.2h1.4v-5.6h2.5v2h3.8v2.2h-3.8v1.4h4.4V318.4z M219.7,311.3
				c-0.2,0.4-0.3,0.8-0.5,1.2c1.4,2.4,3.6,4.9,5.5,6.3c-0.6,0.5-1.4,1.6-1.8,2.4c-0.7-0.6-1.4-1.4-2-2.2v1.8h-5.6v-1.5
				c-0.6,0.8-1.2,1.5-1.9,2.2c-0.4-0.6-1.2-1.6-1.7-2.2v14.8h-2.2v-0.8H201V319h2.1v3.3c0.7-1,1-2.2,1.1-3.7l1.5,0.2
				c-0.1,0.6-0.2,1.2-0.3,1.8c0.3,0.3,0.6,0.7,0.9,1.1c0.5-0.9,0.8-1.9,1-3.1l1.5,0.2c-0.1,0.6-0.2,1.2-0.3,1.8
				c0.4,0.5,0.9,1.1,1.2,1.5V319h2.2v0.1c2.3-2.2,4.4-5.7,5.6-8.7L219.7,311.3z M205.6,323.3c-0.2-0.3-0.4-0.7-0.7-1
				c-0.3,0.5-0.6,1.1-1,1.5c-0.2-0.2-0.5-0.6-0.8-0.9v0.9h6.5v-1l-0.8,1c-0.2-0.4-0.6-1-1-1.5c-0.3,0.5-0.7,1.1-1.1,1.5
				c-0.2-0.2-0.5-0.5-0.8-0.8L205.6,323.3z M209.6,326h-6.5v3.8c0.7-0.9,1-2.2,1.1-3.7l1.5,0.2c-0.1,0.7-0.2,1.2-0.3,1.8
				c0.3,0.4,0.7,0.8,0.9,1.1c0.5-0.9,0.8-2,0.9-3.1l1.4,0.2c-0.1,0.6-0.2,1.2-0.3,1.8c0.4,0.5,0.9,1,1.2,1.5V326z M203.1,331.2h0.7
				c-0.2-0.2-0.4-0.5-0.7-0.8V331.2z M205.7,330.9c-0.2-0.3-0.5-0.7-0.8-1.1c-0.2,0.5-0.5,1-0.9,1.4h2.7c-0.2-0.2-0.4-0.5-0.6-0.7
				L205.7,330.9z M208.9,331.2c-0.3-0.4-0.7-1-1-1.5c-0.3,0.5-0.6,1-1,1.5H208.9z M209.6,331.2v-0.8l-0.7,0.8H209.6z M224,324
				c-1.1,2.4-2.9,4.8-4.4,6.7c0.8,0.8,1.4,1.5,2,2.1l-2,2c-1.2-1.5-3.7-4.1-5.5-5.8l1.8-1.8c0.5,0.5,1.2,1.1,1.9,1.7
				c0.9-1.1,1.8-2.4,2.6-3.7h-7.1v-2.6h8.5l0.4-0.2L224,324z M220.3,318.3c-0.8-1-1.5-2.2-2.2-3.4c-0.6,1.2-1.3,2.3-2,3.4H220.3z"/>
			<path class="st5" d="M235,327.1c-0.4-0.7-1.2-1.6-1.9-2.5v10.1h-3v-9.6c-1,0.9-1.9,1.7-3,2.3c-0.2-0.9-0.8-2.6-1.2-3.1
				c2.6-1.4,5.1-4,6.7-6.7h-5.9v-2.8h4.6c-0.5-1-1.3-2.2-2.1-3.2l2.4-1.3c0.9,1,1.9,2.3,2.4,3.3l-2.1,1.2h2.4l0.5-0.1l1.6,1.2
				c-0.7,1.9-1.8,3.8-3,5.4c1.1,0.9,2.9,2.8,3.5,3.2L235,327.1z M250.6,330.8v3.1h-15v-3.1h6.3v-9.6h-5.1v-3h5.1v-7.6h3.2v7.6h4.9v3
				H245v9.6H250.6z"/>
			<path class="st5" d="M266.7,311.2c-0.1,0.2-0.3,0.3-0.4,0.5c2.4,2.1,6.7,3.9,10.8,4.7c-0.6,0.5-1.5,1.6-1.9,2.4
				c-0.5-0.1-1.1-0.3-1.6-0.5v6.7h-18.1v-6.6c-0.5,0.2-1.1,0.4-1.6,0.5c-0.3-0.6-1.1-1.8-1.7-2.4c4.8-1.1,9.4-3.3,11.8-6.3
				L266.7,311.2z M272.6,317.9c-1.2-0.4-2.4-1-3.5-1.6v0.7h-9.1v-0.5c-1,0.5-2.1,1-3.1,1.4H272.6z M256.9,325.8h15.3v8.8H269V334
				h-9.1v0.7h-3V325.8z M259.8,323.1c-0.1-0.8-0.5-1.9-0.9-2.7l2-0.6H258v3.3H259.8z M259.9,327.8v1h9.1v-1H259.9z M269,331.9v-1
				h-9.1v1H269z M263.1,319.8h-2c0.5,0.9,0.9,2,1,2.8l-1.7,0.5h2.7V319.8z M266.8,315c-0.8-0.5-1.5-1.1-2.2-1.7
				c-0.7,0.6-1.4,1.1-2.2,1.7H266.8z M265.6,319.8v3.3h2.4l-1.6-0.4c0.4-0.8,0.8-2,1-2.8H265.6z M270.7,319.8H268l2,0.5
				c-0.5,1-1,2.1-1.4,2.8h2.1V319.8z"/>
		</g>
		<g>
			<path class="st5" d="M169.4,342.5c-0.5,1.5-1.2,3.1-1.9,4.6V366h-2.8v-14c-0.6,0.9-1.3,1.7-1.9,2.5c-0.3-0.7-1.1-2.3-1.6-3
				c2.2-2.4,4.3-6.1,5.5-9.7L169.4,342.5z M185.4,345.6v2.5h-16.7v-2.5h7.4c-0.4-1-1-2.2-1.6-3.1l2.6-1c0.7,1.1,1.5,2.5,1.9,3.4
				l-1.5,0.7H185.4z M170.1,357.2h13.8v8.6h-2.7v-0.7h-8.4v0.8h-2.6V357.2z M183.5,352h-13v-2.4h13V352z M170.5,353.3h13v2.4h-13
				V353.3z M172.8,359.7v2.9h8.4v-2.9H172.8z"/>
			<path class="st5" d="M192.6,351.1c-0.4,3.4-1,7.9-1.9,10.8l-3.1-1.2c0.9-2.8,1.7-6.7,2-10.1L192.6,351.1z M197.5,349v12.1
				c0,1.2,0.2,1.4,1.5,1.4h3.7c1.3,0,1.5-0.8,1.7-4.9c0.7,0.5,2.1,1.1,2.9,1.3c-0.4,4.9-1.2,6.5-4.4,6.5h-4.3c-3.4,0-4.3-1-4.3-4.3
				V349H197.5z M197.2,342c2.3,1.5,5.6,3.8,7.2,5.4l-2.3,2.4c-1.4-1.6-4.6-4.1-7-5.7L197.2,342z M208.6,349.7c1.5,3.1,2.8,7,3.4,9.7
				l-3.1,1.3c-0.4-2.7-1.7-6.8-3.1-9.8L208.6,349.7z"/>
			<path class="st5" d="M230.5,342c1.2,3.8,3.8,7.5,7.5,9.4c-0.6,0.7-1.7,2-2.2,2.9c-0.7-0.4-1.4-1-2-1.5
				c-0.3,7.7-0.6,10.7-1.5,11.7c-0.6,0.9-1.4,1.1-2.4,1.2c-0.9,0.1-2.4,0.1-3.9,0.1c-0.1-0.9-0.5-2.2-1-3.1c1.4,0.1,2.8,0.1,3.4,0.1
				c0.5,0,0.8-0.1,1-0.4c0.5-0.6,0.8-2.9,1-8.3h-5.1c-0.7,5-2.3,9.4-9.1,12c-0.4-0.9-1.3-2.2-2.1-2.9c5.9-1.9,7.2-5.3,7.7-9.1h-4.4
				v-1.7c-0.6,0.7-1.3,1.3-2,1.9c-0.5-0.6-1.9-1.8-2.6-2.3c2.9-2.1,5.3-5.6,6.4-9.5l3.3,0.8c-1,2.9-2.4,5.6-4.1,7.8h13.5
				c-1.7-1.8-3-4-3.9-6.2h-4.1V342H230.5z"/>
			<path class="st5" d="M261.9,349c-0.4,3.8-1.1,7.1-2.2,9.8c1,2,2.4,3.6,4.1,4.6c-0.6,0.4-1.4,1.4-1.7,2.1c-1.6-1-2.8-2.4-3.8-4.1
				c-1.2,1.8-2.7,3.4-4.7,4.6c-0.2-0.4-0.7-1.3-1.2-1.9l-1.7,1.4c-0.9-0.6-2.1-1.2-3.4-1.8c-1.7,0.8-4.1,1.5-7.3,1.9
				c-0.2-0.6-0.7-1.5-1.1-2c2.3-0.3,4.1-0.7,5.5-1.2c-1.2-0.5-2.4-0.9-3.5-1.2c0.4-0.4,0.8-0.9,1.1-1.5l-2.3,0.1l-0.2-2.1
				c1.1-0.1,2.5-0.1,4-0.2c0.3-0.5,0.7-1.1,0.9-1.6h-3.8v-4.7h4.7v-0.7h-4V348h-2v-2.2h2v-2.6h4v-1.6h2.3v1.6h4.2v2.6h1.8v2.2h-1.8
				v2.7h-4.2v0.7h4.8v1.9c1.7-2.8,2.6-7.2,3-11.7l2.6,0.3c-0.2,1.5-0.4,2.9-0.7,4.3h6.2v2.7H261.9z M243.3,354.3h2.1v-1h-2.1V354.3z
				 M244,345.1v0.8h1.4v-0.8H244z M245.4,348.8v-0.9H244v0.9H245.4z M244.7,360.4c0.9,0.3,1.7,0.6,2.6,0.9c1-0.6,1.5-1.2,1.8-1.8
				l-4,0.2L244.7,360.4z M251.8,359.4c-0.2,1-0.8,2.1-2,3.1c0.9,0.4,1.8,0.8,2.5,1.2c2.1-1.2,3.6-2.9,4.6-5
				c-0.6-1.6-1.1-3.3-1.5-5.2c-0.3,0.7-0.6,1.3-1,1.9c-0.4-0.5-1.3-1.5-1.9-1.9v2.7h-5.2c-0.3,0.5-0.5,1-0.8,1.5l3-0.2v-0.9h2.4v0.8
				l0.8-0.1l0,2L251.8,359.4z M247.7,345.1v0.8h1.5v-0.8H247.7z M249.2,348.8v-0.9h-1.5v0.9H249.2z M247.7,353.3v1h2.1v-1H247.7z
				 M256.9,349c0.3,2.2,0.8,4.3,1.3,6.2c0.5-1.8,0.9-3.9,1.1-6.2H256.9z"/>
		</g>
	</g>
</g>
<g class="st0">
	<g class="st1">
		<g>
			<g>
				<path class="st2" d="M225.5,395.5c-1.6,11.5,0.1,23.2,4.7,33.8c2.3,5.4,5.4,10.4,9.2,15c4.1,5,8.8,9.4,13.3,14
					c8.2,8.5,14.8,18.2,20,28.8c5.1,10.5,8.8,21.7,11.8,33c3.4,12.8,5.8,25.8,8.1,38.8c0.1,0.6,1,0.3,0.9-0.2
					c-4.1-22.7-8.3-45.7-17.6-66.9c-4.5-10.3-10.2-20.1-17.5-28.6c-8.1-9.5-18.1-17.3-24.3-28.3c-6.6-11.8-9.3-25.7-7.5-39.1
					C226.4,395.2,225.6,394.9,225.5,395.5L225.5,395.5z"/>
			</g>
		</g>
		<path class="st3" d="M103.6,238.8c-10.4,13.4-18.6,40-14.6,65c6,36.6,34.3,66.2,59.1,79.5c30.9,16.6,59.2,9.9,72.3,4.3
			s34.5-18.9,43.9-51.9c11.1-38.8,6.6-94.4-41.2-121.1C174.1,187,124.6,211.7,103.6,238.8z"/>
		<polygon class="st3" points="233.7,394.1 218.8,400.1 217,387.2 226.1,383.6 		"/>
		<g>
			<g>
				<path class="st8" d="M129.2,345.7c-0.6,0.5-1.6,0.5-2.2,0c-12.6-11.6-21.2-27.9-23.6-44.9c-2.4-17.2,1.3-34.8,10.4-49.6
					c0.5-0.8,1.5-1,2.3-0.6c0.8,0.5,1,1.5,0.6,2.3c-8.6,13.9-12.2,31.2-9.9,47.4c2.3,16.2,10.5,31.8,22.5,42.9
					c0.7,0.6,0.7,1.7,0.1,2.4C129.3,345.6,129.3,345.6,129.2,345.7z"/>
			</g>
			<g>
				<path class="st8" d="M127.1,237.2l-4.9,5.9c-0.6,0.7-1.6,0.8-2.4,0.2c-0.7-0.6-0.8-1.6-0.2-2.4l4.9-5.9c0.6-0.7,1.6-0.8,2.4-0.2
					C127.6,235.4,127.7,236.4,127.1,237.2z"/>
			</g>
		</g>
	</g>
	<g class="st1">
		<g>
			<path class="st5" d="M127.5,269c-0.7,1.8-1.6,3.7-2.6,5.5v17.7H122V279c-0.5,0.7-1.1,1.4-1.6,2c-0.3-0.8-1.1-2.5-1.7-3.2
				c2.3-2.3,4.6-6,5.9-9.7L127.5,269z M142.8,289.3c0,1.1-0.2,1.7-0.8,2.1c-0.6,0.4-1.4,0.4-2.4,0.4c-0.1-0.7-0.4-1.7-0.6-2.4
				c0.4,0,0.8,0,0.9,0c0.2,0,0.2-0.1,0.2-0.3v-1.5h-1.3v3.8h-2.1v-3.8h-1.2v4h-2.1v-4h-1.3v4.4h-2.5v-6.4c-0.4,2.2-1.1,4.4-2.1,6.1
				c-0.5-0.5-1.8-1.4-2.5-1.6c2.2-3.8,2.3-9.3,2.3-13.1v-7.3c4.4-0.3,9.5-0.9,12.6-1.7l2,2.3c-3.3,0.8-7.7,1.3-11.8,1.6v1h11.8v6.3
				h-11.8c0,0.4-0.1,0.8-0.1,1.2h12.5V289.3z M130.5,275.4v1.4h8.8v-1.4H130.5z M133.6,285.3v-2.5h-1.3v2.5H133.6z M136.8,285.3
				v-2.5h-1.2v2.5H136.8z M140.2,285.3v-2.5h-1.3v2.5H140.2z"/>
			<path class="st5" d="M154.9,275.9c-0.1,2.7-0.4,5.9-1.8,9c1.2,1.2,2.4,2.2,3.1,3.1l-2,2.6c-0.7-0.8-1.6-1.8-2.7-2.9
				c-1.1,1.6-2.5,3.2-4.4,4.6c-0.5-0.7-1.5-1.7-2.2-2.2c1.9-1.4,3.4-2.9,4.4-4.6c-1.3-1.2-2.7-2.5-3.9-3.5c0.4-1.6,0.9-3.5,1.2-5.7
				l-1.5,0.1l-0.3-2.9c0.7,0,1.4-0.1,2.2-0.1c0.3-1.9,0.5-3.7,0.6-5.5l3.1,0.1c-0.2,1.6-0.4,3.4-0.6,5.2l1.9-0.1v-1.6h2.9v1.5
				l1.4-0.1v2.8L154.9,275.9z M149.7,276.2c-0.3,1.7-0.6,3.4-1,4.9c0.6,0.5,1.3,1.1,2,1.7c0.9-2.3,1.2-4.7,1.3-6.7L149.7,276.2z
				 M169.3,281.6h-5.2v7.3c0,1.6-0.3,2.4-1.4,2.9c-1,0.4-2.5,0.5-4.6,0.5c-0.2-0.9-0.6-2.1-1-2.9c1.3,0,2.8,0,3.2,0
				c0.4,0,0.6-0.1,0.6-0.5v-7.3h-5.5v-2.9h5.5v-2.5c1.1-1,2.3-2.4,3.2-3.8h-7.6v-2.8h9.6l0.7-0.2l2.1,1.5c-1.2,1.9-2.9,4.1-4.8,5.8
				v2h5.2V281.6z"/>
			<path class="st5" d="M194.6,271.9c0,0,0,1,0,1.4c-0.3,11.6-0.6,15.8-1.7,17.1c-0.7,1-1.5,1.2-2.5,1.4c-1,0.1-2.5,0.1-4.1,0.1
				c-0.1-0.9-0.5-2.2-1-3c1.7,0.2,3.2,0.2,3.9,0.2c0.5,0,0.8-0.1,1.1-0.4c0.8-0.8,1.1-4.7,1.4-13.9h-5.6c-0.7,1.6-1.5,3-2.3,4.1
				c-0.4-0.4-1.3-1-2-1.5v12.1h-6.9v1.9h-2.8v-19.3h2.9c0.3-1.3,0.7-3,0.8-4.2l3.4,0.5c-0.4,1.3-0.9,2.6-1.4,3.7h4v4.2
				c1.5-2.2,2.8-5.3,3.5-8.4l2.9,0.7c-0.3,1.1-0.6,2.2-1,3.3H194.6z M179,274.8h-4.1v4.2h4.1V274.8z M179,286.8v-5.1h-4.1v5.1H179z
				 M187.7,285.4c-0.7-1.6-2.3-4.1-3.6-6l2.4-1.4c1.3,1.8,3,4.3,3.8,5.8L187.7,285.4z"/>
			<path class="st5" d="M220.6,276.2v2.3h-23v-2.3h9.9v-1.2h-7.3v-2.2h7.3v-1.2h-8.3v-2.3h8.3v-1.3h3.1v1.3h8.7v2.3h-8.7v1.2h7.5
				v2.2h-7.5v1.2H220.6z M217.4,289.3c0,1.5-0.4,2.1-1.4,2.5c-1.1,0.4-2.6,0.4-4.7,0.4c-0.2-0.8-0.6-1.8-1-2.5
				c1.3,0.1,3,0.1,3.4,0.1c0.5,0,0.6-0.1,0.6-0.5v-1h-10.6c-0.3,1.6-0.9,3.1-1.9,4.3c-0.5-0.6-1.7-1.8-2.4-2.2
				c1.5-1.7,1.6-4.2,1.6-6.1v-4.6h16.5V289.3z M214.3,286.2V285H204c0,0.4-0.1,0.8-0.1,1.2H214.3z M204,281.8v1.1h10.2v-1.1H204z"/>
			<path class="st5" d="M233.6,289.2c-3.4,0.9-6.9,1.7-9.7,2.4l-0.7-3c1.1-0.2,2.5-0.5,4.1-0.8v-6.3h-3.6v-2.7h3.6v-1.8h-2.2V276
				c-0.3,0.3-0.7,0.5-1,0.8c-0.2-0.6-0.8-2.3-1.2-3c2.1-1.4,4.3-3.6,5.6-5.9l2.5,0.9c-0.1,0.3-0.3,0.5-0.4,0.8
				c1.5,1.2,3,2.5,3.9,3.5l-1.8,2.2l-0.3-0.4v2.2h-2.3v1.8h3.4v2.7h-3.4v5.7l1.7-0.4l-1.6-0.5c0.3-1.2,0.8-3.1,1-4.4l2.3,0.6
				c-0.5,1.5-1,3.1-1.4,4.2l1.5-0.3L233.6,289.2z M226,282.5c0.5,1.4,0.9,3.3,1.1,4.5l-2.1,0.6c-0.1-1.2-0.5-3.1-1-4.6L226,282.5z
				 M231.8,274.5c-0.8-0.8-1.8-1.8-2.8-2.7c-0.7,0.9-1.5,1.8-2.3,2.7H231.8z M247.2,283.4c-1.1,0.9-2.3,1.7-3.5,2.4
				c1,1.5,2.3,2.7,3.8,3.5c-0.7,0.6-1.7,1.8-2.1,2.7c-3.5-2.1-5.4-6.1-6.6-11.1h-1.4v7.2l3.4-0.9c0,0.8,0.1,2.1,0.3,2.7
				c-5.1,1.6-6.1,2-6.7,2.4c-0.1-0.8-0.6-2-1-2.6c0.5-0.2,1.1-0.6,1.1-1.7V269h11.9v11.9h-4.9c0.3,0.9,0.6,1.8,0.9,2.7
				c1-0.8,2-1.6,2.7-2.4L247.2,283.4z M237.5,271.6v2h5.9v-2H237.5z M237.5,278.2h5.9v-2.1h-5.9V278.2z"/>
		</g>
		<g>
			<path class="st5" d="M156.1,312.1v3h-23.7v-3h5.6v-5h-4.7v-3h4.7v-4.8h3.2v4.8h6v-4.8h3.2v4.8h4.9v3h-4.9v5H156.1z M142.4,317.4
				c-2,2.2-4.8,4.6-7.3,6.1c-0.7-0.7-1.8-1.7-2.5-2.2c2.4-1.3,5.2-3.4,6.6-5.2L142.4,317.4z M141.2,312.1h6v-5h-6V312.1z M148.9,316
				c2.2,1.6,5.4,4,7.1,5.6l-3.1,1.8c-1.4-1.6-4.5-4.1-6.8-5.9L148.9,316z"/>
			<path class="st5" d="M168,307.1c-0.1,2.7-0.4,5.9-1.8,9c1.2,1.2,2.4,2.2,3.1,3.1l-2,2.6c-0.7-0.8-1.6-1.8-2.7-2.9
				c-1.1,1.6-2.5,3.2-4.4,4.6c-0.5-0.7-1.5-1.7-2.2-2.2c1.9-1.4,3.4-2.9,4.4-4.6c-1.3-1.2-2.7-2.5-3.9-3.5c0.4-1.6,0.9-3.5,1.2-5.7
				l-1.5,0.1l-0.3-2.9c0.7,0,1.4-0.1,2.2-0.1c0.3-1.9,0.5-3.7,0.6-5.5l3.1,0.1c-0.2,1.6-0.4,3.4-0.6,5.2l1.9-0.1v-1.6h2.9v1.5
				l1.4-0.1v2.8L168,307.1z M162.8,307.4c-0.3,1.7-0.6,3.4-1,4.9c0.6,0.5,1.3,1.1,2,1.7c0.9-2.3,1.2-4.7,1.3-6.7L162.8,307.4z
				 M182.4,312.8h-5.2v7.3c0,1.6-0.3,2.4-1.4,2.9c-1,0.4-2.5,0.5-4.6,0.5c-0.2-0.9-0.6-2.1-1-2.9c1.3,0,2.8,0,3.2,0
				c0.4,0,0.6-0.1,0.6-0.5v-7.3h-5.5v-2.9h5.5v-2.5c1.1-1,2.3-2.4,3.2-3.8h-7.6v-2.8h9.6l0.7-0.2l2.1,1.5c-1.2,1.9-2.9,4.1-4.8,5.8
				v1.9h5.2V312.8z"/>
			<path class="st5" d="M189,311.7c-1.1-0.8-3.3-2-4.8-2.8l1.7-2.3c1.4,0.7,3.7,1.8,4.9,2.5L189,311.7z M184.6,321
				c1.4-2,3.4-5.2,4.9-8.2l2.3,2.1c-1.4,2.7-3,5.7-4.6,8.2L184.6,321z M190.2,304.6c-1-0.8-3.2-2-4.7-2.9l1.7-2.2
				c1.5,0.7,3.7,1.9,4.8,2.6L190.2,304.6z M201.7,309.6v3.3h5.3v10.4h-2.9v-0.9h-7.8v1.1h-2.8v-10.5h5.3v-3.3h-6.9v-3h6.9v-3
				c-1.7,0.3-3.4,0.4-5.1,0.6c-0.1-0.8-0.5-2-0.9-2.7c4.4-0.4,9.3-1.3,12.1-2.4l2.4,2.4c-1.7,0.7-3.6,1.1-5.7,1.5v3.6h6.6v3H201.7z
				 M204.1,315.7h-7.8v3.8h7.8V315.7z"/>
			<path class="st5" d="M233.8,305c0,0,0,1,0,1.4c-0.2,10.6-0.4,14.4-1.3,15.6c-0.6,0.9-1.2,1.1-2.1,1.3c-0.8,0.2-2,0.1-3.2,0.1
				c-0.1-0.9-0.4-2.1-0.9-3c1.1,0.1,2.1,0.1,2.6,0.1c0.4,0,0.6-0.1,0.9-0.4c0.5-0.7,0.8-3.9,1-12.3h-2.3c-0.3,7-1.5,12.3-5.9,15.8
				c-0.4-0.6-1.1-1.5-1.8-2.1c-3.7,0.4-7.5,0.8-10.3,1l-0.4-2.6c1.5-0.1,3.3-0.2,5.3-0.4V318h-4.6v-2.2h4.6v-1h-4.5v-8h4.5v-1h-5.1
				v-2.2h5.1v-1c-1.5,0.1-3,0.2-4.4,0.2c-0.1-0.6-0.4-1.6-0.7-2.2c3.8-0.2,8.3-0.6,11.2-1.3l1.4,2.3c-1.4,0.3-3,0.5-4.7,0.7v1.3h5
				v1.4h2.4c0-1.7,0-3.5,0-5.4h3c0,1.9,0,3.7-0.1,5.4H233.8z M213.3,309.9h2v-1.1h-2V309.9z M215.4,312.9v-1.2h-2v1.2H215.4z
				 M218.2,319.4c1.5-0.1,3-0.2,4.5-0.4c2-2.8,2.7-6.5,2.8-11.2h-2.4v-2h-5v1h4.6v8h-4.6v1h4.7v2.2h-4.7V319.4z M220.2,309.9v-1.1
				h-2v1.1H220.2z M218.2,311.7v1.2h2v-1.2H218.2z"/>
		</g>
	</g>
</g>
<g>
	<g>
		<g>
			<g>
				<path class="st2" d="M200.6,404.2c8.7,15.1,15.3,31.3,19.7,48.1c1.1,4.2,2.1,8.5,2.9,12.7c0.4,2.1,0.8,4.1,1.1,6.2
					c0.2,2,0.1,4.2-1.5,5.7c-2.6,2.5-7,1.1-9.4-0.9c-2.3-1.9-3.7-4.7-4.2-7.5c-1.1-6.2,1.5-12.8,6.8-16.3c6.2-4.1,14.4-3.9,21.1-1.2
					c7.4,2.9,13,9,17.3,15.5c4.6,6.9,7.9,14.5,11.8,21.8c3.7,7,8.1,13.6,13.9,19c5.4,5,11.8,9.1,18.6,11.8c1.8,0.7,3.6,1.3,5.4,1.9
					c0.6,0.2,0.8-0.7,0.2-0.9c-8-2.3-15.4-6.4-21.7-11.7c-6.7-5.7-11.6-12.8-15.7-20.6c-7.4-14.1-14.2-32.1-30.5-38
					c-6.8-2.5-14.9-2.4-21.1,1.7c-5.1,3.4-7.8,9.7-7.2,15.8c0.5,5.7,4.5,11.7,10.8,11.8c3.2,0.1,5.8-1.9,6.2-5.2
					c0.2-1.9-0.1-3.8-0.4-5.6c-0.4-2.3-0.8-4.6-1.3-6.9c-3.8-18.1-10.2-35.6-18.8-51.9c-1.1-2-2.1-4-3.3-5.9
					C201.1,403.3,200.3,403.7,200.6,404.2L200.6,404.2z"/>
			</g>
		</g>
		<path class="st6" d="M88.2,356.4c-6.1-9.9-16.4-28.6-9.2-54.9c7-25.4,20.5-42.1,42.5-53.5c22-11.4,41.2-6.6,51.4-4.4
			c14.1,3,32,11.3,44.8,34.1c5.9,10.5,13.9,43.9,11.1,63.2c-4.3,29.4-16.8,45.1-33.7,53.8C176.8,404,119.3,406.9,88.2,356.4z"/>
		<g>
			<g>
				<path class="st8" d="M111,365.3c-0.5,0.5-1.3,0.5-1.8,0.1c-10.7-8.9-18.3-21.9-20.9-35.6c-2.6-13.9-0.3-28.4,6.5-40.8
					c0.4-0.7,1.2-0.9,1.9-0.5c0.7,0.4,0.9,1.2,0.5,1.9c-6.4,11.7-8.7,25.9-6.2,39c2.5,13.1,9.8,25.5,20,34c0.6,0.5,0.7,1.3,0.2,1.9
					C111.1,365.2,111.1,365.2,111,365.3z"/>
			</g>
			<g>
				<path class="st8" d="M105.1,277.1l-3.7,5c-0.5,0.6-1.3,0.7-1.9,0.3c-0.6-0.5-0.7-1.3-0.3-1.9l3.7-5c0.5-0.6,1.3-0.7,1.9-0.3
					C105.4,275.6,105.6,276.5,105.1,277.1z"/>
			</g>
		</g>
		<polygon class="st6" points="208.4,401.4 194.1,408.6 191.2,396 200,391.6 		"/>
	</g>
	<g>
		<g>
			<path class="st5" d="M115.4,318v3H92v-3h10v-5.2h-7v-3h7v-4.6h-5.4c-0.8,1.4-1.6,2.8-2.4,3.8c-0.6-0.5-2-1.4-2.8-1.8
				c2-2.2,3.7-5.8,4.6-9.3l3.2,0.7c-0.4,1.2-0.8,2.5-1.2,3.7h4v-4.7h3.2v4.7h8.8v3h-8.8v4.6h7.8v3h-7.8v5.2H115.4z"/>
			<path class="st5" d="M122.5,310c-1.1-0.8-3.3-2-4.8-2.8l1.7-2.3c1.4,0.7,3.7,1.8,4.9,2.5L122.5,310z M118,319.3
				c1.4-2,3.4-5.2,4.9-8.2l2.3,2.1c-1.4,2.7-3,5.7-4.6,8.2L118,319.3z M123.6,302.9c-1-0.8-3.2-2-4.7-2.9l1.7-2.2
				c1.5,0.7,3.7,1.9,4.8,2.6L123.6,302.9z M135.1,308v3.3h5.3v10.4h-2.9v-0.9h-7.8v1.1h-2.8v-10.5h5.3V308h-6.9v-3h6.9v-3
				c-1.7,0.3-3.4,0.4-5.1,0.6c-0.1-0.8-0.5-2-0.9-2.7c4.4-0.4,9.3-1.3,12.1-2.4l2.4,2.4c-1.7,0.7-3.6,1.1-5.7,1.5v3.6h6.6v3H135.1z
				 M137.5,314h-7.8v3.8h7.8V314z"/>
			<path class="st5" d="M167.5,317.3h-10.4v4.5H154v-4.5h-10.1v-2.8H154v-1.1h-2.3v-8.2c-0.2,0.2-0.4,0.4-0.6,0.6
				c-0.5-0.5-1.5-1.3-2.2-1.8l-1.4,2.1c-0.9-0.7-2.7-1.6-4-2.1l1.6-2.1c1.2,0.4,2.9,1.2,3.8,1.8c2-1.5,4-3.9,5-6.3l2.9,0.9
				c-0.3,0.6-0.7,1.3-1,1.9h2.6c-0.2-0.6-0.5-1.2-0.7-1.7l3-0.8c0.4,0.8,0.9,1.7,1.1,2.5h4.7v2.3h-5.2v1.3h4.2v1.9h-4.2v1.1h4.2v1.9
				h-4.2v1.4h5.6v2.4h-12.2v0.4h2.4v1.6h10.4V317.3z M151,308.1c-1.5,1.8-3.1,3.7-4.8,5.5l-2.2-2.3c1.4-1.2,3.5-3.3,5.3-5.3
				L151,308.1z M149.3,301.8c-0.9-0.7-2.6-1.7-4-2.2l1.6-2.1c1.3,0.5,3.1,1.4,4,2L149.3,301.8z M158.4,302.4h-3.6v1.3h3.6V302.4z
				 M158.4,305.6h-3.6v1.1h3.6V305.6z M158.4,308.6h-3.6v1.4h3.6V308.6z"/>
			<path class="st5" d="M182.5,306.9c-0.3,0.5-0.6,0.9-0.9,1.4h11.1V319c0,1.2-0.2,1.8-1,2.2c-0.8,0.4-1.8,0.4-3.1,0.4
				c-0.1-0.7-0.5-1.7-0.8-2.3c0.7,0,1.5,0,1.7,0c0.3,0,0.4-0.1,0.4-0.3v-1h-2.9v3.2H184v-3.2h-3.3c-0.3,1.5-0.9,2.9-1.8,4
				c-0.5-0.5-1.9-1.5-2.5-1.8c1.6-2,1.8-4.7,1.8-6.8v-1.4c-0.5,0.4-1,0.8-1.5,1.1c-0.3-0.6-1.1-1.7-1.6-2.4v11h-3v-12.8
				c-0.5,0.7-1,1.4-1.4,2c-0.3-0.7-1-2.5-1.5-3.3c2-2.4,3.9-6.2,5-10l2.9,0.8c-0.5,1.7-1.2,3.4-1.9,5v7.1c1.5-0.9,2.9-2.1,4-3.5
				h-2.9V304h4.5v-1.6H177v-2.8h3.7v-2h3v2h3.1v-2h3v2h3.2v2.8h-3.2v1.6h3.8v2.9H182.5z M184,315.8v-1.5h-2.9c0,0.5,0,1-0.1,1.5H184
				z M181.2,312.1h2.8v-1.4h-2.8V312.1z M183.6,304h3.1v-1.6h-3.1V304z M189.7,310.7h-2.9v1.4h2.9V310.7z M189.7,315.8v-1.5h-2.9
				v1.5H189.7z"/>
			<path class="st5" d="M209.3,307.8v2.7h8.3v2.8h-4.1l2.6,0.9c-0.9,1.5-1.9,3-2.7,4.1h5.6v2.8h-22.5v-2.8h5.1
				c-0.4-1.2-1.3-2.9-2.2-4.2l2.1-0.9h-3.8v-2.8h8.3v-2.7h-5.3v-1.3c-1.1,0.5-2.2,1-3.4,1.4c-0.4-0.9-1.3-2.1-2.1-2.9
				c4.9-1.4,9.6-4,12-7.9l2.9,1.3c-0.2,0.3-0.5,0.7-0.7,1c2.5,2.3,6.8,4.4,10.7,5.5c-0.7,0.7-1.7,1.9-2.1,2.7
				c-1.2-0.4-2.4-0.9-3.5-1.5v1.5H209.3z M202,313.3c0.9,1.3,1.9,3,2.3,4.1l-2.1,0.9h3.8v-5.1H202z M212.2,305
				c-1.6-1-3.2-2.2-4.5-3.4c-1.2,1.3-2.7,2.4-4.2,3.4H212.2z M209.3,313.3v5.1h3.2l-1.7-0.7c0.8-1.2,1.8-3,2.3-4.3H209.3z"/>
		</g>
		<g>
			<path class="st5" d="M152.1,344c-0.7-0.8-2.1-2-3.4-3c-0.5,0.9-1.1,1.6-1.7,2.2c-0.4-0.4-1.3-0.9-2-1.3c2.3,3.1,6,5.8,9.9,7.3
				c-0.8,0.6-1.8,2-2.3,2.8c-3.1-1.5-6.1-3.8-8.4-6.6v7.6H141v-7.4c-2.3,2.7-5.3,5-8.3,6.4c-0.5-0.8-1.5-2-2.2-2.7
				c4.2-1.6,8.3-4.9,10.5-8.4v-6h-9.5v-3h9.5v-3.2h3.3v3.2h9.8v3h-9.8v5.8c0.1,0.2,0.3,0.4,0.4,0.6c1.7-1.5,2.8-3.8,3.3-6.3l3,0.5
				c-0.2,1-0.5,1.9-0.9,2.8c1.5,1.1,3.3,2.5,4.2,3.4L152.1,344z M138.7,335.6c-0.3,1-0.6,1.9-0.9,2.8c0.9,0.8,1.9,1.7,2.5,2.3
				l-2.1,2.2c-0.4-0.5-1-1.1-1.7-1.8c-0.9,1.4-1.8,2.6-3,3.6c-0.5-0.5-1.7-1.6-2.4-2c2.3-1.6,3.9-4.4,4.6-7.5L138.7,335.6z"/>
			<path class="st5" d="M160.7,340.7c-0.9-0.7-2.9-1.9-4.2-2.7l1.7-2.2c1.3,0.7,3.3,1.7,4.3,2.4L160.7,340.7z M163,344.3
				c-1,2.8-2.2,5.7-3.4,8.3l-2.8-1.7c1.1-2,2.5-5.3,3.6-8.3L163,344.3z M162,333.9c-0.9-0.8-2.9-2-4.2-2.8l1.8-2.2
				c1.3,0.7,3.3,1.8,4.3,2.5L162,333.9z M175.3,344.4v5.6c0,1.3-0.2,2.1-1.1,2.5c-0.9,0.4-2.1,0.5-3.7,0.4c-0.1-0.8-0.5-1.9-0.8-2.7
				c0.9,0,1.9,0,2.3,0c0.3,0,0.4-0.1,0.4-0.4v-5.5h-4.1V335h3.5c0.3-0.8,0.5-1.5,0.6-2.2h-5v4.4c0,4.6-0.5,11.5-3.6,15.8
				c-0.5-0.5-1.8-1.3-2.6-1.7c2.9-4,3.2-9.9,3.2-14.1V330h16.3v2.8H173l2.9,0.5c-0.3,0.6-0.7,1.1-1,1.7h5v9.4H175.3z M171.4,346.2
				c-0.8,1.8-2,4-3,5.4c-0.6-0.5-1.7-1.2-2.4-1.5c1-1.2,2-3,2.7-4.7L171.4,346.2z M171,338.6h6v-1.4h-6V338.6z M171,342.2h6v-1.5h-6
				V342.2z M178.7,345.1c0.8,1.6,2,3.7,2.5,4.9l-2.9,1.2c-0.5-1.4-1.5-3.5-2.3-5.2L178.7,345.1z"/>
		</g>
	</g>
</g>
</svg>
