<?xml version="1.0" encoding="UTF-8"?>
<svg xmlns="http://www.w3.org/2000/svg" version="1.1" viewBox="0 0 65 65">
  <defs>
    <style>
      .cls-1 {
        fill: #fff;
      }
    </style>
  </defs>
  <!-- Generator: Adobe Illustrator 28.6.0, SVG Export Plug-In . SVG Version: 1.2.0 Build 709)  -->
  <g>
    <g id="_圖層_1" data-name="圖層_1">
      <g id="Layer_1">
        <path class="cls-1" d="M52.9,45.8l-10-10c-.5-.5-1.5-.5-2,0h0l-1.9-1.8c1.5-2.4,2.3-5.2,2.3-8.1s-1.6-8-4.5-10.9-6.8-4.5-10.9-4.5-8,1.6-10.9,4.5-4.5,6.8-4.5,10.9,1.6,8,4.5,10.9,6.8,4.5,10.9,4.5,5.7-.8,8.1-2.3l1.9,1.9h0c-.5.6-.5,1.5,0,2.1l10,10c1,1,2.3,1.5,3.6,1.5s2.6-.5,3.6-1.5,1.5-2.3,1.5-3.6-.5-2.6-1.5-3.6h-.2ZM34.2,27.4h-7v7c0,.8-.6,1.4-1.4,1.4s-1.4-.6-1.4-1.4v-7h-7c-.8,0-1.4-.6-1.4-1.4s.6-1.4,1.4-1.4h7v-7c0-.8.6-1.4,1.4-1.4s1.4.6,1.4,1.4v7h7c.8,0,1.4.6,1.4,1.4s-.6,1.4-1.4,1.4ZM38.3,38.5l-.6.6-1.6-1.6c.2-.2.4-.3.6-.5s.4-.4.5-.6l1.6,1.6-.5.5Z"/>
      </g>
    </g>
  </g>
</svg>