<?xml version="1.0" encoding="utf-8"?>
<!-- Generator: Adobe Illustrator 28.1.0, SVG Export Plug-In . SVG Version: 6.00 Build 0)  -->
<svg version="1.1" id="圖層_1" xmlns="http://www.w3.org/2000/svg" xmlns:xlink="http://www.w3.org/1999/xlink" x="0px" y="0px"
	 viewBox="0 0 142.6 181.6" style="enable-background:new 0 0 142.6 181.6;" xml:space="preserve">
<style type="text/css">
	.st0{fill:#FFBC37;}
	.st1{fill:#6EB5BA;}
	.st2{fill:#FFD483;}
	.st3{fill:#DE9337;}
	.st4{fill:#FF4125;}
	.st5{fill:#0F2739;}
	.st6{fill:#FFFFFF;}
	.st7{fill:#2C495B;}
	.st8{fill:#FFF1F9;}
	.st9{fill:#FF6B00;}
	.st10{fill:none;stroke:#CB3435;stroke-width:2;stroke-linecap:round;stroke-linejoin:round;stroke-miterlimit:10;}
</style>
<g>
	<g>
		<path class="st0" d="M48.5,55.6C33.7,44.2,32.4,22.9,31.2,5.8C31,2.7,28.7,0,25.4,0c-3,0-6,2.7-5.8,5.8c0.6,8.1,1.3,16.5,3,24.5
			c-3.4,0-7.2-0.6-9.2-3.2c-2.8-3.8-1.8-9.6-1.4-14c0.3-3.1-2.9-5.8-5.8-5.8c-3.4,0-5.5,2.7-5.8,5.8c-0.7,7.8-0.6,16,4.8,22.2
			c4.9,5.6,13.5,7,20.6,6.5c0,0,0,0,0,0c3.3,9.1,8.5,17.4,16.9,23.9c2.5,1.9,6.5,0.4,8-2.1C52.3,60.5,51,57.5,48.5,55.6z"/>
		<path class="st1" d="M47.4,49.6c-0.1-0.2-0.1-0.4-0.2-0.5c-0.2-0.6-0.5-1.3-1.2-1.5c-0.4-0.1-0.9,0-1.2,0.3
			c-0.3,0.3-0.6,0.6-0.8,1c-0.7,0.9-0.8,2.6-1,3.7c-1-0.9-2.2-1.6-3.5-2c-0.3-0.1-0.5-0.1-0.8,0c-0.2,0.1-0.4,0.4-0.5,0.7
			c-0.5,1.7-0.4,3.2,0.4,4.7c-1.5-0.4-3.2-0.4-4.7,0c-1.1,0.3-2.2,1.2-2,2.3c0.1,0.4,0.3,0.8,0.6,1.1c1.3,1.7,3,3,4.8,4
			c0.2,0.1,0.5,0.3,0.8,0.2c0.3,0,0.5-0.2,0.8-0.3c3-2,6.1-4.1,9.1-6.1C49.7,55.9,48.1,51.6,47.4,49.6z"/>
		<path class="st0" d="M88.1,55.6c14.8-11.4,16.2-32.7,17.3-49.8c0.2-3.1,2.5-5.8,5.8-5.8c3,0,6,2.7,5.8,5.8
			c-0.6,8.1-1.3,16.5-3,24.5c3.4,0,7.2-0.6,9.2-3.2c2.8-3.8,1.8-9.6,1.4-14c-0.3-3.1,2.9-5.8,5.8-5.8c3.4,0,5.5,2.7,5.8,5.8
			c0.7,7.8,0.6,16-4.8,22.2c-4.9,5.6-13.5,7-20.6,6.5c0,0,0,0,0,0c-3.3,9.1-8.5,17.4-16.9,23.9c-2.5,1.9-6.5,0.4-8-2.1
			C84.2,60.5,85.6,57.5,88.1,55.6z"/>
		<g>
			<path class="st2" d="M104.4,18.1c0.1-0.6,0.1-1.2,0.2-1.8c3.9-0.1,7.9,0.2,11.4,1.8c-0.1,0.6-0.2,1.3-0.2,1.9
				C112.3,18.2,108.3,18,104.4,18.1z"/>
			<path class="st2" d="M117,5.8c0,0.3,0,0.6-0.1,0.9c-3.8-0.8-7.7-1.2-11.5-1.1c0.1-0.6,0.2-1.3,0.5-1.9c3.7,0,7.4,0.3,11.1,1.1
				C117,5.1,117.1,5.5,117,5.8z"/>
			<path class="st2" d="M115.5,10.7c0.4,0.1,0.8,0.2,1.2,0.2c0,0.6-0.1,1.2-0.2,1.8c-0.6-0.2-1.2-0.3-1.8-0.4
				c-1.8-0.3-3.5-0.5-5.3-0.7c-1.5-0.1-2.9-0.1-4.4-0.1c0-0.6,0.1-1.2,0.1-1.9c1.5,0,3,0,4.5,0.1C111.6,10.1,113.6,10.3,115.5,10.7z
				"/>
			<path class="st2" d="M124.7,24c0.2-0.6,0.3-1.2,0.4-1.9c4.1,2.4,7.1,6.6,7.8,11.4c-0.4,0.6-0.9,1.2-1.4,1.8c0,0,0,0-0.1,0.1
				c-0.1-0.1-0.2-0.3-0.2-0.6C130.9,30.5,128.3,26.4,124.7,24z"/>
			<path class="st2" d="M97,45.2c1.7,0.7,3.3,1.7,4.7,2.8c1.4,1.1,2.7,2.3,3.8,3.8c0.1,0.2,0.3,0.3,0.4,0.5c-0.3,0.5-0.7,1.1-1,1.6
				c-1.1-1.7-2.7-3.1-4.1-4.3c-1.3-1-3-2.1-4.7-2.8C96.4,46.2,96.7,45.7,97,45.2z"/>
			<path class="st2" d="M112,38.6c-1.3-1.6-2.9-3-4.7-4c-1.7-0.9-3.5-1.5-5.4-1.8c0.2-0.6,0.3-1.2,0.4-1.8c4.1,0.6,8.1,2.8,10.7,6
				c0.1,0.1,0.3,0.5,0.5,0.6c0,0.1,0,0.1,0.1,0c0.1-0.1,0.2-0.2,0.3-0.3c0.4-0.5,0.8-1,1.1-1.6c0.6-1,1.2-2.2,1.5-3.3
				c0.2-0.7,0.4-1.5,0.5-2.3c0.6-0.1,1.3-0.2,1.9-0.4c-0.3,2.5-1.1,5-2.5,7.2c-0.5,0.8-1.1,1.8-1.9,2.4
				C113.6,39.9,112.6,39.4,112,38.6z"/>
			<path class="st2" d="M122.6,33.4c-0.2-1.6-0.6-3.2-1.1-4.7c0.6-0.4,1.1-0.8,1.5-1.3c0.7,2,1.2,4.1,1.5,6.2
				c0.3,2.3-0.1,4.6-0.9,6.8c-0.7,0.3-1.5,0.5-2.3,0.7C122.5,38.7,123,35.9,122.6,33.4z"/>
			<path class="st2" d="M104,41.8c-1.4-0.9-2.9-1.6-4.4-2.1c0.2-0.6,0.4-1.1,0.7-1.7c1.7,0.6,3.4,1.4,4.9,2.4
				c1.7,1.1,3.3,2.5,4.6,4.1c-0.3,0.6-0.5,1.3-0.8,1.9C107.7,44.5,105.9,43,104,41.8z"/>
			<path class="st2" d="M103,27.8c0.1-0.6,0.2-1.3,0.4-1.9c3.8-0.6,7.8-0.1,11.3,1.4c-0.1,0.6-0.2,1.2-0.4,1.9
				C110.8,27.5,106.8,27,103,27.8z"/>
			<path class="st2" d="M131.4,12c1.6,0.1,3.3,0.5,4.8,1c0,0,0,0.1,0,0.1c0.1,0.6,0.1,1.2,0.2,1.9c-1.5-0.6-3.1-1-4.7-1.1
				c-1.5-0.1-2.9-0.1-4.4,0c-0.8,0.1-1.7,0.2-2.6,0.5c0-0.4-0.1-0.9-0.1-1.3c0-0.2,0-0.4,0-0.6C126.8,11.9,129.3,11.8,131.4,12z"/>
			<path class="st2" d="M133.1,21.3c-2.5-1-5.3-0.9-8-0.8c0-0.6,0-1.2,0-1.8c3-0.1,6-0.2,8.7,0.9c0.9,0.4,1.8,0.9,2.7,1.4
				c0,0.7-0.1,1.4-0.2,2.1C135.4,22.4,134.3,21.8,133.1,21.3z"/>
		</g>
		<path class="st1" d="M89.2,49.6c0.1-0.2,0.1-0.4,0.2-0.5c0.2-0.6,0.5-1.3,1.2-1.5c0.4-0.1,0.9,0,1.2,0.3c0.3,0.3,0.6,0.6,0.8,1
			c0.7,0.9,0.8,2.6,1,3.7c1-0.9,2.2-1.6,3.5-2c0.3-0.1,0.5-0.1,0.8,0c0.2,0.1,0.4,0.4,0.5,0.7c0.5,1.7,0.4,3.2-0.4,4.7
			c1.5-0.4,3.2-0.4,4.7,0c1.1,0.3,2.2,1.2,2,2.3c-0.1,0.4-0.3,0.8-0.6,1.1c-1.3,1.7-3,3-4.8,4c-0.2,0.1-0.5,0.3-0.8,0.2
			c-0.3,0-0.5-0.2-0.8-0.3c-3-2-6.1-4.1-9.1-6.1C86.9,55.9,88.5,51.6,89.2,49.6z"/>
		<path class="st1" d="M64.2,171.3c-0.4,1.9-1.1,3.7-1.1,5.8c0,0.5,0.1,1-0.1,1.5c-0.2,0.8-1,1.3-1.8,1.7c-1.7,0.8-3.7,1.3-5.7,1.3
			c-0.8,0-1.5,0-2.3-0.4c-0.7-0.3-1.4-0.9-1.7-1.6c-0.1-0.3-0.1-0.6-0.2-0.9c-0.2-0.5-0.7-0.9-1.1-1.3c-1.1-1.1-2-2.4-2.7-3.8
			c-1.9-3.4-3.3-7-3.7-10.7c-0.4-3.6,0.4-7.2,2.4-9.9c1.4-1.8,3.5-3.1,5.9-3.6c2.3-0.5,3.3,0.2,5.2,1.8c3.8,3.3,6.2,7.8,7,12.4
			C64.8,166.3,64.7,168.9,64.2,171.3z"/>
		<path class="st3" d="M55.6,181.6c2,0,4-0.5,5.7-1.3c0.8-0.4,1.5-0.9,1.8-1.7c0.1-0.5,0.1-1,0.1-1.5c0-0.6,0.1-1.3,0.2-1.9
			c-0.9-0.2-1.9,0.1-2.4,0.8c-0.5-0.8-1.3-1.7-2.2-1.6c-0.4,0-0.7,0.3-1,0.5c-0.8,0.5-1.6,1.1-1.7,2c-0.6-0.9-1.9-1.1-2.8-0.7
			c-0.8,0.4-1.4,1.2-2,1.9c0.1,0.2,0.3,0.4,0.4,0.6c0.1,0.3,0.1,0.6,0.2,0.9c0.3,0.7,0.9,1.3,1.7,1.6
			C54,181.5,54.8,181.6,55.6,181.6z"/>
		<path class="st4" d="M85.5,135.6c4.1,0.4,7.5,3.3,11.4,4.3c1.4,0.4,2.9,0.5,4.1,1.3c1.9,1.3,2.6,3.7,3,6c0.1,0.3,0.1,0.6,0,0.9
			c-0.1,0.3-0.4,0.6-0.7,0.8c-3.3,2.4-7,4-11,4.9c-0.2-1.3-0.5-2.7-0.7-4c-3.5,0.8-7.3,1.1-10.6-0.3c-2.9-1.2-6.4-5-5.4-8.4
			C76.6,137.3,82,135.2,85.5,135.6z"/>
		<path class="st3" d="M102.4,143.8c-1,0.4-1.7,1.4-1.5,2.5c-0.7-0.5-1.4-1-2.3-1c-0.8,0-1.6,0.4-2.1,1c-0.5,0.6-0.7,1.5-0.7,2.3
			c-0.6-0.5-1.2-1.1-2-1.1c-0.6,0-1.1,0.3-1.5,0.8c-0.4,0.4-0.7,1-1,1.5c0.1,0,0.2,0,0.3-0.1c0.2,1.3,0.5,2.7,0.7,4
			c3.9-0.8,7.7-2.5,11-4.9c0.3-0.2,0.6-0.4,0.7-0.8c0.1-0.3,0-0.6,0-0.9c-0.2-1.2-0.5-2.4-1-3.5
			C102.8,143.7,102.6,143.7,102.4,143.8z"/>
		<path class="st5" d="M12.7,125.7c-0.1-0.8-0.3-1.7-0.8-2.3c-0.3-0.4-0.8-0.8-1.1-1.2c-0.1-0.2-0.3-0.3-0.3-0.5
			c-0.1-0.5,0.3-0.8,0.5-1.3c0.1-0.4,0-0.8-0.3-1.2c-0.2-0.3-0.6-0.6-0.9-0.8c0.3,0.5,0.3,1.1,0.1,1.7c-0.2,0.4-0.6,1.4-1.2,1.4
			c-0.7,0-0.8-0.9-0.8-1.5c0.1-0.7,0.3-1.4,0.3-2.1c0-0.7-0.2-1.5-0.7-1.9c0.2,1-0.7,1.8-1.2,2.8c-0.5,1-0.5,2.1-0.3,3.1
			c0.1,0.5,0.2,1,0.1,1.5c-0.2,0.5-0.9,0.7-1.2,0.3c-0.2-0.3-0.1-0.7-0.2-1.1c-0.2-0.7-1-0.8-1.7-0.8c0.3,0.6,0.4,1.4,0.3,2.1
			c-0.1,0.7-0.5,1.5-0.2,2.1c1.3,2.9,4.3,3,6.1,2.8c0.9-0.1,1.7-0.4,2.4-0.9C12.3,127.4,12.8,126.6,12.7,125.7z"/>
		<path class="st1" d="M91.4,112.4c-0.8-4.3-5.6-8.9-9.8-11C77,99,70.2,98,65.1,99.5c-5.2,1.4-10.2,4.2-12.8,8.5
			c-2.7,4.4-3.1,8.6-2.3,13.4c0.2,2.3,0.3,4.7,0.1,7c-0.3,1.4-0.8,2.8-1.3,4.2c-0.5,0.8-1,1.6-1.6,2.4c-0.6,0.6-1.2,1.1-1.9,1.6
			c-0.6,0.3-1.2,0.7-1.9,1c-0.5,0.1-0.9,0.2-1.4,0.3c-7.1,2-15.6,2.1-18.9,1.7c-3.8-0.5-7.6-2.3-9.5-5.6c-1.1-1.9-1.5-4.1-2.5-6
			c-0.2-0.4-0.5-0.9-0.9-1.1c-0.8-0.5-2-0.1-2.6,0.6c-0.6,0.7-0.8,1.7-0.9,2.7c-1.6,12,3.7,24.3,12.1,33.1c2.4,2.5,5,4.8,8,6.5
			c0.6,0.3,1.3,0.7,1.9,0.9c3.5,2.3,7.9,3.8,12.8,4.2c18.1,1.5,37.7-4,46.4-16.9C98.2,142.6,94.1,126.4,91.4,112.4z"/>
		<path class="st0" d="M81.6,101.3c-3.9-2-9.4-3-14.1-2.3c2,11.3,2.7,21.7-0.6,33c-1.8,6-4.5,11.9-8.9,16.4
			c-9.6,9.6-26,10.3-37.8,3.6c-2.9-1.7-5.6-3.7-7.6-6.4c-3-3.9-4.3-8.7-6-13.3c-0.8,11.3,4.5,22.6,12.3,31c2.4,2.5,5,4.8,8,6.5
			c0.6,0.3,1.3,0.7,1.9,0.9c3.5,2.3,7.9,3.8,12.8,4.2c18.1,1.5,37.7-4,46.4-16.9c10.3-15.3,6.2-31.5,3.5-45.6
			C90.6,108.1,85.7,103.5,81.6,101.3z"/>
		<path class="st1" d="M116.8,98.5c-1.5-0.7-2.4-2.4-2.3-4c0-0.3,0-0.7,0-1c0-24.5-20.8-44.4-46.4-44.4c-25.6,0-46.4,19.9-46.4,44.4
			c0,0.3,0,0.7,0,1c0,1.7-0.8,3.3-2.3,4c-3.5,1.7-5.4-3.5-5.4,3.3c0,24,24.2,30.9,54.1,30.9s54.1-6.8,54.1-30.9
			C122.3,94.9,120.3,100.1,116.8,98.5z"/>
		<path class="st0" d="M56.9,80.4c0.1-2.5-0.3-5-1-7.3c-0.3-1.1-0.8-2.2-1.8-2.7c-0.3-0.2-0.7-0.2-1-0.1c-0.7,0.2-1,1-1.2,1.7
			c-0.2,0.7-0.3,1.4-0.3,2c-0.9-1-1.7-1.8-2.9-2.4c-1.2-0.6-2.7-0.9-4-0.6c-0.4,0.1-0.7,0.2-1,0.4c-0.4,0.4-0.4,1-0.3,1.5
			s0.3,1.1,0.3,1.6c-1.2-0.5-2.4-0.8-3.7-1.1c-1-0.2-2.1-0.4-3.1-0.2c-1,0.2-2.1,0.8-2.5,1.7c-0.5,1-0.3,2.1,0.1,3.1
			c0.6,1.6,1.8,3,3.2,4.1c1.4,1.1,2.9,1.9,4.6,2.5c2.2,0.9,4.5,1.6,6.9,1.7c2.2,0.1,4.2-0.4,6.3-1.2C57.2,84.4,56.9,82.1,56.9,80.4
			C56.9,80.5,56.9,80.4,56.9,80.4z"/>
		<path class="st0" d="M80.1,80.4c-0.1-2.5,0.3-5,1-7.3c0.3-1.1,0.8-2.2,1.8-2.7c0.3-0.2,0.7-0.2,1-0.1c0.7,0.2,1,1,1.2,1.7
			c0.2,0.7,0.3,1.4,0.3,2c0.9-1,1.7-1.8,2.9-2.4c1.2-0.6,2.7-0.9,4-0.6c0.4,0.1,0.7,0.2,1,0.4c0.4,0.4,0.4,1,0.3,1.5
			c-0.1,0.5-0.3,1.1-0.3,1.6c1.2-0.5,2.4-0.8,3.7-1.1c1-0.2,2.1-0.4,3.1-0.2c1,0.2,2.1,0.8,2.5,1.7c0.5,1,0.3,2.1-0.1,3.1
			c-0.6,1.6-1.8,3-3.2,4.1c-1.4,1.1-2.9,1.9-4.6,2.5c-2.2,0.9-4.5,1.6-6.9,1.7c-2.2,0.1-4.2-0.4-6.3-1.2
			C79.9,84.4,80.2,82.1,80.1,80.4C80.1,80.5,80.1,80.4,80.1,80.4z"/>
		<path class="st5" d="M91.1,119.2c1,4.7-2.6,9.3-7.9,10.4c-5.3,1.1-10.4-1.8-11.4-6.5c-1-4.7,2.6-9.3,7.9-10.4
			C85,111.6,90.1,114.5,91.1,119.2z"/>
		<path class="st4" d="M86.6,120.3c-4.9,1-8.3,5-8,9.3c1.4,0.3,3,0.4,4.6,0c4.9-1,8.3-5,8-9.3C89.8,120,88.2,119.9,86.6,120.3z"/>
		<g>
			<path class="st5" d="M80.9,130.2c-1.9,0-3.7-0.5-5.2-1.4c-2.2-1.3-3.7-3.3-4.2-5.6c-0.5-2.4,0.1-4.8,1.7-6.8c1.5-2,3.9-3.5,6.5-4
				c5.5-1.1,10.8,1.9,11.8,6.7l0,0c0.5,2.4-0.1,4.8-1.7,6.8c-1.5,2-3.9,3.5-6.5,4C82.5,130.1,81.7,130.2,80.9,130.2z M81.9,112.9
				c-0.7,0-1.4,0.1-2.2,0.2c-2.5,0.5-4.7,1.8-6.1,3.7c-1.4,1.9-2,4.1-1.5,6.3c0.4,2.2,1.8,4,3.9,5.2c2.1,1.2,4.6,1.6,7.1,1
				c2.5-0.5,4.7-1.8,6.1-3.7c1.4-1.9,2-4.1,1.5-6.3l0,0C89.9,115.4,86.2,112.9,81.9,112.9z"/>
		</g>
		<g>
			<g>
				<path class="st5" d="M8.9,84.7C8,89.9,7.5,95.1,7.6,100.4c0.1,2.6,0.3,5.3,0.8,7.9c0.4,2.3,1,4.7,2.2,6.8
					c2.1,3.6,6,6.2,10.1,6.9c4.6,0.9,9.5-0.3,13.4-2.9c2.2-1.5,4.1-3.4,6.5-4.7c1.9-1,4.4-1.6,6.3-0.5c1.7,1,3.2-1.6,1.5-2.6
					c-4.2-2.5-8.9-0.2-12.3,2.4c-1.8,1.4-3.5,2.8-5.5,3.8c-1.9,0.9-3.9,1.5-6,1.6c-3.9,0.2-7.7-1.2-10.3-4.2
					c-1.4-1.6-2.1-3.6-2.6-5.6c-0.5-2.3-0.8-4.7-0.9-7.1c-0.3-5.6,0.2-11.3,1.1-16.8c0.1-0.8-0.2-1.6-1.1-1.9
					C10.1,83.4,9.1,83.8,8.9,84.7L8.9,84.7z"/>
			</g>
		</g>
		<g>
			<g>
				<path class="st5" d="M126.9,84.7c0.9,5.2,1.5,10.5,1.3,15.7c-0.1,2.6-0.3,5.3-0.8,7.9c-0.4,2.3-1,4.7-2.2,6.8
					c-2.1,3.6-6,6.2-10.1,6.9c-4.6,0.9-9.5-0.3-13.4-2.9c-2.2-1.5-4.1-3.4-6.5-4.7c-1.9-1-4.4-1.6-6.3-0.5c-1.7,1-3.2-1.6-1.5-2.6
					c4.2-2.5,8.9-0.2,12.3,2.4c1.8,1.4,3.5,2.8,5.5,3.8c1.9,0.9,3.9,1.5,6,1.6c3.9,0.2,7.7-1.2,10.3-4.2c1.4-1.6,2.1-3.6,2.6-5.6
					c0.5-2.3,0.8-4.7,0.9-7.1c0.3-5.6-0.2-11.3-1.1-16.8c-0.1-0.8,0.2-1.6,1.1-1.9C125.7,83.4,126.7,83.8,126.9,84.7L126.9,84.7z"/>
			</g>
		</g>
		<g>
			<g>
				<circle class="st5" cx="87" cy="84.5" r="9.4"/>
				<path class="st6" d="M92.3,81.2c0,2.6-2.1,4.6-4.6,4.6c-2.6,0-4.6-2.1-4.6-4.6c0-2.6,2.1-4.6,4.6-4.6
					C90.2,76.5,92.3,78.6,92.3,81.2z"/>
				<path class="st7" d="M93.8,88c0,1.3-1,2.3-2.3,2.3c-1.3,0-2.3-1-2.3-2.3c0-1.3,1-2.3,2.3-2.3C92.8,85.7,93.8,86.7,93.8,88z"/>
			</g>
			<g>
				<circle class="st5" cx="49.3" cy="84.5" r="9.4"/>
				<path class="st6" d="M44,81.2c0,2.6,2.1,4.6,4.6,4.6c2.6,0,4.6-2.1,4.6-4.6c0-2.6-2.1-4.6-4.6-4.6C46.1,76.5,44,78.6,44,81.2z"
					/>
				<path class="st7" d="M42.4,88c0,1.3,1,2.3,2.3,2.3c1.3,0,2.3-1,2.3-2.3c0-1.3-1-2.3-2.3-2.3C43.5,85.7,42.4,86.7,42.4,88z"/>
			</g>
		</g>
		<g>
			<ellipse class="st1" cx="88.3" cy="94.4" rx="9.4" ry="4.2"/>
			<g>
				<path class="st5" d="M95.6,92.1c-0.1,0-0.1,0-0.2,0c-1.7-1-4.3-1.5-7.1-1.5c-2.7,0-5.3,0.5-7.1,1.5c-0.2,0.1-0.4,0-0.5-0.1
					c-0.1-0.2,0-0.4,0.1-0.5c1.8-1,4.5-1.6,7.4-1.6c2.9,0,5.6,0.6,7.5,1.6c0.2,0.1,0.2,0.3,0.1,0.5C95.9,92,95.7,92.1,95.6,92.1z"/>
			</g>
		</g>
		<g>
			<path class="st2" d="M16.8,149.8c-0.7-0.5-1.4-1.1-2-1.7c-1.3,1.6-2.4,3.3-3.3,5.1c0.5,0.9,1,1.8,1.6,2.7
				C14.1,153.7,15.3,151.6,16.8,149.8z"/>
			<path class="st2" d="M8.5,146.2c0.6-1.2,1.4-2.3,2.3-3.2c-0.4-0.8-0.8-1.6-1.2-2.4c-0.8,0.7-1.5,1.5-2.1,2.4
				C7.8,144,8.1,145.1,8.5,146.2z"/>
			<path class="st2" d="M22.1,166.3c0.1-0.8,0.2-1.6,0.3-2.3c0.6-3.4,1.6-6.6,3-9.7c-0.8-0.3-1.6-0.6-2.4-1
				c-1.6,3.4-2.7,7.1-3.2,10.8c0,0,0,0,0,0C20.5,164.9,21.3,165.6,22.1,166.3z"/>
			<path class="st2" d="M41.4,173.1c-1.7-4.7-2.5-9.7-2.5-14.7c0-0.7,0-1.3,0.1-2c-0.9,0-1.7,0.1-2.6,0c-0.1,3,0,6.1,0.4,9.1
				c0.4,3,1.2,6.1,2.3,9.1c0.8,0.1,1.6,0.2,2.4,0.3c0.2,0,0.4,0,0.6,0C41.9,174.3,41.7,173.7,41.4,173.1z"/>
			<path class="st2" d="M66.2,172.5c1.2-0.4,2.5-0.8,3.6-1.2c-7-2.9-12.8-8.1-16.4-14.9c-0.6-1.1-1.1-2.3-1.6-3.5
				c-0.8,0.4-1.5,0.8-2.3,1.1C52.6,161.9,58.6,168.6,66.2,172.5z"/>
			<path class="st2" d="M70.4,150.5c5.9,2.1,11.9,4.3,18.1,5.4c0.2,0,0.4,0.1,0.6,0.1c0.5-0.8,0.9-1.6,1.3-2.4
				c-3.3-0.5-6.6-1.3-9.7-2.3c-5.3-1.6-10.8-3.3-15.7-5.8c-1.1-0.6-2.2-1.2-3.3-1.8c-0.5,0.7-1,1.4-1.5,2.1
				C63.4,147.8,66.9,149.3,70.4,150.5z"/>
			<path class="st2" d="M71.2,136.4c-1.8-0.4-3.5-0.9-5.2-1.5c-0.3,0.8-0.6,1.6-0.9,2.4c9.3,3.2,19.5,3.5,29.1,1.1
				c0.1,0,0.2-0.1,0.3-0.1c0.1-0.9,0.1-1.8,0.1-2.7C87,137.8,78.9,138.1,71.2,136.4z"/>
		</g>
		<path class="st1" d="M42.8,173.4c-1,1.7-2.2,3.2-2.8,5.2c-0.1,0.5-0.2,1-0.5,1.4c-0.5,0.7-1.4,1-2.2,1.1c-1.9,0.3-3.9,0.1-5.8-0.5
			c-0.7-0.2-1.5-0.5-2.1-1c-0.6-0.5-1.1-1.3-1.1-2.1c0-0.3,0.1-0.6,0-0.9c0-0.6-0.4-1.1-0.7-1.6c-0.8-1.4-1.2-2.9-1.5-4.4
			c-0.8-3.8-1.1-7.7-0.3-11.3c0.7-3.6,2.5-6.8,5.3-8.7c1.9-1.3,4.3-1.9,6.7-1.6c2.4,0.3,3.1,1.2,4.4,3.3c2.7,4.3,3.6,9.3,3,13.9
			C44.8,168.9,44,171.3,42.8,173.4z"/>
		<path class="st3" d="M31.5,180.6c1.9,0.6,3.9,0.8,5.8,0.5c0.9-0.1,1.7-0.4,2.2-1.1c0.3-0.4,0.4-0.9,0.5-1.4
			c0.2-0.6,0.4-1.2,0.7-1.7c-0.8-0.4-1.8-0.5-2.5,0c-0.3-0.9-0.7-2-1.7-2.2c-0.4-0.1-0.8,0-1.1,0.1c-0.9,0.2-1.8,0.6-2.3,1.4
			c-0.3-1-1.4-1.6-2.5-1.5c-0.9,0.1-1.7,0.7-2.5,1.2c0.1,0.2,0.2,0.4,0.2,0.6c0,0.3,0,0.6,0,0.9c0,0.8,0.5,1.6,1.1,2.1
			C30,180.1,30.7,180.4,31.5,180.6z"/>
		<path class="st0" d="M47.8,132.3c-0.6-0.2-1.2-0.4-1.9-0.5c-0.1,0-0.2,0-0.3,0c-0.3,0.1-0.4,0.4-0.4,0.6c-0.1,0.5-0.1,1.1-0.1,1.6
			c0,0.8,0,1.6,0,2.4c-0.5-0.2-0.8-0.6-1.3-0.9c-0.5-0.3-1-0.7-1.6-0.9c-0.6-0.3-1.3-0.5-1.8-0.1c-0.4,0.4-0.4,1.1-0.5,1.6
			c-0.1,0.7-0.2,1.3-0.3,2c-0.7-0.9-1.7-2.8-3.1-2.6c-0.7,0.1-1.2,0.6-1.5,1.2c-0.4,0.8-0.7,1.6-1,2.4c-0.4-0.7-1-1.3-1.6-1.9
			c-0.5-0.4-1.3-1.2-2.1-0.9c-0.4,0.2-0.6,0.5-0.8,0.9c-0.3,0.4-0.5,0.9-0.8,1.3c-0.2,0.4-0.4,0.7-0.7,1c0.1-0.1-0.4-0.9-0.5-1
			c-0.2-0.3-0.4-0.6-0.7-0.9c-0.4-0.5-0.9-1.2-1.7-1.1c-0.6,0.1-1,0.6-1.4,1c-0.5,0.5-1,1-1.5,1.5c0-0.9-0.2-1.8-0.6-2.6
			c-0.1-0.2-0.3-0.5-0.6-0.5c-0.1,0-0.2,0-0.3,0.1c-1,0.4-2,0.9-2.9,1.5c0,0,0-0.6,0-0.7c0-0.2,0-0.4,0-0.6c-0.1-0.4-0.2-0.7-0.5-1
			c-0.8-0.6-2,0-2.8,0.5c0.2-0.7,0.3-1.5-0.1-2.2c-0.4-0.7-1.3-1.1-1.9-0.7c0.3-0.5,0.4-1.2,0.3-1.8c-0.1-0.5-0.4-1-0.9-1
			c-0.5,0-0.9,0.5-0.8,0.9c1.1,5.8,8.8,8.6,9.7,8.8c10.6,1.8,23.3-0.7,26.2-2.4c1.2-0.7,2.2-1.8,2.6-3.1c0.1-0.3,0.2-0.7,0.1-1
			c-0.1-0.3-0.5-0.5-0.8-0.6C48.8,132.6,48.3,132.4,47.8,132.3z"/>
		<path class="st8" d="M89.2,116.6c0.1,0,0.2,0.1,0.2,0.1c0,0.1,0.1,0.2,0.1,0.2c0.1,0.7,0.2,3.4-0.7,3.6c-0.2,0-0.5-0.2-0.6-0.4
			c-0.5-0.6-2-1.7-1.9-2.6c0.1-0.8,2.1-0.9,2.7-1C89,116.6,89.1,116.6,89.2,116.6z"/>
		<path class="st8" d="M72.2,121.9c-0.1,0.1-0.1,0.1-0.1,0.2c0,0.1,0,0.2,0.1,0.2c0.3,0.6,1.7,3,2.6,2.5c0.2-0.1,0.3-0.4,0.3-0.6
			c0.1-0.8,0.7-2.5,0.1-3.2c-0.5-0.6-2.2,0.5-2.8,0.7C72.3,121.8,72.2,121.8,72.2,121.9z"/>
		<ellipse class="st0" cx="68.1" cy="106.8" rx="28" ry="15.8"/>
		<g>
			<path class="st3" d="M56.5,102c-3-2.4-6.6-3-7.9-1.3c-1.4,1.7-0.1,5.1,2.9,7.5c3,2.4,6.6,3,7.9,1.3
				C60.8,107.8,59.5,104.4,56.5,102z"/>
			<path class="st3" d="M79.8,102c3-2.4,6.6-3,7.9-1.3c1.4,1.7,0.1,5.1-2.9,7.5c-3,2.4-6.6,3-7.9,1.3
				C75.5,107.8,76.8,104.4,79.8,102z"/>
		</g>
		<g>
			<path class="st5" d="M65.9,133.1c-8.6,0-16.9-1.3-17-1.3c-0.2,0-0.3-0.2-0.3-0.4c0-0.2,0.2-0.3,0.4-0.3c0.1,0,11.4,1.7,21.1,1.2
				c0.2,0,0.4,0.1,0.4,0.3c0,0.2-0.1,0.4-0.3,0.4C68.7,133,67.3,133.1,65.9,133.1z"/>
		</g>
		<g>
			<path class="st5" d="M35.2,62.5c-0.1,0-0.2,0-0.3-0.1c-0.1-0.1-0.1-0.4,0-0.5c0.3-0.3,7.9-7,12.8-9.2c0.2-0.1,0.4,0,0.5,0.2
				c0.1,0.2,0,0.4-0.2,0.5c-4.8,2.2-12.5,9-12.6,9.1C35.3,62.5,35.3,62.5,35.2,62.5z"/>
		</g>
		<g>
			<path class="st5" d="M101.2,62.4c-0.1,0-0.2,0-0.2-0.1c-0.1-0.1-7.1-6.1-12.8-8.4c-0.2-0.1-0.3-0.3-0.2-0.5
				c0.1-0.2,0.3-0.3,0.5-0.2c5.8,2.4,12.9,8.5,13,8.5c0.1,0.1,0.2,0.3,0,0.5C101.4,62.3,101.3,62.4,101.2,62.4z"/>
		</g>
		<g>
			<path class="st0" d="M67.9,50.7c7.2,0,13.8-0.3,19.1-1.5c-3.1-9.3-10.5-15.9-19.1-15.9c-8.6,0-16,6.6-19.1,15.9
				C54.1,50.4,60.7,50.7,67.9,50.7z"/>
			<path class="st9" d="M67.9,52.9c3.2,0,6.1-0.4,8.5-1.7c-1.4-10.5-4.6-18-8.5-18c-3.8,0-7.1,7.4-8.5,18
				C61.8,52.6,64.7,52.9,67.9,52.9z"/>
			<path class="st4" d="M88,53.3c-5,2-12.2,2.5-20.2,2.5c-8,0-15.2-0.5-20.2-2.5c0.3-1.4,0.6-2.8,1-4.2c5.3,1.2,11.9,1.5,19.1,1.5
				c7.2,0,13.8-0.3,19.1-1.5C87.4,50.5,87.8,51.9,88,53.3z"/>
			<path class="st0" d="M71.2,32.1c0,1.9-1.5,3.4-3.4,3.4c-1.9,0-3.4-1.5-3.4-3.4c0-1.9,1.5-3.4,3.4-3.4
				C69.7,28.7,71.2,30.3,71.2,32.1z"/>
		</g>
		<g>
			<path class="st2" d="M32.2,18.1c-0.1-0.6-0.1-1.2-0.2-1.8c-3.9-0.1-7.9,0.2-11.4,1.8c0.1,0.6,0.2,1.3,0.2,1.9
				C24.2,18.2,28.3,18,32.2,18.1z"/>
			<path class="st2" d="M19.6,5.8c0,0.3,0,0.6,0.1,0.9c3.8-0.8,7.7-1.2,11.5-1.1c-0.1-0.6-0.2-1.3-0.5-1.9C27,3.7,23.3,4,19.6,4.8
				C19.6,5.1,19.5,5.5,19.6,5.8z"/>
			<path class="st2" d="M21.1,10.7c-0.4,0.1-0.8,0.2-1.2,0.2c0,0.6,0.1,1.2,0.2,1.8c0.6-0.2,1.2-0.3,1.8-0.4
				c1.8-0.3,3.5-0.5,5.3-0.7c1.5-0.1,2.9-0.1,4.4-0.1c0-0.6-0.1-1.2-0.1-1.9c-1.5,0-3,0-4.5,0.1C25,10.1,23,10.3,21.1,10.7z"/>
			<path class="st2" d="M11.9,24c-0.2-0.6-0.3-1.2-0.4-1.9c-4.1,2.4-7.1,6.6-7.8,11.4c0.4,0.6,0.9,1.2,1.4,1.8c0,0,0,0,0.1,0.1
				c0.1-0.1,0.2-0.3,0.2-0.6C5.7,30.5,8.3,26.4,11.9,24z"/>
			<path class="st2" d="M39.6,45.2c-1.7,0.7-3.3,1.7-4.7,2.8c-1.4,1.1-2.7,2.3-3.8,3.8c-0.1,0.2-0.3,0.3-0.4,0.5
				c0.3,0.5,0.7,1.1,1,1.6c1.1-1.7,2.7-3.1,4.1-4.3c1.3-1,3-2.1,4.7-2.8C40.2,46.2,39.9,45.7,39.6,45.2z"/>
			<path class="st2" d="M24.6,38.6c1.3-1.6,2.9-3,4.7-4c1.7-0.9,3.5-1.5,5.4-1.8c-0.2-0.6-0.3-1.2-0.4-1.8c-4.1,0.6-8.1,2.8-10.7,6
				c-0.1,0.1-0.3,0.5-0.5,0.6c0,0.1,0,0.1-0.1,0c-0.1-0.1-0.2-0.2-0.3-0.3c-0.4-0.5-0.8-1-1.1-1.6c-0.6-1-1.2-2.2-1.5-3.3
				c-0.2-0.7-0.4-1.5-0.5-2.3c-0.6-0.1-1.3-0.2-1.9-0.4c0.3,2.5,1.1,5,2.5,7.2c0.5,0.8,1.1,1.8,1.9,2.4C23,39.9,24,39.4,24.6,38.6z"
				/>
			<path class="st2" d="M14,33.4c0.2-1.6,0.6-3.2,1.1-4.7c-0.6-0.4-1.1-0.8-1.5-1.3c-0.7,2-1.2,4.1-1.5,6.2
				c-0.3,2.3,0.1,4.6,0.9,6.8c0.7,0.3,1.5,0.5,2.3,0.7C14.1,38.7,13.6,35.9,14,33.4z"/>
			<path class="st2" d="M32.6,41.8c1.4-0.9,2.9-1.6,4.4-2.1c-0.2-0.6-0.4-1.1-0.7-1.7c-1.7,0.6-3.4,1.4-4.9,2.4
				c-1.7,1.1-3.3,2.5-4.6,4.1c0.3,0.6,0.5,1.3,0.8,1.9C28.9,44.5,30.7,43,32.6,41.8z"/>
			<path class="st2" d="M33.6,27.8c-0.1-0.6-0.2-1.3-0.4-1.9c-3.8-0.6-7.8-0.1-11.3,1.4c0.1,0.6,0.2,1.2,0.4,1.9
				C25.8,27.5,29.8,27,33.6,27.8z"/>
			<path class="st2" d="M5.1,12c-1.6,0.1-3.3,0.5-4.8,1c0,0,0,0.1,0,0.1c-0.1,0.6-0.1,1.2-0.2,1.9c1.5-0.6,3.1-1,4.7-1.1
				c1.5-0.1,2.9-0.1,4.4,0c0.8,0.1,1.7,0.2,2.6,0.5c0-0.4,0.1-0.9,0.1-1.3c0-0.2,0-0.4,0-0.6C9.8,11.9,7.3,11.8,5.1,12z"/>
			<path class="st2" d="M3.4,21.3c2.5-1,5.3-0.9,8-0.8c0-0.6,0-1.2,0-1.8c-3-0.1-6-0.2-8.7,0.9C1.8,20,0.9,20.5,0,21.1
				c0,0.7,0.1,1.4,0.2,2.1C1.2,22.4,2.3,21.8,3.4,21.3z"/>
		</g>
	</g>
	<g>
		<g>
			<path class="st0" d="M133.8,125.7L133.8,125.7l1.1-6.4c0.2-1.4-1.5-2.6-3.7-2.6h-30.4c-2.2,0-4,1.2-3.7,2.6l1.1,6.4h0
				c-5.4,5.3-8.8,12.6-8.8,19.4c0,12.8,11.9,19.2,26.6,19.2s26.6-6.4,26.6-19.2C142.6,138.3,139.2,131,133.8,125.7z"/>
			<path class="st10" d="M98.2,125.7c0,0,15.2,5.1,35.5,0"/>
			
				<rect x="109.3" y="138.1" transform="matrix(0.7071 0.7071 -0.7071 0.7071 136.3048 -39.6104)" class="st4" width="13.3" height="13.3"/>
		</g>
	</g>
	<path class="st1" d="M72.6,134.4c4.3,1.3,13.1,5.2,17.1,7.1c1.4,0.7,5.4,0.1,6.8,0.7c1.7,0.8,0.5,1.1,1.4,1.4
		c0.4,0.1,0.4,0.4,0.5,0.7c0,0.4,0.1,0.6,0.1,1c-0.1,3.2-5.3,8.5-6.9,10.5c-1.3-1.4-1.9-1.8-3-3.1c-3.9,0.1-20.5-2.3-23.8-4.5
		c-2.8-1.9-5.8-6.7-4-10.1C62.8,134.4,69,133.3,72.6,134.4z"/>
</g>
</svg>
