<?xml version="1.0" encoding="utf-8"?>
<!-- Generator: Adobe Illustrator 28.1.0, SVG Export Plug-In . SVG Version: 6.00 Build 0)  -->
<svg version="1.1" id="圖層_1" xmlns="http://www.w3.org/2000/svg" xmlns:xlink="http://www.w3.org/1999/xlink" x="0px" y="0px"
	 viewBox="0 0 226.4 129.4" style="enable-background:new 0 0 226.4 129.4;" xml:space="preserve">
<style type="text/css">
	.st0{fill:#AEC8C9;}
	.st1{opacity:0.4;}
	.st2{clip-path:url(#SVGID_00000058569221478916720050000000088092515021293753_);}
	.st3{fill:#FFF7EC;}
</style>
<path class="st0" d="M213.4,103.5h-44.8c-6.2-1-11-6.3-11-12.8c0-7,5.5-12.7,12.5-12.9h6.4c0.5,0,1.1,0,1.6-0.1h35.3
	c7.2,0,13-5.8,13-13s-5.8-13-13-13h-44.8c-6.2-1-11-6.3-11-12.8c0-7,5.5-12.7,12.5-12.9h6.4c7.2,0,13-5.8,13-13c0-7.2-5.8-13-13-13
	H51.3c-7.2,0-13,5.8-13,13c0,7.2,5.8,13,13,13h64.5c6.9,0.3,12.5,6,12.5,12.9c0,6.5-4.8,11.8-11,12.8H13c-7.2,0-13,5.8-13,13
	s5.8,13,13,13h36.7c0.5,0.1,1.1,0.1,1.6,0.1h31.1c6.9,0.3,12.5,6,12.5,12.9c0,6.5-4.8,11.8-11,12.8H62.4c-7.2,0-13,5.8-13,13
	s5.8,13,13,13h151c7.2,0,13-5.8,13-13S220.6,103.5,213.4,103.5z"/>
<g class="st1">
	<defs>
		<path id="SVGID_1_" class="st1" d="M213.4,103.5h-44.8c-6.2-1-11-6.3-11-12.8c0-7,5.5-12.7,12.5-12.9h6.4c0.5,0,1.1,0,1.6-0.1
			h35.3c7.2,0,13-5.8,13-13s-5.8-13-13-13h-44.8c-6.2-1-11-6.3-11-12.8c0-7,5.5-12.7,12.5-12.9h6.4c7.2,0,13-5.8,13-13
			c0-7.2-5.8-13-13-13H51.3c-7.2,0-13,5.8-13,13c0,7.2,5.8,13,13,13h64.5c6.9,0.3,12.5,6,12.5,12.9c0,6.5-4.8,11.8-11,12.8H13
			c-7.2,0-13,5.8-13,13s5.8,13,13,13h36.7c0.5,0.1,1.1,0.1,1.6,0.1h31.1c6.9,0.3,12.5,6,12.5,12.9c0,6.5-4.8,11.8-11,12.8H62.4
			c-7.2,0-13,5.8-13,13s5.8,13,13,13h151c7.2,0,13-5.8,13-13S220.6,103.5,213.4,103.5z"/>
	</defs>
	<clipPath id="SVGID_00000151504427446808805620000015842004372675351984_">
		<use xlink:href="#SVGID_1_"  style="overflow:visible;"/>
	</clipPath>
	<g style="clip-path:url(#SVGID_00000151504427446808805620000015842004372675351984_);">
		<g>
			<path class="st3" d="M43.1,6.7c-11.2,0-20.4-9.1-20.4-20.4c0-11.2,9.1-20.4,20.4-20.4s20.4,9.1,20.4,20.4
				C63.5-2.4,54.3,6.7,43.1,6.7z M43.1-32.5c-10.4,0-18.8,8.4-18.8,18.8c0,10.4,8.4,18.8,18.8,18.8c10.4,0,18.8-8.4,18.8-18.8
				C61.9-24,53.5-32.5,43.1-32.5z"/>
			<g>
				<path class="st3" d="M42.1,1.4c0-1.7,0.5-6.5,1-6.5c0.6,0,1,4.8,1,6.5s-0.5,2.5-1,2.5C42.5,3.9,42.1,3.1,42.1,1.4z"/>
			</g>
			<g>
				<path class="st3" d="M47.9,0.6c-0.7-1.6-2.1-6.2-1.6-6.4c0.5-0.2,2.8,4,3.5,5.7c0.7,1.6,0.5,2.5,0,2.7
					C49.3,2.8,48.6,2.3,47.9,0.6z"/>
			</g>
			<g>
				<path class="st3" d="M36.4-0.1c0.7-1.6,2.9-5.9,3.5-5.7c0.5,0.2-0.9,4.8-1.6,6.4c-0.7,1.6-1.4,2.1-1.9,1.9
					C35.8,2.4,35.7,1.5,36.4-0.1z"/>
			</g>
		</g>
		<g>
			<path class="st3" d="M43.1,85.1c-11.2,0-20.4-9.1-20.4-20.4c0-11.2,9.1-20.4,20.4-20.4s20.4,9.1,20.4,20.4
				C63.5,76,54.3,85.1,43.1,85.1z M43.1,45.9c-10.4,0-18.8,8.4-18.8,18.8s8.4,18.8,18.8,18.8c10.4,0,18.8-8.4,18.8-18.8
				S53.5,45.9,43.1,45.9z"/>
			<path class="st3" d="M43.1,58.2c-3.6,0-6.5,2.9-6.5,6.5c0,3.6,2.9,6.5,6.5,6.5c3.6,0,6.5-2.9,6.5-6.5
				C49.6,61.1,46.7,58.2,43.1,58.2z M43.1,68c-1.8,0-3.3-1.5-3.3-3.3c0-1.8,1.5-3.3,3.3-3.3c1.8,0,3.3,1.5,3.3,3.3
				C46.4,66.5,44.9,68,43.1,68z"/>
			<g>
				<path class="st3" d="M44.1,49.7c0,1.7-0.5,6.5-1,6.5c-0.6,0-1-4.8-1-6.5c0-1.7,0.5-2.5,1-2.5C43.7,47.1,44.1,47.9,44.1,49.7z"/>
			</g>
			<g>
				<path class="st3" d="M42.1,79.8c0-1.7,0.5-6.5,1-6.5c0.6,0,1,4.8,1,6.5c0,1.7-0.5,2.5-1,2.5C42.5,82.3,42.1,81.5,42.1,79.8z"/>
			</g>
			<g>
				<path class="st3" d="M38.3,50.4c0.7,1.6,2.1,6.2,1.6,6.4c-0.5,0.2-2.8-4-3.5-5.7s-0.5-2.5,0-2.7C36.9,48.3,37.6,48.8,38.3,50.4z
					"/>
			</g>
			<g>
				<path class="st3" d="M47.9,79c-0.7-1.6-2.1-6.2-1.6-6.4c0.5-0.2,2.8,4,3.5,5.7c0.7,1.6,0.5,2.5,0,2.7
					C49.3,81.2,48.6,80.6,47.9,79z"/>
			</g>
			<g>
				<path class="st3" d="M33.2,53.3c1.2,1.2,4.3,5,3.9,5.4c-0.4,0.4-4.1-2.7-5.4-3.9c-1.2-1.2-1.5-2.1-1.1-2.5
					C31.1,51.9,31.9,52.1,33.2,53.3z"/>
			</g>
			<g>
				<path class="st3" d="M53,76.1c-1.2-1.2-4.3-5-3.9-5.4c0.4-0.4,4.1,2.7,5.4,3.9c1.2,1.2,1.5,2.1,1.1,2.5
					C55.1,77.6,54.3,77.3,53,76.1z"/>
			</g>
			<g>
				<path class="st3" d="M29.6,58c1.6,0.7,5.9,2.9,5.7,3.5c-0.2,0.5-4.8-0.9-6.4-1.6c-1.6-0.7-2.1-1.4-1.9-1.9
					C27.1,57.5,28,57.3,29.6,58z"/>
			</g>
			<g>
				<path class="st3" d="M56.6,71.4C55,70.8,50.8,68.5,51,68c0.2-0.5,4.8,0.9,6.4,1.6c1.6,0.7,2.1,1.4,1.9,1.9
					C59.1,72,58.2,72.1,56.6,71.4z"/>
			</g>
			<g>
				<path class="st3" d="M28,63.7c1.7,0,6.5,0.5,6.5,1c0,0.6-4.8,1-6.5,1c-1.7,0-2.5-0.5-2.5-1C25.5,64.2,26.3,63.7,28,63.7z"/>
			</g>
			<g>
				<path class="st3" d="M58.2,65.7c-1.7,0-6.5-0.5-6.5-1c0-0.6,4.8-1,6.5-1c1.7,0,2.5,0.5,2.5,1C60.7,65.3,59.9,65.7,58.2,65.7z"/>
			</g>
			<g>
				<path class="st3" d="M28.8,69.5c1.6-0.7,6.2-2.1,6.4-1.6c0.2,0.5-4,2.8-5.7,3.5c-1.6,0.7-2.5,0.5-2.7,0
					C26.6,70.9,27.2,70.2,28.8,69.5z"/>
			</g>
			<g>
				<path class="st3" d="M57.4,59.9c-1.6,0.7-6.2,2.1-6.4,1.6c-0.2-0.5,4-2.8,5.7-3.5c1.6-0.7,2.5-0.5,2.7,0
					C59.6,58.5,59,59.2,57.4,59.9z"/>
			</g>
			<g>
				<path class="st3" d="M31.7,74.7c1.2-1.2,5-4.3,5.4-3.9c0.4,0.4-2.7,4.1-3.9,5.4c-1.2,1.2-2.1,1.5-2.5,1.1
					C30.3,76.8,30.5,75.9,31.7,74.7z"/>
			</g>
			<g>
				<path class="st3" d="M54.5,54.8c-1.2,1.2-5,4.3-5.4,3.9c-0.4-0.4,2.7-4.1,3.9-5.4c1.2-1.2,2.1-1.5,2.5-1.1
					C55.9,52.7,55.7,53.6,54.5,54.8z"/>
			</g>
			<g>
				<path class="st3" d="M36.4,78.3c0.7-1.6,2.9-5.9,3.5-5.7c0.5,0.2-0.9,4.8-1.6,6.4c-0.7,1.6-1.4,2.1-1.9,1.9
					C35.8,80.7,35.7,79.9,36.4,78.3z"/>
			</g>
			<g>
				<path class="st3" d="M49.8,51.2c-0.7,1.6-2.9,5.9-3.5,5.7c-0.5-0.2,0.9-4.8,1.6-6.4c0.7-1.6,1.4-2.1,1.9-1.9
					C50.4,48.7,50.5,49.6,49.8,51.2z"/>
			</g>
		</g>
		<g>
			<path class="st3" d="M43.1,163.5c-11.2,0-20.4-9.1-20.4-20.4c0-11.2,9.1-20.4,20.4-20.4s20.4,9.1,20.4,20.4
				C63.5,154.3,54.3,163.5,43.1,163.5z M43.1,124.3c-10.4,0-18.8,8.4-18.8,18.8c0,10.4,8.4,18.8,18.8,18.8
				c10.4,0,18.8-8.4,18.8-18.8C61.9,132.7,53.5,124.3,43.1,124.3z"/>
			<g>
				<path class="st3" d="M44.1,128c0,1.7-0.5,6.5-1,6.5c-0.6,0-1-4.8-1-6.5c0-1.7,0.5-2.5,1-2.5C43.7,125.5,44.1,126.3,44.1,128z"/>
			</g>
			<g>
				<path class="st3" d="M38.3,128.8c0.7,1.6,2.1,6.2,1.6,6.4c-0.5,0.2-2.8-4-3.5-5.7c-0.7-1.6-0.5-2.5,0-2.7
					C36.9,126.7,37.6,127.2,38.3,128.8z"/>
			</g>
			<g>
				<path class="st3" d="M49.8,129.6c-0.7,1.6-2.9,5.9-3.5,5.7c-0.5-0.2,0.9-4.8,1.6-6.4c0.7-1.6,1.4-2.1,1.9-1.9
					C50.4,127.1,50.5,128,49.8,129.6z"/>
			</g>
		</g>
		<g>
			<path class="st3" d="M121.5,163.5c-11.2,0-20.4-9.1-20.4-20.4c0-11.2,9.1-20.4,20.4-20.4s20.4,9.1,20.4,20.4
				C141.9,154.3,132.7,163.5,121.5,163.5z M121.5,124.3c-10.4,0-18.8,8.4-18.8,18.8c0,10.4,8.4,18.8,18.8,18.8
				c10.4,0,18.8-8.4,18.8-18.8C140.3,132.7,131.9,124.3,121.5,124.3z"/>
			<g>
				<path class="st3" d="M122.5,128c0,1.7-0.5,6.5-1,6.5c-0.6,0-1-4.8-1-6.5c0-1.7,0.5-2.5,1-2.5C122.1,125.5,122.5,126.3,122.5,128
					z"/>
			</g>
			<g>
				<path class="st3" d="M116.7,128.8c0.7,1.6,2.1,6.2,1.6,6.4c-0.5,0.2-2.8-4-3.5-5.7c-0.7-1.6-0.5-2.5,0-2.7
					C115.3,126.7,116,127.2,116.7,128.8z"/>
			</g>
			<g>
				<path class="st3" d="M128.2,129.6c-0.7,1.6-2.9,5.9-3.5,5.7c-0.5-0.2,0.9-4.8,1.6-6.4c0.7-1.6,1.4-2.1,1.9-1.9
					C128.7,127.1,128.9,128,128.2,129.6z"/>
			</g>
		</g>
		<g>
			<path class="st3" d="M199.9,163.5c-11.2,0-20.4-9.1-20.4-20.4c0-11.2,9.1-20.4,20.4-20.4c11.2,0,20.4,9.1,20.4,20.4
				C220.3,154.3,211.1,163.5,199.9,163.5z M199.9,124.3c-10.4,0-18.8,8.4-18.8,18.8c0,10.4,8.4,18.8,18.8,18.8s18.8-8.4,18.8-18.8
				C218.7,132.7,210.2,124.3,199.9,124.3z"/>
			<g>
				<path class="st3" d="M200.9,128c0,1.7-0.5,6.5-1,6.5c-0.6,0-1-4.8-1-6.5c0-1.7,0.5-2.5,1-2.5C200.4,125.5,200.9,126.3,200.9,128
					z"/>
			</g>
			<g>
				<path class="st3" d="M195.1,128.8c0.7,1.6,2.1,6.2,1.6,6.4c-0.5,0.2-2.8-4-3.5-5.7c-0.7-1.6-0.5-2.5,0-2.7
					C193.7,126.7,194.4,127.2,195.1,128.8z"/>
			</g>
			<g>
				<path class="st3" d="M206.6,129.6c-0.7,1.6-2.9,5.9-3.5,5.7c-0.5-0.2,0.9-4.8,1.6-6.4c0.7-1.6,1.4-2.1,1.9-1.9
					C207.1,127.1,207.3,128,206.6,129.6z"/>
			</g>
		</g>
		<g>
			<path class="st3" d="M121.5,85.1c-11.2,0-20.4-9.1-20.4-20.4c0-11.2,9.1-20.4,20.4-20.4s20.4,9.1,20.4,20.4
				C141.9,76,132.7,85.1,121.5,85.1z M121.5,45.9c-10.4,0-18.8,8.4-18.8,18.8s8.4,18.8,18.8,18.8c10.4,0,18.8-8.4,18.8-18.8
				S131.9,45.9,121.5,45.9z"/>
			<path class="st3" d="M121.5,58.2c-3.6,0-6.5,2.9-6.5,6.5c0,3.6,2.9,6.5,6.5,6.5c3.6,0,6.5-2.9,6.5-6.5
				C128,61.1,125.1,58.2,121.5,58.2z M121.5,68c-1.8,0-3.3-1.5-3.3-3.3c0-1.8,1.5-3.3,3.3-3.3c1.8,0,3.3,1.5,3.3,3.3
				C124.8,66.5,123.3,68,121.5,68z"/>
			<g>
				<path class="st3" d="M122.5,49.7c0,1.7-0.5,6.5-1,6.5c-0.6,0-1-4.8-1-6.5c0-1.7,0.5-2.5,1-2.5C122.1,47.1,122.5,47.9,122.5,49.7
					z"/>
			</g>
			<g>
				<path class="st3" d="M120.5,79.8c0-1.7,0.5-6.5,1-6.5c0.6,0,1,4.8,1,6.5c0,1.7-0.5,2.5-1,2.5C120.9,82.3,120.5,81.5,120.5,79.8z
					"/>
			</g>
			<g>
				<path class="st3" d="M116.7,50.4c0.7,1.6,2.1,6.2,1.6,6.4c-0.5,0.2-2.8-4-3.5-5.7c-0.7-1.6-0.5-2.5,0-2.7
					C115.3,48.3,116,48.8,116.7,50.4z"/>
			</g>
			<g>
				<path class="st3" d="M126.3,79c-0.7-1.6-2.1-6.2-1.6-6.4c0.5-0.2,2.8,4,3.5,5.7c0.7,1.6,0.5,2.5,0,2.7
					C127.7,81.2,127,80.6,126.3,79z"/>
			</g>
			<g>
				<path class="st3" d="M111.6,53.3c1.2,1.2,4.3,5,3.9,5.4c-0.4,0.4-4.1-2.7-5.4-3.9c-1.2-1.2-1.5-2.1-1.1-2.5
					C109.5,51.9,110.3,52.1,111.6,53.3z"/>
			</g>
			<g>
				<path class="st3" d="M131.4,76.1c-1.2-1.2-4.3-5-3.9-5.4c0.4-0.4,4.1,2.7,5.4,3.9c1.2,1.2,1.5,2.1,1.1,2.5
					C133.5,77.6,132.6,77.3,131.4,76.1z"/>
			</g>
			<g>
				<path class="st3" d="M108,58c1.6,0.7,5.9,2.9,5.7,3.5c-0.2,0.5-4.8-0.9-6.4-1.6c-1.6-0.7-2.1-1.4-1.9-1.9
					C105.5,57.5,106.4,57.3,108,58z"/>
			</g>
			<g>
				<path class="st3" d="M135,71.4c-1.6-0.7-5.9-2.9-5.7-3.5c0.2-0.5,4.8,0.9,6.4,1.6c1.6,0.7,2.1,1.4,1.9,1.9
					C137.5,72,136.6,72.1,135,71.4z"/>
			</g>
			<g>
				<path class="st3" d="M106.4,63.7c1.7,0,6.5,0.5,6.5,1c0,0.6-4.8,1-6.5,1c-1.7,0-2.5-0.5-2.5-1C103.9,64.2,104.7,63.7,106.4,63.7
					z"/>
			</g>
			<g>
				<path class="st3" d="M136.6,65.7c-1.7,0-6.5-0.5-6.5-1c0-0.6,4.8-1,6.5-1c1.7,0,2.5,0.5,2.5,1C139.1,65.3,138.3,65.7,136.6,65.7
					z"/>
			</g>
			<g>
				<path class="st3" d="M107.2,69.5c1.6-0.7,6.2-2.1,6.4-1.6c0.2,0.5-4,2.8-5.7,3.5c-1.6,0.7-2.5,0.5-2.7,0
					C105,70.9,105.6,70.2,107.2,69.5z"/>
			</g>
			<g>
				<path class="st3" d="M135.8,59.9c-1.6,0.7-6.2,2.1-6.4,1.6c-0.2-0.5,4-2.8,5.7-3.5c1.6-0.7,2.5-0.5,2.7,0
					C137.9,58.5,137.4,59.2,135.8,59.9z"/>
			</g>
			<g>
				<path class="st3" d="M110.1,74.7c1.2-1.2,5-4.3,5.4-3.9c0.4,0.4-2.7,4.1-3.9,5.4c-1.2,1.2-2.1,1.5-2.5,1.1
					C108.7,76.8,108.9,75.9,110.1,74.7z"/>
			</g>
			<g>
				<path class="st3" d="M132.9,54.8c-1.2,1.2-5,4.3-5.4,3.9c-0.4-0.4,2.7-4.1,3.9-5.4c1.2-1.2,2.1-1.5,2.5-1.1
					C134.3,52.7,134.1,53.6,132.9,54.8z"/>
			</g>
			<g>
				<path class="st3" d="M114.8,78.3c0.7-1.6,2.9-5.9,3.5-5.7c0.5,0.2-0.9,4.8-1.6,6.4c-0.7,1.6-1.4,2.1-1.9,1.9
					C114.2,80.7,114.1,79.9,114.8,78.3z"/>
			</g>
			<g>
				<path class="st3" d="M128.2,51.2c-0.7,1.6-2.9,5.9-3.5,5.7c-0.5-0.2,0.9-4.8,1.6-6.4c0.7-1.6,1.4-2.1,1.9-1.9
					C128.7,48.7,128.9,49.6,128.2,51.2z"/>
			</g>
		</g>
		<g>
			<path class="st3" d="M199.9,85.1c-11.2,0-20.4-9.1-20.4-20.4c0-11.2,9.1-20.4,20.4-20.4c11.2,0,20.4,9.1,20.4,20.4
				C220.3,76,211.1,85.1,199.9,85.1z M199.9,45.9c-10.4,0-18.8,8.4-18.8,18.8s8.4,18.8,18.8,18.8s18.8-8.4,18.8-18.8
				S210.2,45.9,199.9,45.9z"/>
			<path class="st3" d="M199.9,58.2c-3.6,0-6.5,2.9-6.5,6.5c0,3.6,2.9,6.5,6.5,6.5c3.6,0,6.5-2.9,6.5-6.5
				C206.4,61.1,203.5,58.2,199.9,58.2z M199.9,68c-1.8,0-3.3-1.5-3.3-3.3c0-1.8,1.5-3.3,3.3-3.3c1.8,0,3.3,1.5,3.3,3.3
				C203.1,66.5,201.7,68,199.9,68z"/>
			<g>
				<path class="st3" d="M200.9,49.7c0,1.7-0.5,6.5-1,6.5c-0.6,0-1-4.8-1-6.5c0-1.7,0.5-2.5,1-2.5C200.4,47.1,200.9,47.9,200.9,49.7
					z"/>
			</g>
			<g>
				<path class="st3" d="M198.8,79.8c0-1.7,0.5-6.5,1-6.5c0.6,0,1,4.8,1,6.5c0,1.7-0.5,2.5-1,2.5C199.3,82.3,198.8,81.5,198.8,79.8z
					"/>
			</g>
			<g>
				<path class="st3" d="M195.1,50.4c0.7,1.6,2.1,6.2,1.6,6.4c-0.5,0.2-2.8-4-3.5-5.7c-0.7-1.6-0.5-2.5,0-2.7
					C193.7,48.3,194.4,48.8,195.1,50.4z"/>
			</g>
			<g>
				<path class="st3" d="M204.7,79c-0.7-1.6-2.1-6.2-1.6-6.4c0.5-0.2,2.8,4,3.5,5.7s0.5,2.5,0,2.7C206.1,81.2,205.4,80.6,204.7,79z"
					/>
			</g>
			<g>
				<path class="st3" d="M189.9,53.3c1.2,1.2,4.3,5,3.9,5.4c-0.4,0.4-4.1-2.7-5.4-3.9c-1.2-1.2-1.5-2.1-1.1-2.5
					C187.8,51.9,188.7,52.1,189.9,53.3z"/>
			</g>
			<g>
				<path class="st3" d="M209.8,76.1c-1.2-1.2-4.3-5-3.9-5.4c0.4-0.4,4.1,2.7,5.4,3.9c1.2,1.2,1.5,2.1,1.1,2.5
					C211.9,77.6,211,77.3,209.8,76.1z"/>
			</g>
			<g>
				<path class="st3" d="M186.3,58c1.6,0.7,5.9,2.9,5.7,3.5c-0.2,0.5-4.8-0.9-6.4-1.6c-1.6-0.7-2.1-1.4-1.9-1.9
					C183.8,57.5,184.7,57.3,186.3,58z"/>
			</g>
			<g>
				<path class="st3" d="M213.4,71.4c-1.6-0.7-5.9-2.9-5.7-3.5c0.2-0.5,4.8,0.9,6.4,1.6c1.6,0.7,2.1,1.4,1.9,1.9
					C215.9,72,215,72.1,213.4,71.4z"/>
			</g>
			<g>
				<path class="st3" d="M184.8,63.7c1.7,0,6.5,0.5,6.5,1c0,0.6-4.8,1-6.5,1c-1.7,0-2.5-0.5-2.5-1C182.3,64.2,183.1,63.7,184.8,63.7
					z"/>
			</g>
			<g>
				<path class="st3" d="M214.9,65.7c-1.7,0-6.5-0.5-6.5-1c0-0.6,4.8-1,6.5-1c1.7,0,2.5,0.5,2.5,1C217.5,65.3,216.7,65.7,214.9,65.7
					z"/>
			</g>
			<g>
				<path class="st3" d="M185.6,69.5c1.6-0.7,6.2-2.1,6.4-1.6c0.2,0.5-4,2.8-5.7,3.5c-1.6,0.7-2.5,0.5-2.7,0
					C183.4,70.9,184,70.2,185.6,69.5z"/>
			</g>
			<g>
				<path class="st3" d="M214.2,59.9c-1.6,0.7-6.2,2.1-6.4,1.6c-0.2-0.5,4-2.8,5.7-3.5c1.6-0.7,2.5-0.5,2.7,0
					C216.3,58.5,215.8,59.2,214.2,59.9z"/>
			</g>
			<g>
				<path class="st3" d="M188.5,74.7c1.2-1.2,5-4.3,5.4-3.9c0.4,0.4-2.7,4.1-3.9,5.4s-2.1,1.5-2.5,1.1
					C187,76.8,187.3,75.9,188.5,74.7z"/>
			</g>
			<g>
				<path class="st3" d="M211.3,54.8c-1.2,1.2-5,4.3-5.4,3.9c-0.4-0.4,2.7-4.1,3.9-5.4c1.2-1.2,2.1-1.5,2.5-1.1
					C212.7,52.7,212.5,53.6,211.3,54.8z"/>
			</g>
			<g>
				<path class="st3" d="M193.2,78.3c0.7-1.6,2.9-5.9,3.5-5.7c0.5,0.2-0.9,4.8-1.6,6.4c-0.7,1.6-1.4,2.1-1.9,1.9
					C192.6,80.7,192.5,79.9,193.2,78.3z"/>
			</g>
			<g>
				<path class="st3" d="M206.6,51.2c-0.7,1.6-2.9,5.9-3.5,5.7c-0.5-0.2,0.9-4.8,1.6-6.4c0.7-1.6,1.4-2.1,1.9-1.9
					C207.1,48.7,207.3,49.6,206.6,51.2z"/>
			</g>
		</g>
		<g>
			<path class="st3" d="M160.7,124.3c-11.2,0-20.4-9.1-20.4-20.4s9.1-20.4,20.4-20.4s20.4,9.1,20.4,20.4S171.9,124.3,160.7,124.3z
				 M160.7,85.1c-10.4,0-18.8,8.4-18.8,18.8c0,10.4,8.4,18.8,18.8,18.8s18.8-8.4,18.8-18.8C179.5,93.5,171.1,85.1,160.7,85.1z"/>
			<path class="st3" d="M160.7,97.4c-3.6,0-6.5,2.9-6.5,6.5c0,3.6,2.9,6.5,6.5,6.5c3.6,0,6.5-2.9,6.5-6.5
				C167.2,100.3,164.3,97.4,160.7,97.4z M160.7,107.2c-1.8,0-3.3-1.5-3.3-3.3s1.5-3.3,3.3-3.3c1.8,0,3.3,1.5,3.3,3.3
				S162.5,107.2,160.7,107.2z"/>
			<g>
				<path class="st3" d="M161.7,88.8c0,1.7-0.5,6.5-1,6.5c-0.6,0-1-4.8-1-6.5c0-1.7,0.5-2.5,1-2.5C161.2,86.3,161.7,87.1,161.7,88.8
					z"/>
			</g>
			<g>
				<path class="st3" d="M159.7,119c0-1.7,0.5-6.5,1-6.5c0.6,0,1,4.8,1,6.5c0,1.7-0.5,2.5-1,2.5C160.1,121.5,159.7,120.7,159.7,119z
					"/>
			</g>
			<g>
				<path class="st3" d="M155.9,89.6c0.7,1.6,2.1,6.2,1.6,6.4c-0.5,0.2-2.8-4-3.5-5.7c-0.7-1.6-0.5-2.5,0-2.7
					C154.5,87.5,155.2,88,155.9,89.6z"/>
			</g>
			<g>
				<path class="st3" d="M165.5,118.2c-0.7-1.6-2.1-6.2-1.6-6.4c0.5-0.2,2.8,4,3.5,5.7c0.7,1.6,0.5,2.5,0,2.7
					C166.9,120.4,166.2,119.8,165.5,118.2z"/>
			</g>
			<g>
				<path class="st3" d="M150.8,92.5c1.2,1.2,4.3,5,3.9,5.4c-0.4,0.4-4.1-2.7-5.4-3.9c-1.2-1.2-1.5-2.1-1.1-2.5
					C148.6,91.1,149.5,91.3,150.8,92.5z"/>
			</g>
			<g>
				<path class="st3" d="M170.6,115.3c-1.2-1.2-4.3-5-3.9-5.4c0.4-0.4,4.1,2.7,5.4,3.9c1.2,1.2,1.5,2.1,1.1,2.5
					C172.7,116.7,171.8,116.5,170.6,115.3z"/>
			</g>
			<g>
				<path class="st3" d="M147.2,97.2c1.6,0.7,5.9,2.9,5.7,3.5c-0.2,0.5-4.8-0.9-6.4-1.6c-1.6-0.7-2.1-1.4-1.9-1.9
					C144.7,96.7,145.5,96.5,147.2,97.2z"/>
			</g>
			<g>
				<path class="st3" d="M174.2,110.6c-1.6-0.7-5.9-2.9-5.7-3.5c0.2-0.5,4.8,0.9,6.4,1.6c1.6,0.7,2.1,1.4,1.9,1.9
					C176.7,111.2,175.8,111.3,174.2,110.6z"/>
			</g>
			<g>
				<path class="st3" d="M145.6,102.9c1.7,0,6.5,0.5,6.5,1c0,0.6-4.8,1-6.5,1c-1.7,0-2.5-0.5-2.5-1
					C143.1,103.3,143.9,102.9,145.6,102.9z"/>
			</g>
			<g>
				<path class="st3" d="M175.7,104.9c-1.7,0-6.5-0.5-6.5-1c0-0.6,4.8-1,6.5-1c1.7,0,2.5,0.5,2.5,1
					C178.3,104.5,177.5,104.9,175.7,104.9z"/>
			</g>
			<g>
				<path class="st3" d="M146.4,108.7c1.6-0.7,6.2-2.1,6.4-1.6c0.2,0.5-4,2.8-5.7,3.5c-1.6,0.7-2.5,0.5-2.7,0
					C144.2,110.1,144.8,109.4,146.4,108.7z"/>
			</g>
			<g>
				<path class="st3" d="M175,99.1c-1.6,0.7-6.2,2.1-6.4,1.6c-0.2-0.5,4-2.8,5.7-3.5c1.6-0.7,2.5-0.5,2.7,0
					C177.1,97.7,176.6,98.4,175,99.1z"/>
			</g>
			<g>
				<path class="st3" d="M149.3,113.8c1.2-1.2,5-4.3,5.4-3.9c0.4,0.4-2.7,4.1-3.9,5.4c-1.2,1.2-2.1,1.5-2.5,1.1
					C147.8,115.9,148.1,115.1,149.3,113.8z"/>
			</g>
			<g>
				<path class="st3" d="M172.1,94c-1.2,1.2-5,4.3-5.4,3.9c-0.4-0.4,2.7-4.1,3.9-5.4c1.2-1.2,2.1-1.5,2.5-1.1
					C173.5,91.9,173.3,92.8,172.1,94z"/>
			</g>
			<g>
				<path class="st3" d="M154,117.4c0.7-1.6,2.9-5.9,3.5-5.7c0.5,0.2-0.9,4.8-1.6,6.4c-0.7,1.6-1.4,2.1-1.9,1.9
					C153.4,119.9,153.3,119.1,154,117.4z"/>
			</g>
			<g>
				<path class="st3" d="M167.4,90.4c-0.7,1.6-2.9,5.9-3.5,5.7c-0.5-0.2,0.9-4.8,1.6-6.4c0.7-1.6,1.4-2.1,1.9-1.9
					C167.9,87.9,168.1,88.8,167.4,90.4z"/>
			</g>
		</g>
		<g>
			<path class="st3" d="M82.3,124.3c-11.2,0-20.4-9.1-20.4-20.4s9.1-20.4,20.4-20.4c11.2,0,20.4,9.1,20.4,20.4
				S93.5,124.3,82.3,124.3z M82.3,85.1c-10.4,0-18.8,8.4-18.8,18.8c0,10.4,8.4,18.8,18.8,18.8c10.4,0,18.8-8.4,18.8-18.8
				C101.1,93.5,92.7,85.1,82.3,85.1z"/>
			<path class="st3" d="M82.3,97.4c-3.6,0-6.5,2.9-6.5,6.5c0,3.6,2.9,6.5,6.5,6.5c3.6,0,6.5-2.9,6.5-6.5
				C88.8,100.3,85.9,97.4,82.3,97.4z M82.3,107.2c-1.8,0-3.3-1.5-3.3-3.3s1.5-3.3,3.3-3.3c1.8,0,3.3,1.5,3.3,3.3
				S84.1,107.2,82.3,107.2z"/>
			<g>
				<path class="st3" d="M83.3,88.8c0,1.7-0.5,6.5-1,6.5c-0.6,0-1-4.8-1-6.5c0-1.7,0.5-2.5,1-2.5C82.9,86.3,83.3,87.1,83.3,88.8z"/>
			</g>
			<g>
				<path class="st3" d="M81.3,119c0-1.7,0.5-6.5,1-6.5c0.6,0,1,4.8,1,6.5c0,1.7-0.5,2.5-1,2.5C81.7,121.5,81.3,120.7,81.3,119z"/>
			</g>
			<g>
				<path class="st3" d="M77.5,89.6c0.7,1.6,2.1,6.2,1.6,6.4c-0.5,0.2-2.8-4-3.5-5.7c-0.7-1.6-0.5-2.5,0-2.7
					C76.1,87.5,76.8,88,77.5,89.6z"/>
			</g>
			<g>
				<path class="st3" d="M87.1,118.2c-0.7-1.6-2.1-6.2-1.6-6.4c0.5-0.2,2.8,4,3.5,5.7c0.7,1.6,0.5,2.5,0,2.7
					C88.5,120.4,87.8,119.8,87.1,118.2z"/>
			</g>
			<g>
				<path class="st3" d="M72.4,92.5c1.2,1.2,4.3,5,3.9,5.4c-0.4,0.4-4.1-2.7-5.4-3.9c-1.2-1.2-1.5-2.1-1.1-2.5
					C70.3,91.1,71.1,91.3,72.4,92.5z"/>
			</g>
			<g>
				<path class="st3" d="M92.2,115.3c-1.2-1.2-4.3-5-3.9-5.4c0.4-0.4,4.1,2.7,5.4,3.9c1.2,1.2,1.5,2.1,1.1,2.5
					C94.3,116.7,93.5,116.5,92.2,115.3z"/>
			</g>
			<g>
				<path class="st3" d="M68.8,97.2c1.6,0.7,5.9,2.9,5.7,3.5c-0.2,0.5-4.8-0.9-6.4-1.6c-1.6-0.7-2.1-1.4-1.9-1.9
					C66.3,96.7,67.2,96.5,68.8,97.2z"/>
			</g>
			<g>
				<path class="st3" d="M95.8,110.6c-1.6-0.7-5.9-2.9-5.7-3.5c0.2-0.5,4.8,0.9,6.4,1.6c1.6,0.7,2.1,1.4,1.9,1.9
					C98.3,111.2,97.4,111.3,95.8,110.6z"/>
			</g>
			<g>
				<path class="st3" d="M67.2,102.9c1.7,0,6.5,0.5,6.5,1c0,0.6-4.8,1-6.5,1c-1.7,0-2.5-0.5-2.5-1C64.7,103.3,65.5,102.9,67.2,102.9
					z"/>
			</g>
			<g>
				<path class="st3" d="M97.4,104.9c-1.7,0-6.5-0.5-6.5-1c0-0.6,4.8-1,6.5-1c1.7,0,2.5,0.5,2.5,1C99.9,104.5,99.1,104.9,97.4,104.9
					z"/>
			</g>
			<g>
				<path class="st3" d="M68,108.7c1.6-0.7,6.2-2.1,6.4-1.6c0.2,0.5-4,2.8-5.7,3.5c-1.6,0.7-2.5,0.5-2.7,0
					C65.8,110.1,66.4,109.4,68,108.7z"/>
			</g>
			<g>
				<path class="st3" d="M96.6,99.1c-1.6,0.7-6.2,2.1-6.4,1.6c-0.2-0.5,4-2.8,5.7-3.5c1.6-0.7,2.5-0.5,2.7,0
					C98.8,97.7,98.2,98.4,96.6,99.1z"/>
			</g>
			<g>
				<path class="st3" d="M70.9,113.8c1.2-1.2,5-4.3,5.4-3.9c0.4,0.4-2.7,4.1-3.9,5.4c-1.2,1.2-2.1,1.5-2.5,1.1
					C69.5,115.9,69.7,115.1,70.9,113.8z"/>
			</g>
			<g>
				<path class="st3" d="M93.7,94c-1.2,1.2-5,4.3-5.4,3.9c-0.4-0.4,2.7-4.1,3.9-5.4s2.1-1.5,2.5-1.1C95.1,91.9,94.9,92.8,93.7,94z"
					/>
			</g>
			<g>
				<path class="st3" d="M75.6,117.4c0.7-1.6,2.9-5.9,3.5-5.7c0.5,0.2-0.9,4.8-1.6,6.4c-0.7,1.6-1.4,2.1-1.9,1.9
					C75,119.9,74.9,119.1,75.6,117.4z"/>
			</g>
			<g>
				<path class="st3" d="M89,90.4c-0.7,1.6-2.9,5.9-3.5,5.7c-0.5-0.2,0.9-4.8,1.6-6.4c0.7-1.6,1.4-2.1,1.9-1.9
					C89.5,87.9,89.7,88.8,89,90.4z"/>
			</g>
		</g>
		<g>
			<path class="st3" d="M82.3,45.9c-11.2,0-20.4-9.1-20.4-20.4c0-11.2,9.1-20.4,20.4-20.4c11.2,0,20.4,9.1,20.4,20.4
				C102.7,36.8,93.5,45.9,82.3,45.9z M82.3,6.7c-10.4,0-18.8,8.4-18.8,18.8c0,10.4,8.4,18.8,18.8,18.8c10.4,0,18.8-8.4,18.8-18.8
				C101.1,15.2,92.7,6.7,82.3,6.7z"/>
			<path class="st3" d="M82.3,19c-3.6,0-6.5,2.9-6.5,6.5s2.9,6.5,6.5,6.5c3.6,0,6.5-2.9,6.5-6.5S85.9,19,82.3,19z M82.3,28.8
				c-1.8,0-3.3-1.5-3.3-3.3s1.5-3.3,3.3-3.3c1.8,0,3.3,1.5,3.3,3.3S84.1,28.8,82.3,28.8z"/>
			<g>
				<path class="st3" d="M83.3,10.5c0,1.7-0.5,6.5-1,6.5c-0.6,0-1-4.8-1-6.5c0-1.7,0.5-2.5,1-2.5C82.9,7.9,83.3,8.7,83.3,10.5z"/>
			</g>
			<g>
				<path class="st3" d="M81.3,40.6c0-1.7,0.5-6.5,1-6.5c0.6,0,1,4.8,1,6.5c0,1.7-0.5,2.5-1,2.5C81.7,43.1,81.3,42.3,81.3,40.6z"/>
			</g>
			<g>
				<path class="st3" d="M77.5,11.2c0.7,1.6,2.1,6.2,1.6,6.4c-0.5,0.2-2.8-4-3.5-5.7c-0.7-1.6-0.5-2.5,0-2.7
					C76.1,9.1,76.8,9.6,77.5,11.2z"/>
			</g>
			<g>
				<path class="st3" d="M87.1,39.8c-0.7-1.6-2.1-6.2-1.6-6.4c0.5-0.2,2.8,4,3.5,5.7c0.7,1.6,0.5,2.5,0,2.7
					C88.5,42,87.8,41.4,87.1,39.8z"/>
			</g>
			<g>
				<path class="st3" d="M72.4,14.1c1.2,1.2,4.3,5,3.9,5.4c-0.4,0.4-4.1-2.7-5.4-3.9c-1.2-1.2-1.5-2.1-1.1-2.5
					C70.3,12.7,71.1,12.9,72.4,14.1z"/>
			</g>
			<g>
				<path class="st3" d="M92.2,36.9c-1.2-1.2-4.3-5-3.9-5.4c0.4-0.4,4.1,2.7,5.4,3.9c1.2,1.2,1.5,2.1,1.1,2.5
					C94.3,38.4,93.5,38.1,92.2,36.9z"/>
			</g>
			<g>
				<path class="st3" d="M68.8,18.8c1.6,0.7,5.9,2.9,5.7,3.5c-0.2,0.5-4.8-0.9-6.4-1.6c-1.6-0.7-2.1-1.4-1.9-1.9
					C66.3,18.3,67.2,18.1,68.8,18.8z"/>
			</g>
			<g>
				<path class="st3" d="M95.8,32.2c-1.6-0.7-5.9-2.9-5.7-3.5c0.2-0.5,4.8,0.9,6.4,1.6c1.6,0.7,2.1,1.4,1.9,1.9
					C98.3,32.8,97.4,32.9,95.8,32.2z"/>
			</g>
			<g>
				<path class="st3" d="M67.2,24.5c1.7,0,6.5,0.5,6.5,1c0,0.6-4.8,1-6.5,1c-1.7,0-2.5-0.5-2.5-1C64.7,25,65.5,24.5,67.2,24.5z"/>
			</g>
			<g>
				<path class="st3" d="M97.4,26.6c-1.7,0-6.5-0.5-6.5-1c0-0.6,4.8-1,6.5-1c1.7,0,2.5,0.5,2.5,1C99.9,26.1,99.1,26.6,97.4,26.6z"/>
			</g>
			<g>
				<path class="st3" d="M68,30.3c1.6-0.7,6.2-2.1,6.4-1.6c0.2,0.5-4,2.8-5.7,3.5c-1.6,0.7-2.5,0.5-2.7,0C65.8,31.7,66.4,31,68,30.3
					z"/>
			</g>
			<g>
				<path class="st3" d="M96.6,20.7c-1.6,0.7-6.2,2.1-6.4,1.6c-0.2-0.5,4-2.8,5.7-3.5c1.6-0.7,2.5-0.5,2.7,0
					C98.8,19.3,98.2,20,96.6,20.7z"/>
			</g>
			<g>
				<path class="st3" d="M70.9,35.5c1.2-1.2,5-4.3,5.4-3.9c0.4,0.4-2.7,4.1-3.9,5.4c-1.2,1.2-2.1,1.5-2.5,1.1
					C69.5,37.6,69.7,36.7,70.9,35.5z"/>
			</g>
			<g>
				<path class="st3" d="M93.7,15.6c-1.2,1.2-5,4.3-5.4,3.9c-0.4-0.4,2.7-4.1,3.9-5.4c1.2-1.2,2.1-1.5,2.5-1.1
					C95.1,13.5,94.9,14.4,93.7,15.6z"/>
			</g>
			<g>
				<path class="st3" d="M75.6,39.1c0.7-1.6,2.9-5.9,3.5-5.7c0.5,0.2-0.9,4.8-1.6,6.4c-0.7,1.6-1.4,2.1-1.9,1.9
					C75,41.6,74.9,40.7,75.6,39.1z"/>
			</g>
			<g>
				<path class="st3" d="M89,12c-0.7,1.6-2.9,5.9-3.5,5.7c-0.5-0.2,0.9-4.8,1.6-6.4c0.7-1.6,1.4-2.1,1.9-1.9
					C89.5,9.5,89.7,10.4,89,12z"/>
			</g>
		</g>
		<g>
			<path class="st3" d="M121.5,6.7c-11.2,0-20.4-9.1-20.4-20.4c0-11.2,9.1-20.4,20.4-20.4s20.4,9.1,20.4,20.4
				C141.9-2.4,132.7,6.7,121.5,6.7z M121.5-32.5c-10.4,0-18.8,8.4-18.8,18.8c0,10.4,8.4,18.8,18.8,18.8c10.4,0,18.8-8.4,18.8-18.8
				C140.3-24,131.9-32.5,121.5-32.5z"/>
			<g>
				<path class="st3" d="M120.5,1.4c0-1.7,0.5-6.5,1-6.5c0.6,0,1,4.8,1,6.5s-0.5,2.5-1,2.5C120.9,3.9,120.5,3.1,120.5,1.4z"/>
			</g>
			<g>
				<path class="st3" d="M126.3,0.6c-0.7-1.6-2.1-6.2-1.6-6.4c0.5-0.2,2.8,4,3.5,5.7c0.7,1.6,0.5,2.5,0,2.7
					C127.7,2.8,127,2.3,126.3,0.6z"/>
			</g>
			<g>
				<path class="st3" d="M114.8-0.1c0.7-1.6,2.9-5.9,3.5-5.7c0.5,0.2-0.9,4.8-1.6,6.4c-0.7,1.6-1.4,2.1-1.9,1.9
					C114.2,2.4,114.1,1.5,114.8-0.1z"/>
			</g>
		</g>
		<g>
			<path class="st3" d="M199.9,6.7c-11.2,0-20.4-9.1-20.4-20.4c0-11.2,9.1-20.4,20.4-20.4c11.2,0,20.4,9.1,20.4,20.4
				C220.3-2.4,211.1,6.7,199.9,6.7z M199.9-32.5c-10.4,0-18.8,8.4-18.8,18.8c0,10.4,8.4,18.8,18.8,18.8s18.8-8.4,18.8-18.8
				C218.7-24,210.2-32.5,199.9-32.5z"/>
			<g>
				<path class="st3" d="M198.8,1.4c0-1.7,0.5-6.5,1-6.5c0.6,0,1,4.8,1,6.5s-0.5,2.5-1,2.5C199.3,3.9,198.8,3.1,198.8,1.4z"/>
			</g>
			<g>
				<path class="st3" d="M204.7,0.6c-0.7-1.6-2.1-6.2-1.6-6.4c0.5-0.2,2.8,4,3.5,5.7s0.5,2.5,0,2.7C206.1,2.8,205.4,2.3,204.7,0.6z"
					/>
			</g>
			<g>
				<path class="st3" d="M193.2-0.1c0.7-1.6,2.9-5.9,3.5-5.7c0.5,0.2-0.9,4.8-1.6,6.4c-0.7,1.6-1.4,2.1-1.9,1.9
					C192.6,2.4,192.5,1.5,193.2-0.1z"/>
			</g>
		</g>
		<g>
			<path class="st3" d="M160.7,45.9c-11.2,0-20.4-9.1-20.4-20.4c0-11.2,9.1-20.4,20.4-20.4s20.4,9.1,20.4,20.4
				C181.1,36.8,171.9,45.9,160.7,45.9z M160.7,6.7c-10.4,0-18.8,8.4-18.8,18.8c0,10.4,8.4,18.8,18.8,18.8s18.8-8.4,18.8-18.8
				C179.5,15.2,171.1,6.7,160.7,6.7z"/>
			<path class="st3" d="M160.7,19c-3.6,0-6.5,2.9-6.5,6.5s2.9,6.5,6.5,6.5c3.6,0,6.5-2.9,6.5-6.5S164.3,19,160.7,19z M160.7,28.8
				c-1.8,0-3.3-1.5-3.3-3.3s1.5-3.3,3.3-3.3c1.8,0,3.3,1.5,3.3,3.3S162.5,28.8,160.7,28.8z"/>
			<g>
				<path class="st3" d="M161.7,10.5c0,1.7-0.5,6.5-1,6.5c-0.6,0-1-4.8-1-6.5c0-1.7,0.5-2.5,1-2.5C161.2,7.9,161.7,8.7,161.7,10.5z"
					/>
			</g>
			<g>
				<path class="st3" d="M159.7,40.6c0-1.7,0.5-6.5,1-6.5c0.6,0,1,4.8,1,6.5c0,1.7-0.5,2.5-1,2.5C160.1,43.1,159.7,42.3,159.7,40.6z
					"/>
			</g>
			<g>
				<path class="st3" d="M155.9,11.2c0.7,1.6,2.1,6.2,1.6,6.4c-0.5,0.2-2.8-4-3.5-5.7c-0.7-1.6-0.5-2.5,0-2.7
					C154.5,9.1,155.2,9.6,155.9,11.2z"/>
			</g>
			<g>
				<path class="st3" d="M165.5,39.8c-0.7-1.6-2.1-6.2-1.6-6.4c0.5-0.2,2.8,4,3.5,5.7c0.7,1.6,0.5,2.5,0,2.7
					C166.9,42,166.2,41.4,165.5,39.8z"/>
			</g>
			<g>
				<path class="st3" d="M150.8,14.1c1.2,1.2,4.3,5,3.9,5.4c-0.4,0.4-4.1-2.7-5.4-3.9c-1.2-1.2-1.5-2.1-1.1-2.5
					C148.6,12.7,149.5,12.9,150.8,14.1z"/>
			</g>
			<g>
				<path class="st3" d="M170.6,36.9c-1.2-1.2-4.3-5-3.9-5.4c0.4-0.4,4.1,2.7,5.4,3.9c1.2,1.2,1.5,2.1,1.1,2.5
					C172.7,38.4,171.8,38.1,170.6,36.9z"/>
			</g>
			<g>
				<path class="st3" d="M147.2,18.8c1.6,0.7,5.9,2.9,5.7,3.5c-0.2,0.5-4.8-0.9-6.4-1.6c-1.6-0.7-2.1-1.4-1.9-1.9
					C144.7,18.3,145.5,18.1,147.2,18.8z"/>
			</g>
			<g>
				<path class="st3" d="M174.2,32.2c-1.6-0.7-5.9-2.9-5.7-3.5c0.2-0.5,4.8,0.9,6.4,1.6c1.6,0.7,2.1,1.4,1.9,1.9
					C176.7,32.8,175.8,32.9,174.2,32.2z"/>
			</g>
			<g>
				<path class="st3" d="M145.6,24.5c1.7,0,6.5,0.5,6.5,1c0,0.6-4.8,1-6.5,1c-1.7,0-2.5-0.5-2.5-1C143.1,25,143.9,24.5,145.6,24.5z"
					/>
			</g>
			<g>
				<path class="st3" d="M175.7,26.6c-1.7,0-6.5-0.5-6.5-1c0-0.6,4.8-1,6.5-1c1.7,0,2.5,0.5,2.5,1C178.3,26.1,177.5,26.6,175.7,26.6
					z"/>
			</g>
			<g>
				<path class="st3" d="M146.4,30.3c1.6-0.7,6.2-2.1,6.4-1.6c0.2,0.5-4,2.8-5.7,3.5c-1.6,0.7-2.5,0.5-2.7,0
					C144.2,31.7,144.8,31,146.4,30.3z"/>
			</g>
			<g>
				<path class="st3" d="M175,20.7c-1.6,0.7-6.2,2.1-6.4,1.6c-0.2-0.5,4-2.8,5.7-3.5c1.6-0.7,2.5-0.5,2.7,0
					C177.1,19.3,176.6,20,175,20.7z"/>
			</g>
			<g>
				<path class="st3" d="M149.3,35.5c1.2-1.2,5-4.3,5.4-3.9c0.4,0.4-2.7,4.1-3.9,5.4c-1.2,1.2-2.1,1.5-2.5,1.1
					C147.8,37.6,148.1,36.7,149.3,35.5z"/>
			</g>
			<g>
				<path class="st3" d="M172.1,15.6c-1.2,1.2-5,4.3-5.4,3.9c-0.4-0.4,2.7-4.1,3.9-5.4c1.2-1.2,2.1-1.5,2.5-1.1
					C173.5,13.5,173.3,14.4,172.1,15.6z"/>
			</g>
			<g>
				<path class="st3" d="M154,39.1c0.7-1.6,2.9-5.9,3.5-5.7c0.5,0.2-0.9,4.8-1.6,6.4c-0.7,1.6-1.4,2.1-1.9,1.9
					C153.4,41.6,153.3,40.7,154,39.1z"/>
			</g>
			<g>
				<path class="st3" d="M167.4,12c-0.7,1.6-2.9,5.9-3.5,5.7c-0.5-0.2,0.9-4.8,1.6-6.4c0.7-1.6,1.4-2.1,1.9-1.9
					C167.9,9.5,168.1,10.4,167.4,12z"/>
			</g>
		</g>
	</g>
</g>
</svg>
