<?xml version="1.0" encoding="utf-8"?>
<!-- Generator: Adobe Illustrator 28.1.0, SVG Export Plug-In . SVG Version: 6.00 Build 0)  -->
<svg version="1.1" id="圖層_1" xmlns="http://www.w3.org/2000/svg" xmlns:xlink="http://www.w3.org/1999/xlink" x="0px" y="0px"
	 viewBox="0 0 150 150" style="enable-background:new 0 0 150 150;" xml:space="preserve">
<style type="text/css">
	.st0{fill:#FFFFFF;}
</style>
<path class="st0" d="M49.6,121.3c1,0,2,0,3,0c18.2,0,36.3,0,54.5,0c1.7,0,3.5,0.3,5.1,1c3.1,1.4,4.5,4.8,3.9,8.2
	c-0.7,3.3-3.4,5.7-6.9,5.8c-6.2,0.2-12.5,0.1-18.7,0.1c-15.7,0-31.3,0-47,0c-7.7,0-11.5-4.6-10.4-12.3c1-7.3,4.5-13.3,9.2-18.8
	c6.7-7.7,15.3-13.1,23.6-18.8c9-6.2,18-12.3,26.7-18.9c4.9-3.8,8.7-8.9,9.3-15.5c1.2-12-5.5-20.6-17.7-22.5c-13.2-2-25.9-0.1-38.1,5
	c-1.6,0.7-3.6,1.2-5.2,1c-2.7-0.4-4.6-2.2-5.1-5.1c-0.5-2.9,0-5.8,2.7-7.2c4.6-2.3,9.3-4.5,14.2-6c8.8-2.7,17.9-4.1,27.1-3.6
	c13,0.7,24.3,5,32,16.1c7.8,11.3,7.6,26.5-0.1,37.9c-6.6,9.8-15.7,16.9-25.2,23.5c-10.3,7.2-20.6,14.4-30.7,21.9
	c-2.6,1.9-4.4,4.8-6.6,7.2C49.2,120.7,49.4,121,49.6,121.3z"/>
</svg>
