<?xml version="1.0" encoding="utf-8"?>
<!-- Generator: Adobe Illustrator 28.1.0, SVG Export Plug-In . SVG Version: 6.00 Build 0)  -->
<svg version="1.1" id="圖層_1" xmlns="http://www.w3.org/2000/svg" xmlns:xlink="http://www.w3.org/1999/xlink" x="0px" y="0px"
	 viewBox="0 0 161.7 129.2" style="enable-background:new 0 0 161.7 129.2;" xml:space="preserve">
<style type="text/css">
	.st0{fill:#FFFFFF;}
</style>
<path class="st0" d="M135.7,60.5c0,16.4,0,32.9,0,49.3c0,3.3,0,3.3,3.4,3.3c4.6,0,9.1,0,13.7,0c5.3,0.1,8.9,3.5,8.9,8.3
	c-0.1,4.5-3.8,7.7-8.9,7.7c-18.3,0-36.6,0-54.9,0c-5.2,0-8.6-3.1-8.7-7.9c0-4.8,3.4-8.1,8.7-8.2c6.1,0,12.1-0.1,18.2,0
	c2,0,2.8-0.5,2.8-2.6c-0.1-28.7,0-57.5,0-86.2c0-3-0.7-3.5-3.4-2.2c-5.2,2.5-10.4,5.1-15.7,7.5c-6.3,2.8-12.5-1.5-11.9-8.1
	c0.3-2.5,1.5-4.7,3.7-5.9c9.3-5,18.5-9.9,28-14.6c5-2.5,12.2-0.5,14.7,3.7c1,1.7,1.5,3.9,1.5,5.9C135.8,27.3,135.7,43.9,135.7,60.5z
	"/>
<g>
	<path class="st0" d="M71.5,74.4h-65c-3.6,0-6.5-2.9-6.5-6.5s2.9-6.5,6.5-6.5h65c3.6,0,6.5,2.9,6.5,6.5S75.1,74.4,71.5,74.4z"/>
</g>
<g>
	<path class="st0" d="M39,106.9c-3.6,0-6.5-2.9-6.5-6.5v-65c0-3.6,2.9-6.5,6.5-6.5s6.5,2.9,6.5,6.5v65C45.5,104,42.6,106.9,39,106.9
		z"/>
</g>
</svg>
