<?xml version="1.0" encoding="utf-8"?>
<!-- Generator: Adobe Illustrator 28.3.0, SVG Export Plug-In . SVG Version: 6.00 Build 0)  -->
<svg version="1.1" id="圖層_1" xmlns="http://www.w3.org/2000/svg" xmlns:xlink="http://www.w3.org/1999/xlink" x="0px" y="0px"
	 viewBox="0 0 56 84" style="enable-background:new 0 0 56 84;" xml:space="preserve">
<style type="text/css">
	.st0{fill:#5EBFB1;}
</style>
<g>
	<path class="st0" d="M28,84c-4.2,0-7-2.8-7-7V7c0-4.2,2.8-7,7-7s7,2.8,7,7v70C35,81.2,32.2,84,28,84z"/>
	<path class="st0" d="M28,84c-2.1,0-3.5-0.7-4.9-2.1l-21-21c-2.8-2.8-2.8-7,0-9.8c2.8-2.8,7-2.8,9.8,0L28,67.2l16.1-16.1
		c2.8-2.8,7-2.8,9.8,0c2.8,2.8,2.8,7,0,9.8l-21,21C31.5,83.3,30.1,84,28,84z"/>
</g>
</svg>
