<?xml version="1.0" encoding="utf-8"?>
<!-- Generator: Adobe Illustrator 28.1.0, SVG Export Plug-In . SVG Version: 6.00 Build 0)  -->
<svg version="1.1" id="圖層_2" xmlns="http://www.w3.org/2000/svg" xmlns:xlink="http://www.w3.org/1999/xlink" x="0px" y="0px"
	 viewBox="0 0 58.9 58.9" style="enable-background:new 0 0 58.9 58.9;" xml:space="preserve">
<style type="text/css">
	.st0{fill:#FFC300;}
	.st1{fill:#E6A448;}
	.st2{fill:#B66216;}
	.st3{fill:#FDECD6;}
</style>
<g>
	<g>
		<ellipse transform="matrix(0.9797 -0.2006 0.2006 0.9797 -5.3083 6.5054)" class="st0" cx="29.4" cy="29.4" rx="29.4" ry="29.4"/>
		<path class="st1" d="M48.6,42c-6.9,10.6-21.1,13.6-31.7,6.7C6.3,41.7,3.3,27.5,10.2,16.9C17.2,6.3,31.4,3.3,42,10.2
			C52.6,17.2,55.6,31.4,48.6,42z"/>
	</g>
	<g>
		<path class="st2" d="M29.4,39.3l-8.9-5.8c-1.4-0.9-1.7-2.7-0.9-4.1l5.8-8.9c0.9-1.4,2.7-1.7,4.1-0.9l8.9,5.8
			c1.4,0.9,1.7,2.7,0.9,4.1l-5.8,8.9C32.6,39.8,30.8,40.2,29.4,39.3z"/>
		<path class="st3" d="M29.4,36.3l-6.2-4.1c-0.9-0.6-1.2-1.9-0.6-2.8l4.1-6.2c0.6-0.9,1.9-1.2,2.8-0.6l6.2,4.1
			c0.9,0.6,1.2,1.9,0.6,2.8l-4.1,6.2C31.6,36.7,30.4,36.9,29.4,36.3z"/>
	</g>
</g>
</svg>
