<?xml version="1.0" encoding="utf-8"?>
<!-- Generator: Adobe Illustrator 28.1.0, SVG Export Plug-In . SVG Version: 6.00 Build 0)  -->
<svg version="1.1" id="圖層_1" xmlns="http://www.w3.org/2000/svg" xmlns:xlink="http://www.w3.org/1999/xlink" x="0px" y="0px"
	 viewBox="0 0 150 150" style="enable-background:new 0 0 150 150;" xml:space="preserve">
<style type="text/css">
	.st0{fill:#FFFFFF;}
</style>
<path class="st0" d="M94.8,72.6c6.9,1.9,13,4,18.2,8c6.8,5.2,10.2,12,10.5,20.6c0.8,17.2-8.9,27-22.2,32.1
	c-10.8,4.1-22,4.7-33.3,3.9c-8.2-0.5-16.2-2.2-23.5-6.4c-10.8-6.3-16.7-15.9-18.1-28.2c-0.1-0.9-0.1-1.9-0.1-2.8
	c0.2-4.1,2.1-6.6,5.7-7.2c4.8-0.9,7.9,0.4,9.6,4.4c0.9,2,1.7,4,2.3,6c2.9,9.9,9.7,15.9,19.4,18.6c9.8,2.7,19.6,2.7,29.3-0.2
	c11.6-3.5,17.2-14.6,13.5-26.2c-1.7-5.4-5.5-8.8-10.5-11.2c-5.4-2.6-11.3-3.6-17.3-3.9C71.9,80,65.4,80,58.8,79.9
	c-5-0.1-7-2.4-6.8-7.3c0.1-2.8,1.5-4.6,4.1-5.3c1.5-0.4,3.1-0.4,4.6-0.5c8.1-0.4,16.2-0.6,24.2-1.4c4.7-0.5,9.1-2.5,13-5.4
	c8.7-6.5,9.2-24.8-3-30.1c-11.2-4.8-22.6-5-34-0.7c-5.4,2.1-9,6.2-11.2,11.6c-1.1,2.7-2.1,5.5-3.2,8.2c-2,4.8-7.1,6.9-12,5
	c-2.7-1.1-3.8-3.3-3.9-6.2c-0.1-8.8,4-15.9,9.8-22.1c6.7-7.3,15.4-10.9,25-12.3c11.2-1.6,22.3-1.5,33.2,2.4
	c7.3,2.6,13.6,6.7,17.7,13.5c7.1,11.5,6.4,31.8-12.7,40.1C101,70.4,98.2,71.3,94.8,72.6z"/>
</svg>
