<?xml version="1.0" encoding="utf-8"?>
<!-- Generator: Adobe Illustrator 28.1.0, SVG Export Plug-In . SVG Version: 6.00 Build 0)  -->
<svg version="1.1" id="圖層_1" xmlns="http://www.w3.org/2000/svg" xmlns:xlink="http://www.w3.org/1999/xlink" x="0px" y="0px"
	 viewBox="0 0 292 93.8" style="enable-background:new 0 0 292 93.8;" xml:space="preserve">
<style type="text/css">
	.st0{fill:#AEC8C9;}
	.st1{opacity:0.4;}
	.st2{clip-path:url(#SVGID_00000083802515876136016830000017848664360737508266_);}
	.st3{fill:#FFF7EC;}
</style>
<path class="st0" d="M183.5,62.4H127c-8.4-0.3-15.1-7.2-15.1-15.6l0,0c0-7.8,5.7-14.3,13.2-15.5h151.1c8.7,0,15.7-7,15.7-15.7
	S285,0,276.3,0H42.6C34,0,26.9,7,26.9,15.7s7,15.7,15.7,15.7h24.1c7.5,1.2,13.2,7.6,13.2,15.5l0,0c0,8.4-6.7,15.3-15.1,15.6H15.7
	C7,62.4,0,69.4,0,78.1c0,8.7,7,15.7,15.7,15.7h167.8c8.7,0,15.7-7,15.7-15.7C199.2,69.4,192.1,62.4,183.5,62.4z"/>
<g class="st1">
	<defs>
		<path id="SVGID_1_" class="st1" d="M183.5,62.4H127c-8.4-0.3-15.1-7.2-15.1-15.6l0,0c0-7.8,5.7-14.3,13.2-15.5h151.1
			c8.7,0,15.7-7,15.7-15.7S285,0,276.3,0H42.6C34,0,26.9,7,26.9,15.7s7,15.7,15.7,15.7h24.1c7.5,1.2,13.2,7.6,13.2,15.5l0,0
			c0,8.4-6.7,15.3-15.1,15.6H15.7C7,62.4,0,69.4,0,78.1c0,8.7,7,15.7,15.7,15.7h167.8c8.7,0,15.7-7,15.7-15.7
			C199.2,69.4,192.1,62.4,183.5,62.4z"/>
	</defs>
	<clipPath id="SVGID_00000116235354305001978850000008214371317971221893_">
		<use xlink:href="#SVGID_1_"  style="overflow:visible;"/>
	</clipPath>
	<g style="clip-path:url(#SVGID_00000116235354305001978850000008214371317971221893_);">
		<g>
			<path class="st3" d="M119.1,47.9c-11.2,0-20.4-9.1-20.4-20.4s9.1-20.4,20.4-20.4s20.4,9.1,20.4,20.4S130.4,47.9,119.1,47.9z
				 M119.1,8.7c-10.4,0-18.8,8.4-18.8,18.8s8.4,18.8,18.8,18.8c10.4,0,18.8-8.4,18.8-18.8S129.5,8.7,119.1,8.7z"/>
			<path class="st3" d="M119.1,21c-3.6,0-6.5,2.9-6.5,6.5s2.9,6.5,6.5,6.5c3.6,0,6.5-2.9,6.5-6.5S122.7,21,119.1,21z M119.1,30.8
				c-1.8,0-3.3-1.5-3.3-3.3s1.5-3.3,3.3-3.3c1.8,0,3.3,1.5,3.3,3.3S120.9,30.8,119.1,30.8z"/>
			<g>
				<path class="st3" d="M120.2,12.5c0,1.7-0.5,6.5-1,6.5c-0.6,0-1-4.8-1-6.5c0-1.7,0.5-2.5,1-2.5C119.7,10,120.2,10.8,120.2,12.5z"
					/>
			</g>
			<g>
				<path class="st3" d="M118.1,42.6c0-1.7,0.5-6.5,1-6.5c0.6,0,1,4.8,1,6.5c0,1.7-0.5,2.5-1,2.5C118.6,45.1,118.1,44.4,118.1,42.6z
					"/>
			</g>
			<g>
				<path class="st3" d="M114.3,13.2c0.7,1.6,2.1,6.2,1.6,6.4c-0.5,0.2-2.8-4-3.5-5.7s-0.5-2.5,0-2.7
					C112.9,11.1,113.6,11.6,114.3,13.2z"/>
			</g>
			<g>
				<path class="st3" d="M124,41.9c-0.7-1.6-2.1-6.2-1.6-6.4c0.5-0.2,2.8,4,3.5,5.7c0.7,1.6,0.5,2.5,0,2.7
					C125.3,44,124.6,43.5,124,41.9z"/>
			</g>
			<g>
				<path class="st3" d="M109.2,16.2c1.2,1.2,4.3,5,3.9,5.4c-0.4,0.4-4.1-2.7-5.4-3.9c-1.2-1.2-1.5-2.1-1.1-2.5
					C107.1,14.7,108,15,109.2,16.2z"/>
			</g>
			<g>
				<path class="st3" d="M129.1,38.9c-1.2-1.2-4.3-5-3.9-5.4c0.4-0.4,4.1,2.7,5.4,3.9s1.5,2.1,1.1,2.5
					C131.2,40.4,130.3,40.2,129.1,38.9z"/>
			</g>
			<g>
				<path class="st3" d="M105.6,20.8c1.6,0.7,5.9,2.9,5.7,3.5c-0.2,0.5-4.8-0.9-6.4-1.6c-1.6-0.7-2.1-1.4-1.9-1.9
					C103.1,20.3,104,20.2,105.6,20.8z"/>
			</g>
			<g>
				<path class="st3" d="M132.7,34.3c-1.6-0.7-5.9-2.9-5.7-3.5c0.2-0.5,4.8,0.9,6.4,1.6c1.6,0.7,2.1,1.4,1.9,1.9
					C135.2,34.8,134.3,34.9,132.7,34.3z"/>
			</g>
			<g>
				<path class="st3" d="M104.1,26.5c1.7,0,6.5,0.5,6.5,1c0,0.6-4.8,1-6.5,1c-1.7,0-2.5-0.5-2.5-1C101.6,27,102.3,26.5,104.1,26.5z"
					/>
			</g>
			<g>
				<path class="st3" d="M134.2,28.6c-1.7,0-6.5-0.5-6.5-1c0-0.6,4.8-1,6.5-1s2.5,0.5,2.5,1C136.7,28.1,135.9,28.6,134.2,28.6z"/>
			</g>
			<g>
				<path class="st3" d="M104.8,32.4c1.6-0.7,6.2-2.1,6.4-1.6c0.2,0.5-4,2.8-5.7,3.5c-1.6,0.7-2.5,0.5-2.7,0
					C102.7,33.8,103.2,33,104.8,32.4z"/>
			</g>
			<g>
				<path class="st3" d="M133.4,22.7c-1.6,0.7-6.2,2.1-6.4,1.6c-0.2-0.5,4-2.8,5.7-3.5c1.6-0.7,2.5-0.5,2.7,0
					C135.6,21.4,135.1,22.1,133.4,22.7z"/>
			</g>
			<g>
				<path class="st3" d="M107.8,37.5c1.2-1.2,5-4.3,5.4-3.9c0.4,0.4-2.7,4.1-3.9,5.4c-1.2,1.2-2.1,1.5-2.5,1.1
					C106.3,39.6,106.5,38.7,107.8,37.5z"/>
			</g>
			<g>
				<path class="st3" d="M130.5,17.6c-1.2,1.2-5,4.3-5.4,3.9c-0.4-0.4,2.7-4.1,3.9-5.4c1.2-1.2,2.1-1.5,2.5-1.1
					C132,15.5,131.7,16.4,130.5,17.6z"/>
			</g>
			<g>
				<path class="st3" d="M112.4,41.1c0.7-1.6,2.9-5.9,3.5-5.7c0.5,0.2-0.9,4.8-1.6,6.4c-0.7,1.6-1.4,2.1-1.9,1.9
					C111.9,43.6,111.8,42.7,112.4,41.1z"/>
			</g>
			<g>
				<path class="st3" d="M125.8,14c-0.7,1.6-2.9,5.9-3.5,5.7c-0.5-0.2,0.9-4.8,1.6-6.4c0.7-1.6,1.4-2.1,1.9-1.9
					C126.4,11.5,126.5,12.4,125.8,14z"/>
			</g>
		</g>
		<g>
			<path class="st3" d="M119.1,126.3c-11.2,0-20.4-9.1-20.4-20.4c0-11.2,9.1-20.4,20.4-20.4s20.4,9.1,20.4,20.4
				C139.5,117.2,130.4,126.3,119.1,126.3z M119.1,87.1c-10.4,0-18.8,8.4-18.8,18.8c0,10.4,8.4,18.8,18.8,18.8
				c10.4,0,18.8-8.4,18.8-18.8C137.9,95.6,129.5,87.1,119.1,87.1z"/>
			<g>
				<path class="st3" d="M120.2,90.9c0,1.7-0.5,6.5-1,6.5c-0.6,0-1-4.8-1-6.5c0-1.7,0.5-2.5,1-2.5C119.7,88.4,120.2,89.1,120.2,90.9
					z"/>
			</g>
			<g>
				<path class="st3" d="M114.3,91.6c0.7,1.6,2.1,6.2,1.6,6.4c-0.5,0.2-2.8-4-3.5-5.7c-0.7-1.6-0.5-2.5,0-2.7
					C112.9,89.5,113.6,90,114.3,91.6z"/>
			</g>
			<g>
				<path class="st3" d="M109.2,94.6c1.2,1.2,4.3,5,3.9,5.4c-0.4,0.4-4.1-2.7-5.4-3.9s-1.5-2.1-1.1-2.5
					C107.1,93.1,108,93.3,109.2,94.6z"/>
			</g>
			<g>
				<path class="st3" d="M130.5,96c-1.2,1.2-5,4.3-5.4,3.9c-0.4-0.4,2.7-4.1,3.9-5.4s2.1-1.5,2.5-1.1C132,93.9,131.7,94.8,130.5,96z
					"/>
			</g>
			<g>
				<path class="st3" d="M125.8,92.4c-0.7,1.6-2.9,5.9-3.5,5.7c-0.5-0.2,0.9-4.8,1.6-6.4c0.7-1.6,1.4-2.1,1.9-1.9
					C126.4,89.9,126.5,90.8,125.8,92.4z"/>
			</g>
		</g>
		<g>
			<path class="st3" d="M197.5,126.3c-11.2,0-20.4-9.1-20.4-20.4c0-11.2,9.1-20.4,20.4-20.4c11.2,0,20.4,9.1,20.4,20.4
				C217.9,117.2,208.8,126.3,197.5,126.3z M197.5,87.1c-10.4,0-18.8,8.4-18.8,18.8c0,10.4,8.4,18.8,18.8,18.8
				c10.4,0,18.8-8.4,18.8-18.8C216.3,95.6,207.9,87.1,197.5,87.1z"/>
			<g>
				<path class="st3" d="M198.5,90.9c0,1.7-0.5,6.5-1,6.5c-0.6,0-1-4.8-1-6.5c0-1.7,0.5-2.5,1-2.5C198.1,88.4,198.5,89.1,198.5,90.9
					z"/>
			</g>
			<g>
				<path class="st3" d="M192.7,91.6c0.7,1.6,2.1,6.2,1.6,6.4c-0.5,0.2-2.8-4-3.5-5.7c-0.7-1.6-0.5-2.5,0-2.7
					C191.3,89.5,192,90,192.7,91.6z"/>
			</g>
			<g>
				<path class="st3" d="M187.6,94.6c1.2,1.2,4.3,5,3.9,5.4c-0.4,0.4-4.1-2.7-5.4-3.9c-1.2-1.2-1.5-2.1-1.1-2.5
					C185.5,93.1,186.4,93.3,187.6,94.6z"/>
			</g>
			<g>
				<path class="st3" d="M208.9,96c-1.2,1.2-5,4.3-5.4,3.9c-0.4-0.4,2.7-4.1,3.9-5.4s2.1-1.5,2.5-1.1
					C210.4,93.9,210.1,94.8,208.9,96z"/>
			</g>
			<g>
				<path class="st3" d="M204.2,92.4c-0.7,1.6-2.9,5.9-3.5,5.7c-0.5-0.2,0.9-4.8,1.6-6.4c0.7-1.6,1.4-2.1,1.9-1.9
					C204.8,89.9,204.9,90.8,204.2,92.4z"/>
			</g>
		</g>
		<g>
			<path class="st3" d="M275.9,126.3c-11.2,0-20.4-9.1-20.4-20.4c0-11.2,9.1-20.4,20.4-20.4s20.4,9.1,20.4,20.4
				C296.3,117.2,287.1,126.3,275.9,126.3z M275.9,87.1c-10.4,0-18.8,8.4-18.8,18.8c0,10.4,8.4,18.8,18.8,18.8
				c10.4,0,18.8-8.4,18.8-18.8C294.7,95.6,286.3,87.1,275.9,87.1z"/>
			<g>
				<path class="st3" d="M276.9,90.9c0,1.7-0.5,6.5-1,6.5c-0.6,0-1-4.8-1-6.5c0-1.7,0.5-2.5,1-2.5C276.5,88.4,276.9,89.1,276.9,90.9
					z"/>
			</g>
			<g>
				<path class="st3" d="M271.1,91.6c0.7,1.6,2.1,6.2,1.6,6.4c-0.5,0.2-2.8-4-3.5-5.7c-0.7-1.6-0.5-2.5,0-2.7
					C269.7,89.5,270.4,90,271.1,91.6z"/>
			</g>
			<g>
				<path class="st3" d="M266,94.6c1.2,1.2,4.3,5,3.9,5.4c-0.4,0.4-4.1-2.7-5.4-3.9c-1.2-1.2-1.5-2.1-1.1-2.5
					C263.9,93.1,264.7,93.3,266,94.6z"/>
			</g>
			<g>
				<path class="st3" d="M287.3,96c-1.2,1.2-5,4.3-5.4,3.9c-0.4-0.4,2.7-4.1,3.9-5.4c1.2-1.2,2.1-1.5,2.5-1.1
					C288.7,93.9,288.5,94.8,287.3,96z"/>
			</g>
			<g>
				<path class="st3" d="M282.6,92.4c-0.7,1.6-2.9,5.9-3.5,5.7c-0.5-0.2,0.9-4.8,1.6-6.4c0.7-1.6,1.4-2.1,1.9-1.9
					C283.2,89.9,283.3,90.8,282.6,92.4z"/>
			</g>
		</g>
		<g>
			<path class="st3" d="M197.5,47.9c-11.2,0-20.4-9.1-20.4-20.4s9.1-20.4,20.4-20.4c11.2,0,20.4,9.1,20.4,20.4
				S208.8,47.9,197.5,47.9z M197.5,8.7c-10.4,0-18.8,8.4-18.8,18.8s8.4,18.8,18.8,18.8c10.4,0,18.8-8.4,18.8-18.8
				S207.9,8.7,197.5,8.7z"/>
			<path class="st3" d="M197.5,21c-3.6,0-6.5,2.9-6.5,6.5s2.9,6.5,6.5,6.5c3.6,0,6.5-2.9,6.5-6.5S201.1,21,197.5,21z M197.5,30.8
				c-1.8,0-3.3-1.5-3.3-3.3s1.5-3.3,3.3-3.3c1.8,0,3.3,1.5,3.3,3.3S199.3,30.8,197.5,30.8z"/>
			<g>
				<path class="st3" d="M198.5,12.5c0,1.7-0.5,6.5-1,6.5c-0.6,0-1-4.8-1-6.5c0-1.7,0.5-2.5,1-2.5C198.1,10,198.5,10.8,198.5,12.5z"
					/>
			</g>
			<g>
				<path class="st3" d="M196.5,42.6c0-1.7,0.5-6.5,1-6.5c0.6,0,1,4.8,1,6.5c0,1.7-0.5,2.5-1,2.5C197,45.1,196.5,44.4,196.5,42.6z"
					/>
			</g>
			<g>
				<path class="st3" d="M192.7,13.2c0.7,1.6,2.1,6.2,1.6,6.4c-0.5,0.2-2.8-4-3.5-5.7c-0.7-1.6-0.5-2.5,0-2.7
					C191.3,11.1,192,11.6,192.7,13.2z"/>
			</g>
			<g>
				<path class="st3" d="M202.3,41.9c-0.7-1.6-2.1-6.2-1.6-6.4c0.5-0.2,2.8,4,3.5,5.7c0.7,1.6,0.5,2.5,0,2.7
					C203.7,44,203,43.5,202.3,41.9z"/>
			</g>
			<g>
				<path class="st3" d="M187.6,16.2c1.2,1.2,4.3,5,3.9,5.4c-0.4,0.4-4.1-2.7-5.4-3.9c-1.2-1.2-1.5-2.1-1.1-2.5
					C185.5,14.7,186.4,15,187.6,16.2z"/>
			</g>
			<g>
				<path class="st3" d="M207.4,38.9c-1.2-1.2-4.3-5-3.9-5.4c0.4-0.4,4.1,2.7,5.4,3.9s1.5,2.1,1.1,2.5
					C209.6,40.4,208.7,40.2,207.4,38.9z"/>
			</g>
			<g>
				<path class="st3" d="M184,20.8c1.6,0.7,5.9,2.9,5.7,3.5c-0.2,0.5-4.8-0.9-6.4-1.6c-1.6-0.7-2.1-1.4-1.9-1.9
					C181.5,20.3,182.4,20.2,184,20.8z"/>
			</g>
			<g>
				<path class="st3" d="M211,34.3c-1.6-0.7-5.9-2.9-5.7-3.5c0.2-0.5,4.8,0.9,6.4,1.6c1.6,0.7,2.1,1.4,1.9,1.9
					C213.5,34.8,212.7,34.9,211,34.3z"/>
			</g>
			<g>
				<path class="st3" d="M182.5,26.5c1.7,0,6.5,0.5,6.5,1c0,0.6-4.8,1-6.5,1c-1.7,0-2.5-0.5-2.5-1C179.9,27,180.7,26.5,182.5,26.5z"
					/>
			</g>
			<g>
				<path class="st3" d="M212.6,28.6c-1.7,0-6.5-0.5-6.5-1c0-0.6,4.8-1,6.5-1c1.7,0,2.5,0.5,2.5,1C215.1,28.1,214.3,28.6,212.6,28.6
					z"/>
			</g>
			<g>
				<path class="st3" d="M183.2,32.4c1.6-0.7,6.2-2.1,6.4-1.6c0.2,0.5-4,2.8-5.7,3.5c-1.6,0.7-2.5,0.5-2.7,0
					C181.1,33.8,181.6,33,183.2,32.4z"/>
			</g>
			<g>
				<path class="st3" d="M211.8,22.7c-1.6,0.7-6.2,2.1-6.4,1.6c-0.2-0.5,4-2.8,5.7-3.5c1.6-0.7,2.5-0.5,2.7,0
					C214,21.4,213.4,22.1,211.8,22.7z"/>
			</g>
			<g>
				<path class="st3" d="M186.1,37.5c1.2-1.2,5-4.3,5.4-3.9c0.4,0.4-2.7,4.1-3.9,5.4c-1.2,1.2-2.1,1.5-2.5,1.1
					C184.7,39.6,184.9,38.7,186.1,37.5z"/>
			</g>
			<g>
				<path class="st3" d="M208.9,17.6c-1.2,1.2-5,4.3-5.4,3.9c-0.4-0.4,2.7-4.1,3.9-5.4c1.2-1.2,2.1-1.5,2.5-1.1
					C210.4,15.5,210.1,16.4,208.9,17.6z"/>
			</g>
			<g>
				<path class="st3" d="M190.8,41.1c0.7-1.6,2.9-5.9,3.5-5.7c0.5,0.2-0.9,4.8-1.6,6.4c-0.7,1.6-1.4,2.1-1.9,1.9
					C190.3,43.6,190.1,42.7,190.8,41.1z"/>
			</g>
			<g>
				<path class="st3" d="M204.2,14c-0.7,1.6-2.9,5.9-3.5,5.7c-0.5-0.2,0.9-4.8,1.6-6.4c0.7-1.6,1.4-2.1,1.9-1.9
					C204.8,11.5,204.9,12.4,204.2,14z"/>
			</g>
		</g>
		<g>
			<path class="st3" d="M275.9,47.9c-11.2,0-20.4-9.1-20.4-20.4s9.1-20.4,20.4-20.4s20.4,9.1,20.4,20.4S287.1,47.9,275.9,47.9z
				 M275.9,8.7c-10.4,0-18.8,8.4-18.8,18.8s8.4,18.8,18.8,18.8c10.4,0,18.8-8.4,18.8-18.8S286.3,8.7,275.9,8.7z"/>
			<path class="st3" d="M275.9,21c-3.6,0-6.5,2.9-6.5,6.5s2.9,6.5,6.5,6.5c3.6,0,6.5-2.9,6.5-6.5S279.5,21,275.9,21z M275.9,30.8
				c-1.8,0-3.3-1.5-3.3-3.3s1.5-3.3,3.3-3.3c1.8,0,3.3,1.5,3.3,3.3S277.7,30.8,275.9,30.8z"/>
			<g>
				<path class="st3" d="M276.9,12.5c0,1.7-0.5,6.5-1,6.5c-0.6,0-1-4.8-1-6.5c0-1.7,0.5-2.5,1-2.5C276.5,10,276.9,10.8,276.9,12.5z"
					/>
			</g>
			<g>
				<path class="st3" d="M274.9,42.6c0-1.7,0.5-6.5,1-6.5c0.6,0,1,4.8,1,6.5c0,1.7-0.5,2.5-1,2.5C275.3,45.1,274.9,44.4,274.9,42.6z
					"/>
			</g>
			<g>
				<path class="st3" d="M271.1,13.2c0.7,1.6,2.1,6.2,1.6,6.4c-0.5,0.2-2.8-4-3.5-5.7c-0.7-1.6-0.5-2.5,0-2.7
					C269.7,11.1,270.4,11.6,271.1,13.2z"/>
			</g>
			<g>
				<path class="st3" d="M280.7,41.9c-0.7-1.6-2.1-6.2-1.6-6.4c0.5-0.2,2.8,4,3.5,5.7s0.5,2.5,0,2.7C282.1,44,281.4,43.5,280.7,41.9
					z"/>
			</g>
			<g>
				<path class="st3" d="M266,16.2c1.2,1.2,4.3,5,3.9,5.4c-0.4,0.4-4.1-2.7-5.4-3.9c-1.2-1.2-1.5-2.1-1.1-2.5
					C263.9,14.7,264.7,15,266,16.2z"/>
			</g>
			<g>
				<path class="st3" d="M285.8,38.9c-1.2-1.2-4.3-5-3.9-5.4c0.4-0.4,4.1,2.7,5.4,3.9c1.2,1.2,1.5,2.1,1.1,2.5
					C287.9,40.4,287.1,40.2,285.8,38.9z"/>
			</g>
			<g>
				<path class="st3" d="M262.4,20.8c1.6,0.7,5.9,2.9,5.7,3.5c-0.2,0.5-4.8-0.9-6.4-1.6s-2.1-1.4-1.9-1.9
					C259.9,20.3,260.8,20.2,262.4,20.8z"/>
			</g>
			<g>
				<path class="st3" d="M289.4,34.3c-1.6-0.7-5.9-2.9-5.7-3.5c0.2-0.5,4.8,0.9,6.4,1.6c1.6,0.7,2.1,1.4,1.9,1.9
					C291.9,34.8,291,34.9,289.4,34.3z"/>
			</g>
			<g>
				<path class="st3" d="M260.8,26.5c1.7,0,6.5,0.5,6.5,1c0,0.6-4.8,1-6.5,1c-1.7,0-2.5-0.5-2.5-1C258.3,27,259.1,26.5,260.8,26.5z"
					/>
			</g>
			<g>
				<path class="st3" d="M291,28.6c-1.7,0-6.5-0.5-6.5-1c0-0.6,4.8-1,6.5-1c1.7,0,2.5,0.5,2.5,1C293.5,28.1,292.7,28.6,291,28.6z"/>
			</g>
			<g>
				<path class="st3" d="M261.6,32.4c1.6-0.7,6.2-2.1,6.4-1.6c0.2,0.5-4,2.8-5.7,3.5c-1.6,0.7-2.5,0.5-2.7,0
					C259.4,33.8,260,33,261.6,32.4z"/>
			</g>
			<g>
				<path class="st3" d="M290.2,22.7c-1.6,0.7-6.2,2.1-6.4,1.6c-0.2-0.5,4-2.8,5.7-3.5c1.6-0.7,2.5-0.5,2.7,0
					C292.4,21.4,291.8,22.1,290.2,22.7z"/>
			</g>
			<g>
				<path class="st3" d="M264.5,37.5c1.2-1.2,5-4.3,5.4-3.9c0.4,0.4-2.7,4.1-3.9,5.4c-1.2,1.2-2.1,1.5-2.5,1.1
					C263.1,39.6,263.3,38.7,264.5,37.5z"/>
			</g>
			<g>
				<path class="st3" d="M287.3,17.6c-1.2,1.2-5,4.3-5.4,3.9c-0.4-0.4,2.7-4.1,3.9-5.4c1.2-1.2,2.1-1.5,2.5-1.1
					C288.7,15.5,288.5,16.4,287.3,17.6z"/>
			</g>
			<g>
				<path class="st3" d="M269.2,41.1c0.7-1.6,2.9-5.9,3.5-5.7c0.5,0.2-0.9,4.8-1.6,6.4c-0.7,1.6-1.4,2.1-1.9,1.9
					C268.7,43.6,268.5,42.7,269.2,41.1z"/>
			</g>
			<g>
				<path class="st3" d="M282.6,14c-0.7,1.6-2.9,5.9-3.5,5.7c-0.5-0.2,0.9-4.8,1.6-6.4c0.7-1.6,1.4-2.1,1.9-1.9
					C283.2,11.5,283.3,12.4,282.6,14z"/>
			</g>
		</g>
		<g>
			<path class="st3" d="M236.7,87.1c-11.2,0-20.4-9.1-20.4-20.4s9.1-20.4,20.4-20.4s20.4,9.1,20.4,20.4S248,87.1,236.7,87.1z
				 M236.7,47.9c-10.4,0-18.8,8.4-18.8,18.8c0,10.4,8.4,18.8,18.8,18.8s18.8-8.4,18.8-18.8C255.5,56.4,247.1,47.9,236.7,47.9z"/>
			<path class="st3" d="M236.7,60.2c-3.6,0-6.5,2.9-6.5,6.5c0,3.6,2.9,6.5,6.5,6.5c3.6,0,6.5-2.9,6.5-6.5
				C243.2,63.1,240.3,60.2,236.7,60.2z M236.7,70c-1.8,0-3.3-1.5-3.3-3.3s1.5-3.3,3.3-3.3c1.8,0,3.3,1.5,3.3,3.3S238.5,70,236.7,70z
				"/>
			<g>
				<path class="st3" d="M237.7,51.7c0,1.7-0.5,6.5-1,6.5c-0.6,0-1-4.8-1-6.5c0-1.7,0.5-2.5,1-2.5C237.3,49.2,237.7,49.9,237.7,51.7
					z"/>
			</g>
			<g>
				<path class="st3" d="M235.7,81.8c0-1.7,0.5-6.5,1-6.5c0.6,0,1,4.8,1,6.5c0,1.7-0.5,2.5-1,2.5C236.1,84.3,235.7,83.6,235.7,81.8z
					"/>
			</g>
			<g>
				<path class="st3" d="M231.9,52.4c0.7,1.6,2.1,6.2,1.6,6.4c-0.5,0.2-2.8-4-3.5-5.7c-0.7-1.6-0.5-2.5,0-2.7
					C230.5,50.3,231.2,50.8,231.9,52.4z"/>
			</g>
			<g>
				<path class="st3" d="M241.5,81.1c-0.7-1.6-2.1-6.2-1.6-6.4c0.5-0.2,2.8,4,3.5,5.7c0.7,1.6,0.5,2.5,0,2.7
					C242.9,83.2,242.2,82.7,241.5,81.1z"/>
			</g>
			<g>
				<path class="st3" d="M226.8,55.4c1.2,1.2,4.3,5,3.9,5.4c-0.4,0.4-4.1-2.7-5.4-3.9c-1.2-1.2-1.5-2.1-1.1-2.5
					C224.7,53.9,225.6,54.1,226.8,55.4z"/>
			</g>
			<g>
				<path class="st3" d="M246.6,78.1c-1.2-1.2-4.3-5-3.9-5.4c0.4-0.4,4.1,2.7,5.4,3.9c1.2,1.2,1.5,2.1,1.1,2.5
					C248.7,79.6,247.9,79.4,246.6,78.1z"/>
			</g>
			<g>
				<path class="st3" d="M223.2,60c1.6,0.7,5.9,2.9,5.7,3.5c-0.2,0.5-4.8-0.9-6.4-1.6c-1.6-0.7-2.1-1.4-1.9-1.9
					C220.7,59.5,221.6,59.4,223.2,60z"/>
			</g>
			<g>
				<path class="st3" d="M250.2,73.5c-1.6-0.7-5.9-2.9-5.7-3.5c0.2-0.5,4.8,0.9,6.4,1.6c1.6,0.7,2.1,1.4,1.9,1.9
					C252.7,74,251.8,74.1,250.2,73.5z"/>
			</g>
			<g>
				<path class="st3" d="M221.6,65.7c1.7,0,6.5,0.5,6.5,1c0,0.6-4.8,1-6.5,1c-1.7,0-2.5-0.5-2.5-1C219.1,66.2,219.9,65.7,221.6,65.7
					z"/>
			</g>
			<g>
				<path class="st3" d="M251.8,67.8c-1.7,0-6.5-0.5-6.5-1c0-0.6,4.8-1,6.5-1c1.7,0,2.5,0.5,2.5,1C254.3,67.3,253.5,67.8,251.8,67.8
					z"/>
			</g>
			<g>
				<path class="st3" d="M222.4,71.6c1.6-0.7,6.2-2.1,6.4-1.6c0.2,0.5-4,2.8-5.7,3.5c-1.6,0.7-2.5,0.5-2.7,0
					C220.3,73,220.8,72.2,222.4,71.6z"/>
			</g>
			<g>
				<path class="st3" d="M251,61.9c-1.6,0.7-6.2,2.1-6.4,1.6c-0.2-0.5,4-2.8,5.7-3.5c1.6-0.7,2.5-0.5,2.7,0
					C253.2,60.5,252.6,61.3,251,61.9z"/>
			</g>
			<g>
				<path class="st3" d="M225.3,76.7c1.2-1.2,5-4.3,5.4-3.9c0.4,0.4-2.7,4.1-3.9,5.4s-2.1,1.5-2.5,1.1
					C223.9,78.8,224.1,77.9,225.3,76.7z"/>
			</g>
			<g>
				<path class="st3" d="M248.1,56.8c-1.2,1.2-5,4.3-5.4,3.9c-0.4-0.4,2.7-4.1,3.9-5.4c1.2-1.2,2.1-1.5,2.5-1.1
					C249.5,54.7,249.3,55.6,248.1,56.8z"/>
			</g>
			<g>
				<path class="st3" d="M230,80.3c0.7-1.6,2.9-5.9,3.5-5.7c0.5,0.2-0.9,4.8-1.6,6.4c-0.7,1.6-1.4,2.1-1.9,1.9
					C229.5,82.8,229.3,81.9,230,80.3z"/>
			</g>
			<g>
				<path class="st3" d="M243.4,53.2c-0.7,1.6-2.9,5.9-3.5,5.7c-0.5-0.2,0.9-4.8,1.6-6.4c0.7-1.6,1.4-2.1,1.9-1.9
					C244,50.7,244.1,51.6,243.4,53.2z"/>
			</g>
		</g>
		<g>
			<path class="st3" d="M158.3,87.1c-11.2,0-20.4-9.1-20.4-20.4s9.1-20.4,20.4-20.4c11.2,0,20.4,9.1,20.4,20.4
				S169.6,87.1,158.3,87.1z M158.3,47.9c-10.4,0-18.8,8.4-18.8,18.8c0,10.4,8.4,18.8,18.8,18.8c10.4,0,18.8-8.4,18.8-18.8
				C177.1,56.4,168.7,47.9,158.3,47.9z"/>
			<path class="st3" d="M158.3,60.2c-3.6,0-6.5,2.9-6.5,6.5c0,3.6,2.9,6.5,6.5,6.5c3.6,0,6.5-2.9,6.5-6.5
				C164.9,63.1,161.9,60.2,158.3,60.2z M158.3,70c-1.8,0-3.3-1.5-3.3-3.3s1.5-3.3,3.3-3.3c1.8,0,3.3,1.5,3.3,3.3S160.1,70,158.3,70z
				"/>
			<g>
				<path class="st3" d="M159.4,51.7c0,1.7-0.5,6.5-1,6.5c-0.6,0-1-4.8-1-6.5c0-1.7,0.5-2.5,1-2.5C158.9,49.2,159.4,49.9,159.4,51.7
					z"/>
			</g>
			<g>
				<path class="st3" d="M157.3,81.8c0-1.7,0.5-6.5,1-6.5c0.6,0,1,4.8,1,6.5c0,1.7-0.5,2.5-1,2.5C157.8,84.3,157.3,83.6,157.3,81.8z
					"/>
			</g>
			<g>
				<path class="st3" d="M153.5,52.4c0.7,1.6,2.1,6.2,1.6,6.4c-0.5,0.2-2.8-4-3.5-5.7c-0.7-1.6-0.5-2.5,0-2.7
					C152.1,50.3,152.8,50.8,153.5,52.4z"/>
			</g>
			<g>
				<path class="st3" d="M163.1,81.1c-0.7-1.6-2.1-6.2-1.6-6.4c0.5-0.2,2.8,4,3.5,5.7c0.7,1.6,0.5,2.5,0,2.7
					C164.5,83.2,163.8,82.7,163.1,81.1z"/>
			</g>
			<g>
				<path class="st3" d="M148.4,55.4c1.2,1.2,4.3,5,3.9,5.4c-0.4,0.4-4.1-2.7-5.4-3.9c-1.2-1.2-1.5-2.1-1.1-2.5
					C146.3,53.9,147.2,54.1,148.4,55.4z"/>
			</g>
			<g>
				<path class="st3" d="M168.3,78.1c-1.2-1.2-4.3-5-3.9-5.4c0.4-0.4,4.1,2.7,5.4,3.9c1.2,1.2,1.5,2.1,1.1,2.5
					C170.4,79.6,169.5,79.4,168.3,78.1z"/>
			</g>
			<g>
				<path class="st3" d="M144.8,60c1.6,0.7,5.9,2.9,5.7,3.5c-0.2,0.5-4.8-0.9-6.4-1.6c-1.6-0.7-2.1-1.4-1.9-1.9
					C142.3,59.5,143.2,59.4,144.8,60z"/>
			</g>
			<g>
				<path class="st3" d="M171.9,73.5c-1.6-0.7-5.9-2.9-5.7-3.5c0.2-0.5,4.8,0.9,6.4,1.6c1.6,0.7,2.1,1.4,1.9,1.9
					C174.4,74,173.5,74.1,171.9,73.5z"/>
			</g>
			<g>
				<path class="st3" d="M143.3,65.7c1.7,0,6.5,0.5,6.5,1c0,0.6-4.8,1-6.5,1c-1.7,0-2.5-0.5-2.5-1C140.7,66.2,141.5,65.7,143.3,65.7
					z"/>
			</g>
			<g>
				<path class="st3" d="M173.4,67.8c-1.7,0-6.5-0.5-6.5-1c0-0.6,4.8-1,6.5-1c1.7,0,2.5,0.5,2.5,1C175.9,67.3,175.1,67.8,173.4,67.8
					z"/>
			</g>
			<g>
				<path class="st3" d="M144,71.6c1.6-0.7,6.2-2.1,6.4-1.6c0.2,0.5-4,2.8-5.7,3.5c-1.6,0.7-2.5,0.5-2.7,0
					C141.9,73,142.4,72.2,144,71.6z"/>
			</g>
			<g>
				<path class="st3" d="M172.6,61.9c-1.6,0.7-6.2,2.1-6.4,1.6c-0.2-0.5,4-2.8,5.7-3.5c1.6-0.7,2.5-0.5,2.7,0
					C174.8,60.5,174.2,61.3,172.6,61.9z"/>
			</g>
			<g>
				<path class="st3" d="M146.9,76.7c1.2-1.2,5-4.3,5.4-3.9c0.4,0.4-2.7,4.1-3.9,5.4c-1.2,1.2-2.1,1.5-2.5,1.1
					C145.5,78.8,145.7,77.9,146.9,76.7z"/>
			</g>
			<g>
				<path class="st3" d="M169.7,56.8c-1.2,1.2-5,4.3-5.4,3.9c-0.4-0.4,2.7-4.1,3.9-5.4s2.1-1.5,2.5-1.1
					C171.2,54.7,170.9,55.6,169.7,56.8z"/>
			</g>
			<g>
				<path class="st3" d="M151.6,80.3c0.7-1.6,2.9-5.9,3.5-5.7c0.5,0.2-0.9,4.8-1.6,6.4c-0.7,1.6-1.4,2.1-1.9,1.9
					C151.1,82.8,150.9,81.9,151.6,80.3z"/>
			</g>
			<g>
				<path class="st3" d="M165,53.2c-0.7,1.6-2.9,5.9-3.5,5.7c-0.5-0.2,0.9-4.8,1.6-6.4c0.7-1.6,1.4-2.1,1.9-1.9
					C165.6,50.7,165.7,51.6,165,53.2z"/>
			</g>
		</g>
		<g>
			<path class="st3" d="M158.3,8.7c-11.2,0-20.4-9.1-20.4-20.4c0-11.2,9.1-20.4,20.4-20.4c11.2,0,20.4,9.1,20.4,20.4
				C178.7-0.4,169.6,8.7,158.3,8.7z M158.3-30.4c-10.4,0-18.8,8.4-18.8,18.8c0,10.4,8.4,18.8,18.8,18.8c10.4,0,18.8-8.4,18.8-18.8
				C177.1-22,168.7-30.4,158.3-30.4z"/>
			<g>
				<path class="st3" d="M157.3,3.4c0-1.7,0.5-6.5,1-6.5c0.6,0,1,4.8,1,6.5c0,1.7-0.5,2.5-1,2.5C157.8,5.9,157.3,5.2,157.3,3.4z"/>
			</g>
			<g>
				<path class="st3" d="M163.1,2.7c-0.7-1.6-2.1-6.2-1.6-6.4c0.5-0.2,2.8,4,3.5,5.7c0.7,1.6,0.5,2.5,0,2.7
					C164.5,4.8,163.8,4.3,163.1,2.7z"/>
			</g>
			<g>
				<path class="st3" d="M168.3-0.3c-1.2-1.2-4.3-5-3.9-5.4c0.4-0.4,4.1,2.7,5.4,3.9c1.2,1.2,1.5,2.1,1.1,2.5
					C170.4,1.2,169.5,1,168.3-0.3z"/>
			</g>
			<g>
				<path class="st3" d="M146.9-1.7c1.2-1.2,5-4.3,5.4-3.9c0.4,0.4-2.7,4.1-3.9,5.4c-1.2,1.2-2.1,1.5-2.5,1.1
					C145.5,0.4,145.7-0.5,146.9-1.7z"/>
			</g>
			<g>
				<path class="st3" d="M151.6,1.9c0.7-1.6,2.9-5.9,3.5-5.7c0.5,0.2-0.9,4.8-1.6,6.4c-0.7,1.6-1.4,2.1-1.9,1.9
					C151.1,4.4,150.9,3.5,151.6,1.9z"/>
			</g>
		</g>
		<g>
			<path class="st3" d="M236.7,8.7c-11.2,0-20.4-9.1-20.4-20.4c0-11.2,9.1-20.4,20.4-20.4s20.4,9.1,20.4,20.4
				C257.1-0.4,248,8.7,236.7,8.7z M236.7-30.4c-10.4,0-18.8,8.4-18.8,18.8c0,10.4,8.4,18.8,18.8,18.8s18.8-8.4,18.8-18.8
				C255.5-22,247.1-30.4,236.7-30.4z"/>
			<g>
				<path class="st3" d="M235.7,3.4c0-1.7,0.5-6.5,1-6.5c0.6,0,1,4.8,1,6.5c0,1.7-0.5,2.5-1,2.5C236.1,5.9,235.7,5.2,235.7,3.4z"/>
			</g>
			<g>
				<path class="st3" d="M241.5,2.7c-0.7-1.6-2.1-6.2-1.6-6.4c0.5-0.2,2.8,4,3.5,5.7c0.7,1.6,0.5,2.5,0,2.7
					C242.9,4.8,242.2,4.3,241.5,2.7z"/>
			</g>
			<g>
				<path class="st3" d="M246.6-0.3c-1.2-1.2-4.3-5-3.9-5.4c0.4-0.4,4.1,2.7,5.4,3.9c1.2,1.2,1.5,2.1,1.1,2.5
					C248.7,1.2,247.9,1,246.6-0.3z"/>
			</g>
			<g>
				<path class="st3" d="M225.3-1.7c1.2-1.2,5-4.3,5.4-3.9c0.4,0.4-2.7,4.1-3.9,5.4s-2.1,1.5-2.5,1.1C223.9,0.4,224.1-0.5,225.3-1.7
					z"/>
			</g>
			<g>
				<path class="st3" d="M230,1.9c0.7-1.6,2.9-5.9,3.5-5.7c0.5,0.2-0.9,4.8-1.6,6.4c-0.7,1.6-1.4,2.1-1.9,1.9
					C229.5,4.4,229.3,3.5,230,1.9z"/>
			</g>
		</g>
	</g>
</g>
</svg>
