<?xml version="1.0" encoding="UTF-8"?>
<svg xmlns="http://www.w3.org/2000/svg" xmlns:xlink="http://www.w3.org/1999/xlink" version="1.1" viewBox="0 0 100 100">
  <defs>
    <style>
      .cls-1, .cls-2, .cls-3 {
        fill: none;
      }

      .cls-4 {
        fill: #0082e3;
      }

      .cls-5 {
        fill: #17244e;
      }

      .cls-6 {
        fill: #803533;
      }

      .cls-7 {
        fill: #ffd133;
      }

      .cls-8 {
        fill: #c4c9ee;
      }

      .cls-9 {
        fill: #ecb410;
      }

      .cls-10 {
        fill: #b06260;
      }

      .cls-11 {
        fill: #ff9a78;
      }

      .cls-12 {
        fill: #006dc5;
      }

      .cls-13 {
        fill: #f0346f;
      }

      .cls-14 {
        fill: #c58382;
      }

      .cls-15 {
        fill: #ffb698;
      }

      .cls-2 {
        stroke-miterlimit: 10;
        stroke-width: 4px;
      }

      .cls-2, .cls-3 {
        stroke: #1e285d;
      }

      .cls-16 {
        fill: #757cad;
      }

      .cls-17 {
        fill: url(#Degradado_sin_nombre_52);
      }

      .cls-18 {
        fill: url(#Degradado_sin_nombre_67);
      }

      .cls-19 {
        fill: url(#Degradado_sin_nombre_25);
      }

      .cls-20 {
        fill: #e27852;
      }

      .cls-21 {
        fill: #ff7f0b;
      }

      .cls-22 {
        fill: #d66805;
      }

      .cls-23 {
        clip-path: url(#clippath);
      }

      .cls-24 {
        fill: #dddee6;
      }

      .cls-3 {
        stroke-linecap: round;
        stroke-linejoin: round;
      }
    </style>
    <linearGradient id="Degradado_sin_nombre_25" data-name="Degradado sin nombre 25" x1="546.5" y1="48.7" x2="539.7" y2="48.7" gradientTransform="translate(601.3) rotate(-180) scale(1 -1)" gradientUnits="userSpaceOnUse">
      <stop offset=".2" stop-color="#006dc5"/>
      <stop offset=".7" stop-color="#0059a1"/>
    </linearGradient>
    <linearGradient id="Degradado_sin_nombre_52" data-name="Degradado sin nombre 52" x1="542.5" y1="37.2" x2="544.8" y2="37.2" gradientTransform="translate(601.3) rotate(-180) scale(1 -1)" gradientUnits="userSpaceOnUse">
      <stop offset=".3" stop-color="#ffd133"/>
      <stop offset=".8" stop-color="#cd9700"/>
    </linearGradient>
    <linearGradient id="Degradado_sin_nombre_67" data-name="Degradado sin nombre 67" x1="575.5" y1="47.7" x2="573.1" y2="47.7" gradientTransform="translate(601.3) rotate(-180) scale(1 -1)" gradientUnits="userSpaceOnUse">
      <stop offset=".2" stop-color="#b06260"/>
      <stop offset="1" stop-color="#c6847d"/>
    </linearGradient>
    <clipPath id="clippath">
      <path class="cls-1" d="M23.5,41.7s.9.2,1.5-.5,1.5-1.2,2.7-1c0,0-.5-1.1,0-1.8,0,0,1.2,1.6,1.6,2.2.4.6,3.7,5.7,4.5,7.4h-6.7s.6-2-.6-3.4c0,0-1.3.5-2.6-.4-1.3-.8-1.4-2.7-.4-2.6Z"/>
    </clipPath>
  </defs>
  <!-- Generator: Adobe Illustrator 28.6.0, SVG Export Plug-In . SVG Version: 1.2.0 Build 709)  -->
  <g>
    <g id="_圖層_1" data-name="圖層_1">
      <g>
        <path class="cls-10" d="M27.7,39.9l-1.1-1.3s-.3,1,.4,1.8h.9s-.2-.4-.2-.4Z"/>
        <path class="cls-12" d="M58.4,44.6s-7.7,4.1-8.9,8.4c-1.2,4.3.8,10.6.8,10.6l2.4-3s-2.1-9.2,4.3-8.7l4.8-4-.5-2.7-2.8-.6Z"/>
        <path class="cls-19" d="M54.8,52.5s.8-4,3.3-6c0,0-.3-.6-.2-1.7l.5-.3,3.2,1.5s-6.3,6.2-6.5,6.6c-.3.4,0,0,0,0,0,0-.2,0-.2-.2Z"/>
        <path class="cls-11" d="M54,36.9c-3.6,2.6-11.9,4.9-11.9,4.9l-1.5.6v.6c8,.2,14-4.9,14-4.9,0,0,.9-2.2-.6-1.1Z"/>
        <path class="cls-9" d="M56.7,35.3l-2.7,2,.7.9c1.7-.8,2.7-2.3,2.7-2.3l-.7-.6Z"/>
        <path class="cls-15" d="M52.7,24.7s-.6.4-.7,2-.7,2.2-.7,2.2c0,0,.3.3.6.3,0,0-.3,1.2.8,1.9s2.2.2,2.2.2c0,0,.3.7,1.3,1.1,0,0,1-1.2,1.9-1.3,0,0-.8-.7-.9-1.6,0,0-.1-3.1-1.9-4.5-1.8-1.4-2.6-.2-2.6-.2Z"/>
        <path class="cls-5" d="M64.1,49.5s1.7,0,1.6,1.2c0,1.2-3,1.3-4,.9l2.4-2.1Z"/>
        <polygon class="cls-20" points="33.9 68.8 39.2 47.2 36.8 45.2 39.4 42.7 38.3 41.9 35 45.1 37.9 47.4 32.8 68.5 33.9 68.8"/>
        <rect class="cls-20" x="37.3" y="51.6" width="20.1" height="1.2"/>
        <polygon class="cls-20" points="65.9 68.6 67 68 57.5 50.3 56.5 50.9 65.9 68.6"/>
        <polygon class="cls-20" points="49.4 69.2 66.4 69.2 66.4 68 50 68 40.7 51.9 39.7 52.6 49.4 69.2"/>
        <line class="cls-2" x1="49.8" y1="69.4" x2="45.9" y2="67.8"/>
        <g>
          <path class="cls-24" d="M33.6,59.1c5.2,0,9.5,4.3,9.5,9.5,0,5.2-4.3,9.5-9.5,9.5s-9.5-4.3-9.5-9.5,4.3-9.5,9.5-9.5M33.6,57.9c-5.9,0-10.7,4.8-10.7,10.7,0,5.9,4.8,10.7,10.7,10.7s10.7-4.8,10.7-10.7c0-5.9-4.8-10.7-10.7-10.7h0Z"/>
          <path class="cls-24" d="M33.6,66.8c1,0,1.8.8,1.8,1.8,0,1-.8,1.8-1.8,1.8-1,0-1.8-.8-1.8-1.8,0-1,.8-1.8,1.8-1.8M33.6,66.2c-1.3,0-2.4,1.1-2.4,2.4,0,1.3,1.1,2.4,2.4,2.4s2.4-1.1,2.4-2.4-1.1-2.4-2.4-2.4h0Z"/>
        </g>
        <path class="cls-16" d="M66.4,67.2c.8,0,1.4.6,1.4,1.4s-.6,1.4-1.4,1.4-1.4-.6-1.4-1.4.6-1.4,1.4-1.4M66.4,66.6c-1.1,0-2,.9-2,2,0,1.1.9,2,2,2,1.1,0,2-.9,2-2s-.9-2-2-2h0Z"/>
        <path class="cls-24" d="M66.4,59.1c5.2,0,9.5,4.3,9.5,9.5s-4.3,9.5-9.5,9.5c-5.2,0-9.5-4.3-9.5-9.5,0-5.2,4.3-9.5,9.5-9.5M66.4,57.9c-5.9,0-10.7,4.8-10.7,10.7,0,5.9,4.8,10.7,10.7,10.7,5.9,0,10.7-4.8,10.7-10.7,0-5.9-4.8-10.7-10.7-10.7h0Z"/>
        <path class="cls-3" d="M51.1,65.8l15.5.8c1,0,1.8.9,1.8,1.9h0c0,1-.8,1.8-1.8,1.9l-15.5,1.2c-1.7.1-3.2-1.2-3.2-2.9h0c0-1.7,1.4-3,3.1-2.9Z"/>
        <path class="cls-13" d="M49.3,66.6s-2.5-1-3.2.6l3.7,1.5s.7-.4.4-1.5l-.9-.6Z"/>
        <path class="cls-8" d="M67.9,68.6c0-.8-.7-1.5-1.5-1.5s-1.5.7-1.5,1.5.7,1.5,1.5,1.5,1.5-.7,1.5-1.5Z"/>
        <circle class="cls-8" cx="33.6" cy="68.6" r="1.8"/>
        <path class="cls-21" d="M55.2,27.3s-2.7-1.6-2.7-3.8,2.4-2.8,3.5-2.8c0,0-.2.2-.3.4,0,0,.6-.5,1.4-.3,0,0-.8.2-.5.8.2.6,3.5,1,4.1,3.5.6,2.5-.7,4.4-3,5.4,0,0-1.3.4-1.7-1.5,0,0,1,.1.8-1.1-.2-1.2-1.3-1.3-1.6-.7Z"/>
        <path class="cls-15" d="M38.6,42.3s-1-.4-.4-1.5,2.2.2,2.4.8c0,0,9.3-3.3,14.9-9.9,0,0,1.7-2,3.3-1.4,1.6.6,8.4,6.9,8.1,13,0,0-1.4,2.5-4.3,2.2-2.9-.3-3.4-1.9-3.4-1.9,0,0,1.9-3.8-3-8,0,0-8.3,7-15.5,6.9,0,0-.2-1-1.1-1s-1.1.7-1.1.7Z"/>
        <path class="cls-4" d="M60.8,45.8l6.2.4s-.8,2-3.1,3.8c-2.3,1.8-12.1,12.4-13.7,17.2l-.9-.6s2.1-12.3,11.5-20.8Z"/>
        <g>
          <polygon class="cls-16" points="36.2 55.1 36.4 54.2 34 53 33.6 53.8 36.2 55.1"/>
          <rect class="cls-16" x="35.3" y="50" width=".9" height="2.7" transform="translate(-26.3 59.5) rotate(-62.7)"/>
        </g>
        <path class="cls-22" d="M26.4,47.8h8.8s-1.2,8.3-1.2,8.3h-3.3c-.9,0-1.6-.6-1.9-1.4l-2.3-6.9Z"/>
        <g>
          <path class="cls-16" d="M39.7,41.6c.5,0,.9.4.9.9,0,.5-.4.9-.9.9s-.9-.4-.9-.9.4-.9.9-.9M39.7,41.3c-.6,0-1.2.5-1.2,1.2,0,.6.5,1.2,1.2,1.2.6,0,1.2-.5,1.2-1.2,0-.6-.5-1.2-1.2-1.2h0Z"/>
          <path class="cls-8" d="M40.5,42.4c0-.5-.4-.9-.9-.9s-.9.4-.9.9.4.9.9.9.9-.4.9-.9Z"/>
        </g>
        <path class="cls-7" d="M52.2,34.9s2.2-2.1,3-2.9c.8-.8,1.2-2,3.1-1.9,1.8,0,6.5,4.8,7.9,8.8,1.4,4.1.8,7.3.8,7.3,0,0-4.1,2.2-8.5-1.7,0,0,2-1.6.4-4.9-1.6-3.3-2.3-3.6-2.3-3.6,0,0-1.4,1.4-2.7,1.8l-1.7-2.9Z"/>
        <path class="cls-17" d="M56.5,36s.8-.7,1-1.3c0,0,1.6,2.7,1.3,5,0,0-1.4-3-2.3-3.6Z"/>
        <path class="cls-14" d="M23.5,41.7s.9.2,1.5-.5,1.5-1.2,2.7-1c0,0-.5-1.1,0-1.8,0,0,1.2,1.6,1.6,2.2.4.6,3.7,5.7,4.5,7.4h-6.7s.6-2-.6-3.4c0,0-1.3.5-2.6-.4-1.3-.8-1.4-2.7-.4-2.6Z"/>
        <path class="cls-14" d="M29.1,46.8s-2.4-1.6-3.5-.2c-1.1,1.4.4,4.2,1.4,3.3,1-.9-.4-2.1-.4-2.1l.6.2h1.9s0-1.2,0-1.2Z"/>
        <path class="cls-10" d="M27.3,42c0-.6-.5-1.1-1.1-1.1s-1.1.5-1.1,1.1.5,1.1,1.1,1.1,1.1-.5,1.1-1.1Z"/>
        <path class="cls-10" d="M32.4,45.5s-1.4.4-2.2-.9c-.9-1.3.2-2.4.2-2.4l2.1,3.3Z"/>
        <path class="cls-10" d="M32.7,48s-.5-1.1-1.7-1.1-1.5,1.1-1.5,1.1h3.2Z"/>
        <path class="cls-6" d="M26.4,41.9c0,0,0-.2-.2-.2s-.2,0-.2.2,0,.2.2.2.2,0,.2-.2Z"/>
        <path class="cls-18" d="M26.5,47.8s-.3-.1-.7-.3c0,0,1.6-.5,2.4.5h-1.1s-.6-.2-.6-.2Z"/>
        <g class="cls-23">
          <g>
            <path class="cls-6" d="M23.5,41.7s-.1.4-.6.3c0,0,.1-.3.6-.3Z"/>
            <path class="cls-6" d="M23.9,44c.1,0,.3,0,.4,0,.6-.2.5-.8.4-1.1,0,0,0,0-.1,0,0,0,0,0,0,.1,0,0,.2.6-.3.8-.5.2-.8-.2-.8-.2,0,0-.1,0-.2,0,0,0,0,.1,0,.2.1.1.4.3.7.3Z"/>
          </g>
        </g>
      </g>
    </g>
  </g>
</svg>