<?xml version="1.0" encoding="utf-8"?>
<!-- Generator: Adobe Illustrator 28.1.0, SVG Export Plug-In . SVG Version: 6.00 Build 0)  -->
<svg version="1.1" id="圖層_1" xmlns="http://www.w3.org/2000/svg" xmlns:xlink="http://www.w3.org/1999/xlink" x="0px" y="0px"
	 viewBox="0 0 79.6 79.6" style="enable-background:new 0 0 79.6 79.6;" xml:space="preserve">
<style type="text/css">
	.st0{fill:#AD974C;}
</style>
<g>
	<g>
		<path class="st0" d="M42.4,3.4c0,1.6-1.1,18.7-2.4,18.7c-1.3,0-2.4-17.1-2.4-18.7c0-1.6,0.7-3.4,2.4-3.4C41.7,0,42.4,1.8,42.4,3.4
			z"/>
		<path class="st0" d="M28.3,5.2c0.6,1.5,6.2,17.7,4.9,18.2C32,23.9,24.5,8.5,23.9,7c-0.6-1.5-0.7-3.4,0.9-4.1
			C26.3,2.3,27.7,3.7,28.3,5.2z"/>
		<path class="st0" d="M16,12.2c1.1,1.1,12.5,14,11.5,14.9C26.5,28,13.7,16.7,12.6,15.6c-1.1-1.1-1.9-2.9-0.7-4.1
			C13,10.3,14.8,11,16,12.2z"/>
		<path class="st0" d="M7.2,23.4c1.5,0.6,16.9,8.1,16.3,9.4S6.9,28.5,5.4,27.8c-1.5-0.6-2.9-1.9-2.2-3.5C3.7,22.8,5.7,22.8,7.2,23.4
			z"/>
		<path class="st0" d="M3.4,37.1c1.6,0,18.7,1.1,18.7,2.4c0,1.3-17.1,2.4-18.7,2.4c-1.6,0-3.4-0.7-3.4-2.4C0,37.9,1.8,37.1,3.4,37.1
			z"/>
		<path class="st0" d="M5.2,51.2c1.5-0.6,17.7-6.2,18.2-4.9c0.5,1.2-14.9,8.7-16.3,9.4c-1.5,0.6-3.4,0.7-4.1-0.9
			C2.3,53.3,3.7,51.9,5.2,51.2z"/>
		<path class="st0" d="M12.2,63.6c1.1-1.1,14-12.5,14.9-11.5C28,53,16.7,65.9,15.6,67c-1.1,1.1-2.9,1.9-4.1,0.7
			C10.3,66.6,11,64.8,12.2,63.6z"/>
		<path class="st0" d="M23.4,72.4c0.6-1.5,8.1-16.9,9.4-16.3c1.2,0.5-4.3,16.7-4.9,18.2c-0.6,1.5-1.9,2.9-3.5,2.2
			C22.8,75.8,22.8,73.9,23.4,72.4z"/>
		<path class="st0" d="M37.1,76.2c0-1.6,1.1-18.7,2.4-18.7c1.3,0,2.4,17.1,2.4,18.7c0,1.6-0.7,3.4-2.4,3.4
			C37.9,79.6,37.1,77.8,37.1,76.2z"/>
		<path class="st0" d="M51.2,74.4c-0.6-1.5-6.2-17.7-4.9-18.2c1.2-0.5,8.7,14.9,9.4,16.3c0.6,1.5,0.7,3.4-0.9,4.1
			C53.3,77.3,51.9,75.9,51.2,74.4z"/>
		<path class="st0" d="M63.6,67.4c-1.1-1.1-12.5-14-11.5-14.9C53,51.5,65.9,62.9,67,64c1.1,1.1,1.9,2.9,0.7,4.1
			C66.6,69.2,64.8,68.5,63.6,67.4z"/>
		<path class="st0" d="M72.4,56.2C70.9,55.5,55.5,48,56,46.8c0.5-1.2,16.7,4.3,18.2,4.9c1.5,0.6,2.9,1.9,2.2,3.5
			C75.8,56.7,73.9,56.8,72.4,56.2z"/>
		<path class="st0" d="M76.2,42.4c-1.6,0-18.7-1.1-18.7-2.4c0-1.3,17.1-2.4,18.7-2.4s3.4,0.7,3.4,2.4C79.6,41.7,77.8,42.4,76.2,42.4
			z"/>
		<path class="st0" d="M74.4,28.3c-1.5,0.6-17.7,6.2-18.2,4.9c-0.5-1.2,14.9-8.7,16.3-9.4c1.5-0.6,3.4-0.7,4.1,0.9
			C77.3,26.3,75.9,27.7,74.4,28.3z"/>
		<path class="st0" d="M67.4,16c-1.1,1.1-14,12.5-14.9,11.5C51.5,26.5,62.9,13.7,64,12.6c1.1-1.1,2.9-1.9,4.1-0.7
			C69.2,13,68.5,14.8,67.4,16z"/>
		<path class="st0" d="M56.2,7.2c-0.6,1.5-8.1,16.9-9.4,16.3C45.6,23,51.1,6.9,51.7,5.4c0.6-1.5,1.9-2.9,3.5-2.2
			C56.7,3.7,56.8,5.7,56.2,7.2z"/>
	</g>
	<path class="st0" d="M45.3,39.8c0,3-2.4,5.5-5.5,5.5c-3,0-5.5-2.4-5.5-5.5s2.4-5.5,5.5-5.5C42.8,34.3,45.3,36.8,45.3,39.8z"/>
</g>
</svg>
