<?xml version="1.0" encoding="utf-8"?>
<!-- Generator: Adobe Illustrator 28.1.0, SVG Export Plug-In . SVG Version: 6.00 Build 0)  -->
<svg version="1.1" id="圖層_1" xmlns="http://www.w3.org/2000/svg" xmlns:xlink="http://www.w3.org/1999/xlink" x="0px" y="0px"
	 viewBox="0 0 111.5 111.5" style="enable-background:new 0 0 111.5 111.5;" xml:space="preserve">
<style type="text/css">
	.st0{fill:#AD974C;}
</style>
<g>
	<g>
		<path class="st0" d="M56.9,3.8c0,1.8-1.2,5.6-2.6,5.6s-2.6-3.9-2.6-5.6C51.7,2,52.4,0,54.3,0C56.1,0,56.9,2,56.9,3.8z"/>
		<path class="st0" d="M43.4,5.2c0.5,1.7,0.3,5.7-1.1,6.1c-1.4,0.4-3.5-3-4-4.8c-0.5-1.7-0.2-3.8,1.6-4.3C41.6,1.8,43,3.5,43.4,5.2z
			"/>
		<path class="st0" d="M30.8,10.1c0.9,1.5,1.8,5.5,0.5,6.2c-1.3,0.7-4.2-2-5.1-3.6c-0.9-1.5-1.2-3.6,0.4-4.6
			C28.1,7.3,29.9,8.6,30.8,10.1z"/>
		<path class="st0" d="M19.8,18.2c1.3,1.3,3.1,4.8,2.1,5.8c-1,1-4.6-0.9-5.8-2.1c-1.3-1.3-2.1-3.2-0.8-4.5
			C16.6,16.1,18.6,16.9,19.8,18.2z"/>
		<path class="st0" d="M11.3,28.7c1.5,0.9,4.3,3.8,3.6,5.1c-0.7,1.3-4.6,0.3-6.2-0.5c-1.5-0.9-2.9-2.5-1.9-4.2
			C7.6,27.6,9.8,27.9,11.3,28.7z"/>
		<path class="st0" d="M5.8,41.2c1.7,0.5,5.1,2.6,4.8,4c-0.4,1.4-4.4,1.5-6.1,1.1c-1.7-0.5-3.4-1.7-2.9-3.5C2,41,4.1,40.7,5.8,41.2z
			"/>
		<path class="st0" d="M3.8,54.6c1.8,0,5.6,1.2,5.6,2.6s-3.9,2.6-5.6,2.6S0,59.1,0,57.2C0,55.4,2,54.6,3.8,54.6z"/>
		<path class="st0" d="M5.2,68.1c1.7-0.5,5.7-0.3,6.1,1.1c0.4,1.4-3,3.5-4.8,4c-1.7,0.5-3.8,0.2-4.3-1.6C1.8,69.9,3.5,68.6,5.2,68.1
			z"/>
		<path class="st0" d="M10.1,80.8c1.5-0.9,5.5-1.8,6.2-0.5c0.7,1.3-2,4.2-3.6,5.1c-1.5,0.9-3.6,1.2-4.6-0.4
			C7.3,83.4,8.6,81.6,10.1,80.8z"/>
		<path class="st0" d="M18.2,91.7c1.3-1.3,4.8-3.1,5.8-2.1c1,1-0.9,4.6-2.1,5.8c-1.3,1.3-3.2,2.1-4.5,0.8C16.1,95,16.9,93,18.2,91.7
			z"/>
		<path class="st0" d="M28.7,100.2c0.9-1.5,3.8-4.3,5.1-3.6c1.3,0.7,0.3,4.6-0.5,6.2c-0.9,1.5-2.5,2.9-4.2,1.9
			C27.6,103.9,27.9,101.8,28.7,100.2z"/>
		<path class="st0" d="M41.2,105.7c0.5-1.7,2.6-5.1,4-4.8c1.4,0.4,1.5,4.4,1.1,6.1c-0.5,1.7-1.7,3.4-3.5,2.9
			C41,109.5,40.7,107.4,41.2,105.7z"/>
		<path class="st0" d="M54.6,107.8c0-1.8,1.2-5.6,2.6-5.6c1.5,0,2.6,3.9,2.6,5.6c0,1.8-0.8,3.8-2.6,3.8
			C55.4,111.5,54.6,109.5,54.6,107.8z"/>
		<path class="st0" d="M68.1,106.3c-0.5-1.7-0.3-5.7,1.1-6.1c1.4-0.4,3.5,3,4,4.8c0.5,1.7,0.2,3.8-1.6,4.3
			C69.9,109.7,68.6,108,68.1,106.3z"/>
		<path class="st0" d="M80.8,101.4c-0.9-1.5-1.8-5.5-0.5-6.2c1.3-0.7,4.2,2,5.1,3.6c0.9,1.5,1.2,3.6-0.4,4.6
			C83.4,104.2,81.6,102.9,80.8,101.4z"/>
		<path class="st0" d="M91.7,93.4c-1.3-1.3-3.1-4.8-2.1-5.8c1-1,4.6,0.9,5.8,2.1c1.3,1.3,2.1,3.2,0.8,4.5C95,95.4,93,94.6,91.7,93.4
			z"/>
		<path class="st0" d="M100.2,82.8c-1.5-0.9-4.3-3.8-3.6-5.1c0.7-1.3,4.6-0.3,6.2,0.5c1.5,0.9,2.9,2.5,1.9,4.2
			C103.9,83.9,101.8,83.7,100.2,82.8z"/>
		<path class="st0" d="M105.7,70.3c-1.7-0.5-5.1-2.6-4.8-4c0.4-1.4,4.4-1.5,6.1-1.1c1.7,0.5,3.4,1.7,2.9,3.5
			C109.5,70.5,107.4,70.8,105.7,70.3z"/>
		<path class="st0" d="M107.8,56.9c-1.8,0-5.6-1.2-5.6-2.6s3.9-2.6,5.6-2.6c1.8,0,3.8,0.8,3.8,2.6C111.5,56.1,109.5,56.9,107.8,56.9
			z"/>
		<path class="st0" d="M106.3,43.4c-1.7,0.5-5.7,0.3-6.1-1.1s3-3.5,4.8-4c1.7-0.5,3.8-0.2,4.3,1.6C109.7,41.6,108,43,106.3,43.4z"/>
		<path class="st0" d="M101.4,30.8c-1.5,0.9-5.5,1.8-6.2,0.5c-0.7-1.3,2-4.2,3.6-5.1c1.5-0.9,3.6-1.2,4.6,0.4
			C104.2,28.1,102.9,29.9,101.4,30.8z"/>
		<path class="st0" d="M93.4,19.8c-1.3,1.3-4.8,3.1-5.8,2.1c-1-1,0.9-4.6,2.1-5.8c1.3-1.3,3.2-2.1,4.5-0.8
			C95.4,16.5,94.6,18.6,93.4,19.8z"/>
		<path class="st0" d="M82.8,11.3c-0.9,1.5-3.8,4.3-5.1,3.6c-1.3-0.7-0.3-4.6,0.5-6.2c0.9-1.5,2.5-2.9,4.2-1.9
			C83.9,7.6,83.7,9.8,82.8,11.3z"/>
		<path class="st0" d="M70.3,5.8c-0.5,1.7-2.6,5.1-4,4.8c-1.4-0.4-1.5-4.4-1.1-6.1C65.7,2.8,67,1,68.8,1.5C70.5,2,70.8,4.1,70.3,5.8
			z"/>
	</g>
	<g>
		<path class="st0" d="M48.5,20.6c0.4,1.7,0.2,5.7-1.2,6.1c-1.4,0.3-3.5-3.1-3.9-4.8c-0.4-1.7-0.2-3.8,1.7-4.3
			C46.8,17.2,48.1,18.9,48.5,20.6z"/>
		<path class="st0" d="M35.8,25.7c1,1.4,2.4,5.2,1.2,6.1c-1.2,0.9-4.4-1.6-5.4-3c-1-1.4-1.6-3.5-0.1-4.6
			C32.9,23.1,34.8,24.2,35.8,25.7z"/>
		<path class="st0" d="M26,35.2c1.5,0.9,4.2,3.9,3.4,5.2c-0.8,1.2-4.7,0.2-6.2-0.7c-1.5-0.9-2.8-2.6-1.8-4.2
			C22.3,34,24.4,34.3,26,35.2z"/>
		<path class="st0" d="M20.5,47.8c1.8,0.3,5.4,2,5.2,3.5c-0.2,1.4-4.2,2-6,1.7c-1.8-0.3-3.6-1.3-3.3-3.2
			C16.7,48.1,18.8,47.5,20.5,47.8z"/>
		<path class="st0" d="M20.3,61.5c1.7-0.4,5.7-0.2,6.1,1.2c0.3,1.4-3.1,3.5-4.8,3.9c-1.7,0.4-3.8,0.2-4.3-1.7
			C16.9,63.2,18.6,61.9,20.3,61.5z"/>
		<path class="st0" d="M25.4,74.3c1.4-1,5.2-2.4,6.1-1.2c0.9,1.2-1.6,4.4-3,5.4c-1.4,1-3.5,1.6-4.6,0.1
			C22.9,77.2,23.9,75.3,25.4,74.3z"/>
		<path class="st0" d="M34.9,84.1c0.9-1.5,3.9-4.2,5.2-3.4c1.2,0.8,0.2,4.7-0.7,6.2c-0.9,1.5-2.6,2.8-4.2,1.8
			C33.7,87.7,34,85.6,34.9,84.1z"/>
		<path class="st0" d="M47.5,89.5c0.3-1.8,2-5.4,3.5-5.2c1.4,0.2,2,4.2,1.7,6c-0.3,1.8-1.3,3.6-3.2,3.3
			C47.8,93.4,47.2,91.3,47.5,89.5z"/>
		<path class="st0" d="M61.2,89.7C60.8,88,61,84,62.4,83.6c1.4-0.3,3.5,3.1,3.9,4.8c0.4,1.7,0.2,3.8-1.7,4.3
			C62.9,93.2,61.6,91.5,61.2,89.7z"/>
		<path class="st0" d="M74,84.7c-1-1.4-2.4-5.2-1.2-6.1c1.2-0.9,4.4,1.6,5.4,3c1,1.4,1.6,3.5,0.1,4.6C76.9,87.2,75,86.1,74,84.7z"/>
		<path class="st0" d="M83.8,75.1c-1.5-0.9-4.2-3.9-3.4-5.2c0.8-1.2,4.7-0.2,6.2,0.7s2.8,2.6,1.8,4.2C87.5,76.3,85.3,76.1,83.8,75.1
			z"/>
		<path class="st0" d="M89.2,62.5c-1.8-0.3-5.4-2-5.2-3.5c0.2-1.4,4.2-2,6-1.7c1.8,0.3,3.6,1.3,3.3,3.2C93.1,62.3,91,62.8,89.2,62.5
			z"/>
		<path class="st0" d="M89.4,48.8c-1.7,0.4-5.7,0.2-6.1-1.2c-0.3-1.4,3.1-3.5,4.8-3.9c1.7-0.4,3.8-0.2,4.3,1.7
			C92.9,47.1,91.2,48.4,89.4,48.8z"/>
		<path class="st0" d="M84.4,36.1c-1.4,1-5.2,2.4-6.1,1.2c-0.9-1.2,1.6-4.4,3-5.4c1.4-1,3.5-1.6,4.6-0.1
			C86.9,33.2,85.8,35,84.4,36.1z"/>
		<path class="st0" d="M74.8,26.3c-0.9,1.5-3.9,4.2-5.2,3.4c-1.2-0.8-0.2-4.7,0.7-6.2c0.9-1.5,2.6-2.8,4.2-1.8
			C76.1,22.6,75.8,24.7,74.8,26.3z"/>
		<path class="st0" d="M62.3,20.8c-0.3,1.8-2,5.4-3.5,5.2c-1.4-0.2-2-4.2-1.7-6c0.3-1.8,1.3-3.6,3.2-3.3C62,17,62.5,19.1,62.3,20.8z
			"/>
	</g>
	<g>
		<path class="st0" d="M56.9,37c0,1.8-1.2,5.6-2.6,5.6s-2.6-3.9-2.6-5.6s0.8-3.8,2.6-3.8C56.1,33.2,56.9,35.2,56.9,37z"/>
		<path class="st0" d="M43.1,41c1.3,1.3,3.1,4.8,2.1,5.8c-1,1-4.6-0.9-5.8-2.1c-1.3-1.3-2.1-3.2-0.8-4.5C39.8,39,41.8,39.8,43.1,41z
			"/>
		<path class="st0" d="M36.1,53.7c1.8,0,5.6,1.2,5.6,2.6c0,1.5-3.9,2.6-5.6,2.6c-1.8,0-3.8-0.8-3.8-2.6
			C32.4,54.6,34.3,53.7,36.1,53.7z"/>
		<path class="st0" d="M40.2,67.6c1.3-1.3,4.8-3.1,5.8-2.1c1,1-0.9,4.6-2.1,5.8c-1.3,1.3-3.2,2.1-4.5,0.8
			C38.1,70.8,38.9,68.8,40.2,67.6z"/>
		<path class="st0" d="M52.8,74.5c0-1.8,1.2-5.6,2.6-5.6s2.6,3.9,2.6,5.6c0,1.8-0.8,3.8-2.6,3.8C53.7,78.3,52.8,76.3,52.8,74.5z"/>
		<path class="st0" d="M66.7,70.5c-1.3-1.3-3.1-4.8-2.1-5.8c1-1,4.6,0.9,5.8,2.1c1.3,1.3,2.1,3.2,0.8,4.5C70,72.5,68,71.7,66.7,70.5
			z"/>
		<path class="st0" d="M73.7,57.8c-1.8,0-5.6-1.2-5.6-2.6s3.9-2.6,5.6-2.6c1.8,0,3.8,0.8,3.8,2.6C77.4,56.9,75.4,57.8,73.7,57.8z"/>
		<path class="st0" d="M69.6,43.9c-1.3,1.3-4.8,3.1-5.8,2.1c-1-1,0.9-4.6,2.1-5.8c1.3-1.3,3.2-2.1,4.5-0.8
			C71.6,40.7,70.9,42.7,69.6,43.9z"/>
	</g>
</g>
</svg>
