<?xml version="1.0" encoding="UTF-8"?>
<svg xmlns="http://www.w3.org/2000/svg" xmlns:xlink="http://www.w3.org/1999/xlink" version="1.1" viewBox="0 0 100 100">
  <defs>
    <style>
      .cls-1, .cls-2, .cls-3 {
        fill: none;
      }

      .cls-4 {
        fill: #0082e3;
      }

      .cls-5 {
        fill: #17244e;
      }

      .cls-6 {
        fill: #ffd133;
      }

      .cls-7 {
        fill: #c4c9ee;
      }

      .cls-8 {
        fill: #ff9a78;
      }

      .cls-9 {
        fill: #006dc5;
      }

      .cls-10 {
        fill: #ec3169;
      }

      .cls-11 {
        fill: #ffb698;
      }

      .cls-2 {
        stroke-miterlimit: 10;
        stroke-width: 4px;
      }

      .cls-2, .cls-3 {
        stroke: #1e285d;
      }

      .cls-12 {
        fill: #7766e5;
      }

      .cls-13 {
        fill: #fd7881;
      }

      .cls-14 {
        fill: #757cad;
      }

      .cls-15 {
        fill: #707fad;
      }

      .cls-16 {
        fill: url(#Degradado_sin_nombre_16);
      }

      .cls-17 {
        fill: url(#Degradado_sin_nombre_25);
      }

      .cls-18 {
        clip-path: url(#clippath);
      }

      .cls-3 {
        stroke-linecap: round;
        stroke-linejoin: round;
      }
    </style>
    <clipPath id="clippath">
      <path class="cls-1" d="M52.4,17.2c-2.8.4-5.4,4.1-3.8,7.5,1.7,3.4,4.8,2.3,5.5,1.5,0,0-.9-.3-.7-1.7.2-1.4,1.6-1.4,1.6.2,0,0,3.1-1.1,2.6-4.2-.5-3.1-3.6-3.5-5.2-3.3Z"/>
    </clipPath>
    <linearGradient id="Degradado_sin_nombre_16" data-name="Degradado sin nombre 16" x1="46.9" y1="36.5" x2="50.4" y2="36.5" gradientUnits="userSpaceOnUse">
      <stop offset=".2" stop-color="#7766e5"/>
      <stop offset="1" stop-color="#4c39cd"/>
    </linearGradient>
    <linearGradient id="Degradado_sin_nombre_25" data-name="Degradado sin nombre 25" x1="46.6" y1="44.1" x2="44.2" y2="44.1" gradientUnits="userSpaceOnUse">
      <stop offset=".2" stop-color="#006dc5"/>
      <stop offset=".7" stop-color="#0059a1"/>
    </linearGradient>
  </defs>
  <!-- Generator: Adobe Illustrator 28.6.0, SVG Export Plug-In . SVG Version: 1.2.0 Build 709)  -->
  <g>
    <g id="_圖層_1" data-name="圖層_1">
      <g>
        <path class="cls-5" d="M35.1,44.1s-2.1-.8-2.6.7c-.5,1.5,3,3.1,4.4,3l-1.9-3.8Z"/>
        <path class="cls-14" d="M70.3,42c-1,0-.9.8-.9.8.1.8-.3,1.5-1,1.7l-2.3.7-.4.7.6.6,3.8-1.2c.7-.2,1.2-1,1-1.8l-.3-1.5c-.1,0-.3,0-.4,0h0Z"/>
        <path class="cls-8" d="M44.5,40.9s6.6,1.7,8.4,8.3c1.8,6.7-3,12-4.5,12.9l-2.2-2.5,1.8-3s1.7-2.2.4-5.8c-1.3-3.5-5.2-3.1-5.2-3.1,0,0-2.3-1.8-1.2-4.5,1.1-2.7,2.5-2.4,2.5-2.4Z"/>
        <path class="cls-9" d="M44.5,40.9s2.3.4,4.5,2.4c0,0-3.5,2-3.9,4l-1.9-3s.3-2.6.8-3,.5-.4.5-.4Z"/>
        <path class="cls-8" d="M52.7,36.5l-2.5-.9-.2,1.9s2.1,2.8,7.4,4.7c5.4,1.9,8.6.9,10.3.8l-11-4.2-4-2.2Z"/>
        <path class="cls-11" d="M57.6,20.1s.7.6.9,2.7c.1,2.1,1,2.9,1,2.9,0,0-.4.4-.8.4,0,0,.4,1.6-1.1,2.6-1.5,1-2.9.3-2.9.3,0,0-.4.9-1.7,1.4,0,0-1.3-1.6-2.5-1.7,0,0,1.1-.9,1.2-2.2,0,0,.1-4.2,2.5-6,2.3-1.8,3.5-.3,3.5-.3Z"/>
        <path class="cls-5" d="M52.4,17.2c-2.8.4-5.4,4.1-3.8,7.5,1.7,3.4,4.8,2.3,5.5,1.5,0,0-.9-.3-.7-1.7.2-1.4,1.6-1.4,1.6.2,0,0,3.1-1.1,2.6-4.2-.5-3.1-3.6-3.5-5.2-3.3Z"/>
        <path class="cls-5" d="M49.8,17.9s.2-2.6-3.5-3.1-8.3,1.3-11,2.7c-2.7,1.4-8.6,3.1-11.3.7,0,0,1.1,1.7,4.7,1.4,0,0-2.5,1.3-5.2-.4l-1,4.8s2,2.9,8.3,2.1c8.1-1,15.9-10,18.7-7.9l.5-.4Z"/>
        <path class="cls-11" d="M70.6,42l.3,1.5s2.1-.5,1.4-2.7c-.6-2.2-3.3-.8-3.6,0,0,0-6.8,2.8-13.7-7.8-3.1-4.7-5.9-1.2-5.9-1.2l-7.7,2.3s-1.3,1.2-2.6,1.9c0,0-.9,3.6,1,4.7,1.9,1.1,4.6.1,4.6.1,0,0,3.9-3.1,5.6-5,0,0,2.5,3.4,8.2,5.6,5.7,2.2,11.1,1.3,11.1,1.3,0,0,.1-.8,1.3-.7Z"/>
        <path class="cls-12" d="M51.1,37l4.1-4.1s-1.1-1.7-1.8-3.3-2.2-3-5.3-2c-3.1.9-7.3,4.9-8,5.8,0,0,5.9,4,8.4,6.3,0,0,1.6-1.9,2-3.3,0,0,.2.5.6.6Z"/>
        <polygon class="cls-13" points="70.1 69.2 64.3 47.1 64.8 46.4 64.3 44.3 65.8 43.9 66.6 46.7 66.1 47.5 71.6 68.8 70.1 69.2"/>
        <rect class="cls-13" x="43.4" y="53" width="23.5" height="1.6"/>
        <rect class="cls-13" x="23.7" y="59" width="23.4" height="1.6" transform="translate(-34.1 57.4) rotate(-57.5)"/>
        <polygon class="cls-13" points="50.8 72.4 30.2 72.4 30.2 70.8 50 70.8 62.4 53.4 63.7 54.3 50.8 72.4"/>
        <rect class="cls-13" x="21.9" y="55.2" width="15.9" height="1.6"/>
        <line class="cls-2" x1="50.8" y1="73.4" x2="56.1" y2="71.3"/>
        <g>
          <path class="cls-14" d="M71.8,59c6.9,0,12.6,5.7,12.6,12.6s-5.7,12.6-12.6,12.6-12.6-5.7-12.6-12.6,5.7-12.6,12.6-12.6M71.8,57.4c-7.8,0-14.2,6.4-14.2,14.2s6.4,14.2,14.2,14.2,14.2-6.4,14.2-14.2-6.4-14.2-14.2-14.2h0Z"/>
          <path class="cls-14" d="M71.8,69.2c1.3,0,2.3,1,2.3,2.3s-1,2.3-2.3,2.3-2.3-1-2.3-2.3,1-2.3,2.3-2.3M71.8,68.5c-1.7,0-3.1,1.4-3.1,3.1s1.4,3.1,3.1,3.1,3.1-1.4,3.1-3.1-1.4-3.1-3.1-3.1h0Z"/>
        </g>
        <path class="cls-14" d="M28.2,69.7c1,0,1.9.8,1.9,1.9s-.8,1.9-1.9,1.9-1.9-.8-1.9-1.9.8-1.9,1.9-1.9M28.2,68.9c-1.5,0-2.7,1.2-2.7,2.7s1.2,2.7,2.7,2.7,2.7-1.2,2.7-2.7-1.2-2.7-2.7-2.7h0Z"/>
        <path class="cls-14" d="M28.2,59c6.9,0,12.6,5.7,12.6,12.6s-5.7,12.6-12.6,12.6-12.6-5.7-12.6-12.6,5.7-12.6,12.6-12.6M28.2,57.4c-7.8,0-14.2,6.4-14.2,14.2s6.4,14.2,14.2,14.2,14.2-6.4,14.2-14.2-6.4-14.2-14.2-14.2h0Z"/>
        <path class="cls-3" d="M48.5,67.9l-20.6,1.1c-1.3,0-2.4,1.2-2.4,2.5h0c0,1.3,1,2.4,2.3,2.5l20.6,1.6c2.3.2,4.2-1.6,4.2-3.9h0c0-2.2-1.9-4-4.1-3.9Z"/>
        <path class="cls-11" d="M44.7,46.2l-5-.3-2.5,3.8s2.3,4.3,5.4,7.1c0,0,.7,6.1,7.8,13.7l1.2-.7s-3.3-12.1-4-14.3c-.7-2.2-2.9-9.2-2.9-9.2Z"/>
        <path class="cls-4" d="M44.5,40.9s-4-2.5-5.5-4.9c0,0-4.7,1.7-4.6,6.1.1,4.4,3.1,8.1,3.1,8.1,0,0,3.4-2.4,7.5-3.2,0,0-1.3-3.6-.5-6.2Z"/>
        <path class="cls-6" d="M51.6,69.8s3.3-1.4,4.2.7l-4.9,2s-.9-.5-.5-2l1.2-.7Z"/>
        <path class="cls-15" d="M49.5,18.1s-.1-1.3-1.4-2.4c-1.4-1.2-3.6-1.6-6.5-1.3-3.1.3-5.1,1.2-6.9,1.9-2.6,1.1-4.9,2.1-9.3.8h0c4.3,1.1,6.6.2,9.2-.9,1.8-.8,3.9-1.6,6.9-1.9,2.9-.3,5.1.1,6.5,1.3,1.3,1.1,1.4,2.5,1.4,2.5h0Z"/>
        <path class="cls-15" d="M28.7,23.6c-1.9,0-3.8-.3-6-1h0c8.2,2.5,12.4-.3,16.4-3.1,2-1.4,3.9-2.6,6.2-3.2,1.6-.4,2.6.2,3.3.8-.4-.5-1-1-1.7-1.4-1.4-.6-3-.5-4.9.2-1.5.6-2.9,1.4-4.3,2.2-3.8,2.1-7.8,4.4-14.7,3.1h0c6.9,1.2,10.8-1,14.6-3.2,1.4-.8,2.8-1.6,4.3-2.2,1.9-.8,3.6-.8,4.9-.2,1.9.8,2.6,2.7,2.6,2.7h0s-1.1-2.7-4-2c-2.3.5-4.1,1.8-6.1,3.2-2,1.4-4.1,2.8-6.7,3.5-1.2.4-2.5.5-3.9.5Z"/>
        <path class="cls-15" d="M31.6,27.4c0,0-.2,0-.3,0h0c4.9,0,10.6-4.5,13.6-7,.4-.3.8-.6,1.1-.9,2.4-1.9,3.4-.9,3.5-.9h0c0,0-1-.8-3.3,1-.3.2-.7.5-1.1.9-3,2.4-8.6,6.9-13.4,6.9Z"/>
        <g class="cls-18">
          <g>
            <path class="cls-15" d="M54.3,23.5h0s.1-2.6-1.3-4.1c-.7-.7-1.6-1-2.8-1h0c1.2-.1,2.1.2,2.8.9,1.5,1.5,1.4,4.1,1.4,4.2Z"/>
            <path class="cls-15" d="M53.5,24.4s-3.7-1.5-3.7-5.8h0c0,4.2,3.6,5.6,3.6,5.7h0Z"/>
            <path class="cls-15" d="M56.5,23.8h0s0-3.8-2-5.3c-1-.8-2.3-.9-4-.4h0c1.7-.6,3-.5,4,.3,2.1,1.6,2,5.4,2,5.4Z"/>
            <path class="cls-15" d="M53.5,26.7s-2.8-1-4-3.3c-.6-1.3-.6-2.8,0-4.5h0c-.6,1.6-.6,3.1,0,4.4,1.1,2.3,3.9,3.3,3.9,3.3h0Z"/>
            <path class="cls-15" d="M57.7,21.7s-.5-2.9-2.6-4c-1.4-.7-3.1-.4-5.1.7h0c2.1-1.2,3.8-1.4,5.2-.8,2.2,1.1,2.7,4,2.7,4h0Z"/>
          </g>
        </g>
        <path class="cls-10" d="M50.4,18.1s0-.5-.6-.2-.9.9-.3,1c0,0,.5-.6.9-.8Z"/>
        <path class="cls-16" d="M50.4,36.4s-1.1-.9-1-3.1c0,0-.2,3.7-2.6,5.2l1.5,1.3s1.6-1.9,2-3.3Z"/>
        <path class="cls-17" d="M45,47.3s-1.4-3.7-.6-6.4c0,0,.6.1,1.1.3,0,0,1.1,2.2,1.1,3.7,0,0-.9.9-1.2,1.4-.2.4-.4.8-.4,1Z"/>
        <path class="cls-7" d="M26.2,71.6c0-1.1.9-2,2-2s2,.9,2,2-.9,2-2,2-2-.9-2-2Z"/>
        <circle class="cls-7" cx="71.8" cy="71.6" r="2.3"/>
      </g>
    </g>
  </g>
</svg>