<?xml version="1.0" encoding="utf-8"?>
<!-- Generator: Adobe Illustrator 28.1.0, SVG Export Plug-In . SVG Version: 6.00 Build 0)  -->
<svg version="1.1" id="圖層_1" xmlns="http://www.w3.org/2000/svg" xmlns:xlink="http://www.w3.org/1999/xlink" x="0px" y="0px"
	 viewBox="0 0 226.4 129.4" style="enable-background:new 0 0 226.4 129.4;" xml:space="preserve">
<style type="text/css">
	.st0{fill:#F5EBD7;}
</style>
<path class="st0" d="M213.4,103.5h-44.8c-6.2-1-11-6.3-11-12.8c0-7,5.5-12.7,12.5-12.9h6.4c0.5,0,1.1,0,1.6-0.1h35.3
	c7.2,0,13-5.8,13-13s-5.8-13-13-13h-44.8c-6.2-1-11-6.3-11-12.8c0-7,5.5-12.7,12.5-12.9h6.4c7.2,0,13-5.8,13-13c0-7.2-5.8-13-13-13
	H51.3c-7.2,0-13,5.8-13,13c0,7.2,5.8,13,13,13h64.5c6.9,0.3,12.5,6,12.5,12.9c0,6.5-4.8,11.8-11,12.8H13c-7.2,0-13,5.8-13,13
	s5.8,13,13,13h36.7c0.5,0.1,1.1,0.1,1.6,0.1h31.1c6.9,0.3,12.5,6,12.5,12.9c0,6.5-4.8,11.8-11,12.8H62.4c-7.2,0-13,5.8-13,13
	s5.8,13,13,13h151c7.2,0,13-5.8,13-13S220.6,103.5,213.4,103.5z"/>
</svg>
