<?xml version="1.0" encoding="UTF-8"?>
<svg xmlns="http://www.w3.org/2000/svg" version="1.1" viewBox="0 0 472.6 472.6">
  <defs>
    <style>
      .cls-1 {
        fill: #fff;
      }
    </style>
  </defs>
  <!-- Generator: Adobe Illustrator 28.6.0, SVG Export Plug-In . SVG Version: 1.2.0 Build 709)  -->
  <g>
    <g id="Capa_1">
      <g>
        <path class="cls-1" d="M420.7,159.4c-9.1,0-17.5,2.9-24.4,7.8-4.6-18.9-21.5-32.9-41.6-32.9s-19.3,3.5-26.7,9.5c-6.6-15.4-21.7-26.2-39.4-26.2s-16.5,2.5-23.2,6.9V43.4c0-23.9-19.2-43.4-42.9-43.4s-42.9,19.5-42.9,43.4v220.5l-24.7-23.3c-11.2-11.3-26-17.4-41.8-17.4h-.2c-15.9,0-30.8,6.4-42,17.8-10.2,10.4-10.1,27.2,0,37.5l146.1,147.7c26.8,29.5,64.8,46.5,104.4,46.5,78.3,0,141.9-64.6,141.9-144v-125.8c0-23.9-19.2-43.4-42.9-43.4ZM443.9,244.7v83.9c0,68.6-54.8,124.4-122.2,124.4s-67-14.7-90.1-40.3c0,0-.1-.1-.2-.2,0,0,0,0-.1-.1l-146.1-147.7c-2.7-2.7-2.7-7.2,0-9.9,7.5-7.6,17.4-11.8,28-11.9h0c10.5,0,20.4,4.2,27.9,11.7,0,0,.2.2.3.2l41.5,39c2.9,2.7,7.1,3.4,10.7,1.9,3.6-1.6,5.9-5.1,5.9-9V43.4c0-13.1,10.4-23.7,23.2-23.7s23.2,10.6,23.2,23.7v142.6s0,0,0,0v8.4c0,5.4,4.4,9.8,9.8,9.8s9.8-4.4,9.8-9.8v-33.6c0-13.1,10.4-23.7,23.2-23.7s23.2,10.6,23.2,23.7v50.3c0,5.4,4.4,9.8,9.8,9.8s9.8-4.4,9.8-9.8v-33.6c0-13.1,10.4-23.7,23.2-23.7s23.2,10.6,23.2,23.7v50.3c0,5.4,4.4,9.8,9.8,9.8s9.8-4.4,9.8-9.8v-25.2c0-13.1,10.4-23.7,23.2-23.7s23.2,10.6,23.2,23.7v41.9h0Z"/>
        <path class="cls-1" d="M92.2,200.1c0-5.4-4.4-9.8-9.8-9.8h-39.6l102.3-102.3v39.6c0,5.4,4.4,9.8,9.8,9.8s9.8-4.4,9.8-9.8v-63.4c0-5.4-4.4-9.8-9.8-9.8h-63.4c-5.4,0-9.8,4.4-9.8,9.8s4.4,9.8,9.8,9.8h39.6L28.8,176.3v-39.6c0-5.4-4.4-9.8-9.8-9.8s-9.8,4.4-9.8,9.8v63.4c0,.3,0,.7,0,1,0,.1,0,.3,0,.4,0,.2,0,.4,0,.6,0,.2,0,.3.1.5,0,.2,0,.3.1.5,0,.2.1.3.2.4,0,.2.1.3.2.5,0,.1.1.3.2.4,0,.2.1.3.2.5,0,.1.1.2.2.4,0,.2.2.3.3.5,0,.1.2.2.3.4,0,.1.2.3.3.4.2.2.3.4.5.6,0,0,0,0,.1.1s0,0,.1.1c.2.2.4.4.6.5.1.1.3.2.4.3.1,0,.3.2.4.3.1,0,.3.2.4.3.1,0,.3.2.4.2.1,0,.3.1.5.2.1,0,.3.1.4.2.1,0,.3.1.4.2.2,0,.3.1.5.2.1,0,.3,0,.4.1.2,0,.3,0,.5.1.2,0,.3,0,.5,0,.1,0,.3,0,.4,0,.3,0,.6,0,1,0h63.4c5.4,0,9.8-4.4,9.8-9.8Z"/>
      </g>
    </g>
  </g>
</svg>